<svg width="32" height="32" viewBox="0 0 32 32" fill="none" xmlns="http://www.w3.org/2000/svg">
<path d="M17.2003 3.73281L20.4003 9.33281C20.8003 9.99948 21.4669 10.3995 22.1336 10.6661L28.4003 11.9995C29.4669 12.2661 29.8669 13.4661 29.0669 14.2661L24.8003 19.0661C24.2669 19.5995 24.0003 20.3995 24.1336 21.1995L24.8003 27.5995C24.9336 28.6661 23.8669 29.3328 22.9336 28.9328L17.0669 26.2661C16.4003 25.9995 15.6003 25.9995 14.9336 26.2661L9.06692 28.9328C8.13359 29.3328 7.06692 28.5328 7.20025 27.5995L7.86692 21.1995C8.00026 20.3995 7.73359 19.7328 7.20025 19.0661L2.93359 14.2661C2.26692 13.4661 2.66692 12.2661 3.60026 11.9995L9.86692 10.6661C10.6669 10.5328 11.2003 9.99948 11.6003 9.33281L14.8003 3.73281C15.3336 2.93281 16.6669 2.93281 17.2003 3.73281Z" fill="white" fill-opacity="0.2" stroke="white" stroke-width="2" stroke-miterlimit="10" stroke-linecap="round" stroke-linejoin="round"/>
</svg>
