<svg width="197" height="48" viewBox="0 0 197 48" fill="none" xmlns="http://www.w3.org/2000/svg">
<g clip-path="url(#clip0)">
<path d="M56.3921 0V30.2966H62.416V17.5574H75.0806V12.9217H62.416V4.81825H75.0806V0H56.3921Z" fill="white"/>
<path d="M87.0921 10.2935H81.0682V30.2965H87.0921V10.2935Z" fill="white"/>
<path d="M118.59 0H112.566V20.7696L99.1035 0H93.0796V30.2966H99.1035V9.70951L112.566 30.2966H118.59V0Z" fill="white"/>
<path d="M124.469 0V17.7399C124.469 21.9376 125.558 25.1133 127.699 27.3034C129.84 29.4935 132.743 30.5521 136.372 30.5521C138.694 30.5521 140.799 30.0776 142.613 29.1285C144.464 28.1795 145.879 26.7559 146.932 24.8213C147.984 22.8867 148.492 20.5141 148.492 17.7399V0H142.541V17.7399C142.541 20.1125 142.033 21.9011 140.98 23.0692C139.928 24.2738 138.44 24.8578 136.517 24.8578C134.557 24.8578 133.069 24.2738 132.017 23.0692C130.965 21.9011 130.457 20.1125 130.457 17.7399V0H124.469Z" fill="white"/>
<path d="M179.555 0L170.7 22.7772L161.628 0H154.334V30.2966H160.358V9.23498L168.015 30.2966H173.204L180.825 9.16198V30.2966H186.812V0H179.555Z" fill="white"/>
<path d="M87.0921 0H81.0682V6.05932H87.0921V0Z" fill="white"/>
<path d="M47.5741 0H0V47.854H47.5741V0ZM45.8685 46.1384H14.8782L24.9664 16.2433L23.2246 15.6228L12.9187 46.1384H9.9793L19.5957 17.5939L17.8539 17.0099L8.01973 46.1384H5.08037L14.2613 18.9445L12.4832 18.3605L3.15709 46.1384H1.70555V1.71559H32.7684L22.6802 31.6106L24.4584 32.2312L34.728 1.71559H37.6673L28.0146 30.2966L29.7927 30.8806L39.6269 1.71559H42.5663L33.3853 28.9095L35.1271 29.4935L44.4895 1.67909H45.8322V46.1384H45.8685Z" fill="white"/>
<path d="M56.3921 0V30.2966H62.416V17.5574H75.0806V12.9217H62.416V4.81825H75.0806V0H56.3921Z" fill="white"/>
<path d="M56.3921 0V30.2966H62.416V17.5574H75.0806V12.9217H62.416V4.81825H75.0806V0H56.3921Z" fill="white"/>
<path d="M196.683 26.3909H192.691V30.2966H196.683V26.3909Z" fill="white"/>
<path d="M57.9162 42.5246V47.8538H56.3921V36.2097H57.9162V41.612L62.7063 36.2097H64.6295L59.3677 42.05L64.6658 47.8538H62.7063L57.9162 42.5246Z" fill="white"/>
<path d="M69.093 35.4797H70.6171V47.8539H69.093V35.4797Z" fill="white"/>
<path d="M76.387 36.1734C76.387 35.5894 76.8224 35.1514 77.403 35.1514C77.9474 35.1514 78.3828 35.5894 78.3828 36.1734C78.3828 36.7574 77.9474 37.1955 77.403 37.1955C76.8224 37.1955 76.387 36.7574 76.387 36.1734ZM76.6047 38.692H78.1288V47.854H76.6047V38.692Z" fill="white"/>
<path d="M90.8298 42.6709C90.8298 40.8093 89.8137 39.8602 88.2896 39.8602C86.7292 39.8602 85.6768 40.8458 85.6768 42.8169V47.8906H84.1527V38.6922H85.6768V40.0062C86.2574 39.0572 87.3824 38.5461 88.6162 38.5461C90.7209 38.5461 92.3539 39.8602 92.3539 42.4883V47.8906H90.8661V42.6709H90.8298Z" fill="white"/>
<path d="M98.0149 36.1734C98.0149 35.5894 98.4504 35.1514 99.031 35.1514C99.5753 35.1514 100.011 35.5894 100.011 36.1734C100.011 36.7574 99.5753 37.1955 99.031 37.1955C98.4504 37.1955 98.0149 36.7574 98.0149 36.1734ZM98.2689 38.692H99.793V47.854H98.2689V38.692Z" fill="white"/>
<path d="M105.781 35.4797H107.305V42.7436L110.825 38.6919H112.929L108.647 43.2546L112.966 47.8539H110.897L107.341 43.8022V47.8539H105.817V35.4797H105.781Z" fill="white"/>
<path d="M126.429 36.283H128.062L132.307 45.8465L136.553 36.283H138.15V47.8541H136.626V39.2396L132.815 47.8541H131.763L127.916 39.2031V47.8541H126.392V36.283H126.429Z" fill="white"/>
<path d="M147.657 38.5461C149.363 38.5461 150.524 39.4222 151.032 40.3712V38.6922H152.556V47.8541H151.032V46.1385C150.488 47.1241 149.29 48.0001 147.621 48.0001C145.19 48.0001 143.303 46.0655 143.303 43.2184C143.339 40.3712 145.226 38.5461 147.657 38.5461ZM147.984 39.8602C146.315 39.8602 144.899 41.0648 144.899 43.2549C144.899 45.445 146.315 46.6861 147.984 46.6861C149.653 46.6861 151.068 45.445 151.068 43.2914C151.068 41.1378 149.617 39.8602 147.984 39.8602Z" fill="white"/>
<path d="M158.87 35.4797H160.394V42.7436L163.914 38.6919H166.019L161.737 43.2546L166.055 47.8539H163.987L160.394 43.8022V47.8539H158.87V35.4797Z" fill="white"/>
<path d="M170.882 35.4797H172.406V47.8539H170.882V35.4797Z" fill="white"/>
<path d="M182.385 48.0001C179.809 48.0001 177.885 46.175 177.885 43.2549C177.885 40.3712 179.736 38.5461 182.385 38.5461C185.034 38.5461 186.74 40.4077 186.74 42.9264C186.74 43.2549 186.74 43.5104 186.704 43.8389H179.41C179.518 45.7005 180.825 46.7226 182.385 46.7226C183.764 46.7226 184.599 46.029 184.962 45.0435H186.595C186.087 46.6861 184.635 48.0001 182.385 48.0001ZM179.446 42.5979H185.179C185.179 40.8093 183.873 39.8237 182.313 39.8237C180.825 39.8237 179.591 40.8093 179.446 42.5979Z" fill="white"/>
<path d="M193.707 47.8541H192.183V38.6922H193.707V40.1887C194.215 39.1667 195.195 38.5461 196.647 38.5461V40.1157H196.247C194.796 40.1157 193.707 40.7728 193.707 42.8899V47.8541Z" fill="white"/>
</g>
<defs>
<clipPath id="clip0">
<rect width="196.683" height="48" fill="white"/>
</clipPath>
</defs>
</svg>
