<svg width="281" height="36" viewBox="0 0 281 36" fill="none" xmlns="http://www.w3.org/2000/svg">
<path d="M29.9448 28.3379C29.4425 30.9714 29.0168 33.2077 28.8517 34.0763H48.3897V28.3379H29.9448ZM0.000976562 28.3901V34.1285H19.4004L18.1059 28.3901H0.000976562Z" fill="#FF6600"/>
<path d="M9.53272 15.233L8.12078 9.29672H20.1678L24.0692 26.3373H24.2357L26.6936 15.4213C27.9321 10.465 28.4 9.29672 35.3799 9.29672H40.4002C40.4002 9.29672 39.386 13.8654 38.124 18.8231C37.6437 20.7144 33.4519 20.4903 33.6611 18.7241C33.6831 18.54 33.8813 17.2109 34.0382 16.2652C34.2666 14.9045 32.6771 14.7341 32.3909 16.0811C32.1872 17.0459 31.2666 21.8345 30.4065 26.3373H48.3902V1.86914H0V26.3373H17.5613L15.0594 15.2413L9.53272 15.233V15.233Z" fill="#0066B3"/>
<path d="M65.3005 15.3992H68.3434L72.5008 3.0508H70.0417L66.9104 12.7455H66.875L63.7083 3.0508H61.0547L65.3005 15.3992Z" fill="#0066B3"/>
<path d="M72.1701 10.9056C72.1701 13.5239 73.9215 15.6114 76.929 15.6114C79.9541 15.6114 81.7055 13.5239 81.7055 10.9056C81.7055 7.89814 79.6357 6.07597 76.929 6.07597C74.2399 6.07597 72.1701 7.89814 72.1701 10.9056ZM74.6468 10.6226C74.6468 9.26036 75.3898 7.91584 76.929 7.91584C78.4858 7.91584 79.2288 9.22497 79.2288 10.6226C79.2288 12.144 78.7511 13.7716 76.929 13.7716C75.1245 13.7716 74.6468 12.1263 74.6468 10.6226Z" fill="#0066B3"/>
<path d="M83.4451 15.3992H85.8157V2.13086H83.4451V15.3992Z" fill="#0066B3"/>
<path d="M88.1919 15.3992H90.5625V10.9764H90.5979L93.6408 15.3992H96.6483L92.827 10.3572L96.2237 6.28826H93.4285L90.5979 9.93262H90.5625V2.13086H88.1919V15.3992Z" fill="#0066B3"/>
<path d="M103.365 6.4121C102.622 6.25288 101.897 6.07597 100.782 6.07597C98.9245 6.07597 97.2084 6.94283 97.2084 8.90653C97.2084 12.1971 101.33 10.9764 101.33 12.7632C101.33 13.6477 100.375 13.8777 99.7736 13.8777C98.9599 13.8777 98.1815 13.6477 97.4384 13.2762L97.2969 15.2222C98.1638 15.4522 99.0837 15.6114 99.9859 15.6114C101.914 15.6114 103.807 14.7623 103.807 12.6393C103.807 9.34881 99.6852 10.2687 99.6852 8.81808C99.6852 8.03967 100.446 7.80969 101.083 7.80969C101.95 7.80969 102.48 7.95122 103.206 8.19889L103.365 6.4121Z" fill="#0066B3"/>
<path d="M107.864 10.8172C107.864 9.54341 108.466 7.91584 109.987 7.91584C111.526 7.91584 111.951 9.59649 111.951 10.8172C111.951 12.0732 111.509 13.7716 109.952 13.7716C108.377 13.7716 107.864 12.1086 107.864 10.8172ZM105.476 15.3992H107.776V14.2846H107.811C108.501 15.2576 109.598 15.6114 110.607 15.6114C113.402 15.6114 114.428 13.3116 114.428 10.8172C114.428 8.30504 113.402 6.07597 110.607 6.07597C109.368 6.07597 108.537 6.58901 107.882 7.45587H107.847V2.13086H105.476V15.3992Z" fill="#0066B3"/>
<path d="M116.592 8.80039C117.388 8.19889 118.396 7.80969 119.405 7.80969C120.802 7.80969 121.457 8.30504 121.457 9.7734H120.148C119.157 9.7734 117.989 9.86185 117.087 10.3041C116.185 10.7464 115.53 11.5425 115.53 12.9047C115.53 14.6384 117.105 15.6114 118.715 15.6114C119.794 15.6114 120.979 15.0453 121.528 14.0369H121.563C121.581 14.32 121.581 14.9215 121.669 15.3992H123.757C123.704 14.6915 123.668 14.0546 123.651 13.3647C123.633 12.6924 123.615 12.0025 123.615 11.0825V9.91492C123.615 7.22588 122.465 6.07597 119.688 6.07597C118.679 6.07597 117.441 6.34133 116.521 6.76592L116.592 8.80039ZM117.795 12.7632C117.795 11.3656 119.369 11.1887 120.431 11.1887H121.457C121.457 11.8963 121.351 12.5509 120.962 13.0639C120.59 13.5593 120.024 13.8777 119.299 13.8777C118.449 13.8777 117.795 13.5416 117.795 12.7632Z" fill="#0066B3"/>
<path d="M125.768 15.3992H128.138V10.941C128.138 9.7734 128.51 7.91584 130.226 7.91584C131.747 7.91584 131.765 9.41957 131.765 10.5341V15.3992H134.135V9.64956C134.135 7.5974 133.198 6.07597 131.04 6.07597C129.801 6.07597 128.793 6.48286 128.05 7.52663H128.014V6.28826H125.768V15.3992Z" fill="#0066B3"/>
<path d="M136.459 15.3992H138.829V10.9764H138.865L141.908 15.3992H144.915L141.094 10.3572L144.491 6.28826H141.695L138.865 9.93262H138.829V2.13086H136.459V15.3992Z" fill="#0066B3"/>
<path d="M64.7873 28.3502H65.9549C67.1933 28.3502 68.5024 28.5979 68.5024 30.2078C68.5024 31.6408 67.1048 31.9238 65.9549 31.9238H64.7873V28.3502ZM64.7873 23.4675H65.7426C66.8748 23.4675 68.1309 23.5737 68.1309 25.0066C68.1309 26.2804 66.8395 26.5104 65.7957 26.5104H64.7873V23.4675ZM62.3105 33.8699H66.6272C68.184 33.8699 70.9792 33.4099 70.9792 30.2963C70.9792 28.7748 69.8292 27.6426 68.1486 27.4834V27.448C69.617 27.1826 70.6077 26.1566 70.6077 24.6882C70.6077 21.9815 68.2194 21.5215 66.6272 21.5215H62.3105V33.8699Z" fill="#0066B3"/>
<path d="M72.7895 33.8699H75.1601V30.5262C75.1601 29.2171 75.1601 26.8111 77.0884 26.8111C77.513 26.8111 77.9376 26.8819 78.1498 27.0057V24.6174C77.9022 24.5467 77.6545 24.5467 77.4245 24.5467C76.0092 24.5467 75.0362 25.9796 74.9301 26.8288H74.8947V24.759H72.7895V33.8699Z" fill="#0066B3"/>
<path d="M87.8034 24.759H85.4328V29.2171C85.4328 30.3847 85.0612 32.2423 83.3452 32.2423C81.8238 32.2423 81.8061 30.7385 81.8061 29.624V24.759H79.4355V30.5086C79.4355 32.5607 80.3731 34.0821 82.5314 34.0821C83.7698 34.0821 84.7959 33.516 85.5212 32.6315H85.5566V33.8699H87.8034V24.759Z" fill="#0066B3"/>
<path d="M96.1947 24.8474C95.5402 24.6528 94.8502 24.5467 93.8949 24.5467C91.0466 24.5467 89.4898 26.6342 89.4898 29.2702C89.4898 32.0477 90.9936 34.0821 93.9833 34.0821C94.9564 34.0821 95.664 33.9937 96.354 33.7814L96.2478 31.8177C95.8409 31.9946 95.0979 32.2423 94.4256 32.2423C92.7627 32.2423 91.9666 30.9508 91.9666 29.2702C91.9666 27.5541 92.9042 26.3865 94.3725 26.3865C95.0979 26.3865 95.5579 26.5281 95.9824 26.7227L96.1947 24.8474Z" fill="#0066B3"/>
<path d="M97.7575 33.8699H100.128V29.4117C100.128 28.2441 100.5 26.3865 102.216 26.3865C103.737 26.3865 103.755 27.8903 103.755 29.0048V33.8699H106.125V28.1203C106.125 26.0681 105.188 24.5467 103.029 24.5467C101.791 24.5467 100.765 25.1128 100.163 25.9973H100.128V20.6016H97.7575V33.8699Z" fill="#0066B3"/>
<path d="M113.968 24.8828C113.225 24.7236 112.5 24.5467 111.385 24.5467C109.528 24.5467 107.812 25.4135 107.812 27.3772C107.812 30.6678 111.934 29.4471 111.934 31.2339C111.934 32.1184 110.979 32.3484 110.377 32.3484C109.563 32.3484 108.785 32.1184 108.042 31.7469L107.9 33.6929C108.767 33.9229 109.687 34.0821 110.589 34.0821C112.518 34.0821 114.411 33.233 114.411 31.11C114.411 27.8195 110.289 28.7394 110.289 27.2888C110.289 26.5104 111.049 26.2804 111.686 26.2804C112.553 26.2804 113.084 26.4219 113.809 26.6696L113.968 24.8828Z" fill="#0066B3"/>
<path d="M116.557 27.2711C117.353 26.6696 118.362 26.2804 119.37 26.2804C120.768 26.2804 121.422 26.7757 121.422 28.2441H120.113C119.122 28.2441 117.955 28.3326 117.052 28.7748C116.15 29.2171 115.496 30.0132 115.496 31.3754C115.496 33.1091 117.07 34.0821 118.68 34.0821C119.759 34.0821 120.945 33.516 121.493 32.5076H121.528C121.546 32.7907 121.546 33.3922 121.634 33.8699H123.722C123.669 33.1622 123.634 32.5253 123.616 31.8354C123.598 31.1631 123.58 30.4732 123.58 29.5532V28.3856C123.58 25.6966 122.431 24.5467 119.653 24.5467C118.645 24.5467 117.406 24.812 116.486 25.2366L116.557 27.2711ZM117.76 31.2339C117.76 29.8363 119.335 29.6594 120.396 29.6594H121.422C121.422 30.367 121.316 31.0216 120.927 31.5346C120.555 32.03 119.989 32.3484 119.264 32.3484C118.415 32.3484 117.76 32.0123 117.76 31.2339Z" fill="#0066B3"/>
<path d="M125.786 33.8699H128.157V20.6016H125.786V33.8699Z" fill="#0066B3"/>
<path d="M134.531 30.084V28.138H129.878V30.084H134.531Z" fill="#0066B3"/>
<path d="M138.883 28.3502H140.051C141.289 28.3502 142.598 28.5979 142.598 30.2078C142.598 31.6408 141.201 31.9238 140.051 31.9238H138.883V28.3502ZM138.883 23.4675H139.838C140.971 23.4675 142.227 23.5737 142.227 25.0066C142.227 26.2804 140.935 26.5104 139.892 26.5104H138.883V23.4675ZM136.406 33.8699H140.723C142.28 33.8699 145.075 33.4099 145.075 30.2963C145.075 28.7748 143.925 27.6426 142.244 27.4834V27.448C143.713 27.1826 144.703 26.1566 144.703 24.6882C144.703 21.9815 142.315 21.5215 140.723 21.5215H136.406V33.8699Z" fill="#0066B3"/>
<path d="M146.885 33.8699H149.256V30.5262C149.256 29.2171 149.256 26.8111 151.184 26.8111C151.609 26.8111 152.033 26.8819 152.246 27.0057V24.6174C151.998 24.5467 151.75 24.5467 151.52 24.5467C150.105 24.5467 149.132 25.9796 149.026 26.8288H148.991V24.759H146.885V33.8699Z" fill="#0066B3"/>
<path d="M154.901 28.421C155.007 27.2003 155.679 26.2804 157.006 26.2804C158.333 26.2804 158.864 27.2711 158.935 28.421H154.901ZM160.527 31.4285C159.642 31.9238 158.651 32.3484 157.502 32.3484C156.033 32.3484 155.007 31.5169 154.901 30.0486H161.199C161.199 26.8642 160.244 24.5467 156.865 24.5467C154.034 24.5467 152.637 26.7227 152.637 29.3586C152.637 32.3484 154.388 34.0821 157.395 34.0821C158.669 34.0821 159.66 33.8345 160.527 33.3568V31.4285Z" fill="#0066B3"/>
<path d="M163.652 31.1277C163.652 32.9322 164.678 34.0821 166.536 34.0821C167.243 34.0821 167.792 34.0114 168.287 33.8699L168.216 31.9946C167.969 32.1538 167.562 32.2423 167.137 32.2423C166.235 32.2423 166.023 31.5169 166.023 30.7385V26.4927H168.128V24.759H166.023V22.1761L163.652 22.9368V24.759H161.901V26.4927H163.652V31.1277Z" fill="#0066B3"/>
<path d="M170.351 31.1277C170.351 32.9322 171.377 34.0821 173.235 34.0821C173.943 34.0821 174.491 34.0114 174.986 33.8699L174.916 31.9946C174.668 32.1538 174.261 32.2423 173.836 32.2423C172.934 32.2423 172.722 31.5169 172.722 30.7385V26.4927H174.827V24.759H172.722V22.1761L170.351 22.9368V24.759H168.6V26.4927H170.351V31.1277Z" fill="#0066B3"/>
<path d="M177.953 28.421C178.059 27.2003 178.731 26.2804 180.058 26.2804C181.385 26.2804 181.915 27.2711 181.986 28.421H177.953ZM183.578 31.4285C182.694 31.9238 181.703 32.3484 180.553 32.3484C179.085 32.3484 178.059 31.5169 177.953 30.0486H184.251C184.251 26.8642 183.295 24.5467 179.916 24.5467C177.086 24.5467 175.688 26.7227 175.688 29.3586C175.688 32.3484 177.44 34.0821 180.447 34.0821C181.721 34.0821 182.711 33.8345 183.578 33.3568V31.4285Z" fill="#0066B3"/>
<path d="M185.925 33.8699H188.296V29.4117C188.296 28.2441 188.667 26.3865 190.383 26.3865C191.905 26.3865 191.923 27.8903 191.923 29.0048V33.8699H194.293V28.1203C194.293 26.0681 193.356 24.5467 191.197 24.5467C189.959 24.5467 188.95 24.9536 188.207 25.9973H188.172V24.759H185.925V33.8699Z" fill="#0066B3"/>
<path d="M202.991 28.421C203.097 27.2003 203.769 26.2804 205.096 26.2804C206.423 26.2804 206.954 27.2711 207.025 28.421H202.991ZM208.617 31.4285C207.732 31.9238 206.741 32.3484 205.592 32.3484C204.123 32.3484 203.097 31.5169 202.991 30.0486H209.289C209.289 26.8642 208.334 24.5467 204.955 24.5467C202.124 24.5467 200.726 26.7227 200.726 29.3586C200.726 32.3484 202.478 34.0821 205.485 34.0821C206.759 34.0821 207.75 33.8345 208.617 33.3568V31.4285Z" fill="#0066B3"/>
<path d="M220.977 21.8222C219.915 21.5038 218.783 21.3092 217.35 21.3092C213.157 21.3092 210.574 23.6798 210.574 27.908C210.574 32.0831 213.352 34.0821 217.35 34.0821C218.677 34.0821 220.039 33.7991 221.348 33.4453V26.7934H216.359V28.7394H218.978V31.9592C218.553 32.0654 218.022 32.1361 217.35 32.1361C214.714 32.1361 213.157 30.2432 213.157 27.7311C213.157 25.2012 214.75 23.2552 217.633 23.2552C218.624 23.2552 219.862 23.4675 220.818 23.9098L220.977 21.8222Z" fill="#0066B3"/>
</svg>
