<svg width="96" height="96" viewBox="0 0 96 96" fill="none" xmlns="http://www.w3.org/2000/svg">
<rect width="96" height="96" rx="48" fill="url(#paint0_radial)"/>
<rect width="96" height="96" rx="48" fill="url(#paint1_radial)"/>
<path d="M60.1895 67.1996C60.1895 68.8758 58.8181 70.2472 57.1419 70.2472H38.8562C37.18 70.2472 35.8086 68.8758 35.8086 67.1996V28.7996C35.8086 27.1234 37.18 25.752 38.8562 25.752H57.1419C58.8181 25.752 60.1895 27.1234 60.1895 28.7996V67.1996Z" stroke="#FFC757" stroke-width="2.28571" stroke-miterlimit="10" stroke-linecap="round" stroke-linejoin="round"/>
<path d="M47.9985 66.286C49.0084 66.286 49.8271 65.4674 49.8271 64.4575C49.8271 63.4476 49.0084 62.6289 47.9985 62.6289C46.9886 62.6289 46.1699 63.4476 46.1699 64.4575C46.1699 65.4674 46.9886 66.286 47.9985 66.286Z" stroke="#FFC757" stroke-width="2.28571" stroke-miterlimit="10" stroke-linecap="round" stroke-linejoin="round"/>
<path d="M45.5605 29.7129H50.4367" stroke="#FFC757" stroke-width="2.28571" stroke-miterlimit="10" stroke-linecap="round" stroke-linejoin="round"/>
<defs>
<radialGradient id="paint0_radial" cx="0" cy="0" r="1" gradientUnits="userSpaceOnUse" gradientTransform="translate(-4.77144e-06 96) rotate(-45) scale(135.765 90.6552)">
<stop offset="0.263029" stop-color="white" stop-opacity="0.24"/>
<stop offset="0.810988" stop-color="white" stop-opacity="0"/>
</radialGradient>
<radialGradient id="paint1_radial" cx="0" cy="0" r="1" gradientUnits="userSpaceOnUse" gradientTransform="translate(-4.77144e-06 96) rotate(-45) scale(135.765 90.6552)">
<stop offset="0.263029" stop-color="#FFE450" stop-opacity="0.24"/>
<stop offset="0.810988" stop-color="#FFE450" stop-opacity="0"/>
</radialGradient>
</defs>
</svg>
