<svg width="229" height="30" viewBox="0 0 229 30" fill="none" xmlns="http://www.w3.org/2000/svg">
<rect width="210.141" height="26" transform="translate(0 2)" fill="#FAFAFA"/>
<path d="M24.3313 23.4004C23.9232 25.5401 23.5773 27.3571 23.4432 28.0629H39.3178V23.4004H24.3313ZM0.00195312 23.4428V28.1053H15.764L14.7122 23.4428H0.00195312Z" fill="black" fill-opacity="0.7"/>
<path d="M7.74534 12.7527L6.59813 7.92944H16.3863L19.5562 21.7749H19.6915L21.6885 12.9057C22.6948 8.87868 23.075 7.92944 28.7462 7.92944H32.8252C32.8252 7.92944 32.0011 11.6415 30.9758 15.6696C30.5855 17.2063 27.1797 17.0242 27.3496 15.5892C27.3675 15.4396 27.5285 14.3597 27.656 13.5914C27.8416 12.4858 26.5502 12.3473 26.3176 13.4417C26.1521 14.2257 25.4041 18.1164 24.7052 21.7749H39.3171V1.89453H0V21.7749H14.2686L12.2358 12.7594L7.74534 12.7527V12.7527Z" fill="black" fill-opacity="0.7"/>
<path d="M53.0572 12.886H55.5295L58.9074 2.85292H56.9094L54.3652 10.7299H54.3365L51.7635 2.85292H49.6074L53.0572 12.886Z" fill="black" fill-opacity="0.7"/>
<path d="M58.6387 9.23496C58.6387 11.3623 60.0617 13.0584 62.5053 13.0584C64.9632 13.0584 66.3862 11.3623 66.3862 9.23496C66.3862 6.79139 64.7045 5.31087 62.5053 5.31087C60.3204 5.31087 58.6387 6.79139 58.6387 9.23496ZM60.651 9.00498C60.651 7.89818 61.2547 6.80576 62.5053 6.80576C63.7702 6.80576 64.3739 7.86944 64.3739 9.00498C64.3739 10.2411 63.9858 11.5635 62.5053 11.5635C61.0391 11.5635 60.651 10.2268 60.651 9.00498Z" fill="black" fill-opacity="0.7"/>
<path d="M67.7996 12.886H69.7257V2.10547H67.7996V12.886Z" fill="black" fill-opacity="0.7"/>
<path d="M71.6564 12.886H73.5826V9.29246H73.6113L76.0836 12.886H78.5272L75.4224 8.78937L78.1822 5.48335H75.9111L73.6113 8.4444H73.5826V2.10547H71.6564V12.886Z" fill="black" fill-opacity="0.7"/>
<path d="M83.9845 5.58397C83.3808 5.45461 82.7914 5.31087 81.8859 5.31087C80.3766 5.31087 78.9823 6.01519 78.9823 7.6107C78.9823 10.2843 82.3315 9.29246 82.3315 10.7442C82.3315 11.4629 81.5553 11.6498 81.0666 11.6498C80.4054 11.6498 79.7729 11.4629 79.1692 11.1611L79.0542 12.7422C79.7585 12.9291 80.506 13.0584 81.2391 13.0584C82.8058 13.0584 84.3438 12.3685 84.3438 10.6436C84.3438 7.97005 80.9947 8.7175 80.9947 7.53883C80.9947 6.90638 81.6128 6.71952 82.1302 6.71952C82.8346 6.71952 83.2658 6.83451 83.8551 7.03575L83.9845 5.58397Z" fill="black" fill-opacity="0.7"/>
<path d="M87.6403 9.16309C87.6403 8.12817 88.129 6.80576 89.3652 6.80576C90.6157 6.80576 90.9607 8.17129 90.9607 9.16309C90.9607 10.1836 90.6013 11.5635 89.3364 11.5635C88.0571 11.5635 87.6403 10.2124 87.6403 9.16309ZM85.6998 12.886H87.5684V11.9804H87.5972C88.1578 12.771 89.049 13.0584 89.8683 13.0584C92.1394 13.0584 92.9731 11.1898 92.9731 9.16309C92.9731 7.12199 92.1394 5.31087 89.8683 5.31087C88.8621 5.31087 88.1865 5.72771 87.6547 6.43204H87.6259V2.10547H85.6998V12.886Z" fill="black" fill-opacity="0.7"/>
<path d="M94.7314 7.52446C95.3782 7.03575 96.1975 6.71952 97.0169 6.71952C98.1524 6.71952 98.6842 7.12199 98.6842 8.31503H97.6206C96.8156 8.31503 95.8669 8.3869 95.1339 8.74625C94.4008 9.1056 93.869 9.75243 93.869 10.8592C93.869 12.2679 95.1482 13.0584 96.4563 13.0584C97.3331 13.0584 98.2961 12.5985 98.7417 11.7792H98.7705C98.7849 12.0091 98.7849 12.4979 98.8567 12.886H100.553C100.51 12.311 100.481 11.7935 100.467 11.2329C100.452 10.6867 100.438 10.1262 100.438 9.3787V8.43002C100.438 6.24518 99.5036 5.31087 97.2468 5.31087C96.4275 5.31087 95.4213 5.52648 94.6739 5.87145L94.7314 7.52446ZM95.7088 10.7442C95.7088 9.60869 96.9881 9.46495 97.8505 9.46495H98.6842C98.6842 10.0399 98.598 10.5717 98.2818 10.9886C97.9799 11.3911 97.5199 11.6498 96.9306 11.6498C96.2407 11.6498 95.7088 11.3767 95.7088 10.7442Z" fill="black" fill-opacity="0.7"/>
<path d="M102.187 12.886H104.113V9.26371C104.113 8.31503 104.415 6.80576 105.809 6.80576C107.045 6.80576 107.059 8.02755 107.059 8.93311V12.886H108.986V8.21441C108.986 6.54703 108.224 5.31087 106.47 5.31087C105.464 5.31087 104.645 5.64147 104.041 6.48953H104.012V5.48335H102.187V12.886Z" fill="black" fill-opacity="0.7"/>
<path d="M110.873 12.886H112.799V9.29246H112.828L115.3 12.886H117.744L114.639 8.78937L117.399 5.48335H115.128L112.828 8.4444H112.799V2.10547H110.873V12.886Z" fill="black" fill-opacity="0.7"/>
<path d="M128.28 3.03978C127.547 2.79542 126.742 2.68043 125.879 2.68043C124.111 2.68043 122.372 3.49974 122.372 5.74209C122.372 9.06248 126.771 8.27191 126.771 10.1836C126.771 11.0892 125.75 11.4773 124.988 11.4773C124.198 11.4773 123.407 11.2329 122.717 10.8592L122.53 12.6703C123.522 12.9147 124.011 13.0584 125.103 13.0584C127.13 13.0584 128.869 12.2248 128.869 10.0255C128.869 6.66202 124.471 7.39509 124.471 5.65584C124.471 4.56342 125.362 4.26157 126.052 4.26157C126.756 4.26157 127.461 4.41968 128.093 4.69279L128.28 3.03978Z" fill="black" fill-opacity="0.7"/>
<path d="M131.739 8.45877C131.825 7.46697 132.372 6.71952 133.45 6.71952C134.528 6.71952 134.959 7.52446 135.016 8.45877H131.739ZM136.31 10.9023C135.591 11.3048 134.787 11.6498 133.852 11.6498C132.659 11.6498 131.825 10.9742 131.739 9.78118H136.856C136.856 7.19386 136.08 5.31087 133.335 5.31087C131.035 5.31087 129.899 7.07887 129.899 9.22059C129.899 11.6498 131.322 13.0584 133.766 13.0584C134.801 13.0584 135.606 12.8572 136.31 12.4691V10.9023Z" fill="black" fill-opacity="0.7"/>
<path d="M138.26 12.886H140.186V2.10547H138.26V12.886Z" fill="black" fill-opacity="0.7"/>
<path d="M142.045 12.886H143.971V9.29246C143.971 8.3294 144.129 6.80576 145.409 6.80576C146.515 6.80576 146.515 7.78319 146.515 8.47314V12.886H148.442V9.29246C148.442 8.3294 148.6 6.80576 149.879 6.80576C150.986 6.80576 150.986 7.78319 150.986 8.47314V12.886H152.912V8.21441C152.912 6.5614 152.394 5.31087 150.569 5.31087C149.663 5.31087 148.7 5.72771 148.255 6.6189C147.838 5.69897 147.105 5.31087 146.07 5.31087C145.351 5.31087 144.474 5.61272 143.871 6.51828H143.842V5.48335H142.045V12.886Z" fill="black" fill-opacity="0.7"/>
<path d="M157.996 9.80992V8.22879H154.215V9.80992H157.996Z" fill="black" fill-opacity="0.7"/>
<path d="M161.532 8.40127H162.48C163.487 8.40127 164.55 8.60251 164.55 9.91054C164.55 11.0748 163.415 11.3048 162.48 11.3048H161.532V8.40127ZM161.532 4.43405H162.308C163.228 4.43405 164.248 4.5203 164.248 5.68459C164.248 6.71952 163.199 6.90638 162.351 6.90638H161.532V4.43405ZM159.519 12.886H163.027C164.291 12.886 166.563 12.5122 166.563 9.98241C166.563 8.74625 165.628 7.82631 164.263 7.69695V7.6682C165.456 7.45259 166.261 6.6189 166.261 5.42586C166.261 3.22664 164.32 2.85292 163.027 2.85292H159.519V12.886Z" fill="black" fill-opacity="0.7"/>
<path d="M167.516 9.23496C167.516 11.3623 168.939 13.0584 171.383 13.0584C173.841 13.0584 175.264 11.3623 175.264 9.23496C175.264 6.79139 173.582 5.31087 171.383 5.31087C169.198 5.31087 167.516 6.79139 167.516 9.23496ZM169.528 9.00498C169.528 7.89818 170.132 6.80576 171.383 6.80576C172.647 6.80576 173.251 7.86944 173.251 9.00498C173.251 10.2411 172.863 11.5635 171.383 11.5635C169.916 11.5635 169.528 10.2268 169.528 9.00498Z" fill="black" fill-opacity="0.7"/>
<path d="M176.677 12.886H178.603V10.1693C178.603 9.1056 178.603 7.15074 180.17 7.15074C180.515 7.15074 180.86 7.20823 181.032 7.30885V5.36836C180.831 5.31087 180.63 5.31087 180.443 5.31087C179.293 5.31087 178.502 6.47516 178.416 7.16511H178.387V5.48335H176.677V12.886Z" fill="black" fill-opacity="0.7"/>
<path d="M182.12 12.886H184.046V9.29246H184.075L186.547 12.886H188.991L185.886 8.78937L188.646 5.48335H186.375L184.075 8.4444H184.046V2.10547H182.12V12.886Z" fill="black" fill-opacity="0.7"/>
<path d="M195.143 8.45877C195.229 7.46697 195.775 6.71952 196.853 6.71952C197.931 6.71952 198.362 7.52446 198.42 8.45877H195.143ZM199.713 10.9023C198.995 11.3048 198.19 11.6498 197.256 11.6498C196.062 11.6498 195.229 10.9742 195.143 9.78118H200.26C200.26 7.19386 199.483 5.31087 196.738 5.31087C194.438 5.31087 193.303 7.07887 193.303 9.22059C193.303 11.6498 194.726 13.0584 197.169 13.0584C198.204 13.0584 199.009 12.8572 199.713 12.4691V10.9023Z" fill="black" fill-opacity="0.7"/>
<path d="M209.756 3.09727C208.894 2.83854 207.974 2.68043 206.809 2.68043C203.403 2.68043 201.304 4.60654 201.304 8.04192C201.304 11.4342 203.561 13.0584 206.809 13.0584C207.887 13.0584 208.994 12.8285 210.058 12.541V7.13636H206.004V8.7175H208.132V11.3336C207.787 11.4198 207.356 11.4773 206.809 11.4773C204.668 11.4773 203.403 9.93929 203.403 7.89818C203.403 5.8427 204.696 4.26157 207.039 4.26157C207.844 4.26157 208.85 4.43405 209.627 4.7934L209.756 3.09727Z" fill="black" fill-opacity="0.7"/>
<path d="M53.0572 27.8938H55.5295L58.9074 17.8607H56.9094L54.3652 25.7377H54.3365L51.7635 17.8607H49.6074L53.0572 27.8938Z" fill="black" fill-opacity="0.7"/>
<path d="M58.6387 24.2428C58.6387 26.3701 60.0617 28.0663 62.5053 28.0663C64.9632 28.0663 66.3862 26.3701 66.3862 24.2428C66.3862 21.7992 64.7045 20.3187 62.5053 20.3187C60.3204 20.3187 58.6387 21.7992 58.6387 24.2428ZM60.651 24.0128C60.651 22.906 61.2547 21.8136 62.5053 21.8136C63.7702 21.8136 64.3739 22.8772 64.3739 24.0128C64.3739 25.249 63.9858 26.5714 62.5053 26.5714C61.0391 26.5714 60.651 25.2346 60.651 24.0128Z" fill="black" fill-opacity="0.7"/>
<path d="M67.7996 27.8938H69.7257V17.1133H67.7996V27.8938Z" fill="black" fill-opacity="0.7"/>
<path d="M71.6564 27.8938H73.5826V24.3003H73.6113L76.0836 27.8938H78.5272L75.4224 23.7972L78.1822 20.4912H75.9111L73.6113 23.4522H73.5826V17.1133H71.6564V27.8938Z" fill="black" fill-opacity="0.7"/>
<path d="M83.9845 20.5918C83.3808 20.4624 82.7914 20.3187 81.8859 20.3187C80.3766 20.3187 78.9823 21.023 78.9823 22.6185C78.9823 25.2921 82.3315 24.3003 82.3315 25.752C82.3315 26.4707 81.5553 26.6576 81.0666 26.6576C80.4054 26.6576 79.7729 26.4707 79.1692 26.1689L79.0542 27.75C79.7585 27.9369 80.506 28.0663 81.2391 28.0663C82.8058 28.0663 84.3438 27.3763 84.3438 25.6514C84.3438 22.9779 80.9947 23.7253 80.9947 22.5466C80.9947 21.9142 81.6128 21.7273 82.1302 21.7273C82.8346 21.7273 83.2658 21.8423 83.8551 22.0436L83.9845 20.5918Z" fill="black" fill-opacity="0.7"/>
<path d="M87.6403 24.1709C87.6403 23.136 88.129 21.8136 89.3652 21.8136C90.6157 21.8136 90.9607 23.1791 90.9607 24.1709C90.9607 25.1915 90.6013 26.5714 89.3364 26.5714C88.0572 26.5714 87.6403 25.2202 87.6403 24.1709ZM85.6998 27.8938H87.5684V26.9882H87.5972C88.1578 27.7788 89.049 28.0663 89.8683 28.0663C92.1394 28.0663 92.9731 26.1976 92.9731 24.1709C92.9731 22.1298 92.1394 20.3187 89.8683 20.3187C88.8621 20.3187 88.1865 20.7355 87.6547 21.4398H87.6259V17.1133H85.6998V27.8938Z" fill="black" fill-opacity="0.7"/>
<path d="M94.7314 22.5323C95.3782 22.0436 96.1975 21.7273 97.0169 21.7273C98.1524 21.7273 98.6842 22.1298 98.6842 23.3228H97.6206C96.8156 23.3228 95.8669 23.3947 95.1339 23.7541C94.4008 24.1134 93.869 24.7602 93.869 25.867C93.869 27.2757 95.1482 28.0663 96.4563 28.0663C97.3331 28.0663 98.2961 27.6063 98.7417 26.787H98.7705C98.7849 27.017 98.7849 27.5057 98.8567 27.8938H100.553C100.51 27.3188 100.481 26.8013 100.467 26.2408C100.452 25.6945 100.438 25.134 100.438 24.3865V23.4378C100.438 21.253 99.5036 20.3187 97.2468 20.3187C96.4275 20.3187 95.4213 20.5343 94.6739 20.8793L94.7314 22.5323ZM95.7088 25.752C95.7088 24.6165 96.9881 24.4728 97.8505 24.4728H98.6842C98.6842 25.0477 98.598 25.5796 98.2818 25.9964C97.9799 26.3989 97.52 26.6576 96.9306 26.6576C96.2407 26.6576 95.7088 26.3845 95.7088 25.752Z" fill="black" fill-opacity="0.7"/>
<path d="M102.187 27.8938H104.113V24.2715C104.113 23.3228 104.415 21.8136 105.809 21.8136C107.045 21.8136 107.059 23.0354 107.059 23.9409V27.8938H108.986V23.2222C108.986 21.5548 108.224 20.3187 106.47 20.3187C105.464 20.3187 104.645 20.6493 104.041 21.4973H104.012V20.4912H102.187V27.8938Z" fill="black" fill-opacity="0.7"/>
<path d="M110.873 27.8938H112.799V24.3003H112.828L115.3 27.8938H117.744L114.639 23.7972L117.399 20.4912H115.128L112.828 23.4522H112.799V17.1133H110.873V27.8938Z" fill="black" fill-opacity="0.7"/>
<path d="M128.136 24.0128H125.204L126.656 19.8731H126.684L128.136 24.0128ZM121.668 27.8938H123.752L124.629 25.5939H128.697L129.559 27.8938H131.787L127.849 17.8607H125.578L121.668 27.8938Z" fill="black" fill-opacity="0.7"/>
<path d="M132.803 27.8938H134.729V17.1133H132.803V27.8938Z" fill="black" fill-opacity="0.7"/>
<path d="M137.249 25.6658C137.249 27.1319 138.083 28.0663 139.592 28.0663C140.167 28.0663 140.613 28.0088 141.015 27.8938L140.958 26.3701C140.757 26.4995 140.426 26.5714 140.081 26.5714C139.348 26.5714 139.175 25.982 139.175 25.3496V21.8998H140.886V20.4912H139.175V18.3926L137.249 19.0106V20.4912H135.826V21.8998H137.249V25.6658Z" fill="black" fill-opacity="0.7"/>
<path d="M142.103 27.8938H144.029V17.1133H142.103V27.8938Z" fill="black" fill-opacity="0.7"/>
<path d="M152.716 20.4912H150.789V24.1134C150.789 25.0621 150.488 26.5714 149.093 26.5714C147.857 26.5714 147.843 25.3496 147.843 24.444V20.4912H145.917V25.1627C145.917 26.8301 146.679 28.0663 148.432 28.0663C149.438 28.0663 150.272 27.6063 150.861 26.8876H150.89V27.8938H152.716V20.4912ZM149.97 17.4726V19.14H151.638V17.4726H149.97ZM148.676 19.14V17.4726H147.009V19.14H148.676Z" fill="black" fill-opacity="0.7"/>
<path d="M154.56 27.8938H156.486V24.2715C156.486 23.3228 156.788 21.8136 158.182 21.8136C159.419 21.8136 159.433 23.0354 159.433 23.9409V27.8938H161.359V23.2222C161.359 21.5548 160.597 20.3187 158.844 20.3187C157.837 20.3187 157.018 20.6493 156.414 21.4973H156.386V20.4912H154.56V27.8938Z" fill="black" fill-opacity="0.7"/>
<path d="M164.569 23.4666C164.655 22.4748 165.202 21.7273 166.28 21.7273C167.358 21.7273 167.789 22.5323 167.846 23.4666H164.569ZM169.14 25.9102C168.421 26.3126 167.616 26.6576 166.682 26.6576C165.489 26.6576 164.655 25.982 164.569 24.789H169.686C169.686 22.2017 168.91 20.3187 166.165 20.3187C163.865 20.3187 162.729 22.0867 162.729 24.2284C162.729 26.6576 164.152 28.0663 166.596 28.0663C167.631 28.0663 168.436 27.865 169.14 27.4769V25.9102Z" fill="black" fill-opacity="0.7"/>
<path d="M171.047 27.8938H172.973V24.2715C172.973 23.3228 173.275 21.8136 174.669 21.8136C175.905 21.8136 175.92 23.0354 175.92 23.9409V27.8938H177.846V23.2222C177.846 21.5548 177.084 20.3187 175.33 20.3187C174.324 20.3187 173.505 20.6493 172.901 21.4973H172.873V20.4912H171.047V27.8938Z" fill="black" fill-opacity="0.7"/>
</svg>
