<svg width="229" height="32" viewBox="0 0 229 32" fill="none" xmlns="http://www.w3.org/2000/svg">
<rect width="228.081" height="26" transform="translate(0 2)" fill="#FAFAFA"/>
<path d="M24.3313 23.4014C23.9232 25.5411 23.5773 27.3581 23.4432 28.0638H39.3178V23.4014H24.3313ZM0.00195312 23.4438V28.1063H15.764L14.7122 23.4438H0.00195312Z" fill="black" fill-opacity="0.7"/>
<path d="M7.74534 12.7527L6.59813 7.92944H16.3863L19.5562 21.7749H19.6915L21.6885 12.9057C22.6948 8.87868 23.075 7.92944 28.7462 7.92944H32.8252C32.8252 7.92944 32.0011 11.6415 30.9758 15.6696C30.5855 17.2063 27.1797 17.0242 27.3496 15.5892C27.3675 15.4396 27.5285 14.3597 27.656 13.5914C27.8416 12.4858 26.5502 12.3473 26.3176 13.4417C26.1521 14.2257 25.4041 18.1164 24.7052 21.7749H39.3171V1.89453H0V21.7749H14.2685L12.2358 12.7594L7.74534 12.7527V12.7527Z" fill="black" fill-opacity="0.7"/>
<path d="M53.0572 12.886H55.5295L58.9074 2.85292H56.9094L54.3652 10.7299H54.3365L51.7635 2.85292H49.6074L53.0572 12.886Z" fill="black" fill-opacity="0.7"/>
<path d="M61.9114 4.43405H62.5726C63.5788 4.43405 64.7 4.53467 64.7 5.74209C64.7 6.99262 63.5644 7.13636 62.5726 7.13636H61.9114V4.43405ZM59.8991 12.886H61.9114V8.7175H62.5583C63.4063 8.7175 63.6651 9.00498 63.9525 9.75243L65.16 12.886H67.4023L65.7924 8.96186C65.5912 8.51627 65.2749 7.97005 64.7287 7.92693V7.89818C66.008 7.7257 66.7986 6.74827 66.7986 5.5696C66.7986 2.78105 64.2256 2.85292 62.0696 2.85292H59.8991V12.886Z" fill="black" fill-opacity="0.7"/>
<path d="M74.5842 8.40127H75.5329C76.5391 8.40127 77.6028 8.60251 77.6028 9.91054C77.6028 11.0748 76.4672 11.3048 75.5329 11.3048H74.5842V8.40127ZM74.5842 4.43405H75.3604C76.2804 4.43405 77.3009 4.5203 77.3009 5.68459C77.3009 6.71952 76.2516 6.90638 75.4036 6.90638H74.5842V4.43405ZM72.5719 12.886H76.0791C77.344 12.886 79.6151 12.5122 79.6151 9.98241C79.6151 8.74625 78.6808 7.82631 77.3153 7.69695V7.6682C78.5083 7.45259 79.3133 6.6189 79.3133 5.42586C79.3133 3.22664 77.3728 2.85292 76.0791 2.85292H72.5719V12.886Z" fill="black" fill-opacity="0.7"/>
<path d="M81.431 7.52446C82.0778 7.03575 82.8971 6.71952 83.7164 6.71952C84.852 6.71952 85.3838 7.12199 85.3838 8.31503H84.3201C83.5152 8.31503 82.5665 8.3869 81.8334 8.74625C81.1004 9.1056 80.5685 9.75243 80.5685 10.8592C80.5685 12.2679 81.8478 13.0584 83.1558 13.0584C84.0327 13.0584 84.9957 12.5985 85.4413 11.7792H85.4701C85.4844 12.0091 85.4844 12.4979 85.5563 12.886H87.2524C87.2093 12.311 87.1806 11.7935 87.1662 11.2329C87.1518 10.6867 87.1374 10.1262 87.1374 9.3787V8.43002C87.1374 6.24518 86.2031 5.31087 83.9464 5.31087C83.1271 5.31087 82.1209 5.52648 81.3735 5.87145L81.431 7.52446ZM82.4084 10.7442C82.4084 9.60869 83.6877 9.46495 84.5501 9.46495H85.3838C85.3838 10.0399 85.2976 10.5717 84.9813 10.9886C84.6795 11.3911 84.2195 11.6498 83.6302 11.6498C82.9402 11.6498 82.4084 11.3767 82.4084 10.7442Z" fill="black" fill-opacity="0.7"/>
<path d="M88.8862 12.886H90.8124V9.26371C90.8124 8.31503 91.1142 6.80576 92.5085 6.80576C93.7446 6.80576 93.759 8.02755 93.759 8.93311V12.886H95.6851V8.21441C95.6851 6.54703 94.9233 5.31087 93.1697 5.31087C92.1635 5.31087 91.3442 5.64147 90.7405 6.48953H90.7117V5.48335H88.8862V12.886Z" fill="black" fill-opacity="0.7"/>
<path d="M97.5728 12.886H99.499V9.29246H99.5277L102 12.886H104.444L101.339 8.78937L104.099 5.48335H101.828L99.5277 8.4444H99.499V2.10547H97.5728V12.886Z" fill="black" fill-opacity="0.7"/>
<path d="M52.4529 27.8938H54.4653V19.4419H57.3401V17.8607H49.5781V19.4419H52.4529V27.8938Z" fill="black" fill-opacity="0.7"/>
<path d="M64.4375 20.4912H62.5113V24.1134C62.5113 25.0621 62.2095 26.5714 60.8152 26.5714C59.579 26.5714 59.5647 25.3496 59.5647 24.444V20.4912H57.6386V25.1627C57.6386 26.8301 58.4004 28.0663 60.154 28.0663C61.1602 28.0663 61.9939 27.6063 62.5832 26.8876H62.612V27.8938H64.4375V20.4912ZM61.692 17.4726V19.14H63.3594V17.4726H61.692ZM60.3984 19.14V17.4726H58.731V19.14H60.3984Z" fill="black" fill-opacity="0.7"/>
<path d="M68.2225 24.1709C68.2225 23.136 68.7112 21.8136 69.9474 21.8136C71.1979 21.8136 71.5429 23.1791 71.5429 24.1709C71.5429 25.1915 71.1836 26.5714 69.9187 26.5714C68.6394 26.5714 68.2225 25.2202 68.2225 24.1709ZM66.282 27.8938H68.1507V26.9882H68.1794C68.74 27.7788 69.6312 28.0663 70.4505 28.0663C72.7216 28.0663 73.5553 26.1976 73.5553 24.1709C73.5553 22.1298 72.7216 20.3187 70.4505 20.3187C69.4443 20.3187 68.7687 20.7355 68.2369 21.4398H68.2082V17.1133H66.282V27.8938Z" fill="black" fill-opacity="0.7"/>
<path d="M74.9686 27.8938H76.8948V20.4912H74.9686V27.8938ZM74.9686 19.14H76.8948V17.3001H74.9686V19.14Z" fill="black" fill-opacity="0.7"/>
<path d="M78.7824 27.8938H80.7085V24.2715C80.7085 23.3228 81.0103 21.8136 82.4046 21.8136C83.6408 21.8136 83.6551 23.0354 83.6551 23.9409V27.8938H85.5812V23.2222C85.5812 21.5548 84.8194 20.3187 83.0658 20.3187C82.0596 20.3187 81.2403 20.6493 80.6366 21.4973H80.6078V20.4912H78.7824V27.8938Z" fill="black" fill-opacity="0.7"/>
<path d="M90.6025 26.3989C89.4957 26.3989 88.9639 25.1627 88.9639 24.1565C88.9639 23.021 89.3807 21.8136 90.6887 21.8136C91.8099 21.8136 92.2986 22.8485 92.2986 24.1134C92.2986 25.3496 91.8099 26.3989 90.6025 26.3989ZM92.3849 20.4912V21.4973H92.3561C91.8243 20.6493 91.0625 20.3187 90.085 20.3187C87.8714 20.3187 86.9515 22.3742 86.9515 24.1565C86.9515 26.1401 87.7852 27.8938 89.97 27.8938C91.0481 27.8938 91.9105 27.3476 92.2699 26.7151H92.2986C92.2986 27.9944 92.198 29.5899 90.0706 29.5899C89.4669 29.5899 88.5039 29.2593 87.9145 28.9431L87.7564 30.5817C88.6764 30.9698 89.5532 31.0848 90.315 31.0848C93.4198 31.0848 94.2247 29.1874 94.2247 27.1751V20.4912H92.3849Z" fill="black" fill-opacity="0.7"/>
<path d="M97.4348 23.4666C97.5211 22.4748 98.0673 21.7273 99.1453 21.7273C100.223 21.7273 100.655 22.5323 100.712 23.4666H97.4348ZM102.006 25.9102C101.287 26.3126 100.482 26.6576 99.5478 26.6576C98.3548 26.6576 97.5211 25.982 97.4348 24.789H102.552C102.552 22.2017 101.776 20.3187 99.0304 20.3187C96.7305 20.3187 95.595 22.0867 95.595 24.2284C95.595 26.6576 97.018 28.0663 99.4616 28.0663C100.497 28.0663 101.301 27.865 102.006 27.4769V25.9102Z" fill="black" fill-opacity="0.7"/>
<path d="M103.913 27.8938H105.839V24.2715C105.839 23.3228 106.141 21.8136 107.535 21.8136C108.771 21.8136 108.785 23.0354 108.785 23.9409V27.8938H110.712V23.2222C110.712 21.5548 109.95 20.3187 108.196 20.3187C107.19 20.3187 106.371 20.6493 105.767 21.4973H105.738V20.4912H103.913V27.8938Z" fill="black" fill-opacity="0.7"/>
<path d="M117.779 23.4666C117.865 22.4748 118.411 21.7273 119.489 21.7273C120.567 21.7273 120.998 22.5323 121.056 23.4666H117.779ZM122.349 25.9102C121.631 26.3126 120.826 26.6576 119.891 26.6576C118.698 26.6576 117.865 25.982 117.779 24.789H122.896C122.896 22.2017 122.119 20.3187 119.374 20.3187C117.074 20.3187 115.939 22.0867 115.939 24.2284C115.939 26.6576 117.362 28.0663 119.805 28.0663C120.84 28.0663 121.645 27.865 122.349 27.4769V25.9102Z" fill="black" fill-opacity="0.7"/>
<path d="M132.392 18.1051C131.53 17.8464 130.61 17.6882 129.445 17.6882C126.039 17.6882 123.94 19.6144 123.94 23.0497C123.94 26.442 126.197 28.0663 129.445 28.0663C130.523 28.0663 131.63 27.8363 132.694 27.5488V22.1442H128.64V23.7253H130.768V26.3414C130.423 26.4276 129.992 26.4851 129.445 26.4851C127.304 26.4851 126.039 24.9471 126.039 22.906C126.039 20.8505 127.332 19.2694 129.675 19.2694C130.48 19.2694 131.486 19.4419 132.263 19.8012L132.392 18.1051Z" fill="black" fill-opacity="0.7"/>
</svg>
