<svg width="229" height="30" viewBox="0 0 229 30" fill="none" xmlns="http://www.w3.org/2000/svg">
<rect width="117.765" height="26" transform="translate(0 2)" fill="#FAFAFA"/>
<path d="M24.3313 23.4004C23.9232 25.5401 23.5773 27.3571 23.4432 28.0629H39.3178V23.4004H24.3313ZM0.00195312 23.4428V28.1053H15.764L14.7122 23.4428H0.00195312Z" fill="black" fill-opacity="0.7"/>
<path d="M7.74534 12.7527L6.59813 7.92944H16.3863L19.5562 21.7749H19.6915L21.6885 12.9057C22.6948 8.87868 23.075 7.92944 28.7462 7.92944H32.8252C32.8252 7.92944 32.0011 11.6415 30.9758 15.6696C30.5855 17.2063 27.1797 17.0242 27.3496 15.5892C27.3675 15.4396 27.5285 14.3597 27.656 13.5914C27.8416 12.4858 26.5502 12.3473 26.3176 13.4417C26.1521 14.2257 25.4041 18.1164 24.7052 21.7749H39.3171V1.89453H0V21.7749H14.2686L12.2358 12.7594L7.74534 12.7527V12.7527Z" fill="black" fill-opacity="0.7"/>
<path d="M53.0572 12.886H55.5295L58.9074 2.85292H56.9094L54.3652 10.7299H54.3365L51.7635 2.85292H49.6074L53.0572 12.886Z" fill="black" fill-opacity="0.7"/>
<path d="M58.6387 9.23496C58.6387 11.3623 60.0617 13.0584 62.5053 13.0584C64.9632 13.0584 66.3862 11.3623 66.3862 9.23496C66.3862 6.79139 64.7045 5.31087 62.5053 5.31087C60.3204 5.31087 58.6387 6.79139 58.6387 9.23496ZM60.651 9.00498C60.651 7.89818 61.2547 6.80576 62.5053 6.80576C63.7702 6.80576 64.3739 7.86944 64.3739 9.00498C64.3739 10.2411 63.9858 11.5635 62.5053 11.5635C61.0391 11.5635 60.651 10.2268 60.651 9.00498Z" fill="black" fill-opacity="0.7"/>
<path d="M67.7996 12.886H69.7257V2.10547H67.7996V12.886Z" fill="black" fill-opacity="0.7"/>
<path d="M71.6564 12.886H73.5826V9.29246H73.6113L76.0836 12.886H78.5272L75.4224 8.78937L78.1822 5.48335H75.9111L73.6113 8.4444H73.5826V2.10547H71.6564V12.886Z" fill="black" fill-opacity="0.7"/>
<path d="M83.9845 5.58397C83.3808 5.45461 82.7915 5.31087 81.8859 5.31087C80.3766 5.31087 78.9823 6.01519 78.9823 7.6107C78.9823 10.2843 82.3315 9.29246 82.3315 10.7442C82.3315 11.4629 81.5553 11.6498 81.0666 11.6498C80.4054 11.6498 79.7729 11.4629 79.1692 11.1611L79.0542 12.7422C79.7585 12.9291 80.506 13.0584 81.2391 13.0584C82.8058 13.0584 84.3438 12.3685 84.3438 10.6436C84.3438 7.97005 80.9947 8.7175 80.9947 7.53883C80.9947 6.90638 81.6128 6.71952 82.1302 6.71952C82.8346 6.71952 83.2658 6.83451 83.8551 7.03575L83.9845 5.58397Z" fill="black" fill-opacity="0.7"/>
<path d="M87.6403 9.16309C87.6403 8.12817 88.129 6.80576 89.3652 6.80576C90.6157 6.80576 90.9607 8.17129 90.9607 9.16309C90.9607 10.1836 90.6014 11.5635 89.3364 11.5635C88.0572 11.5635 87.6403 10.2124 87.6403 9.16309ZM85.6998 12.886H87.5684V11.9804H87.5972C88.1578 12.771 89.049 13.0584 89.8683 13.0584C92.1394 13.0584 92.9731 11.1898 92.9731 9.16309C92.9731 7.12199 92.1394 5.31087 89.8683 5.31087C88.8621 5.31087 88.1865 5.72771 87.6547 6.43204H87.6259V2.10547H85.6998V12.886Z" fill="black" fill-opacity="0.7"/>
<path d="M94.7314 7.52446C95.3782 7.03575 96.1976 6.71952 97.0169 6.71952C98.1524 6.71952 98.6843 7.12199 98.6843 8.31503H97.6206C96.8156 8.31503 95.867 8.3869 95.1339 8.74625C94.4008 9.1056 93.869 9.75243 93.869 10.8592C93.869 12.2679 95.1483 13.0584 96.4563 13.0584C97.3331 13.0584 98.2962 12.5985 98.7417 11.7792H98.7705C98.7849 12.0091 98.7849 12.4979 98.8567 12.886H100.553C100.51 12.311 100.481 11.7935 100.467 11.2329C100.452 10.6867 100.438 10.1262 100.438 9.3787V8.43002C100.438 6.24518 99.5036 5.31087 97.2469 5.31087C96.4275 5.31087 95.4214 5.52648 94.6739 5.87145L94.7314 7.52446ZM95.7088 10.7442C95.7088 9.60869 96.9881 9.46495 97.8506 9.46495H98.6843C98.6843 10.0399 98.598 10.5717 98.2818 10.9886C97.9799 11.3911 97.52 11.6498 96.9306 11.6498C96.2407 11.6498 95.7088 11.3767 95.7088 10.7442Z" fill="black" fill-opacity="0.7"/>
<path d="M102.187 12.886H104.113V9.26371C104.113 8.31503 104.415 6.80576 105.809 6.80576C107.045 6.80576 107.059 8.02755 107.059 8.93311V12.886H108.986V8.21441C108.986 6.54703 108.224 5.31087 106.47 5.31087C105.464 5.31087 104.645 5.64147 104.041 6.48953H104.012V5.48335H102.187V12.886Z" fill="black" fill-opacity="0.7"/>
<path d="M110.873 12.886H112.799V9.29246H112.828L115.3 12.886H117.744L114.639 8.78937L117.399 5.48335H115.128L112.828 8.4444H112.799V2.10547H110.873V12.886Z" fill="black" fill-opacity="0.7"/>
<path d="M53.0572 27.8938H55.5295L58.9074 17.8607H56.9094L54.3652 25.7377H54.3365L51.7635 17.8607H49.6074L53.0572 27.8938Z" fill="black" fill-opacity="0.7"/>
<path d="M60.4785 23.4666C60.5648 22.4748 61.111 21.7273 62.189 21.7273C63.2671 21.7273 63.6983 22.5323 63.7558 23.4666H60.4785ZM65.0495 25.9102C64.3308 26.3126 63.5258 26.6576 62.5915 26.6576C61.3985 26.6576 60.5648 25.982 60.4785 24.789H65.5957C65.5957 22.2017 64.8195 20.3187 62.074 20.3187C59.7742 20.3187 58.6387 22.0867 58.6387 24.2284C58.6387 26.6576 60.0617 28.0663 62.5053 28.0663C63.5402 28.0663 64.3451 27.865 65.0495 27.4769V25.9102Z" fill="black" fill-opacity="0.7"/>
<path d="M71.9298 20.563C71.3979 20.4049 70.8373 20.3187 70.0612 20.3187C67.7469 20.3187 66.482 22.0148 66.482 24.1565C66.482 26.4132 67.7038 28.0663 70.133 28.0663C70.9236 28.0663 71.4986 27.9944 72.0591 27.8219L71.9729 26.2264C71.6423 26.3701 71.0386 26.5714 70.4924 26.5714C69.1412 26.5714 68.4944 25.5221 68.4944 24.1565C68.4944 22.7623 69.2562 21.8136 70.4493 21.8136C71.0386 21.8136 71.4123 21.9286 71.7573 22.0867L71.9298 20.563Z" fill="black" fill-opacity="0.7"/>
<path d="M73.1995 27.8938H75.1256V24.2715C75.1256 23.3228 75.4275 21.8136 76.8218 21.8136C78.0579 21.8136 78.0723 23.0354 78.0723 23.9409V27.8938H79.9984V23.2222C79.9984 21.5548 79.2366 20.3187 77.483 20.3187C76.4768 20.3187 75.6431 20.7786 75.1544 21.4973H75.1256V17.1133H73.1995V27.8938Z" fill="black" fill-opacity="0.7"/>
<path d="M82.4755 25.6658C82.4755 27.1319 83.3091 28.0663 84.8184 28.0663C85.3934 28.0663 85.839 28.0088 86.2414 27.8938L86.1839 26.3701C85.9827 26.4995 85.6521 26.5714 85.3071 26.5714C84.5741 26.5714 84.4016 25.982 84.4016 25.3496V21.8998H86.1121V20.4912H84.4016V18.3926L82.4755 19.0106V20.4912H81.0524V21.8998H82.4755V25.6658Z" fill="black" fill-opacity="0.7"/>
<path d="M87.6741 22.5323C88.3209 22.0436 89.1403 21.7273 89.9596 21.7273C91.0951 21.7273 91.627 22.1298 91.627 23.3228H90.5633C89.7583 23.3228 88.8097 23.3947 88.0766 23.7541C87.3435 24.1134 86.8117 24.7602 86.8117 25.867C86.8117 27.2757 88.091 28.0663 89.399 28.0663C90.2758 28.0663 91.2389 27.6063 91.6845 26.787H91.7132C91.7276 27.017 91.7276 27.5057 91.7995 27.8938H93.4956C93.4525 27.3188 93.4237 26.8013 93.4093 26.2408C93.395 25.6945 93.3806 25.134 93.3806 24.3865V23.4378C93.3806 21.253 92.4463 20.3187 90.1896 20.3187C89.3703 20.3187 88.3641 20.5343 87.6166 20.8793L87.6741 22.5323ZM88.6515 25.752C88.6515 24.6165 89.9308 24.4728 90.7933 24.4728H91.627C91.627 25.0477 91.5407 25.5796 91.2245 25.9964C90.9226 26.3989 90.4627 26.6576 89.8733 26.6576C89.1834 26.6576 88.6515 26.3845 88.6515 25.752Z" fill="black" fill-opacity="0.7"/>
<path d="M100.352 23.4666C100.438 22.4748 100.984 21.7273 102.062 21.7273C103.14 21.7273 103.572 22.5323 103.629 23.4666H100.352ZM104.923 25.9102C104.204 26.3126 103.399 26.6576 102.465 26.6576C101.272 26.6576 100.438 25.982 100.352 24.789H105.469C105.469 22.2017 104.693 20.3187 101.947 20.3187C99.6474 20.3187 98.5119 22.0867 98.5119 24.2284C98.5119 26.6576 99.9349 28.0663 102.378 28.0663C103.413 28.0663 104.218 27.865 104.923 27.4769V25.9102Z" fill="black" fill-opacity="0.7"/>
<path d="M114.965 18.1051C114.103 17.8464 113.183 17.6882 112.019 17.6882C108.612 17.6882 106.513 19.6144 106.513 23.0497C106.513 26.442 108.77 28.0663 112.019 28.0663C113.097 28.0663 114.203 27.8363 115.267 27.5488V22.1442H111.214V23.7253H113.341V26.3414C112.996 26.4276 112.565 26.4851 112.019 26.4851C109.877 26.4851 108.612 24.9471 108.612 22.906C108.612 20.8505 109.906 19.2694 112.249 19.2694C113.054 19.2694 114.06 19.4419 114.836 19.8012L114.965 18.1051Z" fill="black" fill-opacity="0.7"/>
</svg>
