<svg width="229" height="30" viewBox="0 0 229 30" fill="none" xmlns="http://www.w3.org/2000/svg">
<path d="M24.3304 23.4004C23.9222 25.5401 23.5764 27.3571 23.4422 28.0629H39.3169V23.4004H24.3304ZM0.000976562 23.4428V28.1053H15.763L14.7112 23.4428H0.000976562Z" fill="black" fill-opacity="0.7"/>
<path d="M7.74534 12.7527L6.59813 7.92944H16.3863L19.5562 21.7749H19.6915L21.6885 12.9057C22.6948 8.87868 23.075 7.92944 28.7462 7.92944H32.8252C32.8252 7.92944 32.0011 11.6415 30.9758 15.6696C30.5855 17.2063 27.1797 17.0242 27.3496 15.5892C27.3675 15.4396 27.5285 14.3597 27.656 13.5914C27.8416 12.4858 26.5502 12.3473 26.3176 13.4417C26.1521 14.2257 25.4041 18.1164 24.7052 21.7749H39.3171V1.89453H0V21.7749H14.2686L12.2358 12.7594L7.74534 12.7527V12.7527Z" fill="black" fill-opacity="0.7"/>
<path d="M53.0562 12.886H55.5285L58.9064 2.85292H56.9084L54.3642 10.7299H54.3355L51.7625 2.85292H49.6064L53.0562 12.886Z" fill="black" fill-opacity="0.7"/>
<path d="M58.6377 9.23496C58.6377 11.3623 60.0607 13.0584 62.5043 13.0584C64.9622 13.0584 66.3853 11.3623 66.3853 9.23496C66.3853 6.79139 64.7035 5.31087 62.5043 5.31087C60.3194 5.31087 58.6377 6.79139 58.6377 9.23496ZM60.65 9.00498C60.65 7.89818 61.2538 6.80576 62.5043 6.80576C63.7692 6.80576 64.3729 7.86944 64.3729 9.00498C64.3729 10.2411 63.9848 11.5635 62.5043 11.5635C61.0381 11.5635 60.65 10.2268 60.65 9.00498Z" fill="black" fill-opacity="0.7"/>
<path d="M67.7986 12.886H69.7247V2.10547H67.7986V12.886Z" fill="black" fill-opacity="0.7"/>
<path d="M71.6555 12.886H73.5816V9.29246H73.6103L76.0827 12.886H78.5262L75.4214 8.78937L78.1813 5.48335H75.9102L73.6103 8.4444H73.5816V2.10547H71.6555V12.886Z" fill="black" fill-opacity="0.7"/>
<path d="M83.9835 5.58397C83.3798 5.45461 82.7905 5.31087 81.8849 5.31087C80.3757 5.31087 78.9814 6.01519 78.9814 7.6107C78.9814 10.2843 82.3305 9.29246 82.3305 10.7442C82.3305 11.4629 81.5543 11.6498 81.0656 11.6498C80.4044 11.6498 79.7719 11.4629 79.1682 11.1611L79.0532 12.7422C79.7576 12.9291 80.505 13.0584 81.2381 13.0584C82.8049 13.0584 84.3429 12.3685 84.3429 10.6436C84.3429 7.97005 80.9937 8.7175 80.9937 7.53883C80.9937 6.90638 81.6118 6.71952 82.1293 6.71952C82.8336 6.71952 83.2648 6.83451 83.8542 7.03575L83.9835 5.58397Z" fill="black" fill-opacity="0.7"/>
<path d="M87.6393 9.16309C87.6393 8.12817 88.1281 6.80576 89.3642 6.80576C90.6148 6.80576 90.9597 8.17129 90.9597 9.16309C90.9597 10.1836 90.6004 11.5635 89.3355 11.5635C88.0562 11.5635 87.6393 10.2124 87.6393 9.16309ZM85.6989 12.886H87.5675V11.9804H87.5962C88.1568 12.771 89.048 13.0584 89.8673 13.0584C92.1384 13.0584 92.9721 11.1898 92.9721 9.16309C92.9721 7.12199 92.1384 5.31087 89.8673 5.31087C88.8611 5.31087 88.1856 5.72771 87.6537 6.43204H87.625V2.10547H85.6989V12.886Z" fill="black" fill-opacity="0.7"/>
<path d="M94.7304 7.52446C95.3773 7.03575 96.1966 6.71952 97.0159 6.71952C98.1514 6.71952 98.6833 7.12199 98.6833 8.31503H97.6196C96.8147 8.31503 95.866 8.3869 95.1329 8.74625C94.3998 9.1056 93.868 9.75243 93.868 10.8592C93.868 12.2679 95.1473 13.0584 96.4553 13.0584C97.3321 13.0584 98.2952 12.5985 98.7408 11.7792H98.7695C98.7839 12.0091 98.7839 12.4979 98.8558 12.886H100.552C100.509 12.311 100.48 11.7935 100.466 11.2329C100.451 10.6867 100.437 10.1262 100.437 9.3787V8.43002C100.437 6.24518 99.5026 5.31087 97.2459 5.31087C96.4266 5.31087 95.4204 5.52648 94.6729 5.87145L94.7304 7.52446ZM95.7079 10.7442C95.7079 9.60869 96.9871 9.46495 97.8496 9.46495H98.6833C98.6833 10.0399 98.597 10.5717 98.2808 10.9886C97.979 11.3911 97.519 11.6498 96.9297 11.6498C96.2397 11.6498 95.7079 11.3767 95.7079 10.7442Z" fill="black" fill-opacity="0.7"/>
<path d="M102.186 12.886H104.112V9.26371C104.112 8.31503 104.414 6.80576 105.808 6.80576C107.044 6.80576 107.058 8.02755 107.058 8.93311V12.886H108.985V8.21441C108.985 6.54703 108.223 5.31087 106.469 5.31087C105.463 5.31087 104.644 5.64147 104.04 6.48953H104.011V5.48335H102.186V12.886Z" fill="black" fill-opacity="0.7"/>
<path d="M110.872 12.886H112.798V9.29246H112.827L115.299 12.886H117.743L114.638 8.78937L117.398 5.48335H115.127L112.827 8.4444H112.798V2.10547H110.872V12.886Z" fill="black" fill-opacity="0.7"/>
<path d="M50.627 27.8938H53.3724C56.4484 27.8938 59.1651 26.8588 59.1651 22.8772C59.1651 18.8957 56.4484 17.8607 53.3724 17.8607H50.627V27.8938ZM52.6393 19.4419H53.7605C55.4422 19.4419 57.0665 20.6924 57.0665 22.8772C57.0665 25.0621 55.4422 26.3126 53.7605 26.3126H52.6393V19.4419Z" fill="black" fill-opacity="0.7"/>
<path d="M60.2098 24.2428C60.2098 26.3701 61.6328 28.0663 64.0764 28.0663C66.5343 28.0663 67.9574 26.3701 67.9574 24.2428C67.9574 21.7992 66.2756 20.3187 64.0764 20.3187C61.8916 20.3187 60.2098 21.7992 60.2098 24.2428ZM62.2222 24.0128C62.2222 22.906 62.8259 21.8136 64.0764 21.8136C65.3413 21.8136 65.945 22.8772 65.945 24.0128C65.945 25.249 65.5569 26.5714 64.0764 26.5714C62.6103 26.5714 62.2222 25.2346 62.2222 24.0128Z" fill="black" fill-opacity="0.7"/>
<path d="M69.3707 27.8938H71.2969V25.1771C71.2969 24.1134 71.2969 22.1585 72.8636 22.1585C73.2086 22.1585 73.5536 22.216 73.7261 22.3167V20.3762C73.5248 20.3187 73.3236 20.3187 73.1367 20.3187C71.9868 20.3187 71.1962 21.483 71.11 22.1729H71.0812V20.4912H69.3707V27.8938Z" fill="black" fill-opacity="0.7"/>
<path d="M75.4031 25.6658C75.4031 27.1319 76.2368 28.0663 77.7461 28.0663C78.321 28.0663 78.7666 28.0088 79.1691 27.8938L79.1116 26.3701C78.9103 26.4995 78.5797 26.5714 78.2348 26.5714C77.5017 26.5714 77.3292 25.982 77.3292 25.3496V21.8998H79.0397V20.4912H77.3292V18.3926L75.4031 19.0106V20.4912H73.9801V21.8998H75.4031V25.6658Z" fill="black" fill-opacity="0.7"/>
<path d="M80.1849 27.8938H82.111V24.3003C82.111 23.3372 82.2691 21.8136 83.5484 21.8136C84.6552 21.8136 84.6552 22.791 84.6552 23.481V27.8938H86.5813V24.3003C86.5813 23.3372 86.7395 21.8136 88.0187 21.8136C89.1255 21.8136 89.1255 22.791 89.1255 23.481V27.8938H91.0516V23.2222C91.0516 21.5692 90.5342 20.3187 88.7087 20.3187C87.8031 20.3187 86.8401 20.7355 86.3945 21.6267C85.9776 20.7068 85.2446 20.3187 84.2096 20.3187C83.4909 20.3187 82.6141 20.6205 82.0104 21.5261H81.9817V20.4912H80.1849V27.8938Z" fill="black" fill-opacity="0.7"/>
<path d="M99.6426 20.4912H97.7165V24.1134C97.7165 25.0621 97.4146 26.5714 96.0203 26.5714C94.7842 26.5714 94.7698 25.3496 94.7698 24.444V20.4912H92.8437V25.1627C92.8437 26.8301 93.6055 28.0663 95.3591 28.0663C96.3653 28.0663 97.199 27.6063 97.7883 26.8876H97.8171V27.8938H99.6426V20.4912Z" fill="black" fill-opacity="0.7"/>
<path d="M101.487 27.8938H103.413V24.2715C103.413 23.3228 103.715 21.8136 105.109 21.8136C106.346 21.8136 106.36 23.0354 106.36 23.9409V27.8938H108.286V23.2222C108.286 21.5548 107.524 20.3187 105.771 20.3187C104.764 20.3187 103.945 20.6493 103.341 21.4973H103.313V20.4912H101.487V27.8938Z" fill="black" fill-opacity="0.7"/>
<path d="M111.669 24.1709C111.669 23.1791 112.014 21.8136 113.264 21.8136C114.5 21.8136 114.989 23.136 114.989 24.1709C114.989 25.2202 114.572 26.5714 113.293 26.5714C112.028 26.5714 111.669 25.1915 111.669 24.1709ZM115.061 27.8938H116.93V17.1133H115.003V21.3536H114.975C114.4 20.6493 113.724 20.3187 112.761 20.3187C110.49 20.3187 109.656 22.1298 109.656 24.1709C109.656 26.1976 110.49 28.0663 112.761 28.0663C113.667 28.0663 114.457 27.7788 115.032 27.0601H115.061V27.8938Z" fill="black" fill-opacity="0.7"/>
<path d="M125.923 24.8177V23.2366H122.142V24.8177H125.923Z" fill="black" fill-opacity="0.7"/>
<path d="M131.203 27.8938H133.129V20.3905H133.157L136.995 27.8938H139.453V17.8607H137.527V25.3639H137.498L133.675 17.8607H131.203V27.8938Z" fill="black" fill-opacity="0.7"/>
<path d="M140.886 24.2428C140.886 26.3701 142.309 28.0663 144.753 28.0663C147.211 28.0663 148.634 26.3701 148.634 24.2428C148.634 21.7992 146.952 20.3187 144.753 20.3187C142.568 20.3187 140.886 21.7992 140.886 24.2428ZM142.898 24.0128C142.898 22.906 143.502 21.8136 144.753 21.8136C146.018 21.8136 146.621 22.8772 146.621 24.0128C146.621 25.249 146.233 26.5714 144.753 26.5714C143.286 26.5714 142.898 25.2346 142.898 24.0128Z" fill="black" fill-opacity="0.7"/>
<path d="M150.047 27.8938H151.973V25.1771C151.973 24.1134 151.973 22.1585 153.54 22.1585C153.885 22.1585 154.23 22.216 154.402 22.3167V20.3762C154.201 20.3187 154 20.3187 153.813 20.3187C152.663 20.3187 151.872 21.483 151.786 22.1729H151.757V20.4912H150.047V27.8938Z" fill="black" fill-opacity="0.7"/>
<path d="M156.732 24.1709C156.732 23.1791 157.077 21.8136 158.328 21.8136C159.564 21.8136 160.053 23.136 160.053 24.1709C160.053 25.2202 159.636 26.5714 158.356 26.5714C157.092 26.5714 156.732 25.1915 156.732 24.1709ZM160.124 27.8938H161.993V17.1133H160.067V21.3536H160.038C159.463 20.6493 158.788 20.3187 157.825 20.3187C155.554 20.3187 154.72 22.1298 154.72 24.1709C154.72 26.1976 155.554 28.0663 157.825 28.0663C158.73 28.0663 159.521 27.7788 160.096 27.0601H160.124V27.8938Z" fill="black" fill-opacity="0.7"/>
<path d="M165.505 27.8938H167.704L169.285 22.2448H169.314L170.924 27.8938H173.195L175.466 20.4912H173.626L172.088 25.9677H172.06L170.45 20.4912H168.207L166.712 25.9677H166.684L165.045 20.4912H163.004L165.505 27.8938Z" fill="black" fill-opacity="0.7"/>
<path d="M177.833 23.4666C177.919 22.4748 178.466 21.7273 179.544 21.7273C180.622 21.7273 181.053 22.5323 181.11 23.4666H177.833ZM182.404 25.9102C181.685 26.3126 180.881 26.6576 179.946 26.6576C178.753 26.6576 177.919 25.982 177.833 24.789H182.95C182.95 22.2017 182.174 20.3187 179.429 20.3187C177.129 20.3187 175.993 22.0867 175.993 24.2284C175.993 26.6576 177.416 28.0663 179.86 28.0663C180.895 28.0663 181.7 27.865 182.404 27.4769V25.9102Z" fill="black" fill-opacity="0.7"/>
<path d="M188.839 20.5918C188.235 20.4624 187.646 20.3187 186.74 20.3187C185.231 20.3187 183.837 21.023 183.837 22.6185C183.837 25.2921 187.186 24.3003 187.186 25.752C187.186 26.4707 186.41 26.6576 185.921 26.6576C185.26 26.6576 184.627 26.4707 184.024 26.1689L183.909 27.75C184.613 27.9369 185.36 28.0663 186.093 28.0663C187.66 28.0663 189.198 27.3763 189.198 25.6514C189.198 22.9779 185.849 23.7253 185.849 22.5466C185.849 21.9142 186.467 21.7273 186.985 21.7273C187.689 21.7273 188.12 21.8423 188.71 22.0436L188.839 20.5918Z" fill="black" fill-opacity="0.7"/>
<path d="M191.187 25.6658C191.187 27.1319 192.02 28.0663 193.53 28.0663C194.105 28.0663 194.55 28.0088 194.953 27.8938L194.895 26.3701C194.694 26.4995 194.363 26.5714 194.018 26.5714C193.285 26.5714 193.113 25.982 193.113 25.3496V21.8998H194.823V20.4912H193.113V18.3926L191.187 19.0106V20.4912H189.764V21.8998H191.187V25.6658Z" fill="black" fill-opacity="0.7"/>
<path d="M201.22 23.4666C201.306 22.4748 201.852 21.7273 202.93 21.7273C204.008 21.7273 204.439 22.5323 204.497 23.4666H201.22ZM205.791 25.9102C205.072 26.3126 204.267 26.6576 203.333 26.6576C202.14 26.6576 201.306 25.982 201.22 24.789H206.337C206.337 22.2017 205.561 20.3187 202.815 20.3187C200.515 20.3187 199.38 22.0867 199.38 24.2284C199.38 26.6576 200.803 28.0663 203.246 28.0663C204.281 28.0663 205.086 27.865 205.791 27.4769V25.9102Z" fill="black" fill-opacity="0.7"/>
<path d="M215.833 18.1051C214.971 17.8464 214.051 17.6882 212.886 17.6882C209.48 17.6882 207.381 19.6144 207.381 23.0497C207.381 26.442 209.638 28.0663 212.886 28.0663C213.964 28.0663 215.071 27.8363 216.135 27.5488V22.1442H212.081V23.7253H214.209V26.3414C213.864 26.4276 213.433 26.4851 212.886 26.4851C210.745 26.4851 209.48 24.9471 209.48 22.906C209.48 20.8505 210.773 19.2694 213.116 19.2694C213.921 19.2694 214.928 19.4419 215.704 19.8012L215.833 18.1051Z" fill="black" fill-opacity="0.7"/>
</svg>
