<svg width="107" height="43" viewBox="0 0 107 43" fill="none" xmlns="http://www.w3.org/2000/svg">
<rect width="105.969" height="42" fill="#FAFAFA"/>
<path d="M53.2564 38.7689H55.9074L57.7235 30.5963H57.7528L59.5982 38.7689H62.2345L64.9001 28.5459H62.9082L60.9896 36.7184H60.9603L59.1588 28.5459H56.376L54.6332 36.7184H54.6039L52.6999 28.5459H50.5469L53.2564 38.7689Z" fill="black" fill-opacity="0.7"/>
<path d="M67.0446 34.2579C67.1325 33.2473 67.689 32.4857 68.7875 32.4857C69.886 32.4857 70.3254 33.3059 70.3839 34.2579H67.0446ZM71.7021 36.7477C70.9698 37.1578 70.1496 37.5093 69.1976 37.5093C67.982 37.5093 67.1325 36.8209 67.0446 35.6053H72.2586C72.2586 32.969 71.4678 31.0504 68.6703 31.0504C66.327 31.0504 65.1699 32.8518 65.1699 35.0341C65.1699 37.5093 66.6199 38.9446 69.1097 38.9446C70.1642 38.9446 70.9844 38.7396 71.7021 38.3441V36.7477Z" fill="black" fill-opacity="0.7"/>
<path d="M78.2586 31.3286C77.6435 31.1968 77.043 31.0504 76.1203 31.0504C74.5825 31.0504 73.1618 31.768 73.1618 33.3937C73.1618 36.1179 76.5743 35.1073 76.5743 36.5866C76.5743 37.3189 75.7834 37.5093 75.2855 37.5093C74.6118 37.5093 73.9673 37.3189 73.3522 37.0113L73.235 38.6224C73.9527 38.8128 74.7143 38.9446 75.4612 38.9446C77.0577 38.9446 78.6248 38.2416 78.6248 36.4841C78.6248 33.7599 75.2122 34.5215 75.2122 33.3205C75.2122 32.6761 75.842 32.4857 76.3693 32.4857C77.087 32.4857 77.5263 32.6029 78.1268 32.8079L78.2586 31.3286Z" fill="black" fill-opacity="0.7"/>
<path d="M80.6509 36.4987C80.6509 37.9926 81.5004 38.9446 83.0382 38.9446C83.6241 38.9446 84.0781 38.8861 84.4882 38.7689L84.4296 37.2164C84.2246 37.3482 83.8877 37.4214 83.5362 37.4214C82.7892 37.4214 82.6135 36.8209 82.6135 36.1765V32.6614H84.3564V31.2261H82.6135V29.0878L80.6509 29.7176V31.2261H79.2009V32.6614H80.6509V36.4987Z" fill="black" fill-opacity="0.7"/>
<path d="M90.8738 34.2579C90.9617 33.2473 91.5182 32.4857 92.6167 32.4857C93.7151 32.4857 94.1545 33.3059 94.2131 34.2579H90.8738ZM95.5313 36.7477C94.799 37.1578 93.9788 37.5093 93.0268 37.5093C91.8111 37.5093 90.9617 36.8209 90.8738 35.6053H96.0878C96.0878 32.969 95.2969 31.0504 92.4995 31.0504C90.1561 31.0504 88.9991 32.8518 88.9991 35.0341C88.9991 37.5093 90.4491 38.9446 92.9389 38.9446C93.9934 38.9446 94.8136 38.7396 95.5313 38.3441V36.7477Z" fill="black" fill-opacity="0.7"/>
<path d="M105.764 28.7949C104.885 28.5312 103.948 28.3701 102.762 28.3701C99.2904 28.3701 97.1521 30.3327 97.1521 33.8331C97.1521 37.2896 99.4515 38.9446 102.762 38.9446C103.86 38.9446 104.988 38.7103 106.072 38.4174V32.9104H101.941V34.5215H104.109V37.1871C103.757 37.275 103.318 37.3336 102.762 37.3336C100.579 37.3336 99.2904 35.7664 99.2904 33.6867C99.2904 31.5923 100.609 29.9812 102.996 29.9812C103.816 29.9812 104.841 30.1569 105.632 30.5231L105.764 28.7949Z" fill="black" fill-opacity="0.7"/>
<path fill-rule="evenodd" clip-rule="evenodd" d="M0 0H39.6308V42H0V0ZM19.555 5.61989C24.8761 5.25029 29.8614 6.79589 33.4787 9.53429L34.5949 7.57709C30.6671 4.89749 25.388 3.50309 19.8656 4.08269C10.3985 5.05709 3.47445 11.4579 3.32338 18.8751C3.32338 18.8751 3.35695 19.0095 3.42409 18.8751C3.93605 11.9619 10.6923 6.23309 19.555 5.61989ZM13.3946 17.6318L14.1751 20.7734C14.8046 21.0254 15.476 21.1598 16.1474 21.1598C18.9086 21.1598 21.1411 19.0346 21.1411 16.4138C21.1411 13.793 18.9086 11.6594 16.1474 11.6594C13.3862 11.6594 11.1537 13.7846 11.1537 16.4054V24.8306H13.3946V17.6318ZM16.1474 13.8098C17.5826 13.8854 18.682 15.1118 18.6149 16.5482C18.5477 17.9846 17.314 19.085 15.8788 19.0178C14.494 18.9422 13.4114 17.7998 13.4114 16.4138C13.4533 14.9354 14.6787 13.7762 16.1474 13.8098ZM28.3675 11.6677C27.5282 11.6593 26.6973 11.7097 25.8664 11.8105C22.8454 12.4303 22.5279 15.2299 22.2183 17.9608L22.2156 17.9845L22.1904 18.2365C22.1233 18.7573 22.0393 19.2781 21.9134 19.7905L21.8631 20.0341C21.7791 20.7313 21.519 21.3949 21.0993 21.9577C20.4279 22.7809 19.3452 22.8649 18.422 22.8649V24.9229C19.2865 24.9733 20.1509 24.8725 20.9902 24.6373C22.5429 24.2593 23.4997 22.7641 23.869 21.4789L24.4564 18.2785V18.2281L24.8006 16.1701C24.8761 15.4897 25.1866 14.8513 25.6818 14.3725C26.412 13.6921 27.503 13.6921 28.3675 13.7425V11.6677ZM9.50045 32.1802C9.66831 32.0458 9.81938 31.903 9.95366 31.735C10.6419 31.0294 10.6587 29.4754 10.1887 28.669C9.62634 27.6274 8.61921 27.0226 6.81476 26.9638L3.52478 27.0142V37.8418H5.35441V33.1462H7.33511C7.4694 33.1462 7.61207 33.163 7.74636 33.1882C8.15761 33.2722 8.53528 33.4822 8.81224 33.793C9.17313 34.2886 9.25706 34.9354 9.02206 35.4982C8.67796 36.103 8.03171 36.4558 7.3435 36.4138H5.37959L5.86637 37.8418H7.40225C8.58564 37.9342 9.74384 37.4302 10.4824 36.4978C11.1706 35.7586 11.179 34.2382 10.709 33.3898C10.4237 32.8774 9.99563 32.4574 9.47527 32.1886L9.50045 32.1802ZM7.51136 31.6594H5.3628V28.4422H6.81476C6.81476 28.4422 8.81224 28.3162 8.81224 29.845C8.81224 29.845 8.96331 31.4074 7.51136 31.6594ZM35.7282 29.8868L32.7152 33.3308L36.3073 37.8501H34.0412L30.5918 33.5828V37.8417H28.7286V27.1988H30.5918V33.0536L33.5377 29.8868H35.7282ZM22.8202 30.2067C23.2399 29.9379 23.7183 29.8035 24.2135 29.8119L24.2155 29.8118C24.3135 29.8047 27.8733 29.5478 27.9231 33.1971V37.8591H26.0683V33.3315C26.0767 31.4331 24.0876 31.6095 24.0876 31.6095C23.4077 31.6515 22.8035 32.0463 22.4845 32.6511C22.3838 32.8611 22.3251 33.0963 22.2999 33.3315V37.8591H20.4367V29.8791H22.2915V32.7015L22.3419 32.5335C22.4222 32.1716 22.493 31.8116 22.5651 31.4443L22.5652 31.444C22.6438 31.0442 22.724 30.6357 22.8202 30.2067ZM11.5314 33.894C11.5398 31.6344 13.3695 29.8032 15.6271 29.8116H15.7027C17.9351 29.8368 19.7228 31.668 19.6976 33.9024V37.8672H17.8344V35.2128C17.8344 35.2128 17.4735 36.8508 17.2973 37.632C16.7685 37.8672 16.1894 37.9932 15.6103 37.9932C13.3527 37.9848 11.523 36.1536 11.5314 33.894ZM13.3107 33.9024C13.3107 35.1624 14.3262 36.1788 15.5852 36.1788C16.8441 36.1788 17.8596 35.1624 17.8596 33.9024C17.8596 32.6424 16.8441 31.626 15.5852 31.626C14.3262 31.626 13.3107 32.6424 13.3107 33.9024ZM35.4592 20.1181C35.4592 22.7389 33.2268 24.8557 30.4655 24.8557C27.7043 24.8557 25.4718 22.7221 25.4718 20.1013C25.4718 17.4805 27.7043 15.3553 30.4655 15.3553C31.137 15.3553 31.8084 15.4813 32.4378 15.7417L33.2184 18.8833V11.6845H35.4592V20.1181ZM32.933 20.2441C33.0002 18.8077 31.9007 17.5813 30.4655 17.5057C28.9884 17.4637 27.7631 18.6313 27.7295 20.1097C27.7295 21.4957 28.8122 22.6381 30.197 22.7137C31.6321 22.7809 32.8575 21.6805 32.933 20.2441Z" fill="black" fill-opacity="0.7"/>
</svg>
