<svg width="127" height="50" viewBox="0 0 127 50" fill="none" xmlns="http://www.w3.org/2000/svg">
<g clip-path="url(#clip0)">
<rect width="126.282" height="50" fill="#FAFAFA"/>
<path d="M69.7949 18.209H67.4873V18.4527C67.8207 18.4687 68.0337 18.5238 68.1261 18.6181C68.2186 18.7124 68.2591 18.933 68.2477 19.2797V20.69H65.2328V19.2797C65.2217 18.9324 65.2615 18.7108 65.3521 18.6149C65.4428 18.5189 65.6505 18.4649 65.9755 18.4527V18.209H63.6855V18.4527C64.0359 18.4643 64.2591 18.5173 64.3553 18.6116C64.4514 18.7059 64.4934 18.9286 64.4813 19.2797V22.7967C64.4931 23.1478 64.4518 23.3706 64.3575 23.4649C64.2632 23.5592 64.0451 23.6121 63.7032 23.6237V23.8675H66.0285V23.6237C65.6782 23.6116 65.4549 23.5575 65.3588 23.4616C65.2626 23.3657 65.2206 23.144 65.2328 22.7967V21.0644H68.2477V22.7967C68.2606 23.1478 68.2171 23.3706 68.1173 23.4649C68.0175 23.5592 67.7839 23.6121 67.4166 23.6237V23.8675H69.7861V23.6237C69.44 23.6121 69.2193 23.5592 69.1241 23.4649C69.0289 23.3706 68.9872 23.1478 68.9992 22.7967V19.2797C68.9871 18.933 69.0291 18.7124 69.1252 18.6181C69.2214 18.5238 69.4446 18.4687 69.7949 18.4527V18.209Z" fill="black" fill-opacity="0.7"/>
<path d="M73.4873 18.0781C72.547 18.1061 71.8173 18.4136 71.298 19.0009C70.7788 19.5881 70.5154 20.2875 70.5078 21.0989C70.5275 21.9547 70.8064 22.6479 71.3444 23.1784C71.8825 23.7089 72.5614 23.982 73.3812 23.9978C74.2121 23.9891 74.9066 23.7192 75.4645 23.1882C76.0224 22.6572 76.3123 21.9172 76.3343 20.9683C76.309 20.0824 76.0213 19.3819 75.4711 18.8671C74.9209 18.3522 74.2597 18.0892 73.4873 18.0781ZM73.2928 18.3915C73.8926 18.3939 74.395 18.6329 74.8003 19.1086C75.2055 19.5843 75.4162 20.2826 75.4324 21.2034C75.4166 22.038 75.2294 22.6604 74.871 23.0707C74.5126 23.4809 74.0779 23.6855 73.5669 23.6844C72.9316 23.6688 72.4163 23.4018 72.0208 22.8835C71.6253 22.3652 71.4216 21.689 71.4096 20.8551C71.4268 20.0365 71.618 19.4213 71.9832 19.0096C72.3485 18.5979 72.785 18.3919 73.2928 18.3915Z" fill="black" fill-opacity="0.7"/>
<path d="M82.1431 22.3438C81.9302 22.7767 81.6841 23.1078 81.4049 23.3373C81.1256 23.5667 80.7646 23.6824 80.3218 23.6844C79.6373 23.6719 79.0833 23.4183 78.6596 22.9238C78.236 22.4292 78.0179 21.7687 78.0054 20.9422C78.0074 20.257 78.2 19.6665 78.5834 19.1707C78.9667 18.6748 79.5285 18.4151 80.2687 18.3915C80.7434 18.3879 81.1203 18.4887 81.3993 18.694C81.6784 18.8993 81.8762 19.2309 81.9928 19.6886L82.2492 19.619C82.223 19.3932 82.1958 19.1788 82.1674 18.9759C82.1391 18.7729 82.1074 18.552 82.0724 18.3132C81.9436 18.2843 81.7414 18.2397 81.4656 18.1793C81.1899 18.1189 80.8705 18.0852 80.5075 18.0781C79.503 18.0899 78.6893 18.3667 78.0661 18.9084C77.443 19.4501 77.1221 20.1861 77.1035 21.1163C77.1018 21.5876 77.2123 22.0417 77.4349 22.4785C77.6575 22.9154 78.0025 23.2753 78.4697 23.5583C78.9369 23.8414 79.5366 23.9879 80.2687 23.9978C80.5996 23.9916 80.9193 23.9604 81.228 23.9042C81.5367 23.848 81.7592 23.8037 81.8956 23.7714C81.9784 23.6111 82.0669 23.4007 82.1608 23.1403C82.2547 22.8799 82.3343 22.6434 82.3995 22.4308L82.1431 22.3438Z" fill="black" fill-opacity="0.7"/>
<path d="M89.0313 18.209H86.7237V18.4527C87.0571 18.4687 87.27 18.5238 87.3625 18.6181C87.4549 18.7124 87.4954 18.933 87.484 19.2797V20.69H84.4691V19.2797C84.4581 18.9324 84.4979 18.7108 84.5885 18.6149C84.6791 18.5189 84.8869 18.4649 85.2118 18.4527V18.209H82.9219V18.4527C83.2722 18.4643 83.4955 18.5173 83.5916 18.6116C83.6878 18.7059 83.7298 18.9286 83.7176 19.2797V22.7967C83.7294 23.1478 83.6881 23.3706 83.5938 23.4649C83.4995 23.5592 83.2814 23.6121 82.9396 23.6237V23.8675H85.2648V23.6237C84.9145 23.6116 84.6913 23.5575 84.5951 23.4616C84.499 23.3657 84.457 23.144 84.4691 22.7967V21.0644H87.484V22.7967C87.4969 23.1478 87.4535 23.3706 87.3536 23.4649C87.2538 23.5592 87.0202 23.6121 86.6529 23.6237V23.8675H89.0224V23.6237C88.6763 23.6121 88.4557 23.5592 88.3604 23.4649C88.2652 23.3706 88.2236 23.1478 88.2356 22.7967V19.2797C88.2234 18.933 88.2654 18.7124 88.3615 18.6181C88.4577 18.5238 88.6809 18.4687 89.0313 18.4527V18.209Z" fill="black" fill-opacity="0.7"/>
<path d="M92.9724 19.4797C92.9374 19.2087 92.9079 18.978 92.884 18.7876C92.86 18.5972 92.8394 18.4274 92.8221 18.2783C92.6541 18.2243 92.4772 18.1779 92.2916 18.1391C92.1059 18.1003 91.9114 18.0799 91.7081 18.0781C91.1332 18.0905 90.6871 18.2443 90.3697 18.5395C90.0523 18.8348 89.8913 19.1975 89.8867 19.6277C89.9122 20.1105 90.0846 20.4812 90.404 20.7398C90.7233 20.9984 91.0372 21.1994 91.3456 21.3426C91.6836 21.5088 91.958 21.688 92.1689 21.8802C92.3798 22.0724 92.4885 22.3256 92.4949 22.6397C92.4927 22.9613 92.3999 23.2148 92.2164 23.4004C92.033 23.5859 91.7721 23.6806 91.434 23.6844C90.9796 23.6588 90.6395 23.4902 90.4139 23.1784C90.1883 22.8666 90.045 22.5652 89.984 22.2741L89.7188 22.3351C89.7519 22.5627 89.7917 22.8169 89.8381 23.0979C89.8845 23.3788 89.9243 23.5743 89.9575 23.6844C90.0008 23.7067 90.0579 23.7339 90.1288 23.766C90.1997 23.7981 90.2899 23.8318 90.3995 23.8672C90.5058 23.8993 90.6314 23.9287 90.7764 23.9554C90.9214 23.982 91.0846 23.9962 91.266 23.9978C91.8622 23.9864 92.3363 23.8264 92.6883 23.5179C93.0403 23.2094 93.2205 22.8209 93.2288 22.3525C93.2087 21.8719 93.0411 21.5033 92.7259 21.2469C92.4108 20.9904 92.0685 20.7786 91.6992 20.6114C91.3468 20.4451 91.0724 20.2663 90.8759 20.0749C90.6793 19.8836 90.5795 19.6329 90.5764 19.323C90.5747 19.0778 90.6532 18.8609 90.8118 18.6723C90.9704 18.4837 91.219 18.3843 91.5577 18.3741C91.9331 18.3877 92.2035 18.5107 92.3689 18.743C92.5343 18.9753 92.65 19.2354 92.716 19.5232L92.9724 19.4797Z" fill="black" fill-opacity="0.7"/>
<path d="M98.981 22.3438C98.7681 22.7767 98.522 23.1078 98.2427 23.3373C97.9635 23.5667 97.6025 23.6824 97.1597 23.6844C96.4752 23.6719 95.9211 23.4183 95.4975 22.9238C95.0739 22.4292 94.8558 21.7687 94.8432 20.9422C94.8453 20.257 95.0379 19.6665 95.4212 19.1707C95.8046 18.6748 96.3664 18.4151 97.1066 18.3915C97.5813 18.3879 97.9582 18.4887 98.2372 18.694C98.5163 18.8993 98.7141 19.2309 98.8307 19.6886L99.0871 19.619C99.0609 19.3932 99.0337 19.1788 99.0053 18.9759C98.9769 18.7729 98.9453 18.552 98.9103 18.3132C98.7815 18.2843 98.5793 18.2397 98.3035 18.1793C98.0278 18.1189 97.7084 18.0852 97.3454 18.0781C96.3409 18.0899 95.5272 18.3667 94.904 18.9084C94.2809 19.4501 93.96 20.1861 93.9414 21.1163C93.9397 21.5876 94.0502 22.0417 94.2728 22.4785C94.4954 22.9154 94.8404 23.2753 95.3076 23.5583C95.7748 23.8414 96.3745 23.9879 97.1066 23.9978C97.4374 23.9916 97.7572 23.9604 98.0659 23.9042C98.3746 23.848 98.5971 23.8037 98.7334 23.7714C98.8163 23.6111 98.9047 23.4007 98.9987 23.1403C99.0926 22.8799 99.1722 22.6434 99.2374 22.4308L98.981 22.3438Z" fill="black" fill-opacity="0.7"/>
<path d="M105.869 18.209H103.562V18.4527C103.895 18.4687 104.108 18.5238 104.2 18.6181C104.293 18.7124 104.333 18.933 104.322 19.2797V20.69H101.307V19.2797C101.296 18.9324 101.336 18.7108 101.426 18.6149C101.517 18.5189 101.725 18.4649 102.05 18.4527V18.209H99.7598V18.4527C100.11 18.4643 100.333 18.5173 100.43 18.6116C100.526 18.7059 100.568 18.9286 100.555 19.2797V22.7967C100.567 23.1478 100.526 23.3706 100.432 23.4649C100.337 23.5592 100.119 23.6121 99.7775 23.6237V23.8675H102.103V23.6237C101.752 23.6116 101.529 23.5575 101.433 23.4616C101.337 23.3657 101.295 23.144 101.307 22.7967V21.0644H104.322V22.7967C104.335 23.1478 104.291 23.3706 104.192 23.4649C104.092 23.5592 103.858 23.6121 103.491 23.6237V23.8675H105.86V23.6237C105.514 23.6121 105.294 23.5592 105.198 23.4649C105.103 23.3706 105.061 23.1478 105.073 22.7967V19.2797C105.061 18.933 105.103 18.7124 105.199 18.6181C105.296 18.5238 105.519 18.4687 105.869 18.4527V18.209Z" fill="black" fill-opacity="0.7"/>
<path d="M112.523 18.209H110.419V18.4527C110.726 18.4709 110.942 18.5151 111.066 18.5855C111.191 18.6559 111.261 18.7741 111.276 18.9402C111.294 19.0681 111.309 19.2411 111.321 19.4593C111.332 19.6775 111.338 19.9833 111.338 20.3766V21.0295C111.348 21.7617 111.229 22.3562 110.98 22.8131C110.732 23.2699 110.294 23.5053 109.667 23.5193C109.118 23.5147 108.704 23.3214 108.425 22.9393C108.146 22.5572 108.006 22.0134 108.005 21.3081V19.332C107.994 18.9553 108.034 18.7163 108.127 18.6149C108.219 18.5135 108.432 18.4595 108.765 18.4527V18.209H106.484V18.4527C106.818 18.4671 107.033 18.5233 107.128 18.6214C107.223 18.7195 107.265 18.9564 107.254 19.332V21.4996C107.253 22.0103 107.316 22.434 107.444 22.7706C107.571 23.1072 107.767 23.3742 108.032 23.5715C108.228 23.7184 108.447 23.8251 108.689 23.8914C108.931 23.9578 109.183 23.9905 109.446 23.9894C109.742 23.9905 110.028 23.9426 110.305 23.8457C110.582 23.7489 110.826 23.5965 111.038 23.3887C111.286 23.1248 111.459 22.8038 111.558 22.4257C111.657 22.0475 111.705 21.6025 111.701 21.0905V20.3766C111.702 19.9822 111.707 19.6764 111.717 19.4593C111.728 19.2422 111.74 19.0779 111.754 18.9664C111.768 18.7872 111.834 18.6602 111.953 18.5855C112.071 18.5108 112.261 18.4665 112.523 18.4527V18.209Z" fill="black" fill-opacity="0.7"/>
<path d="M117.08 22.4485C117.013 22.6484 116.941 22.8189 116.864 22.96C116.787 23.1011 116.709 23.215 116.629 23.3016C116.529 23.4119 116.399 23.4852 116.24 23.5215C116.08 23.5577 115.88 23.5744 115.639 23.5715C115.452 23.5728 115.286 23.5659 115.141 23.5508C114.996 23.5358 114.879 23.5049 114.79 23.4583C114.712 23.4192 114.658 23.3452 114.628 23.2363C114.599 23.1275 114.585 22.9578 114.586 22.7271V19.2885C114.575 18.9294 114.618 18.703 114.714 18.6094C114.809 18.5159 115.026 18.4636 115.364 18.4527V18.209H113.057V18.4527C113.406 18.4642 113.627 18.5175 113.718 18.6127C113.809 18.7079 113.848 18.9332 113.835 19.2885V22.7706C113.847 23.1266 113.805 23.3548 113.707 23.4551C113.609 23.5554 113.38 23.6116 113.021 23.6237V23.8675H117.027C117.071 23.7093 117.128 23.4816 117.196 23.1841C117.264 22.8867 117.313 22.6589 117.345 22.5007L117.08 22.4485Z" fill="black" fill-opacity="0.7"/>
<path d="M122.024 22.4572C121.96 22.629 121.89 22.786 121.812 22.9284C121.735 23.0708 121.658 23.1865 121.582 23.2755C121.492 23.3869 121.366 23.4645 121.204 23.5084C121.041 23.5523 120.796 23.5733 120.467 23.5715C120.246 23.5739 120.059 23.5692 119.905 23.5574C119.751 23.5456 119.632 23.5126 119.548 23.4583C119.47 23.4088 119.414 23.3294 119.382 23.22C119.35 23.1107 119.335 22.9551 119.336 22.7532V21.1079H120.176C120.544 21.0972 120.784 21.1316 120.894 21.2113C121.004 21.2909 121.08 21.4799 121.122 21.7782H121.378V20.1155H121.122C121.086 20.3979 121.014 20.5796 120.906 20.6606C120.798 20.7417 120.552 20.7776 120.167 20.7684H119.336V18.7835C119.331 18.6615 119.345 18.5835 119.379 18.5496C119.413 18.5157 119.495 18.5008 119.628 18.505H120.3C120.612 18.5035 120.843 18.5217 120.991 18.5594C121.14 18.5971 121.243 18.6631 121.299 18.7574C121.356 18.8454 121.407 18.9459 121.453 19.0588C121.499 19.1718 121.542 19.318 121.582 19.4974L121.838 19.4626C121.823 19.2297 121.808 18.9925 121.793 18.7509C121.777 18.5093 121.768 18.3287 121.767 18.209H117.824V18.4527C118.157 18.4631 118.37 18.5164 118.463 18.6127C118.555 18.709 118.596 18.943 118.584 19.3146V22.7793C118.598 23.123 118.553 23.3454 118.448 23.4464C118.344 23.5474 118.097 23.6065 117.709 23.6237V23.8675H121.971C122.015 23.7101 122.07 23.483 122.135 23.1863C122.201 22.8896 122.249 22.6582 122.28 22.492L122.024 22.4572Z" fill="black" fill-opacity="0.7"/>
<path d="M67.7539 28.038C67.7408 27.8815 67.7281 27.718 67.7157 27.5473C67.7033 27.3767 67.6953 27.232 67.6915 27.1133H64.9445V27.2894C65.1769 27.2975 65.3255 27.3363 65.3901 27.4058C65.4548 27.4752 65.4831 27.6399 65.4752 27.8996V30.4095C65.4835 30.6695 65.4544 30.8352 65.3878 30.9065C65.3212 30.9778 65.1672 31.0176 64.9258 31.026V31.2021H66.6239V31.026C66.3496 31.0176 66.1756 30.9778 66.1018 30.9065C66.0281 30.8352 65.9961 30.6695 66.0058 30.4095V29.2709H66.6489C66.9209 29.2648 67.0949 29.2944 67.171 29.3598C67.2471 29.4252 67.2978 29.5633 67.3232 29.7742H67.5042V28.5601H67.3232C67.2978 28.7584 67.2471 28.8871 67.171 28.9462C67.0949 29.0053 66.9209 29.0318 66.6489 29.0256H66.0058V27.5285C66.0027 27.4403 66.0137 27.3839 66.0386 27.3594C66.0636 27.3349 66.1213 27.3242 66.2119 27.3272H66.6864C66.917 27.3259 67.0816 27.3426 67.1803 27.3775C67.2791 27.4123 67.3516 27.4732 67.3981 27.5599C67.4374 27.6202 67.4696 27.6883 67.4948 27.7644C67.5201 27.8404 67.5461 27.94 67.5729 28.0632L67.7539 28.038Z" fill="#424242"/>
<path d="M72.4516 27.1133H70.9657V27.2894C71.1825 27.3025 71.3342 27.3345 71.4207 27.3854C71.5072 27.4362 71.5574 27.5217 71.5713 27.6417C71.584 27.7341 71.5944 27.8591 71.6025 28.0168C71.6106 28.1744 71.6147 28.3954 71.615 28.6796V29.1514C71.6219 29.6805 71.5379 30.1101 71.3629 30.4402C71.188 30.7703 70.8808 30.9404 70.4413 30.9505C70.0507 30.9473 69.7565 30.8076 69.5587 30.5314C69.3608 30.2553 69.2617 29.8624 69.2613 29.3527V27.9248C69.2537 27.6526 69.283 27.4799 69.3495 27.4066C69.416 27.3333 69.5655 27.2943 69.7982 27.2894V27.1133H68.1875V27.2894C68.4259 27.2998 68.5781 27.3404 68.644 27.4113C68.71 27.4822 68.7388 27.6534 68.7307 27.9248V29.4911C68.7301 29.8602 68.7749 30.1663 68.8649 30.4095C68.9549 30.6528 69.0933 30.8457 69.2801 30.9883C69.4188 31.0944 69.5736 31.1715 69.7444 31.2195C69.9152 31.2674 70.0934 31.291 70.279 31.2902C70.4878 31.2911 70.6897 31.2564 70.8846 31.1864C71.0794 31.1164 71.25 31.0064 71.3965 30.8562C71.5747 30.6655 71.699 30.4335 71.7695 30.1603C71.84 29.887 71.8738 29.5654 71.871 29.1955V28.6796C71.8713 28.3946 71.8753 28.1737 71.8827 28.0168C71.8901 27.8599 71.8987 27.7412 71.9084 27.6606C71.9186 27.5311 71.9654 27.4394 72.0489 27.3854C72.1324 27.3314 72.2666 27.2994 72.4516 27.2894V27.1133ZM70.9283 26.2012C70.8447 26.2033 70.7745 26.2337 70.7175 26.2924C70.6606 26.3511 70.6309 26.4255 70.6286 26.5157C70.631 26.5998 70.6604 26.6706 70.7168 26.728C70.7731 26.7854 70.8415 26.8153 70.922 26.8176C71.0082 26.8153 71.0793 26.7854 71.1351 26.728C71.1908 26.6706 71.2197 26.5998 71.2217 26.5157C71.2196 26.4255 71.191 26.3511 71.1358 26.2924C71.0807 26.2337 71.0115 26.2033 70.9283 26.2012ZM69.742 26.2012C69.6585 26.2033 69.5883 26.2337 69.5313 26.2924C69.4744 26.3511 69.4447 26.4255 69.4424 26.5157C69.4448 26.5998 69.4742 26.6706 69.5306 26.728C69.5869 26.7854 69.6553 26.8153 69.7358 26.8176C69.822 26.8153 69.8931 26.7854 69.9489 26.728C70.0046 26.6706 70.0335 26.5998 70.0355 26.5157C70.0334 26.4255 70.0048 26.3511 69.9496 26.2924C69.8945 26.2337 69.8253 26.2033 69.742 26.2012Z" fill="#424242"/>
<path d="M76.5166 31.089C76.4479 31.0719 76.3761 31.0415 76.3012 30.9977C76.2263 30.954 76.1483 30.8858 76.0671 30.7933C75.9918 30.7149 75.9161 30.6263 75.84 30.5275C75.7639 30.4287 75.6711 30.2992 75.5614 30.1391C75.4629 29.9901 75.3602 29.8289 75.2532 29.6555C75.1461 29.4821 75.0637 29.3414 75.0058 29.2332C75.2382 29.1311 75.4273 28.9925 75.5731 28.8173C75.7189 28.6421 75.7941 28.4201 75.7986 28.1513C75.7972 27.962 75.7595 27.7979 75.6855 27.659C75.6115 27.5201 75.5098 27.4095 75.3804 27.3272C75.2664 27.2495 75.1291 27.1942 74.9683 27.1613C74.8076 27.1284 74.614 27.1124 74.3877 27.1133H72.8394V27.2895C73.0748 27.3002 73.2252 27.3385 73.2905 27.4043C73.3558 27.47 73.3844 27.631 73.3763 27.8871V30.4159C73.3849 30.6729 73.3553 30.8367 73.2874 30.9073C73.2195 30.9779 73.0618 31.0175 72.8145 31.026V31.2022H74.4501V31.026C74.2115 31.0176 74.0583 30.9779 73.9905 30.9073C73.9227 30.8367 73.8928 30.6729 73.9008 30.4159V29.4157H74.1005C74.2553 29.4151 74.3703 29.4351 74.4455 29.4754C74.5206 29.5158 74.5825 29.5797 74.6312 29.6673C74.7257 29.8248 74.8269 29.9926 74.9348 30.1705C75.0426 30.3485 75.1516 30.5163 75.2617 30.6738C75.3971 30.8749 75.5415 31.0183 75.6949 31.1039C75.8482 31.1895 76.041 31.2369 76.2731 31.2462C76.3428 31.2515 76.4157 31.2536 76.4916 31.2525L76.5166 31.089ZM73.9008 29.2144V27.6606C73.9005 27.574 73.9057 27.5098 73.9164 27.4679C73.927 27.4261 73.9447 27.3981 73.9694 27.3838C73.994 27.3647 74.0338 27.3495 74.0888 27.3382C74.1438 27.3269 74.2164 27.3212 74.3066 27.3209C74.5494 27.3172 74.7598 27.3875 74.9379 27.5316C75.1159 27.6758 75.2093 27.9159 75.218 28.2519C75.2189 28.4212 75.1922 28.5701 75.1377 28.6985C75.0832 28.827 74.9955 28.9381 74.8747 29.0319C74.7978 29.0973 74.7049 29.1443 74.5961 29.1727C74.4872 29.2011 74.3553 29.215 74.2004 29.2144H73.9008Z" fill="#424242"/>
<path d="M82.0709 31.2018V31.0256C81.8768 31.0165 81.7358 30.9735 81.6479 30.8967C81.56 30.8199 81.4721 30.6511 81.3841 30.3903C81.1833 29.8382 80.9809 29.2739 80.777 28.6973C80.5731 28.1208 80.3738 27.5613 80.1792 27.0186L79.9857 27.0752L78.6934 30.3714C78.5963 30.6401 78.5032 30.812 78.414 30.8873C78.3248 30.9625 78.1848 31.0086 77.9941 31.0256V31.2018H79.3551V31.0256C79.123 31.0102 78.9817 30.9703 78.9314 30.9061C78.8811 30.8419 78.8912 30.714 78.9618 30.5224C79.0025 30.3907 79.046 30.2578 79.0921 30.1237C79.1383 29.9897 79.1864 29.8521 79.2365 29.7109H80.5663C80.6356 29.9038 80.6999 30.0826 80.7591 30.2472C80.8182 30.4118 80.8684 30.5559 80.9097 30.6797C80.9544 30.7983 80.9523 30.8803 80.9034 30.9258C80.8545 30.9713 80.7338 31.0045 80.5413 31.0256V31.2018H82.0709ZM80.4789 29.4404H79.3302C79.4268 29.1813 79.5238 28.9163 79.6213 28.6455C79.7187 28.3746 79.8173 28.1049 79.917 27.8363H79.9295L80.4789 29.4404Z" fill="#424242"/>
<path d="M86.6745 27.1133H85.2011V27.2894C85.4158 27.2958 85.5685 27.327 85.6592 27.383C85.7499 27.4389 85.8011 27.5378 85.8129 27.6794C85.8257 27.7634 85.8361 27.8864 85.8442 28.0482C85.8522 28.2101 85.8564 28.4352 85.8566 28.7237V30.2711H85.8379L83.2283 27.1133H82.3105V27.2894C82.4539 27.3003 82.5668 27.3226 82.6492 27.3562C82.7317 27.3899 82.804 27.4452 82.8662 27.5222C82.9206 27.5832 82.9554 27.6498 82.9708 27.7219C82.9861 27.794 82.9929 27.9392 82.991 28.1575V29.5414C82.9906 29.8245 82.9867 30.051 82.9793 30.2208C82.9719 30.3907 82.9633 30.5228 82.9536 30.6171C82.9393 30.7678 82.8883 30.8722 82.8006 30.9301C82.713 30.988 82.5808 31.02 82.4042 31.026V31.2021H83.8838V31.026C83.6751 31.0175 83.526 30.9842 83.4366 30.9261C83.3473 30.8681 83.2966 30.7609 83.2845 30.6045C83.2747 30.5166 83.2661 30.389 83.2587 30.2216C83.2513 30.0542 83.2474 29.8275 83.247 29.5414V27.9625H83.2595L85.9191 31.2588H86.1126V28.7237C86.1126 28.4356 86.1157 28.2097 86.122 28.0459C86.1282 27.882 86.1376 27.7536 86.1501 27.6606C86.161 27.5279 86.2078 27.4346 86.2905 27.3806C86.3733 27.3266 86.5012 27.2962 86.6745 27.2894V27.1133Z" fill="#424242"/>
<path d="M91.1393 29.302H89.5536V29.4782C89.8513 29.4917 90.0378 29.5307 90.1131 29.5953C90.1884 29.6599 90.2204 29.8012 90.2091 30.0192V30.5539C90.2086 30.6824 90.1909 30.776 90.156 30.8346C90.1212 30.8931 90.0722 30.938 90.0093 30.969C89.9398 31.0038 89.8587 31.0302 89.7658 31.0485C89.6729 31.0667 89.5731 31.0758 89.4662 31.076C89.0654 31.0685 88.7369 30.966 88.4807 30.7682C88.2244 30.5704 88.0351 30.322 87.9128 30.0229C87.7904 29.7238 87.7297 29.4185 87.7306 29.107C87.7398 28.5228 87.8961 28.0667 88.1996 27.7388C88.503 27.4109 88.8981 27.2442 89.385 27.2387C89.6886 27.2313 89.9476 27.2981 90.1623 27.4392C90.3769 27.5804 90.5236 27.8407 90.6024 28.2201L90.7772 28.1823C90.7554 27.9735 90.7366 27.7856 90.721 27.6185C90.7054 27.4514 90.6929 27.3123 90.6836 27.201C90.576 27.1741 90.415 27.1382 90.2005 27.0933C89.986 27.0483 89.7454 27.0234 89.4786 27.0186C89.064 27.0184 88.6766 27.0977 88.3165 27.2567C87.9564 27.4156 87.6643 27.6553 87.4401 27.9757C87.216 28.296 87.1005 28.6983 87.0938 29.1825C87.1034 29.8183 87.3136 30.327 87.7243 30.7088C88.1351 31.0905 88.6886 31.2863 89.385 31.2961C89.6376 31.2922 89.8847 31.2655 90.1264 31.2159C90.368 31.1664 90.587 31.1176 90.7835 31.0697C90.7652 30.9815 90.7533 30.8874 90.7476 30.7874C90.7418 30.6874 90.7392 30.5823 90.7397 30.4721V29.9311C90.733 29.753 90.7527 29.6374 90.7991 29.5843C90.8454 29.5312 90.9588 29.4959 91.1393 29.4782L91.1393 29.302Z" fill="#424242"/>
<path d="M94.5115 30.1831C94.4669 30.3072 94.4172 30.4207 94.3624 30.5235C94.3077 30.6264 94.2533 30.71 94.1993 30.7744C94.1361 30.8548 94.0471 30.9109 93.9324 30.9427C93.8177 30.9744 93.6445 30.9896 93.4127 30.9883C93.2565 30.9899 93.1241 30.9866 93.0155 30.978C92.9069 30.9695 92.8228 30.9457 92.7634 30.9065C92.708 30.8707 92.669 30.8133 92.6463 30.7343C92.6237 30.6552 92.6128 30.5428 92.6136 30.3969V29.208H93.2067C93.4671 29.2003 93.6361 29.2252 93.7139 29.2827C93.7917 29.3403 93.8453 29.4768 93.8747 29.6924H94.0557V28.4909H93.8747C93.8493 28.695 93.7986 28.8263 93.7225 28.8849C93.6464 28.9434 93.4724 28.9694 93.2004 28.9627H92.6136V27.5285C92.6101 27.4403 92.6202 27.3839 92.644 27.3594C92.6678 27.3349 92.7263 27.3242 92.8196 27.3272H93.2941C93.5147 27.3261 93.6775 27.3392 93.7826 27.3665C93.8877 27.3937 93.96 27.4414 93.9995 27.5096C94.0399 27.5731 94.0763 27.6458 94.1088 27.7274C94.1413 27.809 94.1715 27.9147 94.1993 28.0443L94.3804 28.0191C94.3701 27.8508 94.3594 27.6794 94.3484 27.5049C94.3373 27.3303 94.3313 27.1998 94.3304 27.1133H91.546V27.2894C91.7814 27.2969 91.9318 27.3354 91.9971 27.405C92.0624 27.4746 92.091 27.6437 92.0829 27.9122V30.4158C92.0927 30.6642 92.0607 30.8248 91.9869 30.8978C91.9132 30.9708 91.7391 31.0136 91.4648 31.026V31.2021H94.474C94.5054 31.0884 94.5441 30.9243 94.5903 30.7099C94.6365 30.4955 94.6705 30.3283 94.6925 30.2082L94.5115 30.1831Z" fill="#424242"/>
<path d="M100.8 27.1133H99.4267V27.2894C99.6629 27.3116 99.8054 27.3553 99.8543 27.4207C99.9032 27.4861 99.9022 27.6101 99.8512 27.7927C99.8179 27.9488 99.7624 28.1705 99.6849 28.4578C99.6074 28.7451 99.5206 29.0545 99.4243 29.3858C99.3281 29.7171 99.2352 30.0269 99.1457 30.3152H99.1332C98.9429 29.7729 98.757 29.2424 98.5753 28.7237C98.3936 28.205 98.2154 27.687 98.0407 27.1699H97.8596C97.6993 27.6824 97.5331 28.2001 97.361 28.7229C97.1889 29.2457 97.018 29.7743 96.8483 30.3089H96.8358C96.6991 29.8632 96.5682 29.4257 96.4432 28.9965C96.3183 28.5673 96.1952 28.1409 96.0741 27.7172C96.0203 27.5625 96.014 27.4582 96.0554 27.4042C96.0968 27.3502 96.2279 27.312 96.4487 27.2894V27.1133H94.9316V27.2894C95.1148 27.3021 95.248 27.3459 95.3312 27.4207C95.4144 27.4956 95.4914 27.6573 95.5622 27.9059C95.7344 28.4648 95.9066 29.0234 96.0788 29.5815C96.251 30.1397 96.4201 30.703 96.5861 31.2713H96.7796C96.9394 30.7639 97.1051 30.2517 97.2767 29.7349C97.4483 29.218 97.6218 28.6838 97.7972 28.1324H97.8097C97.9731 28.5989 98.152 29.1095 98.3466 29.6641C98.5412 30.2187 98.7264 30.7545 98.9022 31.2713H99.0958C99.3541 30.3862 99.5726 29.6576 99.7513 29.0854C99.93 28.5132 100.055 28.1242 100.126 27.9185C100.209 27.6674 100.291 27.5043 100.372 27.4294C100.452 27.3544 100.595 27.3078 100.8 27.2894V27.1133Z" fill="#424242"/>
<path d="M105.092 31.2018V31.0256C104.898 31.0165 104.757 30.9735 104.669 30.8967C104.581 30.8199 104.494 30.6511 104.406 30.3903C104.205 29.8382 104.002 29.2739 103.798 28.6973C103.595 28.1208 103.395 27.5613 103.201 27.0186L103.007 27.0752L101.715 30.3714C101.618 30.6401 101.525 30.812 101.435 30.8873C101.346 30.9625 101.206 31.0086 101.016 31.0256V31.2018H102.377V31.0256C102.144 31.0102 102.003 30.9703 101.953 30.9061C101.903 30.8419 101.913 30.714 101.983 30.5224C102.024 30.3907 102.067 30.2578 102.114 30.1237C102.16 29.9897 102.208 29.8521 102.258 29.7109H103.588C103.657 29.9038 103.721 30.0826 103.781 30.2472C103.84 30.4118 103.89 30.5559 103.931 30.6797C103.976 30.7983 103.974 30.8803 103.925 30.9258C103.876 30.9713 103.755 31.0045 103.563 31.0256V31.2018H105.092ZM103.5 29.4404H102.352C102.448 29.1813 102.545 28.9163 102.643 28.6455C102.74 28.3746 102.839 28.1049 102.938 27.8363H102.951L103.5 29.4404Z" fill="#424242"/>
<path d="M109.696 27.1133H108.223V27.2894C108.437 27.2958 108.59 27.327 108.681 27.383C108.771 27.4389 108.823 27.5378 108.834 27.6794C108.847 27.7634 108.858 27.8864 108.866 28.0482C108.874 28.2101 108.878 28.4352 108.878 28.7237V30.2711H108.859L106.25 27.1133H105.332V27.2894C105.475 27.3003 105.588 27.3226 105.671 27.3562C105.753 27.3899 105.826 27.4452 105.888 27.5222C105.942 27.5832 105.977 27.6498 105.992 27.7219C106.008 27.794 106.014 27.9392 106.013 28.1575V29.5414C106.013 29.8245 106.008 30.051 106.001 30.2208C105.993 30.3907 105.985 30.5228 105.975 30.6171C105.961 30.7678 105.91 30.8722 105.822 30.9301C105.734 30.988 105.602 31.02 105.426 31.026V31.2021H106.905V31.026C106.697 31.0175 106.547 30.9842 106.458 30.9261C106.369 30.8681 106.318 30.7609 106.306 30.6045C106.296 30.5166 106.288 30.389 106.28 30.2216C106.273 30.0542 106.269 29.8275 106.268 29.5414V27.9625H106.281L108.941 31.2588H109.134V28.7237C109.134 28.4356 109.137 28.2097 109.143 28.0459C109.15 27.882 109.159 27.7536 109.172 27.6606C109.182 27.5279 109.229 27.4346 109.312 27.3806C109.395 27.3266 109.523 27.2962 109.696 27.2894V27.1133Z" fill="#424242"/>
<path d="M110.111 27.1133V27.2894C110.343 27.2973 110.492 27.3351 110.556 27.4027C110.621 27.4703 110.649 27.6339 110.642 27.8933V30.4221C110.651 30.6791 110.62 30.843 110.549 30.9136C110.479 30.9842 110.314 31.0238 110.055 31.0323V31.2022H111.528C111.909 31.2032 112.255 31.1618 112.565 31.0779C112.875 30.9941 113.148 30.8614 113.382 30.6801C113.622 30.4976 113.809 30.2665 113.944 29.9865C114.079 29.7066 114.148 29.3779 114.15 29.0005C114.148 28.7043 114.098 28.4427 114.002 28.2157C113.906 27.9887 113.778 27.7995 113.62 27.648C113.426 27.4606 113.184 27.3243 112.891 27.2391C112.599 27.1539 112.255 27.112 111.859 27.1133H110.111ZM111.172 27.7612C111.172 27.6386 111.179 27.5521 111.192 27.5017C111.205 27.4514 111.225 27.4184 111.253 27.4027C111.285 27.3773 111.341 27.3573 111.422 27.3429C111.503 27.3285 111.609 27.3212 111.74 27.3209C111.95 27.3206 112.144 27.3416 112.323 27.3838C112.501 27.426 112.661 27.491 112.802 27.5788C113.051 27.7306 113.236 27.9382 113.357 28.2016C113.479 28.465 113.539 28.7606 113.538 29.0885C113.54 29.6075 113.401 30.0479 113.122 30.4096C112.842 30.7713 112.413 30.96 111.834 30.9757C111.607 30.9807 111.44 30.9408 111.332 30.8562C111.225 30.7715 111.171 30.6122 111.172 30.3781V27.7612Z" fill="#424242"/>
<path d="M118.123 28.0695C118.104 27.8815 118.088 27.6865 118.077 27.4845C118.065 27.2824 118.057 27.1062 118.054 26.9561H117.923C117.879 27.0149 117.837 27.056 117.795 27.0795C117.753 27.103 117.692 27.1142 117.611 27.1133H115.145C115.059 27.1158 114.991 27.1077 114.94 27.0889C114.889 27.0702 114.843 27.0259 114.801 26.9561H114.676C114.67 27.131 114.66 27.3158 114.646 27.5104C114.632 27.705 114.618 27.8977 114.602 28.0883H114.783C114.819 27.9504 114.852 27.8348 114.883 27.7416C114.913 27.6484 114.946 27.5753 114.982 27.5222C115.016 27.4535 115.082 27.4037 115.181 27.3728C115.279 27.3419 115.455 27.3267 115.707 27.3272H116.094V30.4284C116.103 30.6684 116.071 30.8254 115.998 30.8994C115.924 30.9735 115.75 31.0157 115.476 31.026V31.2022H117.261V31.026C116.978 31.0157 116.798 30.9735 116.723 30.8994C116.647 30.8254 116.614 30.6684 116.624 30.4284V27.3272H117.061C117.291 27.3262 117.45 27.3408 117.54 27.3712C117.629 27.4016 117.697 27.4541 117.742 27.5285C117.776 27.577 117.809 27.6451 117.841 27.7329C117.873 27.8207 117.904 27.9392 117.935 28.0883L118.123 28.0695Z" fill="#424242"/>
<path d="M121.508 30.1831C121.463 30.3072 121.413 30.4207 121.359 30.5235C121.304 30.6264 121.249 30.71 121.195 30.7744C121.132 30.8548 121.043 30.9109 120.929 30.9427C120.814 30.9744 120.641 30.9896 120.409 30.9883C120.253 30.9899 120.12 30.9866 120.012 30.978C119.903 30.9695 119.819 30.9457 119.76 30.9065C119.704 30.8707 119.665 30.8133 119.642 30.7343C119.62 30.6552 119.609 30.5428 119.61 30.3969V29.208H120.203C120.463 29.2003 120.632 29.2252 120.71 29.2827C120.788 29.3403 120.841 29.4768 120.871 29.6924H121.052V28.4909H120.871C120.845 28.695 120.795 28.8263 120.719 28.8849C120.643 28.9434 120.468 28.9694 120.197 28.9627H119.61V27.5285C119.606 27.4403 119.616 27.3839 119.64 27.3594C119.664 27.3349 119.722 27.3242 119.816 27.3272H120.29C120.511 27.3261 120.674 27.3392 120.779 27.3665C120.884 27.3937 120.956 27.4414 120.996 27.5096C121.036 27.5731 121.072 27.6458 121.105 27.7274C121.137 27.809 121.168 27.9147 121.195 28.0443L121.376 28.0191C121.366 27.8508 121.356 27.6794 121.344 27.5049C121.333 27.3303 121.327 27.1998 121.327 27.1133H118.542V27.2894C118.778 27.2969 118.928 27.3354 118.993 27.405C119.058 27.4746 119.087 27.6437 119.079 27.9122V30.4158C119.089 30.6642 119.057 30.8248 118.983 30.8978C118.909 30.9708 118.735 31.0136 118.461 31.026V31.2021H121.47C121.501 31.0884 121.54 30.9243 121.586 30.7099C121.633 30.4955 121.667 30.3283 121.689 30.2082L121.508 30.1831Z" fill="#424242"/>
<path d="M79.3077 42.4371H76.3699V42.7551C76.7986 42.7788 77.0984 42.8365 77.2694 42.9283C77.4404 43.0202 77.5397 43.1745 77.5672 43.3912C77.5924 43.5581 77.613 43.7838 77.629 44.0685C77.6449 44.3532 77.6531 44.7522 77.6536 45.2654V46.1174C77.6673 47.0727 77.5011 47.8484 77.1553 48.4445C76.8094 49.0406 76.202 49.3478 75.333 49.366C74.5608 49.3601 73.9791 49.1078 73.5879 48.6092C73.1968 48.1106 73.0008 47.4012 73.0001 46.4808V43.9024C72.9849 43.4109 73.043 43.099 73.1744 42.9667C73.3058 42.8344 73.6016 42.7639 74.0616 42.7551V42.4371H70.877V42.7551C71.3483 42.7738 71.6492 42.8472 71.7796 42.9752C71.91 43.1032 71.9671 43.4123 71.9509 43.9024V46.7307C71.9498 47.3971 72.0383 47.9499 72.2162 48.3891C72.3942 48.8284 72.6678 49.1767 73.0371 49.4342C73.3115 49.6258 73.6175 49.765 73.9552 49.8516C74.2928 49.9382 74.6451 49.9808 75.0121 49.9794C75.4251 49.9808 75.8242 49.9183 76.2094 49.792C76.5947 49.6656 76.932 49.4668 77.2216 49.1956C77.5739 48.8513 77.8198 48.4324 77.9591 47.939C78.0985 47.4456 78.1654 46.8649 78.1597 46.1969V45.2654C78.1605 44.7507 78.1682 44.3518 78.1829 44.0685C78.1975 43.7852 78.2145 43.5708 78.2338 43.4253C78.2538 43.1915 78.3464 43.0259 78.5115 42.9283C78.6766 42.8309 78.942 42.7731 79.3077 42.7551V42.4371ZM76.2958 40.79C76.1307 40.7939 75.9919 40.8487 75.8792 40.9547C75.7666 41.0608 75.708 41.1952 75.7033 41.358C75.7082 41.5099 75.7663 41.6377 75.8777 41.7413C75.989 41.845 76.1243 41.899 76.2835 41.9032C76.454 41.8989 76.5944 41.845 76.7047 41.7413C76.815 41.6377 76.8721 41.5099 76.876 41.358C76.8719 41.1952 76.8153 41.0608 76.7063 40.9547C76.5972 40.8487 76.4604 40.7938 76.2958 40.79ZM73.9505 40.79C73.7854 40.7939 73.6466 40.8487 73.5339 40.9547C73.4213 41.0608 73.3627 41.1952 73.358 41.358C73.3629 41.5099 73.421 41.6377 73.5324 41.7413C73.6437 41.845 73.779 41.899 73.9382 41.9032C74.1087 41.8989 74.2491 41.845 74.3594 41.7413C74.4697 41.6377 74.5268 41.5099 74.5307 41.358C74.5266 41.1952 74.47 41.0608 74.361 40.9547C74.2519 40.8487 74.1151 40.7938 73.9505 40.79Z" fill="black" fill-opacity="0.7"/>
<path d="M88.4349 42.4375H85.5218V42.7556C85.9463 42.7672 86.2482 42.8235 86.4275 42.9245C86.6067 43.0256 86.708 43.204 86.7314 43.4598C86.7566 43.6115 86.7772 43.8335 86.7932 44.1257C86.8091 44.418 86.8173 44.8245 86.8178 45.3454V48.1397H86.7808L81.6212 42.4375H79.8066V42.7556C80.09 42.7752 80.3132 42.8154 80.4763 42.8762C80.6393 42.9371 80.7823 43.0369 80.9052 43.1758C81.0127 43.2861 81.0816 43.4063 81.112 43.5365C81.1423 43.6666 81.1557 43.9288 81.1521 44.3231V46.822C81.1513 47.3332 81.1436 47.7421 81.129 48.0488C81.1143 48.3555 81.0973 48.594 81.078 48.7644C81.0498 49.0366 80.9489 49.2249 80.7756 49.3295C80.6023 49.4341 80.341 49.4919 79.9918 49.5027V49.8208H82.9172V49.5027C82.5045 49.4874 82.2098 49.4273 82.0331 49.3224C81.8565 49.2176 81.7562 49.024 81.7323 48.7417C81.713 48.5829 81.696 48.3524 81.6813 48.0502C81.6667 47.748 81.659 47.3386 81.6582 46.822V43.9709H81.6829L86.9413 49.923H87.3239V45.3454C87.3239 44.8252 87.3301 44.4173 87.3425 44.1215C87.3548 43.8257 87.3733 43.5938 87.398 43.4257C87.4196 43.1863 87.5122 43.0178 87.6757 42.9203C87.8393 42.8228 88.0923 42.7679 88.4349 42.7556V42.4375Z" fill="black" fill-opacity="0.7"/>
<path d="M96.2996 47.8325C96.0023 48.3973 95.6588 48.8295 95.2689 49.1288C94.8791 49.4282 94.375 49.5791 93.7568 49.5817C92.8012 49.5654 92.0277 49.2346 91.4362 48.5893C90.8447 47.9439 90.5402 47.0821 90.5228 46.0037C90.5256 45.1096 90.7946 44.3391 91.3297 43.6921C91.8649 43.0452 92.6492 42.7063 93.6828 42.6755C94.3455 42.6708 94.8716 42.8024 95.2612 43.0702C95.6508 43.3381 95.927 43.7707 96.0898 44.368L96.4478 44.2771C96.4112 43.9825 96.3732 43.7028 96.3336 43.438C96.294 43.1732 96.2497 42.885 96.2009 42.5733C96.0211 42.5357 95.7388 42.4775 95.3538 42.3987C94.9688 42.3199 94.5229 42.2758 94.016 42.2666C92.6137 42.282 91.4776 42.6431 90.6076 43.35C89.7376 44.0568 89.2897 45.0171 89.2637 46.2309C89.2613 46.8459 89.4156 47.4383 89.7264 48.0083C90.0372 48.5783 90.5187 49.0479 91.171 49.4172C91.8233 49.7865 92.6606 49.9777 93.6828 49.9907C94.1446 49.9826 94.591 49.9419 95.0221 49.8686C95.453 49.7952 95.7637 49.7374 95.954 49.6953C96.0697 49.4861 96.1932 49.2116 96.3243 48.8718C96.4555 48.532 96.5666 48.2234 96.6576 47.9461L96.2996 47.8325Z" fill="black" fill-opacity="0.7"/>
<path d="M105.916 42.4375H102.695V42.7556C103.16 42.7764 103.457 42.8483 103.586 42.9714C103.715 43.0944 103.772 43.3822 103.756 43.8346V45.6748H99.5469V43.8346C99.5314 43.3815 99.587 43.0923 99.7135 42.9671C99.84 42.8419 100.13 42.7714 100.584 42.7556V42.4375H97.3867V42.7556C97.8758 42.7707 98.1875 42.8398 98.3218 42.9629C98.456 43.0859 98.5146 43.3765 98.4977 43.8346V48.4236C98.5141 48.8818 98.4565 49.1724 98.3248 49.2954C98.1932 49.4185 97.8887 49.4876 97.4114 49.5027V49.8208H100.658V49.5027C100.169 49.4869 99.857 49.4164 99.7228 49.2912C99.5885 49.166 99.5299 48.8768 99.5469 48.4236V46.1632H103.756V48.4236C103.774 48.8818 103.713 49.1724 103.574 49.2954C103.435 49.4185 103.109 49.4876 102.596 49.5027V49.8208H105.904V49.5027C105.421 49.4876 105.113 49.4185 104.98 49.2954C104.847 49.1724 104.789 48.8818 104.805 48.4236V43.8346C104.788 43.3822 104.847 43.0944 104.981 42.9714C105.115 42.8483 105.427 42.7764 105.916 42.7556V42.4375Z" fill="black" fill-opacity="0.7"/>
<path d="M112.75 47.9806C112.662 48.2047 112.564 48.4097 112.456 48.5954C112.347 48.7812 112.24 48.9322 112.133 49.0484C112.008 49.1937 111.832 49.295 111.605 49.3522C111.379 49.4095 111.036 49.437 110.578 49.4346C110.269 49.4377 110.007 49.4315 109.792 49.4161C109.578 49.4007 109.412 49.3577 109.294 49.2869C109.185 49.2223 109.107 49.1187 109.063 48.976C109.018 48.8333 108.996 48.6302 108.998 48.3668V46.22H110.17C110.685 46.2061 111.02 46.251 111.173 46.3549C111.327 46.4588 111.433 46.7054 111.491 47.0947H111.849V44.9251H111.491C111.441 45.2936 111.341 45.5307 111.19 45.6364C111.04 45.7422 110.696 45.7891 110.158 45.777H108.998V43.1872C108.991 43.0279 109.011 42.9262 109.058 42.8819C109.105 42.8377 109.221 42.8183 109.405 42.8237H110.343C110.779 42.8218 111.101 42.8455 111.309 42.8947C111.517 42.9439 111.66 43.0301 111.738 43.1531C111.818 43.2679 111.89 43.399 111.954 43.5464C112.018 43.6938 112.078 43.8846 112.133 44.1186L112.491 44.0732C112.471 43.7693 112.45 43.4598 112.428 43.1446C112.406 42.8294 112.394 42.5937 112.392 42.4375H106.887V42.7556C107.352 42.7691 107.65 42.8386 107.779 42.9643C107.908 43.0899 107.965 43.3952 107.949 43.8801V48.4009C107.968 48.8494 107.905 49.1395 107.759 49.2713C107.613 49.4031 107.269 49.4803 106.727 49.5027V49.8208H112.676C112.738 49.6154 112.815 49.3191 112.906 48.9319C112.997 48.5448 113.065 48.2428 113.108 48.0261L112.75 47.9806Z" fill="black" fill-opacity="0.7"/>
<path d="M122.259 42.4375H119.346V42.7556C119.771 42.7672 120.072 42.8235 120.252 42.9245C120.431 43.0256 120.532 43.204 120.556 43.4598C120.581 43.6115 120.601 43.8335 120.617 44.1257C120.633 44.418 120.642 44.8245 120.642 45.3454V48.1397H120.605L115.445 42.4375H113.631V42.7556C113.914 42.7752 114.137 42.8154 114.301 42.8762C114.464 42.9371 114.607 43.0369 114.729 43.1758C114.837 43.2861 114.906 43.4063 114.936 43.5365C114.967 43.6666 114.98 43.9288 114.976 44.3231V46.822C114.976 47.3332 114.968 47.7421 114.953 48.0488C114.939 48.3555 114.922 48.594 114.902 48.7644C114.874 49.0366 114.773 49.2249 114.6 49.3295C114.427 49.4341 114.165 49.4919 113.816 49.5027V49.8208H116.741V49.5027C116.329 49.4874 116.034 49.4273 115.857 49.3224C115.681 49.2176 115.58 49.024 115.556 48.7417C115.537 48.5829 115.52 48.3524 115.506 48.0502C115.491 47.748 115.483 47.3386 115.482 46.822V43.9709H115.507L120.766 49.923H121.148V45.3454C121.148 44.8252 121.154 44.4173 121.167 44.1215C121.179 43.8257 121.198 43.5938 121.222 43.4257C121.244 43.1863 121.336 43.0178 121.5 42.9203C121.663 42.8228 121.917 42.7679 122.259 42.7556V42.4375Z" fill="black" fill-opacity="0.7"/>
<path d="M73.6475 34.0605H72.2636V34.2329C72.5016 34.2545 72.6452 34.2974 72.6945 34.3613C72.7438 34.4253 72.7427 34.5466 72.6913 34.7252C72.6577 34.878 72.6019 35.0949 72.5238 35.376C72.4457 35.6571 72.3582 35.9597 72.2612 36.2838C72.1643 36.608 72.0707 36.9111 71.9805 37.1931H71.9679C71.7762 36.6625 71.5888 36.1435 71.4057 35.636C71.2226 35.1286 71.0431 34.6219 70.8671 34.1159H70.6846C70.5231 34.6174 70.3556 35.1238 70.1822 35.6353C70.0088 36.1467 69.8366 36.6639 69.6656 37.1869H69.653C69.5153 36.7509 69.3834 36.3229 69.2575 35.903C69.1315 35.4831 69.0076 35.0659 68.8855 34.6514C68.8313 34.5001 68.825 34.398 68.8667 34.3452C68.9083 34.2924 69.0405 34.2549 69.263 34.2329V34.0605H67.7344V34.2329C67.9189 34.2453 68.0531 34.2881 68.137 34.3613C68.2208 34.4346 68.2984 34.5928 68.3697 34.836C68.5432 35.3828 68.7167 35.9293 68.8903 36.4754C69.0638 37.0214 69.2341 37.5725 69.4014 38.1285H69.5964C69.7574 37.6321 69.9244 37.131 70.0973 36.6254C70.2701 36.1197 70.4449 35.5971 70.6217 35.0575H70.6343C70.7989 35.514 70.9793 36.0135 71.1753 36.5561C71.3714 37.0987 71.558 37.6229 71.7352 38.1285H71.9302C72.1904 37.2626 72.4106 36.5497 72.5907 35.9899C72.7707 35.4301 72.8966 35.0496 72.9681 34.8483C73.0519 34.6026 73.1344 34.4431 73.2158 34.3698C73.2972 34.2965 73.4411 34.2508 73.6475 34.2329L73.6475 34.0605Z" fill="#424242"/>
<path d="M75.6455 38.0608V37.8885C75.3962 37.8806 75.2374 37.8426 75.169 37.7747C75.1006 37.7067 75.0707 37.5457 75.0793 37.2916V34.8298C75.0707 34.5784 75.1006 34.4181 75.169 34.349C75.2374 34.2799 75.3962 34.2412 75.6455 34.2329V34.0605H73.9785V34.2329C74.2278 34.2412 74.3866 34.2799 74.455 34.349C74.5234 34.4181 74.5533 34.5784 74.5447 34.8298V37.2916C74.5533 37.543 74.5234 37.7033 74.455 37.7724C74.3866 37.8415 74.2278 37.8802 73.9785 37.8885V38.0608H75.6455Z" fill="#424242"/>
<path d="M78.4634 34.9586C78.4385 34.7671 78.4175 34.604 78.4005 34.4693C78.3834 34.3347 78.3687 34.2147 78.3564 34.1093C78.2369 34.0711 78.1111 34.0383 77.979 34.0108C77.8469 33.9834 77.7085 33.9691 77.5638 33.9678C77.1548 33.9765 76.8374 34.0852 76.6116 34.2939C76.3858 34.5027 76.2712 34.7591 76.268 35.0632C76.286 35.4045 76.4087 35.6666 76.636 35.8494C76.8632 36.0323 77.0865 36.1743 77.3059 36.2756C77.5464 36.3931 77.7417 36.5198 77.8917 36.6557C78.0418 36.7916 78.1191 36.9706 78.1237 37.1926C78.1221 37.42 78.056 37.5992 77.9255 37.7304C77.795 37.8615 77.6094 37.9285 77.3688 37.9311C77.0455 37.9131 76.8036 37.7938 76.643 37.5734C76.4825 37.353 76.3805 37.1399 76.3372 36.9342L76.1484 36.9772C76.172 37.1381 76.2003 37.3179 76.2334 37.5165C76.2664 37.7151 76.2947 37.8533 76.3183 37.9311C76.3491 37.9469 76.3897 37.9662 76.4402 37.9889C76.4906 38.0115 76.5548 38.0354 76.6328 38.0604C76.7084 38.0831 76.7978 38.1039 76.9009 38.1227C77.0041 38.1415 77.1202 38.1516 77.2493 38.1527C77.6735 38.1446 78.0108 38.0315 78.2613 37.8134C78.5117 37.5954 78.6399 37.3207 78.6458 36.9895C78.6315 36.6498 78.5122 36.3892 78.288 36.2079C78.0638 36.0266 77.8203 35.8769 77.5575 35.7587C77.3068 35.6411 77.1115 35.5147 76.9717 35.3794C76.8319 35.2442 76.7608 35.067 76.7586 34.8478C76.7574 34.6745 76.8133 34.5211 76.9261 34.3878C77.0389 34.2545 77.2159 34.1842 77.4569 34.177C77.724 34.1866 77.9163 34.2736 78.034 34.4378C78.1517 34.602 78.234 34.7859 78.2809 34.9894L78.4634 34.9586Z" fill="#424242"/>
<path d="M81.4477 34.9586C81.4228 34.7671 81.4019 34.604 81.3848 34.4693C81.3678 34.3347 81.3531 34.2147 81.3408 34.1093C81.2213 34.0711 81.0955 34.0383 80.9634 34.0108C80.8313 33.9834 80.6929 33.9691 80.5482 33.9678C80.1392 33.9765 79.8218 34.0852 79.596 34.2939C79.3702 34.5027 79.2556 34.7591 79.2523 35.0632C79.2704 35.4045 79.3931 35.6666 79.6203 35.8494C79.8476 36.0323 80.0709 36.1743 80.2903 36.2756C80.5308 36.3931 80.726 36.5198 80.8761 36.6557C81.0261 36.7916 81.1035 36.9706 81.108 37.1926C81.1065 37.42 81.0404 37.5992 80.9099 37.7304C80.7794 37.8615 80.5938 37.9285 80.3532 37.9311C80.0299 37.9131 79.7879 37.7938 79.6274 37.5734C79.4669 37.353 79.3649 37.1399 79.3215 36.9342L79.1328 36.9772C79.1564 37.1381 79.1847 37.3179 79.2177 37.5165C79.2508 37.7151 79.2791 37.8533 79.3027 37.9311C79.3335 37.9469 79.3741 37.9662 79.4245 37.9889C79.475 38.0115 79.5392 38.0354 79.6172 38.0604C79.6928 38.0831 79.7822 38.1039 79.8853 38.1227C79.9885 38.1415 80.1046 38.1516 80.2337 38.1527C80.6579 38.1446 80.9952 38.0315 81.2457 37.8134C81.4961 37.5954 81.6243 37.3207 81.6302 36.9895C81.6159 36.6498 81.4966 36.3892 81.2724 36.2079C81.0482 36.0266 80.8047 35.8769 80.5419 35.7587C80.2912 35.6411 80.0959 35.5147 79.9561 35.3794C79.8163 35.2442 79.7452 35.067 79.743 34.8478C79.7418 34.6745 79.7976 34.5211 79.9105 34.3878C80.0233 34.2545 80.2002 34.1842 80.4412 34.177C80.7083 34.1866 80.9007 34.2736 81.0184 34.4378C81.1361 34.602 81.2184 34.7859 81.2653 34.9894L81.4477 34.9586Z" fill="#424242"/>
<path d="M85.1128 37.0638C85.0678 37.1853 85.0177 37.2963 84.9626 37.3969C84.9074 37.4976 84.8526 37.5794 84.7982 37.6423C84.7345 37.7211 84.6449 37.7759 84.5293 37.807C84.4137 37.838 84.2392 37.8529 84.0056 37.8516C83.8482 37.8533 83.7148 37.8499 83.6054 37.8416C83.496 37.8333 83.4113 37.8099 83.3514 37.7716C83.2956 37.7366 83.2563 37.6804 83.2335 37.6031C83.2107 37.5258 83.1996 37.4158 83.2004 37.2731V36.1099H83.798C84.0604 36.1024 84.2308 36.1267 84.3091 36.183C84.3875 36.2393 84.4415 36.3729 84.4711 36.5838H84.6536V35.4083H84.4711C84.4456 35.608 84.3945 35.7364 84.3178 35.7937C84.2411 35.8511 84.0658 35.8764 83.7917 35.8699H83.2004V34.4667C83.1969 34.3804 83.2071 34.3253 83.2311 34.3013C83.2551 34.2774 83.3141 34.2668 83.408 34.2698H83.8861C84.1084 34.2688 84.2724 34.2816 84.3783 34.3083C84.4842 34.3349 84.5571 34.3816 84.5969 34.4483C84.6376 34.5104 84.6743 34.5815 84.707 34.6614C84.7398 34.7412 84.7702 34.8446 84.7982 34.9714L84.9807 34.9468C84.9703 34.7821 84.9596 34.6144 84.9484 34.4437C84.9373 34.2729 84.9313 34.1452 84.9303 34.0605H82.1247V34.2329C82.362 34.2402 82.5134 34.2779 82.5792 34.3459C82.645 34.414 82.6739 34.5794 82.6657 34.8421V37.2916C82.6756 37.5345 82.6433 37.6917 82.569 37.7631C82.4947 37.8345 82.3194 37.8763 82.043 37.8885V38.0608H85.075C85.1066 37.9496 85.1457 37.789 85.1922 37.5793C85.2387 37.3695 85.273 37.2059 85.2952 37.0885L85.1128 37.0638Z" fill="#424242"/>
<path d="M89.9596 34.0605H88.4751V34.2329C88.6914 34.2392 88.8453 34.2697 88.9366 34.3244C89.028 34.3792 89.0796 34.4758 89.0915 34.6144C89.1044 34.6966 89.1149 34.8169 89.123 34.9752C89.1311 35.1336 89.1353 35.3539 89.1356 35.6361V37.15H89.1167L86.4872 34.0605H85.5625V34.2329C85.7069 34.2435 85.8207 34.2653 85.9038 34.2983C85.9869 34.3312 86.0597 34.3853 86.1224 34.4606C86.1771 34.5203 86.2123 34.5855 86.2277 34.656C86.2432 34.7265 86.25 34.8686 86.2482 35.0822V36.4361C86.2477 36.7131 86.2439 36.9346 86.2364 37.1008C86.2289 37.2669 86.2203 37.3962 86.2104 37.4885C86.196 37.6359 86.1446 37.738 86.0563 37.7947C85.968 37.8514 85.8348 37.8826 85.6569 37.8885V38.0609H87.1477V37.8885C86.9374 37.8802 86.7872 37.8476 86.6972 37.7908C86.6071 37.734 86.556 37.6291 86.5438 37.4762C86.534 37.3902 86.5254 37.2653 86.5179 37.1016C86.5104 36.9378 86.5065 36.716 86.5061 36.4361V34.8914H86.5187L89.1985 38.1162H89.3935V35.6361C89.3935 35.3542 89.3966 35.1332 89.4029 34.9729C89.4092 34.8127 89.4186 34.687 89.4312 34.596C89.4422 34.4662 89.4894 34.3749 89.5728 34.3221C89.6561 34.2693 89.7851 34.2395 89.9596 34.2329V34.0605Z" fill="#424242"/>
<path d="M92.6782 34.9586C92.6533 34.7671 92.6323 34.604 92.6153 34.4693C92.5982 34.3347 92.5835 34.2147 92.5712 34.1093C92.4517 34.0711 92.3259 34.0383 92.1938 34.0108C92.0617 33.9834 91.9233 33.9691 91.7786 33.9678C91.3696 33.9765 91.0522 34.0852 90.8264 34.2939C90.6006 34.5027 90.4861 34.7591 90.4828 35.0632C90.5009 35.4045 90.6235 35.6666 90.8508 35.8494C91.078 36.0323 91.3013 36.1743 91.5207 36.2756C91.7612 36.3931 91.9565 36.5198 92.1065 36.6557C92.2566 36.7916 92.3339 36.9706 92.3385 37.1926C92.3369 37.42 92.2709 37.5992 92.1403 37.7304C92.0098 37.8615 91.8242 37.9285 91.5836 37.9311C91.2603 37.9131 91.0184 37.7938 90.8579 37.5734C90.6973 37.353 90.5954 37.1399 90.552 36.9342L90.3633 36.9772C90.3869 37.1381 90.4152 37.3179 90.4482 37.5165C90.4812 37.7151 90.5095 37.8533 90.5331 37.9311C90.5639 37.9469 90.6045 37.9662 90.655 37.9889C90.7055 38.0115 90.7697 38.0354 90.8476 38.0604C90.9233 38.0831 91.0126 38.1039 91.1158 38.1227C91.2189 38.1415 91.335 38.1516 91.4641 38.1527C91.8883 38.1446 92.2257 38.0315 92.4761 37.8134C92.7265 37.5954 92.8547 37.3207 92.8606 36.9895C92.8463 36.6498 92.7271 36.3892 92.5028 36.2079C92.2786 36.0266 92.0351 35.8769 91.7723 35.7587C91.5216 35.6411 91.3264 35.5147 91.1865 35.3794C91.0467 35.2442 90.9757 35.067 90.9735 34.8478C90.9723 34.6745 91.0281 34.5211 91.1409 34.3878C91.2538 34.2545 91.4307 34.1842 91.6717 34.177C91.9388 34.1866 92.1312 34.2736 92.2488 34.4378C92.3665 34.602 92.4488 34.7859 92.4957 34.9894L92.6782 34.9586Z" fill="#424242"/>
<path d="M96.9528 36.9834C96.8013 37.2894 96.6262 37.5236 96.4276 37.6857C96.2289 37.8479 95.972 37.9297 95.657 37.9311C95.17 37.9223 94.7758 37.7431 94.4743 37.3934C94.1729 37.0438 94.0177 36.5768 94.0088 35.9925C94.0103 35.5081 94.1474 35.0907 94.4201 34.7401C94.6928 34.3896 95.0925 34.206 95.6192 34.1893C95.9569 34.1868 96.2251 34.258 96.4236 34.4032C96.6222 34.5483 96.7629 34.7827 96.8459 35.1063L97.0283 35.0571C97.0097 34.8975 96.9903 34.7459 96.9701 34.6024C96.9499 34.459 96.9274 34.3028 96.9025 34.1339C96.8109 34.1135 96.667 34.082 96.4708 34.0393C96.2746 33.9966 96.0474 33.9728 95.7891 33.9678C95.0744 33.9761 94.4954 34.1718 94.0521 34.5547C93.6087 34.9377 93.3804 35.458 93.3672 36.1156C93.366 36.4488 93.4446 36.7698 93.603 37.0787C93.7614 37.3875 94.0068 37.6419 94.3392 37.842C94.6716 38.0421 95.0983 38.1457 95.6192 38.1527C95.8546 38.1483 96.0821 38.1263 96.3017 38.0865C96.5214 38.0468 96.6797 38.0155 96.7767 37.9927C96.8356 37.8794 96.8986 37.7306 96.9654 37.5465C97.0322 37.3624 97.0888 37.1952 97.1352 37.0449L96.9528 36.9834Z" fill="#424242"/>
<path d="M101.855 34.0605H100.213V34.2329C100.45 34.2442 100.601 34.2831 100.667 34.3498C100.733 34.4165 100.762 34.5724 100.754 34.8175V35.8145H98.6086V34.8175C98.6008 34.572 98.6291 34.4153 98.6936 34.3475C98.758 34.2797 98.9059 34.2415 99.1371 34.2329V34.0605H97.5078V34.2329C97.7571 34.241 97.9159 34.2785 97.9843 34.3452C98.0527 34.4119 98.0826 34.5693 98.074 34.8175V37.3039C98.0823 37.5521 98.053 37.7095 97.9859 37.7762C97.9188 37.8429 97.7636 37.8803 97.5204 37.8885V38.0608H99.1748V37.8885C98.9255 37.8799 98.7667 37.8417 98.6983 37.7739C98.6299 37.7061 98.6 37.5494 98.6086 37.3039V36.0792H100.754V37.3039C100.763 37.5521 100.732 37.7095 100.661 37.7762C100.59 37.8429 100.424 37.8803 100.162 37.8885V38.0608H101.848V37.8885C101.602 37.8804 101.445 37.8429 101.377 37.7762C101.31 37.7095 101.28 37.5521 101.288 37.3039V34.8175C101.28 34.5724 101.31 34.4165 101.378 34.3498C101.446 34.2831 101.605 34.2442 101.855 34.2329V34.0605Z" fill="#424242"/>
<path d="M106.319 38.0604V37.8881C106.123 37.8791 105.981 37.837 105.892 37.7619C105.804 37.6868 105.715 37.5216 105.627 37.2665C105.424 36.7263 105.22 36.1742 105.015 35.6102C104.809 35.0462 104.609 34.4987 104.413 33.9678L104.218 34.0232L102.915 37.248C102.818 37.5109 102.724 37.6791 102.634 37.7527C102.544 37.8263 102.403 37.8714 102.211 37.8881V38.0604H103.582V37.8881C103.348 37.8729 103.206 37.834 103.155 37.7711C103.105 37.7083 103.115 37.5832 103.186 37.3957C103.227 37.2669 103.271 37.1369 103.317 37.0057C103.364 36.8745 103.412 36.7399 103.463 36.6018H104.803C104.872 36.7906 104.937 36.9654 104.997 37.1265C105.056 37.2875 105.107 37.4285 105.149 37.5496C105.194 37.6656 105.192 37.7459 105.142 37.7904C105.093 37.8349 104.971 37.8674 104.777 37.8881V38.0604H106.319ZM104.715 36.3372H103.557C103.654 36.0837 103.752 35.8245 103.85 35.5594C103.949 35.2944 104.048 35.0305 104.148 34.7678H104.161L104.715 36.3372Z" fill="#424242"/>
<path d="M109.535 34.9652C109.522 34.8121 109.509 34.6521 109.497 34.4852C109.484 34.3183 109.476 34.1767 109.472 34.0605H106.704V34.2329C106.939 34.2408 107.088 34.2788 107.153 34.3467C107.219 34.4147 107.247 34.5757 107.239 34.8298V37.2854C107.248 37.5398 107.218 37.7018 107.151 37.7716C107.084 37.8413 106.929 37.8803 106.686 37.8885V38.0608H108.397V37.8885C108.12 37.8804 107.945 37.8413 107.871 37.7716C107.796 37.7018 107.764 37.5398 107.774 37.2854V36.1715H108.422C108.696 36.1654 108.871 36.1944 108.948 36.2584C109.024 36.3224 109.076 36.4575 109.101 36.6638H109.284V35.476H109.101C109.076 35.67 109.024 35.7959 108.948 35.8538C108.871 35.9116 108.696 35.9375 108.422 35.9314H107.774V34.4667C107.771 34.3804 107.782 34.3253 107.807 34.3013C107.832 34.2774 107.89 34.2668 107.981 34.2698H108.459C108.692 34.2685 108.858 34.2849 108.957 34.319C109.057 34.3531 109.13 34.4126 109.177 34.4975C109.216 34.5565 109.249 34.6232 109.274 34.6975C109.3 34.7719 109.326 34.8693 109.353 34.9898L109.535 34.9652Z" fill="#424242"/>
<path d="M113.487 34.9956C113.468 34.8117 113.453 34.6209 113.441 34.4232C113.429 34.2255 113.421 34.0532 113.418 33.9062H113.286C113.242 33.9638 113.199 34.0041 113.157 34.027C113.115 34.05 113.053 34.061 112.972 34.0601H110.487C110.401 34.0626 110.332 34.0546 110.281 34.0363C110.229 34.0179 110.183 33.9746 110.141 33.9062H110.015C110.008 34.0774 109.998 34.2582 109.984 34.4486C109.971 34.639 109.956 34.8275 109.939 35.014H110.122C110.159 34.879 110.192 34.7659 110.223 34.6748C110.253 34.5836 110.286 34.5121 110.323 34.4601C110.357 34.393 110.423 34.3442 110.523 34.314C110.623 34.2837 110.799 34.2688 111.053 34.2693H111.443V37.3034C111.453 37.5382 111.42 37.6918 111.346 37.7642C111.272 37.8367 111.097 37.8779 110.82 37.8881V38.0604H112.619V37.8881C112.334 37.8779 112.153 37.8367 112.077 37.7642C112 37.6918 111.967 37.5382 111.978 37.3034V34.2693H112.418C112.649 34.2683 112.81 34.2827 112.9 34.3124C112.99 34.3422 113.058 34.3935 113.104 34.4663C113.138 34.5137 113.171 34.5804 113.203 34.6663C113.236 34.7522 113.267 34.8681 113.299 35.014L113.487 34.9956Z" fill="#424242"/>
<path d="M116.898 37.0638C116.853 37.1853 116.803 37.2963 116.748 37.3969C116.693 37.4976 116.638 37.5794 116.583 37.6423C116.52 37.7211 116.43 37.7759 116.314 37.807C116.199 37.838 116.024 37.8529 115.791 37.8516C115.633 37.8533 115.5 37.8499 115.391 37.8416C115.281 37.8333 115.196 37.8099 115.137 37.7716C115.081 37.7366 115.041 37.6804 115.019 37.6031C114.996 37.5258 114.985 37.4158 114.986 37.2731V36.1099H115.583C115.846 36.1024 116.016 36.1267 116.094 36.183C116.173 36.2393 116.227 36.3729 116.256 36.5838H116.439V35.4083H116.256C116.231 35.608 116.18 35.7364 116.103 35.7937C116.026 35.8511 115.851 35.8764 115.577 35.8699H114.986V34.4667C114.982 34.3804 114.992 34.3253 115.016 34.3013C115.04 34.2774 115.099 34.2668 115.193 34.2698H115.671C115.894 34.2688 116.058 34.2816 116.163 34.3083C116.269 34.3349 116.342 34.3816 116.382 34.4483C116.423 34.5104 116.459 34.5815 116.492 34.6614C116.525 34.7412 116.555 34.8446 116.583 34.9714L116.766 34.9468C116.755 34.7821 116.745 34.6144 116.734 34.4437C116.722 34.2729 116.716 34.1452 116.715 34.0605H113.91V34.2329C114.147 34.2402 114.299 34.2779 114.364 34.3459C114.43 34.414 114.459 34.5794 114.451 34.8421V37.2916C114.461 37.5345 114.428 37.6917 114.354 37.7631C114.28 37.8345 114.105 37.8763 113.828 37.8885V38.0608H116.86C116.892 37.9496 116.931 37.789 116.977 37.5793C117.024 37.3695 117.058 37.2059 117.08 37.0885L116.898 37.0638Z" fill="#424242"/>
<path d="M121.745 34.0605H120.26V34.2329C120.477 34.2392 120.63 34.2697 120.722 34.3244C120.813 34.3792 120.865 34.4758 120.877 34.6144C120.89 34.6966 120.9 34.8169 120.908 34.9752C120.916 35.1336 120.92 35.3539 120.921 35.6361V37.15H120.902L118.272 34.0605H117.348V34.2329C117.492 34.2435 117.606 34.2653 117.689 34.2983C117.772 34.3312 117.845 34.3853 117.908 34.4606C117.962 34.5203 117.997 34.5855 118.013 34.656C118.028 34.7265 118.035 34.8686 118.033 35.0822V36.4361C118.033 36.7131 118.029 36.9346 118.022 37.1008C118.014 37.2669 118.005 37.3962 117.996 37.4885C117.981 37.6359 117.93 37.738 117.841 37.7947C117.753 37.8514 117.62 37.8826 117.442 37.8885V38.0609H118.933V37.8885C118.723 37.8802 118.572 37.8476 118.482 37.7908C118.392 37.734 118.341 37.6291 118.329 37.4762C118.319 37.3902 118.311 37.2653 118.303 37.1016C118.296 36.9378 118.292 36.716 118.291 36.4361V34.8914H118.304L120.984 38.1162H121.179V35.6361C121.179 35.3542 121.182 35.1332 121.188 34.9729C121.194 34.8127 121.204 34.687 121.216 34.596C121.227 34.4662 121.275 34.3749 121.358 34.3221C121.441 34.2693 121.57 34.2395 121.745 34.2329V34.0605Z" fill="#424242"/>
<path d="M69.9602 49.8183V49.428C69.3792 49.4086 69.0174 49.3046 68.8747 49.1161C68.7321 48.9277 68.6625 48.4787 68.666 47.7693L68.5407 42.7232C68.4984 42.0364 68.5517 41.6084 68.7008 41.4391C68.8498 41.2698 69.2232 41.1728 69.821 41.1481V40.7578H67.4552L64.2266 47.7414L61.0536 40.7578H58.7713V41.1481C59.3836 41.1728 59.7593 41.2942 59.8985 41.5123C60.0377 41.7304 60.0655 42.2734 59.982 43.1414L59.7872 46.0408C59.7387 46.7569 59.6929 47.304 59.6497 47.6821C59.6065 48.0602 59.5642 48.3634 59.5228 48.5917C59.4822 48.8774 59.3755 49.0796 59.2027 49.198C59.0299 49.3165 58.7423 49.3932 58.3398 49.428V49.8183H61.5824V49.428C61.1229 49.3912 60.7964 49.3186 60.603 49.2102C60.4096 49.1019 60.3093 48.8864 60.3021 48.5638C60.2943 48.2958 60.2925 47.985 60.2969 47.6316C60.3012 47.2782 60.3169 46.8176 60.3438 46.2499L60.5526 42.2772H60.5804L63.6977 49.7208H63.9761L67.3717 42.082H67.4274L67.4831 47.7693C67.5051 48.4787 67.4506 48.9277 67.3195 49.1161C67.1885 49.3046 66.8487 49.4086 66.3001 49.428V49.8183H69.9602Z" fill="black" fill-opacity="0.7"/>
<path d="M43.7301 0.02741L0.119141 18.6074L17.5551 59.6666L61.1661 41.0866L43.7301 0.02741Z" fill="black" fill-opacity="0.7"/>
</g>
<defs>
<clipPath id="clip0">
<rect width="126.282" height="50" fill="white"/>
</clipPath>
</defs>
</svg>
