<svg width="269" height="32" viewBox="0 0 269 32" fill="none" xmlns="http://www.w3.org/2000/svg">
<rect width="268.244" height="26" transform="translate(0 2)" fill="#FAFAFA"/>
<path d="M24.3313 23.4014C23.9232 25.5411 23.5773 27.358 23.4432 28.0638H39.3178V23.4014H24.3313ZM0.00195312 23.4438V28.1063H15.764L14.7122 23.4438H0.00195312Z" fill="black" fill-opacity="0.7"/>
<path d="M7.74534 12.7527L6.59813 7.92944H16.3863L19.5562 21.7749H19.6915L21.6885 12.9057C22.6948 8.87868 23.075 7.92944 28.7462 7.92944H32.8252C32.8252 7.92944 32.0011 11.6415 30.9758 15.6696C30.5855 17.2063 27.1797 17.0242 27.3496 15.5892C27.3675 15.4396 27.5285 14.3597 27.656 13.5914C27.8416 12.4858 26.5502 12.3473 26.3176 13.4417C26.1521 14.2257 25.4041 18.1164 24.7052 21.7749H39.3171V1.89453H0V21.7749H14.2686L12.2358 12.7594L7.74534 12.7527V12.7527Z" fill="black" fill-opacity="0.7"/>
<path d="M53.0572 12.9914H55.5295L58.9074 2.95839H56.9094L54.3652 10.8353H54.3365L51.7635 2.95839H49.6074L53.0572 12.9914Z" fill="black" fill-opacity="0.7"/>
<path d="M58.6387 9.34043C58.6387 11.4678 60.0617 13.1639 62.5053 13.1639C64.9632 13.1639 66.3862 11.4678 66.3862 9.34043C66.3862 6.89686 64.7045 5.41634 62.5053 5.41634C60.3204 5.41634 58.6387 6.89686 58.6387 9.34043ZM60.651 9.11045C60.651 8.00365 61.2547 6.91123 62.5053 6.91123C63.7702 6.91123 64.3739 7.97491 64.3739 9.11045C64.3739 10.3466 63.9858 11.669 62.5053 11.669C61.0391 11.669 60.651 10.3322 60.651 9.11045Z" fill="black" fill-opacity="0.7"/>
<path d="M67.7996 12.9914H69.7257V2.21094H67.7996V12.9914Z" fill="black" fill-opacity="0.7"/>
<path d="M71.6564 12.9914H73.5826V9.39793H73.6113L76.0836 12.9914H78.5272L75.4224 8.89484L78.1822 5.58882H75.9111L73.6113 8.54986H73.5826V2.21094H71.6564V12.9914Z" fill="black" fill-opacity="0.7"/>
<path d="M83.9845 5.68944C83.3808 5.56008 82.7915 5.41634 81.8859 5.41634C80.3766 5.41634 78.9823 6.12066 78.9823 7.71617C78.9823 10.3897 82.3315 9.39793 82.3315 10.8497C82.3315 11.5684 81.5553 11.7553 81.0666 11.7553C80.4054 11.7553 79.7729 11.5684 79.1692 11.2665L79.0542 12.8477C79.7585 13.0345 80.506 13.1639 81.2391 13.1639C82.8058 13.1639 84.3438 12.474 84.3438 10.7491C84.3438 8.07552 80.9947 8.82297 80.9947 7.6443C80.9947 7.01185 81.6128 6.82499 82.1302 6.82499C82.8346 6.82499 83.2658 6.93998 83.8551 7.14121L83.9845 5.68944Z" fill="black" fill-opacity="0.7"/>
<path d="M87.6403 9.26856C87.6403 8.23364 88.129 6.91123 89.3652 6.91123C90.6157 6.91123 90.9607 8.27676 90.9607 9.26856C90.9607 10.2891 90.6014 11.669 89.3364 11.669C88.0572 11.669 87.6403 10.3179 87.6403 9.26856ZM85.6998 12.9914H87.5684V12.0859H87.5972C88.1578 12.8764 89.049 13.1639 89.8683 13.1639C92.1394 13.1639 92.9731 11.2953 92.9731 9.26856C92.9731 7.22746 92.1394 5.41634 89.8683 5.41634C88.8621 5.41634 88.1865 5.83318 87.6547 6.53751H87.6259V2.21094H85.6998V12.9914Z" fill="black" fill-opacity="0.7"/>
<path d="M94.7314 7.62993C95.3782 7.14121 96.1976 6.82499 97.0169 6.82499C98.1524 6.82499 98.6842 7.22746 98.6842 8.4205H97.6206C96.8156 8.4205 95.867 8.49237 95.1339 8.85172C94.4008 9.21107 93.869 9.8579 93.869 10.9647C93.869 12.3733 95.1483 13.1639 96.4563 13.1639C97.3331 13.1639 98.2962 12.7039 98.7417 11.8846H98.7705C98.7849 12.1146 98.7849 12.6033 98.8567 12.9914H100.553C100.51 12.4165 100.481 11.899 100.467 11.3384C100.452 10.7922 100.438 10.2316 100.438 9.48417V8.53549C100.438 6.35064 99.5036 5.41634 97.2469 5.41634C96.4275 5.41634 95.4214 5.63195 94.6739 5.97692L94.7314 7.62993ZM95.7088 10.8497C95.7088 9.71416 96.9881 9.57042 97.8506 9.57042H98.6842C98.6842 10.1454 98.598 10.6772 98.2818 11.0941C97.9799 11.4965 97.52 11.7553 96.9306 11.7553C96.2407 11.7553 95.7088 11.4822 95.7088 10.8497Z" fill="black" fill-opacity="0.7"/>
<path d="M102.187 12.9914H104.113V9.36918C104.113 8.4205 104.415 6.91123 105.809 6.91123C107.045 6.91123 107.059 8.13302 107.059 9.03858V12.9914H108.986V8.31988C108.986 6.6525 108.224 5.41634 106.47 5.41634C105.464 5.41634 104.645 5.74694 104.041 6.595H104.012V5.58882H102.187V12.9914Z" fill="black" fill-opacity="0.7"/>
<path d="M110.873 12.9914H112.799V9.39793H112.828L115.3 12.9914H117.744L114.639 8.89484L117.399 5.58882H115.128L112.828 8.54986H112.799V2.21094H110.873V12.9914Z" fill="black" fill-opacity="0.7"/>
<path d="M122.573 12.9914H124.5V5.58882H122.573V12.9914ZM122.573 4.23767H124.5V2.3978H122.573V4.23767Z" fill="black" fill-opacity="0.7"/>
<path d="M126.387 12.9914H128.313V9.36918C128.313 8.4205 128.615 6.91123 130.009 6.91123C131.246 6.91123 131.26 8.13302 131.26 9.03858V12.9914H133.186V8.31988C133.186 6.6525 132.424 5.41634 130.671 5.41634C129.664 5.41634 128.845 5.74694 128.241 6.595H128.213V5.58882H126.387V12.9914Z" fill="black" fill-opacity="0.7"/>
<path d="M140.426 9.26856C140.426 8.27676 140.77 6.91123 142.021 6.91123C143.257 6.91123 143.746 8.23364 143.746 9.26856C143.746 10.3179 143.329 11.669 142.05 11.669C140.785 11.669 140.426 10.2891 140.426 9.26856ZM143.818 12.9914H145.686V2.21094H143.76V6.45126H143.732C143.157 5.74694 142.481 5.41634 141.518 5.41634C139.247 5.41634 138.413 7.22746 138.413 9.26856C138.413 11.2953 139.247 13.1639 141.518 13.1639C142.424 13.1639 143.214 12.8764 143.789 12.1577H143.818V12.9914Z" fill="black" fill-opacity="0.7"/>
<path d="M148.897 8.56424C148.983 7.57243 149.529 6.82499 150.607 6.82499C151.685 6.82499 152.116 7.62993 152.174 8.56424H148.897ZM153.467 11.0078C152.749 11.4103 151.944 11.7553 151.009 11.7553C149.816 11.7553 148.983 11.0797 148.897 9.88664H154.014C154.014 7.29933 153.237 5.41634 150.492 5.41634C148.192 5.41634 147.057 7.18434 147.057 9.32606C147.057 11.7553 148.48 13.1639 150.923 13.1639C151.958 13.1639 152.763 12.9627 153.467 12.5746V11.0078Z" fill="black" fill-opacity="0.7"/>
<path d="M155.417 12.9914H157.344V10.2747C157.344 9.21107 157.344 7.25621 158.91 7.25621C159.255 7.25621 159.6 7.3137 159.773 7.41432V5.47383C159.572 5.41634 159.37 5.41634 159.183 5.41634C158.034 5.41634 157.243 6.58063 157.157 7.27058H157.128V5.58882H155.417V12.9914Z" fill="black" fill-opacity="0.7"/>
<path d="M164.847 12.9914H166.859V8.59299H170.884V12.9914H172.896V2.95839H170.884V7.01185H166.859V2.95839H164.847V12.9914Z" fill="black" fill-opacity="0.7"/>
<path d="M174.43 9.34043C174.43 11.4678 175.853 13.1639 178.296 13.1639C180.754 13.1639 182.177 11.4678 182.177 9.34043C182.177 6.89686 180.495 5.41634 178.296 5.41634C176.111 5.41634 174.43 6.89686 174.43 9.34043ZM176.442 9.11045C176.442 8.00365 177.046 6.91123 178.296 6.91123C179.561 6.91123 180.165 7.97491 180.165 9.11045C180.165 10.3466 179.777 11.669 178.296 11.669C176.83 11.669 176.442 10.3322 176.442 9.11045Z" fill="black" fill-opacity="0.7"/>
<path d="M183.547 12.9914H185.473V9.36918C185.473 8.4205 185.775 6.91123 187.17 6.91123C188.406 6.91123 188.42 8.13302 188.42 9.03858V12.9914H190.346V8.31988C190.346 6.6525 189.584 5.41634 187.831 5.41634C186.825 5.41634 185.991 5.8763 185.502 6.595H185.473V2.21094H183.547V12.9914Z" fill="black" fill-opacity="0.7"/>
<path d="M193.556 8.56424C193.643 7.57243 194.189 6.82499 195.267 6.82499C196.345 6.82499 196.776 7.62993 196.834 8.56424H193.556ZM198.127 11.0078C197.409 11.4103 196.604 11.7553 195.669 11.7553C194.476 11.7553 193.643 11.0797 193.556 9.88664H198.674C198.674 7.29933 197.897 5.41634 195.152 5.41634C192.852 5.41634 191.717 7.18434 191.717 9.32606C191.717 11.7553 193.14 13.1639 195.583 13.1639C196.618 13.1639 197.423 12.9627 198.127 12.5746V11.0078Z" fill="black" fill-opacity="0.7"/>
<path d="M200.034 12.9914H201.96V9.36918C201.96 8.4205 202.262 6.91123 203.656 6.91123C204.893 6.91123 204.907 8.13302 204.907 9.03858V12.9914H206.833V8.31988C206.833 6.6525 206.071 5.41634 204.318 5.41634C203.311 5.41634 202.492 5.74694 201.888 6.595H201.86V5.58882H200.034V12.9914Z" fill="black" fill-opacity="0.7"/>
<path d="M212.707 12.9914H214.633V4.74076L214.662 4.71201L217.364 12.9914H219.29L221.993 4.71201H222.021V12.9914H223.947V2.95839H220.728L218.342 10.5622H218.313L215.927 2.95839H212.707V12.9914Z" fill="black" fill-opacity="0.7"/>
<path d="M226.353 7.62993C227 7.14121 227.819 6.82499 228.638 6.82499C229.774 6.82499 230.306 7.22746 230.306 8.4205H229.242C228.437 8.4205 227.488 8.49237 226.755 8.85172C226.022 9.21107 225.49 9.8579 225.49 10.9647C225.49 12.3733 226.77 13.1639 228.078 13.1639C228.954 13.1639 229.917 12.7039 230.363 11.8846H230.392C230.406 12.1146 230.406 12.6033 230.478 12.9914H232.174C232.131 12.4165 232.102 11.899 232.088 11.3384C232.074 10.7922 232.059 10.2316 232.059 9.48417V8.53549C232.059 6.35064 231.125 5.41634 228.868 5.41634C228.049 5.41634 227.043 5.63195 226.295 5.97692L226.353 7.62993ZM227.33 10.8497C227.33 9.71416 228.609 9.57042 229.472 9.57042H230.306C230.306 10.1454 230.219 10.6772 229.903 11.0941C229.601 11.4965 229.141 11.7553 228.552 11.7553C227.862 11.7553 227.33 11.4822 227.33 10.8497Z" fill="black" fill-opacity="0.7"/>
<path d="M233.851 12.9914H235.777V10.2747C235.777 9.21107 235.777 7.25621 237.344 7.25621C237.689 7.25621 238.034 7.3137 238.206 7.41432V5.47383C238.005 5.41634 237.804 5.41634 237.617 5.41634C236.467 5.41634 235.677 6.58063 235.59 7.27058H235.562V5.58882H233.851V12.9914Z" fill="black" fill-opacity="0.7"/>
<path d="M239.294 12.9914H241.22V9.39793H241.249L243.721 12.9914H246.165L243.06 8.89484L245.82 5.58882H243.549L241.249 8.54986H241.22V2.21094H239.294V12.9914Z" fill="black" fill-opacity="0.7"/>
<path d="M252.317 8.56424C252.403 7.57243 252.949 6.82499 254.027 6.82499C255.105 6.82499 255.537 7.62993 255.594 8.56424H252.317ZM256.888 11.0078C256.169 11.4103 255.364 11.7553 254.43 11.7553C253.237 11.7553 252.403 11.0797 252.317 9.88664H257.434C257.434 7.29933 256.658 5.41634 253.912 5.41634C251.612 5.41634 250.477 7.18434 250.477 9.32606C250.477 11.7553 251.9 13.1639 254.344 13.1639C255.378 13.1639 256.183 12.9627 256.888 12.5746V11.0078Z" fill="black" fill-opacity="0.7"/>
<path d="M266.93 3.20274C266.068 2.94401 265.148 2.7859 263.984 2.7859C260.577 2.7859 258.478 4.71201 258.478 8.14739C258.478 11.5397 260.735 13.1639 263.984 13.1639C265.062 13.1639 266.168 12.9339 267.232 12.6464V7.24183H263.179V8.82297H265.306V11.439C264.961 11.5253 264.53 11.5828 263.984 11.5828C261.842 11.5828 260.577 10.0448 260.577 8.00365C260.577 5.94817 261.871 4.36704 264.214 4.36704C265.019 4.36704 266.025 4.53952 266.801 4.89887L266.93 3.20274Z" fill="black" fill-opacity="0.7"/>
<path d="M56.2046 18.1531C55.4715 17.9087 54.6666 17.7937 53.8041 17.7937C52.0361 17.7937 50.2969 18.613 50.2969 20.8554C50.2969 24.1758 54.6953 23.3852 54.6953 25.2969C54.6953 26.2025 53.6748 26.5906 52.9129 26.5906C52.1224 26.5906 51.3318 26.3462 50.6419 25.9725L50.455 27.7836C51.4468 28.028 51.9355 28.1717 53.0279 28.1717C55.0547 28.1717 56.7939 27.338 56.7939 25.1388C56.7939 21.7753 52.3955 22.5084 52.3955 20.7691C52.3955 19.6767 53.2867 19.3748 53.9766 19.3748C54.6809 19.3748 55.3853 19.533 56.0177 19.8061L56.2046 18.1531Z" fill="black" fill-opacity="0.7"/>
<path d="M58.2984 31.0178H60.2245V27.1512H60.2532C60.9288 27.9705 61.6044 28.1717 62.4237 28.1717C64.7379 28.1717 65.5716 26.3031 65.5716 24.2764C65.5716 22.2353 64.7379 20.4241 62.4668 20.4241C61.3313 20.4241 60.5982 20.9272 60.167 21.6459H60.1382V20.5966H58.2984V31.0178ZM61.9637 21.919C63.2143 21.919 63.5592 23.2846 63.5592 24.2764C63.5592 25.2969 63.1999 26.6768 61.935 26.6768C60.6557 26.6768 60.2388 25.3257 60.2388 24.2764C60.2388 23.2415 60.7276 21.919 61.9637 21.919Z" fill="black" fill-opacity="0.7"/>
<path d="M67.3299 22.6377C67.9768 22.149 68.7961 21.8328 69.6154 21.8328C70.7509 21.8328 71.2828 22.2353 71.2828 23.4283H70.2191C69.4142 23.4283 68.4655 23.5002 67.7324 23.8595C66.9993 24.2189 66.4675 24.8657 66.4675 25.9725C66.4675 27.3812 67.7468 28.1717 69.0548 28.1717C69.9316 28.1717 70.8947 27.7118 71.3403 26.8924H71.369C71.3834 27.1224 71.3834 27.6111 71.4553 27.9992H73.1514C73.1083 27.4243 73.0795 26.9068 73.0652 26.3462C73.0508 25.8 73.0364 25.2394 73.0364 24.492V23.5433C73.0364 21.3585 72.1021 20.4241 69.8454 20.4241C69.0261 20.4241 68.0199 20.6398 67.2724 20.9847L67.3299 22.6377ZM68.3074 25.8575C68.3074 24.722 69.5867 24.5782 70.4491 24.5782H71.2828C71.2828 25.1532 71.1965 25.685 70.8803 26.1019C70.5785 26.5043 70.1185 26.7631 69.5292 26.7631C68.8392 26.7631 68.3074 26.49 68.3074 25.8575Z" fill="black" fill-opacity="0.7"/>
<path d="M74.8283 27.9992H76.7544V25.2826C76.7544 24.2189 76.7544 22.264 78.3212 22.264C78.6662 22.264 79.0112 22.3215 79.1836 22.4221V20.4816C78.9824 20.4241 78.7812 20.4241 78.5943 20.4241C77.4444 20.4241 76.6538 21.5884 76.5676 22.2784H76.5388V20.5966H74.8283V27.9992Z" fill="black" fill-opacity="0.7"/>
<path d="M82.7338 24.9232V23.3421H78.9534V24.9232H82.7338Z" fill="black" fill-opacity="0.7"/>
<path d="M94.7408 20.5966H92.8147V24.2189C92.8147 25.1676 92.5128 26.6768 91.1185 26.6768C89.8824 26.6768 89.868 25.455 89.868 24.5495V20.5966H87.9419V25.2682C87.9419 26.9356 88.7037 28.1717 90.4573 28.1717C91.4635 28.1717 92.2972 27.7118 92.8866 26.9931H92.9153V27.9992H94.7408V20.5966Z" fill="black" fill-opacity="0.7"/>
<path d="M96.5854 27.9992H98.5115V24.377C98.5115 23.4283 98.8134 21.919 100.208 21.919C101.444 21.919 101.458 23.1408 101.458 24.0464V27.9992H103.384V23.3277C103.384 21.6603 102.622 20.4241 100.869 20.4241C99.8627 20.4241 99.0433 20.7548 98.4396 21.6028H98.4109V20.5966H96.5854V27.9992Z" fill="black" fill-opacity="0.7"/>
<path d="M106.767 24.2764C106.767 23.2846 107.112 21.919 108.362 21.919C109.599 21.919 110.087 23.2415 110.087 24.2764C110.087 25.3257 109.67 26.6768 108.391 26.6768C107.126 26.6768 106.767 25.2969 106.767 24.2764ZM110.159 27.9992H112.028V17.2188H110.102V21.4591H110.073C109.498 20.7548 108.822 20.4241 107.859 20.4241C105.588 20.4241 104.755 22.2353 104.755 24.2764C104.755 26.3031 105.588 28.1717 107.859 28.1717C108.765 28.1717 109.555 27.8842 110.13 27.1655H110.159V27.9992Z" fill="black" fill-opacity="0.7"/>
<path d="M117.902 27.9992H120.647C123.723 27.9992 126.44 26.9643 126.44 22.9827C126.44 19.0011 123.723 17.9662 120.647 17.9662H117.902V27.9992ZM119.914 19.5473H121.035C122.717 19.5473 124.341 20.7979 124.341 22.9827C124.341 25.1676 122.717 26.4181 121.035 26.4181H119.914V19.5473Z" fill="black" fill-opacity="0.7"/>
<path d="M128.347 22.6377C128.994 22.149 129.813 21.8328 130.632 21.8328C131.768 21.8328 132.3 22.2353 132.3 23.4283H131.236C130.431 23.4283 129.482 23.5002 128.749 23.8595C128.016 24.2189 127.485 24.8657 127.485 25.9725C127.485 27.3812 128.764 28.1717 130.072 28.1717C130.949 28.1717 131.912 27.7118 132.357 26.8924H132.386C132.4 27.1224 132.4 27.6111 132.472 27.9992H134.168C134.125 27.4243 134.097 26.9068 134.082 26.3462C134.068 25.8 134.053 25.2394 134.053 24.492V23.5433C134.053 21.3585 133.119 20.4241 130.862 20.4241C130.043 20.4241 129.037 20.6398 128.289 20.9847L128.347 22.6377ZM129.324 25.8575C129.324 24.722 130.604 24.5782 131.466 24.5782H132.3C132.3 25.1532 132.214 25.685 131.897 26.1019C131.595 26.5043 131.136 26.7631 130.546 26.7631C129.856 26.7631 129.324 26.49 129.324 25.8575Z" fill="black" fill-opacity="0.7"/>
<path d="M135.845 27.9992H137.771V25.2826C137.771 24.2189 137.771 22.264 139.338 22.264C139.683 22.264 140.028 22.3215 140.201 22.4221V20.4816C139.999 20.4241 139.798 20.4241 139.611 20.4241C138.461 20.4241 137.671 21.5884 137.585 22.2784H137.556V20.5966H135.845V27.9992Z" fill="black" fill-opacity="0.7"/>
<path d="M141.288 27.9992H143.214V17.2188H141.288V27.9992Z" fill="black" fill-opacity="0.7"/>
<path d="M146.468 23.5721C146.554 22.5802 147.1 21.8328 148.178 21.8328C149.256 21.8328 149.687 22.6377 149.745 23.5721H146.468ZM151.039 26.0156C150.32 26.4181 149.515 26.7631 148.581 26.7631C147.388 26.7631 146.554 26.0875 146.468 24.8945H151.585C151.585 22.3071 150.809 20.4241 148.063 20.4241C145.763 20.4241 144.628 22.1922 144.628 24.3339C144.628 26.7631 146.051 28.1717 148.494 28.1717C149.529 28.1717 150.334 27.9705 151.039 27.5824V26.0156Z" fill="black" fill-opacity="0.7"/>
<path d="M152.945 27.9992H154.872V24.377C154.872 23.4283 155.173 21.919 156.568 21.919C157.804 21.919 157.818 23.1408 157.818 24.0464V27.9992H159.744V23.3277C159.744 21.6603 158.983 20.4241 157.229 20.4241C156.223 20.4241 155.389 20.8841 154.9 21.6028H154.872V17.2188H152.945V27.9992Z" fill="black" fill-opacity="0.7"/>
<path d="M162.954 23.5721C163.041 22.5802 163.587 21.8328 164.665 21.8328C165.743 21.8328 166.174 22.6377 166.232 23.5721H162.954ZM167.525 26.0156C166.807 26.4181 166.002 26.7631 165.067 26.7631C163.874 26.7631 163.041 26.0875 162.954 24.8945H168.072C168.072 22.3071 167.295 20.4241 164.55 20.4241C162.25 20.4241 161.115 22.1922 161.115 24.3339C161.115 26.7631 162.538 28.1717 164.981 28.1717C166.016 28.1717 166.821 27.9705 167.525 27.5824V26.0156Z" fill="black" fill-opacity="0.7"/>
<path d="M169.432 27.9992H171.358V24.377C171.358 23.4283 171.66 21.919 173.055 21.919C174.291 21.919 174.305 23.1408 174.305 24.0464V27.9992H176.231V23.3277C176.231 21.6603 175.469 20.4241 173.716 20.4241C172.71 20.4241 171.89 20.7548 171.287 21.6028H171.258V20.5966H169.432V27.9992Z" fill="black" fill-opacity="0.7"/>
<path d="M182.604 20.6973C182 20.5679 181.411 20.4241 180.505 20.4241C178.996 20.4241 177.601 21.1285 177.601 22.724C177.601 25.3975 180.951 24.4057 180.951 25.8575C180.951 26.5762 180.174 26.7631 179.686 26.7631C179.024 26.7631 178.392 26.5762 177.788 26.2744L177.673 27.8555C178.378 28.0424 179.125 28.1717 179.858 28.1717C181.425 28.1717 182.963 27.4818 182.963 25.7569C182.963 23.0833 179.614 23.8308 179.614 22.6521C179.614 22.0197 180.232 21.8328 180.749 21.8328C181.454 21.8328 181.885 21.9478 182.474 22.149L182.604 20.6973Z" fill="black" fill-opacity="0.7"/>
<path d="M184.362 27.9992H186.288V24.4057H186.317L188.789 27.9992H191.233L188.128 23.9027L190.888 20.5966H188.617L186.317 23.5577H186.288V17.2188H184.362V27.9992Z" fill="black" fill-opacity="0.7"/>
<path d="M192.205 27.9992H194.132V17.2188H192.205V27.9992Z" fill="black" fill-opacity="0.7"/>
<path d="M196.407 22.6377C197.054 22.149 197.873 21.8328 198.693 21.8328C199.828 21.8328 200.36 22.2353 200.36 23.4283H199.296C198.491 23.4283 197.543 23.5002 196.81 23.8595C196.077 24.2189 195.545 24.8657 195.545 25.9725C195.545 27.3812 196.824 28.1717 198.132 28.1717C199.009 28.1717 199.972 27.7118 200.418 26.8924H200.446C200.461 27.1224 200.461 27.6111 200.533 27.9992H202.229C202.186 27.4243 202.157 26.9068 202.142 26.3462C202.128 25.8 202.114 25.2394 202.114 24.492V23.5433C202.114 21.3585 201.179 20.4241 198.923 20.4241C198.103 20.4241 197.097 20.6398 196.35 20.9847L196.407 22.6377ZM197.385 25.8575C197.385 24.722 198.664 24.5782 199.526 24.5782H200.36C200.36 25.1532 200.274 25.685 199.958 26.1019C199.656 26.5043 199.196 26.7631 198.606 26.7631C197.916 26.7631 197.385 26.49 197.385 25.8575Z" fill="black" fill-opacity="0.7"/>
<path d="M208.39 20.6973C207.787 20.5679 207.197 20.4241 206.292 20.4241C204.782 20.4241 203.388 21.1285 203.388 22.724C203.388 25.3975 206.737 24.4057 206.737 25.8575C206.737 26.5762 205.961 26.7631 205.472 26.7631C204.811 26.7631 204.179 26.5762 203.575 26.2744L203.46 27.8555C204.164 28.0424 204.912 28.1717 205.645 28.1717C207.212 28.1717 208.75 27.4818 208.75 25.7569C208.75 23.0833 205.4 23.8308 205.4 22.6521C205.4 22.0197 206.019 21.8328 206.536 21.8328C207.24 21.8328 207.672 21.9478 208.261 22.149L208.39 20.6973Z" fill="black" fill-opacity="0.7"/>
<path d="M214.633 20.6973C214.03 20.5679 213.44 20.4241 212.535 20.4241C211.026 20.4241 209.631 21.1285 209.631 22.724C209.631 25.3975 212.98 24.4057 212.98 25.8575C212.98 26.5762 212.204 26.7631 211.716 26.7631C211.054 26.7631 210.422 26.5762 209.818 26.2744L209.703 27.8555C210.407 28.0424 211.155 28.1717 211.888 28.1717C213.455 28.1717 214.993 27.4818 214.993 25.7569C214.993 23.0833 211.644 23.8308 211.644 22.6521C211.644 22.0197 212.262 21.8328 212.779 21.8328C213.484 21.8328 213.915 21.9478 214.504 22.149L214.633 20.6973Z" fill="black" fill-opacity="0.7"/>
<path d="M217.714 23.5721C217.801 22.5802 218.347 21.8328 219.425 21.8328C220.503 21.8328 220.934 22.6377 220.992 23.5721H217.714ZM222.285 26.0156C221.567 26.4181 220.762 26.7631 219.827 26.7631C218.634 26.7631 217.801 26.0875 217.714 24.8945H222.831C222.831 22.3071 222.055 20.4241 219.31 20.4241C217.01 20.4241 215.874 22.1922 215.874 24.3339C215.874 26.7631 217.297 28.1717 219.741 28.1717C220.776 28.1717 221.581 27.9705 222.285 27.5824V26.0156Z" fill="black" fill-opacity="0.7"/>
</svg>
