<svg width="252" height="30" viewBox="0 0 252 30" fill="none" xmlns="http://www.w3.org/2000/svg">
<rect width="251.967" height="26" transform="translate(0 2)" fill="#FAFAFA"/>
<path d="M24.3313 23.4004C23.9232 25.5401 23.5773 27.3571 23.4432 28.0629H39.3178V23.4004H24.3313ZM0.00195312 23.4428V28.1053H15.764L14.7122 23.4428H0.00195312Z" fill="black" fill-opacity="0.7"/>
<path d="M7.74534 12.7527L6.59813 7.92944H16.3863L19.5562 21.7749H19.6915L21.6885 12.9057C22.6948 8.87868 23.075 7.92944 28.7462 7.92944H32.8252C32.8252 7.92944 32.0011 11.6415 30.9758 15.6696C30.5855 17.2063 27.1797 17.0242 27.3496 15.5892C27.3675 15.4396 27.5285 14.3597 27.656 13.5914C27.8416 12.4858 26.5502 12.3473 26.3176 13.4417C26.1521 14.2257 25.4041 18.1164 24.7052 21.7749H39.3171V1.89453H0V21.7749H14.2686L12.2358 12.7594L7.74534 12.7527V12.7527Z" fill="black" fill-opacity="0.7"/>
<path d="M52.4674 4.43467H53.1286C54.1348 4.43467 55.256 4.53528 55.256 5.7427C55.256 6.99324 54.1204 7.13698 53.1286 7.13698H52.4674V4.43467ZM50.4551 12.8866H52.4674V8.71811H53.1143C53.9623 8.71811 54.2211 9.00559 54.5085 9.75304L55.716 12.8866H57.9583L56.3484 8.96247C56.1472 8.51688 55.8309 7.97067 55.2847 7.92754V7.8988C56.564 7.72631 57.3546 6.74888 57.3546 5.57021C57.3546 2.78166 54.7816 2.85353 52.6255 2.85353H50.4551V12.8866Z" fill="black" fill-opacity="0.7"/>
<path d="M59.4867 7.52507C60.1335 7.03636 60.9528 6.72013 61.7721 6.72013C62.9077 6.72013 63.4395 7.1226 63.4395 8.31564H62.3758C61.5709 8.31564 60.6222 8.38751 59.8891 8.74686C59.1561 9.10621 58.6242 9.75304 58.6242 10.8598C58.6242 12.2685 59.9035 13.0591 61.2115 13.0591C62.0883 13.0591 63.0514 12.5991 63.497 11.7798H63.5257C63.5401 12.0098 63.5401 12.4985 63.612 12.8866H65.3081C65.265 12.3116 65.2362 11.7941 65.2219 11.2336C65.2075 10.6874 65.1931 10.1268 65.1931 9.37932V8.43063C65.1931 6.24579 64.2588 5.31148 62.0021 5.31148C61.1828 5.31148 60.1766 5.52709 59.4292 5.87207L59.4867 7.52507ZM60.4641 10.7448C60.4641 9.6093 61.7434 9.46556 62.6058 9.46556H63.4395C63.4395 10.0405 63.3533 10.5724 63.037 10.9892C62.7352 11.3917 62.2752 11.6504 61.6859 11.6504C60.9959 11.6504 60.4641 11.3773 60.4641 10.7448Z" fill="black" fill-opacity="0.7"/>
<path d="M66.985 12.8866H68.9112V5.48397H66.985V12.8866ZM66.985 4.13281H68.9112V2.29294H66.985V4.13281Z" fill="black" fill-opacity="0.7"/>
<path d="M71.5031 12.8866H73.4292V6.89262H75.111V5.48397H73.4292V4.56403C73.4292 3.98907 73.6304 3.42849 74.2773 3.42849C74.6941 3.42849 74.9385 3.5866 75.111 3.68722L75.2691 2.09171C74.8953 2.00546 74.3491 1.93359 73.8604 1.93359C72.3368 1.93359 71.5031 2.96852 71.5031 4.44904V5.48397H70.0801V6.89262H71.5031V12.8866Z" fill="black" fill-opacity="0.7"/>
<path d="M76.6934 12.8866H78.6196V6.89262H80.3013V5.48397H78.6196V4.56403C78.6196 3.98907 78.8208 3.42849 79.4676 3.42849C79.8845 3.42849 80.1288 3.5866 80.3013 3.68722L80.4594 2.09171C80.0857 2.00546 79.5395 1.93359 79.0508 1.93359C77.5271 1.93359 76.6934 2.96852 76.6934 4.44904V5.48397H75.2704V6.89262H76.6934V12.8866Z" fill="black" fill-opacity="0.7"/>
<path d="M82.7977 8.45938C82.8839 7.46758 83.4301 6.72013 84.5082 6.72013C85.5862 6.72013 86.0174 7.52507 86.0749 8.45938H82.7977ZM87.3686 10.903C86.6499 11.3054 85.8449 11.6504 84.9106 11.6504C83.7176 11.6504 82.8839 10.9748 82.7977 9.78179H87.9148C87.9148 7.19447 87.1386 5.31148 84.3932 5.31148C82.0933 5.31148 80.9578 7.07948 80.9578 9.2212C80.9578 11.6504 82.3808 13.0591 84.8244 13.0591C85.8593 13.0591 86.6643 12.8578 87.3686 12.4697V10.903Z" fill="black" fill-opacity="0.7"/>
<path d="M89.3186 12.8866H91.2447V5.48397H89.3186V12.8866ZM89.3186 4.13281H91.2447V2.29294H89.3186V4.13281Z" fill="black" fill-opacity="0.7"/>
<path d="M97.6601 5.58459C97.0564 5.45522 96.4671 5.31148 95.5615 5.31148C94.0523 5.31148 92.658 6.01581 92.658 7.61132C92.658 10.2849 96.0071 9.29307 96.0071 10.7448C96.0071 11.4635 95.2309 11.6504 94.7422 11.6504C94.081 11.6504 93.4486 11.4635 92.8449 11.1617L92.7299 12.7428C93.4342 12.9297 94.1816 13.0591 94.9147 13.0591C96.4815 13.0591 98.0195 12.3691 98.0195 10.6442C98.0195 7.97067 94.6703 8.71811 94.6703 7.53945C94.6703 6.90699 95.2884 6.72013 95.8059 6.72013C96.5102 6.72013 96.9414 6.83512 97.5308 7.03636L97.6601 5.58459Z" fill="black" fill-opacity="0.7"/>
<path d="M100.741 8.45938C100.827 7.46758 101.373 6.72013 102.452 6.72013C103.53 6.72013 103.961 7.52507 104.018 8.45938H100.741ZM105.312 10.903C104.593 11.3054 103.788 11.6504 102.854 11.6504C101.661 11.6504 100.827 10.9748 100.741 9.78179H105.858C105.858 7.19447 105.082 5.31148 102.337 5.31148C100.037 5.31148 98.9011 7.07948 98.9011 9.2212C98.9011 11.6504 100.324 13.0591 102.768 13.0591C103.803 13.0591 104.608 12.8578 105.312 12.4697V10.903Z" fill="black" fill-opacity="0.7"/>
<path d="M107.219 12.8866H109.145V9.26433C109.145 8.31564 109.447 6.80637 110.841 6.80637C112.077 6.80637 112.092 8.02816 112.092 8.93372V12.8866H114.018V8.21502C114.018 6.54764 113.256 5.31148 111.502 5.31148C110.496 5.31148 109.677 5.64208 109.073 6.49015H109.044V5.48397H107.219V12.8866Z" fill="black" fill-opacity="0.7"/>
<path d="M117.803 9.16371C117.803 8.12878 118.292 6.80637 119.528 6.80637C120.778 6.80637 121.123 8.1719 121.123 9.16371C121.123 10.1843 120.764 11.5642 119.499 11.5642C118.22 11.5642 117.803 10.213 117.803 9.16371ZM115.862 12.8866H117.731V11.981H117.76C118.32 12.7716 119.211 13.0591 120.031 13.0591C122.302 13.0591 123.136 11.1904 123.136 9.16371C123.136 7.1226 122.302 5.31148 120.031 5.31148C119.025 5.31148 118.349 5.72833 117.817 6.43265H117.788V2.10608H115.862V12.8866Z" fill="black" fill-opacity="0.7"/>
<path d="M124.894 7.52507C125.541 7.03636 126.36 6.72013 127.179 6.72013C128.315 6.72013 128.847 7.1226 128.847 8.31564H127.783C126.978 8.31564 126.029 8.38751 125.296 8.74686C124.563 9.10621 124.031 9.75304 124.031 10.8598C124.031 12.2685 125.311 13.0591 126.619 13.0591C127.496 13.0591 128.459 12.5991 128.904 11.7798H128.933C128.947 12.0098 128.947 12.4985 129.019 12.8866H130.715C130.672 12.3116 130.643 11.7941 130.629 11.2336C130.615 10.6874 130.6 10.1268 130.6 9.37932V8.43063C130.6 6.24579 129.666 5.31148 127.409 5.31148C126.59 5.31148 125.584 5.52709 124.836 5.87207L124.894 7.52507ZM125.871 10.7448C125.871 9.6093 127.151 9.46556 128.013 9.46556H128.847C128.847 10.0405 128.76 10.5724 128.444 10.9892C128.142 11.3917 127.682 11.6504 127.093 11.6504C126.403 11.6504 125.871 11.3773 125.871 10.7448Z" fill="black" fill-opacity="0.7"/>
<path d="M132.349 12.8866H134.275V9.26433C134.275 8.31564 134.577 6.80637 135.971 6.80637C137.208 6.80637 137.222 8.02816 137.222 8.93372V12.8866H139.148V8.21502C139.148 6.54764 138.386 5.31148 136.633 5.31148C135.626 5.31148 134.807 5.64208 134.203 6.49015H134.175V5.48397H132.349V12.8866Z" fill="black" fill-opacity="0.7"/>
<path d="M141.036 12.8866H142.962V9.29307H142.991L145.463 12.8866H147.907L144.802 8.78998L147.562 5.48397H145.29L142.991 8.44501H142.962V2.10608H141.036V12.8866Z" fill="black" fill-opacity="0.7"/>
<path d="M52.2666 27.9999H54.8683L56.6507 19.9792H56.6794L58.4905 27.9999H61.0779L63.6939 17.9668H61.7391L59.8561 25.9875H59.8273L58.0593 17.9668H55.3283L53.6178 25.9875H53.589L51.7204 17.9668H49.6074L52.2666 27.9999Z" fill="black" fill-opacity="0.7"/>
<path d="M65.7986 23.5727C65.8848 22.5809 66.431 21.8334 67.5091 21.8334C68.5871 21.8334 69.0184 22.6384 69.0759 23.5727H65.7986ZM70.3695 26.0162C69.6508 26.4187 68.8459 26.7637 67.9116 26.7637C66.7185 26.7637 65.8848 26.0881 65.7986 24.8951H70.9157C70.9157 22.3078 70.1395 20.4248 67.3941 20.4248C65.0943 20.4248 63.9587 22.1928 63.9587 24.3345C63.9587 26.7637 65.3817 28.1723 67.8253 28.1723C68.8602 28.1723 69.6652 27.9711 70.3695 27.583V26.0162Z" fill="black" fill-opacity="0.7"/>
<path d="M76.8042 20.6979C76.2005 20.5685 75.6112 20.4248 74.7056 20.4248C73.1964 20.4248 71.8021 21.1291 71.8021 22.7246C71.8021 25.3982 75.1512 24.4064 75.1512 25.8581C75.1512 26.5768 74.375 26.7637 73.8863 26.7637C73.2251 26.7637 72.5927 26.5768 71.9889 26.275L71.874 27.8561C72.5783 28.043 73.3257 28.1723 74.0588 28.1723C75.6256 28.1723 77.1636 27.4824 77.1636 25.7575C77.1636 23.0839 73.8144 23.8314 73.8144 22.6527C73.8144 22.0203 74.4325 21.8334 74.95 21.8334C75.6543 21.8334 76.0855 21.9484 76.6749 22.1496L76.8042 20.6979Z" fill="black" fill-opacity="0.7"/>
<path d="M79.152 25.7719C79.152 27.238 79.9857 28.1723 81.495 28.1723C82.0699 28.1723 82.5155 28.1148 82.918 27.9999L82.8605 26.4762C82.6593 26.6056 82.3287 26.6774 81.9837 26.6774C81.2506 26.6774 81.0781 26.0881 81.0781 25.4557V22.0059H82.7886V20.5972H81.0781V18.4986L79.152 19.1167V20.5972H77.729V22.0059H79.152V25.7719Z" fill="black" fill-opacity="0.7"/>
<path d="M84.0057 27.9999H85.9318V24.4064H85.9606L88.4329 27.9999H90.8765L87.7717 23.9033L90.5315 20.5972H88.2604L85.9606 23.5583H85.9318V17.2194H84.0057V27.9999Z" fill="black" fill-opacity="0.7"/>
<path d="M91.8491 27.9999H93.7752V25.2832C93.7752 24.2195 93.7752 22.2646 95.342 22.2646C95.6869 22.2646 96.0319 22.3221 96.2044 22.4227V20.4823C96.0032 20.4248 95.8019 20.4248 95.6151 20.4248C94.4651 20.4248 93.6746 21.5891 93.5883 22.279H93.5596V20.5972H91.8491V27.9999Z" fill="black" fill-opacity="0.7"/>
<path d="M98.3618 23.5727C98.4481 22.5809 98.9943 21.8334 100.072 21.8334C101.15 21.8334 101.582 22.6384 101.639 23.5727H98.3618ZM102.933 26.0162C102.214 26.4187 101.409 26.7637 100.475 26.7637C99.2818 26.7637 98.4481 26.0881 98.3618 24.8951H103.479C103.479 22.3078 102.703 20.4248 99.9574 20.4248C97.6575 20.4248 96.522 22.1928 96.522 24.3345C96.522 26.7637 97.945 28.1723 100.389 28.1723C101.424 28.1723 102.228 27.9711 102.933 27.583V26.0162Z" fill="black" fill-opacity="0.7"/>
<path d="M104.883 27.9999H106.809V20.5972H104.883V27.9999ZM104.883 19.2461H106.809V17.4062H104.883V19.2461Z" fill="black" fill-opacity="0.7"/>
<path d="M113.224 20.6979C112.621 20.5685 112.031 20.4248 111.126 20.4248C109.616 20.4248 108.222 21.1291 108.222 22.7246C108.222 25.3982 111.571 24.4064 111.571 25.8581C111.571 26.5768 110.795 26.7637 110.306 26.7637C109.645 26.7637 109.013 26.5768 108.409 26.275L108.294 27.8561C108.998 28.043 109.746 28.1723 110.479 28.1723C112.046 28.1723 113.584 27.4824 113.584 25.7575C113.584 23.0839 110.235 23.8314 110.235 22.6527C110.235 22.0203 110.853 21.8334 111.37 21.8334C112.074 21.8334 112.506 21.9484 113.095 22.1496L113.224 20.6979Z" fill="black" fill-opacity="0.7"/>
<path d="M118.969 27.9999H120.981V23.6014H124.374V22.0203H120.981V19.5479H124.546V17.9668H118.969V27.9999Z" fill="black" fill-opacity="0.7"/>
<path d="M132.639 20.5972H130.713V24.2195C130.713 25.1682 130.411 26.6774 129.016 26.6774C127.78 26.6774 127.766 25.4557 127.766 24.5501V20.5972H125.84V25.2688C125.84 26.9362 126.602 28.1723 128.355 28.1723C129.361 28.1723 130.195 27.7124 130.784 26.9937H130.813V27.9999H132.639V20.5972ZM129.893 17.5787V19.2461H131.561V17.5787H129.893ZM128.6 19.2461V17.5787H126.932V19.2461H128.6Z" fill="black" fill-opacity="0.7"/>
<path d="M134.526 27.9999H136.452V25.2832C136.452 24.2195 136.452 22.2646 138.019 22.2646C138.364 22.2646 138.709 22.3221 138.882 22.4227V20.4823C138.68 20.4248 138.479 20.4248 138.292 20.4248C137.142 20.4248 136.352 21.5891 136.266 22.279H136.237V20.5972H134.526V27.9999Z" fill="black" fill-opacity="0.7"/>
<path d="M144.454 20.6979C143.85 20.5685 143.261 20.4248 142.355 20.4248C140.846 20.4248 139.452 21.1291 139.452 22.7246C139.452 25.3982 142.801 24.4064 142.801 25.8581C142.801 26.5768 142.025 26.7637 141.536 26.7637C140.875 26.7637 140.242 26.5768 139.639 26.275L139.524 27.8561C140.228 28.043 140.976 28.1723 141.709 28.1723C143.275 28.1723 144.813 27.4824 144.813 25.7575C144.813 23.0839 141.464 23.8314 141.464 22.6527C141.464 22.0203 142.082 21.8334 142.6 21.8334C143.304 21.8334 143.735 21.9484 144.325 22.1496L144.454 20.6979Z" fill="black" fill-opacity="0.7"/>
<path d="M146.802 25.7719C146.802 27.238 147.636 28.1723 149.145 28.1723C149.72 28.1723 150.165 28.1148 150.568 27.9999L150.51 26.4762C150.309 26.6056 149.978 26.6774 149.633 26.6774C148.9 26.6774 148.728 26.0881 148.728 25.4557V22.0059H150.438V20.5972H148.728V18.4986L146.802 19.1167V20.5972H145.379V22.0059H146.802V25.7719Z" fill="black" fill-opacity="0.7"/>
<path d="M152.978 23.5727C153.064 22.5809 153.61 21.8334 154.688 21.8334C155.766 21.8334 156.198 22.6384 156.255 23.5727H152.978ZM157.549 26.0162C156.83 26.4187 156.025 26.7637 155.091 26.7637C153.898 26.7637 153.064 26.0881 152.978 24.8951H158.095C158.095 22.3078 157.319 20.4248 154.573 20.4248C152.274 20.4248 151.138 22.1928 151.138 24.3345C151.138 26.7637 152.561 28.1723 155.005 28.1723C156.04 28.1723 156.845 27.9711 157.549 27.583V26.0162Z" fill="black" fill-opacity="0.7"/>
<path d="M159.456 27.9999H161.382V24.3776C161.382 23.4289 161.684 21.9197 163.078 21.9197C164.314 21.9197 164.329 23.1414 164.329 24.047V27.9999H166.255V23.3283C166.255 21.6609 165.493 20.4248 163.739 20.4248C162.733 20.4248 161.914 20.7554 161.31 21.6034H161.281V20.5972H159.456V27.9999Z" fill="black" fill-opacity="0.7"/>
<path d="M168.804 27.9999H170.73V22.0059H172.411V20.5972H170.73V19.6773C170.73 19.1024 170.931 18.5418 171.578 18.5418C171.995 18.5418 172.239 18.6999 172.411 18.8005L172.57 17.205C172.196 17.1187 171.65 17.0469 171.161 17.0469C169.637 17.0469 168.804 18.0818 168.804 19.5623V20.5972H167.381V22.0059H168.804V27.9999Z" fill="black" fill-opacity="0.7"/>
<path d="M174.908 23.5727C174.994 22.5809 175.54 21.8334 176.618 21.8334C177.696 21.8334 178.128 22.6384 178.185 23.5727H174.908ZM179.479 26.0162C178.76 26.4187 177.955 26.7637 177.021 26.7637C175.828 26.7637 174.994 26.0881 174.908 24.8951H180.025C180.025 22.3078 179.249 20.4248 176.503 20.4248C174.203 20.4248 173.068 22.1928 173.068 24.3345C173.068 26.7637 174.491 28.1723 176.935 28.1723C177.969 28.1723 178.774 27.9711 179.479 27.583V26.0162Z" fill="black" fill-opacity="0.7"/>
<path d="M181.429 27.9999H183.355V17.2194H181.429V27.9999Z" fill="black" fill-opacity="0.7"/>
<path d="M186.78 24.277C186.78 23.2852 187.125 21.9197 188.376 21.9197C189.612 21.9197 190.101 23.2421 190.101 24.277C190.101 25.3263 189.684 26.6774 188.405 26.6774C187.14 26.6774 186.78 25.2975 186.78 24.277ZM190.173 27.9999H192.041V17.2194H190.115V21.4597H190.086C189.512 20.7554 188.836 20.4248 187.873 20.4248C185.602 20.4248 184.768 22.2359 184.768 24.277C184.768 26.3037 185.602 28.1723 187.873 28.1723C188.778 28.1723 189.569 27.8849 190.144 27.1662H190.173V27.9999Z" fill="black" fill-opacity="0.7"/>
<path d="M195.826 24.277C195.826 23.2421 196.315 21.9197 197.551 21.9197C198.802 21.9197 199.147 23.2852 199.147 24.277C199.147 25.2975 198.787 26.6774 197.523 26.6774C196.243 26.6774 195.826 25.3263 195.826 24.277ZM193.886 27.9999H195.755V27.0943H195.783C196.344 27.8849 197.235 28.1723 198.054 28.1723C200.325 28.1723 201.159 26.3037 201.159 24.277C201.159 22.2359 200.325 20.4248 198.054 20.4248C197.048 20.4248 196.373 20.8416 195.841 21.5459H195.812V17.2194H193.886V27.9999Z" fill="black" fill-opacity="0.7"/>
<path d="M202.573 27.9999H204.499V25.2832C204.499 24.2195 204.499 22.2646 206.065 22.2646C206.41 22.2646 206.755 22.3221 206.928 22.4227V20.4823C206.727 20.4248 206.525 20.4248 206.339 20.4248C205.189 20.4248 204.398 21.5891 204.312 22.279H204.283V20.5972H202.573V27.9999Z" fill="black" fill-opacity="0.7"/>
<path d="M214.771 20.5972H212.845V24.2195C212.845 25.1682 212.543 26.6774 211.149 26.6774C209.913 26.6774 209.899 25.4557 209.899 24.5501V20.5972H207.972V25.2688C207.972 26.9362 208.734 28.1723 210.488 28.1723C211.494 28.1723 212.328 27.7124 212.917 26.9937H212.946V27.9999H214.771V20.5972Z" fill="black" fill-opacity="0.7"/>
<path d="M221.589 20.6691C221.057 20.511 220.497 20.4248 219.721 20.4248C217.406 20.4248 216.142 22.1209 216.142 24.2626C216.142 26.5193 217.363 28.1723 219.793 28.1723C220.583 28.1723 221.158 28.1005 221.719 27.928L221.632 26.3325C221.302 26.4762 220.698 26.6774 220.152 26.6774C218.801 26.6774 218.154 25.6281 218.154 24.2626C218.154 22.8683 218.916 21.9197 220.109 21.9197C220.698 21.9197 221.072 22.0346 221.417 22.1928L221.589 20.6691Z" fill="black" fill-opacity="0.7"/>
<path d="M222.902 27.9999H224.828V24.4064H224.857L227.329 27.9999H229.773L226.668 23.9033L229.428 20.5972H227.157L224.857 23.5583H224.828V17.2194H222.902V27.9999Z" fill="black" fill-opacity="0.7"/>
<path d="M235.925 23.5727C236.011 22.5809 236.557 21.8334 237.635 21.8334C238.713 21.8334 239.145 22.6384 239.202 23.5727H235.925ZM240.496 26.0162C239.777 26.4187 238.972 26.7637 238.038 26.7637C236.845 26.7637 236.011 26.0881 235.925 24.8951H241.042C241.042 22.3078 240.266 20.4248 237.52 20.4248C235.22 20.4248 234.085 22.1928 234.085 24.3345C234.085 26.7637 235.508 28.1723 237.952 28.1723C238.986 28.1723 239.791 27.9711 240.496 27.583V26.0162Z" fill="black" fill-opacity="0.7"/>
<path d="M250.538 18.2112C249.676 17.9524 248.756 17.7943 247.592 17.7943C244.185 17.7943 242.086 19.7204 242.086 23.1558C242.086 26.5481 244.343 28.1723 247.592 28.1723C248.67 28.1723 249.776 27.9424 250.84 27.6549V22.2503H246.787V23.8314H248.914V26.4475C248.569 26.5337 248.138 26.5912 247.592 26.5912C245.45 26.5912 244.185 25.0532 244.185 23.0121C244.185 20.9566 245.479 19.3755 247.822 19.3755C248.627 19.3755 249.633 19.5479 250.409 19.9073L250.538 18.2112Z" fill="black" fill-opacity="0.7"/>
</svg>
