<svg width="229" height="30" viewBox="0 0 229 30" fill="none" xmlns="http://www.w3.org/2000/svg">
<rect width="139.482" height="26" transform="translate(0 2)" fill="#FAFAFA"/>
<path d="M24.3294 23.4004C23.9213 25.5401 23.5754 27.3571 23.4412 28.0629H39.3159V23.4004H24.3294ZM0 23.4428V28.1053H15.762L14.7103 23.4428H0Z" fill="black" fill-opacity="0.7"/>
<path d="M7.74534 12.7527L6.59813 7.92944H16.3863L19.5562 21.7749H19.6915L21.6885 12.9057C22.6948 8.87868 23.075 7.92944 28.7462 7.92944H32.8252C32.8252 7.92944 32.0011 11.6415 30.9758 15.6696C30.5855 17.2063 27.1797 17.0242 27.3496 15.5892C27.3675 15.4396 27.5285 14.3597 27.656 13.5914C27.8416 12.4858 26.5502 12.3473 26.3176 13.4417C26.1521 14.2257 25.4041 18.1164 24.7052 21.7749H39.3171V1.89453H0V21.7749H14.2686L12.2358 12.7594L7.74534 12.7527V12.7527Z" fill="black" fill-opacity="0.7"/>
<path d="M53.0572 12.886H55.5295L58.9074 2.85292H56.9094L54.3652 10.7299H54.3365L51.7635 2.85292H49.6074L53.0572 12.886Z" fill="black" fill-opacity="0.7"/>
<path d="M58.6387 9.23497C58.6387 11.3623 60.0617 13.0584 62.5053 13.0584C64.9632 13.0584 66.3862 11.3623 66.3862 9.23497C66.3862 6.79139 64.7045 5.31087 62.5053 5.31087C60.3204 5.31087 58.6387 6.79139 58.6387 9.23497ZM60.651 9.00498C60.651 7.89818 61.2547 6.80576 62.5053 6.80576C63.7702 6.80576 64.3739 7.86944 64.3739 9.00498C64.3739 10.2411 63.9858 11.5635 62.5053 11.5635C61.0391 11.5635 60.651 10.2268 60.651 9.00498Z" fill="black" fill-opacity="0.7"/>
<path d="M67.7996 12.886H69.7257V2.10547H67.7996V12.886Z" fill="black" fill-opacity="0.7"/>
<path d="M71.6564 12.886H73.5826V9.29246H73.6113L76.0836 12.886H78.5272L75.4224 8.78937L78.1822 5.48336H75.9111L73.6113 8.4444H73.5826V2.10547H71.6564V12.886Z" fill="black" fill-opacity="0.7"/>
<path d="M83.9845 5.58397C83.3808 5.45461 82.7914 5.31087 81.8859 5.31087C80.3766 5.31087 78.9823 6.01519 78.9823 7.6107C78.9823 10.2843 82.3315 9.29246 82.3315 10.7442C82.3315 11.4629 81.5553 11.6498 81.0666 11.6498C80.4054 11.6498 79.7729 11.4629 79.1692 11.1611L79.0542 12.7422C79.7585 12.9291 80.506 13.0584 81.2391 13.0584C82.8058 13.0584 84.3438 12.3685 84.3438 10.6436C84.3438 7.97005 80.9947 8.7175 80.9947 7.53884C80.9947 6.90638 81.6128 6.71952 82.1302 6.71952C82.8346 6.71952 83.2658 6.83451 83.8551 7.03575L83.9845 5.58397Z" fill="black" fill-opacity="0.7"/>
<path d="M87.6403 9.1631C87.6403 8.12817 88.129 6.80576 89.3652 6.80576C90.6157 6.80576 90.9607 8.17129 90.9607 9.1631C90.9607 10.1836 90.6013 11.5635 89.3364 11.5635C88.0572 11.5635 87.6403 10.2124 87.6403 9.1631ZM85.6998 12.886H87.5684V11.9804H87.5972C88.1578 12.771 89.049 13.0584 89.8683 13.0584C92.1394 13.0584 92.9731 11.1898 92.9731 9.1631C92.9731 7.12199 92.1394 5.31087 89.8683 5.31087C88.8621 5.31087 88.1865 5.72771 87.6547 6.43204H87.6259V2.10547H85.6998V12.886Z" fill="black" fill-opacity="0.7"/>
<path d="M94.7314 7.52446C95.3782 7.03575 96.1975 6.71952 97.0169 6.71952C98.1524 6.71952 98.6842 7.12199 98.6842 8.31503H97.6206C96.8156 8.31503 95.8669 8.3869 95.1339 8.74625C94.4008 9.1056 93.869 9.75243 93.869 10.8592C93.869 12.2679 95.1482 13.0584 96.4563 13.0584C97.3331 13.0584 98.2961 12.5985 98.7417 11.7792H98.7705C98.7849 12.0091 98.7849 12.4979 98.8567 12.886H100.553C100.51 12.311 100.481 11.7935 100.467 11.2329C100.452 10.6867 100.438 10.1262 100.438 9.3787V8.43002C100.438 6.24518 99.5036 5.31087 97.2468 5.31087C96.4275 5.31087 95.4213 5.52648 94.6739 5.87145L94.7314 7.52446ZM95.7088 10.7442C95.7088 9.60869 96.9881 9.46495 97.8505 9.46495H98.6842C98.6842 10.0399 98.598 10.5717 98.2818 10.9886C97.9799 11.3911 97.52 11.6498 96.9306 11.6498C96.2407 11.6498 95.7088 11.3767 95.7088 10.7442Z" fill="black" fill-opacity="0.7"/>
<path d="M102.187 12.886H104.113V9.26371C104.113 8.31503 104.415 6.80576 105.809 6.80576C107.045 6.80576 107.059 8.02755 107.059 8.93311V12.886H108.986V8.21441C108.986 6.54703 108.224 5.31087 106.47 5.31087C105.464 5.31087 104.645 5.64147 104.041 6.48953H104.012V5.48336H102.187V12.886Z" fill="black" fill-opacity="0.7"/>
<path d="M110.873 12.886H112.799V9.29246H112.828L115.3 12.886H117.744L114.639 8.78937L117.399 5.48336H115.128L112.828 8.4444H112.799V2.10547H110.873V12.886Z" fill="black" fill-opacity="0.7"/>
<path d="M50.627 27.8938H52.5531V19.6431L52.5818 19.6144L55.2841 27.8938H57.2102L59.9125 19.6144H59.9413V27.8938H61.8674V17.8607H58.6476L56.2616 25.4646H56.2328L53.8467 17.8607H50.627V27.8938Z" fill="black" fill-opacity="0.7"/>
<path d="M63.9277 27.8938H65.8538V20.4912H63.9277V27.8938ZM63.9277 19.14H65.8538V17.3001H63.9277V19.14Z" fill="black" fill-opacity="0.7"/>
<path d="M68.3739 25.6658C68.3739 27.1319 69.2076 28.0663 70.7168 28.0663C71.2918 28.0663 71.7374 28.0088 72.1399 27.8938L72.0824 26.3701C71.8811 26.4995 71.5505 26.5714 71.2056 26.5714C70.4725 26.5714 70.3 25.982 70.3 25.3496V21.8998H72.0105V20.4912H70.3V18.3926L68.3739 19.0106V20.4912H66.9509V21.8998H68.3739V25.6658Z" fill="black" fill-opacity="0.7"/>
<path d="M73.8169 25.6658C73.8169 27.1319 74.6506 28.0663 76.1599 28.0663C76.7348 28.0663 77.1804 28.0088 77.5829 27.8938L77.5254 26.3701C77.3242 26.4995 76.9935 26.5714 76.6486 26.5714C75.9155 26.5714 75.743 25.982 75.743 25.3496V21.8998H77.4535V20.4912H75.743V18.3926L73.8169 19.0106V20.4912H72.3939V21.8998H73.8169V25.6658Z" fill="black" fill-opacity="0.7"/>
<path d="M80.2948 27.8938H82.4941L84.0752 22.2448H84.104L85.7138 27.8938H87.9849L90.256 20.4912H88.4161L86.8781 25.9677H86.8494L85.2395 20.4912H82.9972L81.5023 25.9677H81.4735L79.8349 20.4912H77.7938L80.2948 27.8938Z" fill="black" fill-opacity="0.7"/>
<path d="M92.623 23.4666C92.7093 22.4748 93.2555 21.7273 94.3335 21.7273C95.4116 21.7273 95.8428 22.5323 95.9003 23.4666H92.623ZM97.1939 25.9102C96.4752 26.3126 95.6703 26.6576 94.736 26.6576C93.5429 26.6576 92.7093 25.982 92.623 24.789H97.7401C97.7401 22.2017 96.964 20.3187 94.2185 20.3187C91.9187 20.3187 90.7831 22.0867 90.7831 24.2284C90.7831 26.6576 92.2062 28.0663 94.6497 28.0663C95.6847 28.0663 96.4896 27.865 97.1939 27.4769V25.9102Z" fill="black" fill-opacity="0.7"/>
<path d="M99.144 27.8938H101.07V20.4912H99.144V27.8938ZM99.144 19.14H101.07V17.3001H99.144V19.14Z" fill="black" fill-opacity="0.7"/>
<path d="M104.496 24.1709C104.496 23.1791 104.841 21.8136 106.091 21.8136C107.327 21.8136 107.816 23.136 107.816 24.1709C107.816 25.2202 107.399 26.5714 106.12 26.5714C104.855 26.5714 104.496 25.1915 104.496 24.1709ZM107.888 27.8938H109.757V17.1133H107.83V21.3536H107.802C107.227 20.6493 106.551 20.3187 105.588 20.3187C103.317 20.3187 102.483 22.1298 102.483 24.1709C102.483 26.1976 103.317 28.0663 105.588 28.0663C106.494 28.0663 107.284 27.7788 107.859 27.0601H107.888V27.8938Z" fill="black" fill-opacity="0.7"/>
<path d="M111.989 22.5323C112.636 22.0436 113.455 21.7273 114.275 21.7273C115.41 21.7273 115.942 22.1298 115.942 23.3228H114.878C114.073 23.3228 113.125 23.3947 112.392 23.7541C111.659 24.1134 111.127 24.7602 111.127 25.867C111.127 27.2757 112.406 28.0663 113.714 28.0663C114.591 28.0663 115.554 27.6063 116 26.787H116.028C116.043 27.017 116.043 27.5057 116.115 27.8938H117.811C117.768 27.3188 117.739 26.8013 117.724 26.2408C117.71 25.6945 117.696 25.134 117.696 24.3865V23.4378C117.696 21.253 116.761 20.3187 114.505 20.3187C113.685 20.3187 112.679 20.5343 111.932 20.8793L111.989 22.5323ZM112.967 25.752C112.967 24.6165 114.246 24.4728 115.108 24.4728H115.942C115.942 25.0477 115.856 25.5796 115.54 25.9964C115.238 26.3989 114.778 26.6576 114.188 26.6576C113.499 26.6576 112.967 26.3845 112.967 25.752Z" fill="black" fill-opacity="0.7"/>
<path d="M124.667 23.4666C124.753 22.4748 125.299 21.7273 126.377 21.7273C127.455 21.7273 127.887 22.5323 127.944 23.4666H124.667ZM129.238 25.9102C128.519 26.3126 127.714 26.6576 126.78 26.6576C125.587 26.6576 124.753 25.982 124.667 24.789H129.784C129.784 22.2017 129.008 20.3187 126.262 20.3187C123.963 20.3187 122.827 22.0867 122.827 24.2284C122.827 26.6576 124.25 28.0663 126.694 28.0663C127.729 28.0663 128.533 27.865 129.238 27.4769V25.9102Z" fill="black" fill-opacity="0.7"/>
<path d="M139.28 18.1051C138.418 17.8464 137.498 17.6882 136.334 17.6882C132.927 17.6882 130.828 19.6144 130.828 23.0497C130.828 26.442 133.085 28.0663 136.334 28.0663C137.412 28.0663 138.519 27.8363 139.582 27.5488V22.1442H135.529V23.7253H137.656V26.3414C137.311 26.4276 136.88 26.4851 136.334 26.4851C134.192 26.4851 132.927 24.9471 132.927 22.906C132.927 20.8505 134.221 19.2694 136.564 19.2694C137.369 19.2694 138.375 19.4419 139.151 19.8012L139.28 18.1051Z" fill="black" fill-opacity="0.7"/>
</svg>
