<svg width="229" height="30" viewBox="0 0 229 30" fill="none" xmlns="http://www.w3.org/2000/svg">
<path d="M24.3313 23.4004C23.9232 25.5401 23.5773 27.3571 23.4432 28.0629H39.3178V23.4004H24.3313ZM0.00195312 23.4428V28.1053H15.764L14.7122 23.4428H0.00195312Z" fill="black" fill-opacity="0.7"/>
<path d="M7.74534 12.7527L6.59813 7.92944H16.3863L19.5562 21.7749H19.6915L21.6885 12.9057C22.6948 8.87868 23.075 7.92944 28.7462 7.92944H32.8252C32.8252 7.92944 32.0011 11.6415 30.9758 15.6696C30.5855 17.2063 27.1797 17.0242 27.3496 15.5892C27.3675 15.4396 27.5285 14.3597 27.656 13.5914C27.8416 12.4858 26.5502 12.3473 26.3176 13.4417C26.1521 14.2257 25.4041 18.1164 24.7052 21.7749H39.3171V1.89453H0V21.7749H14.2686L12.2358 12.7594L7.74534 12.7527V12.7527Z" fill="black" fill-opacity="0.7"/>
<path d="M53.0572 12.886H55.5295L58.9074 2.85292H56.9094L54.3652 10.7299H54.3365L51.7635 2.85292H49.6074L53.0572 12.886Z" fill="black" fill-opacity="0.7"/>
<path d="M58.6387 9.23496C58.6387 11.3623 60.0617 13.0584 62.5053 13.0584C64.9632 13.0584 66.3862 11.3623 66.3862 9.23496C66.3862 6.79139 64.7045 5.31087 62.5053 5.31087C60.3204 5.31087 58.6387 6.79139 58.6387 9.23496ZM60.651 9.00498C60.651 7.89818 61.2547 6.80576 62.5053 6.80576C63.7702 6.80576 64.3739 7.86944 64.3739 9.00498C64.3739 10.2411 63.9858 11.5635 62.5053 11.5635C61.0391 11.5635 60.651 10.2268 60.651 9.00498Z" fill="black" fill-opacity="0.7"/>
<path d="M67.7996 12.886H69.7257V2.10547H67.7996V12.886Z" fill="black" fill-opacity="0.7"/>
<path d="M71.6564 12.886H73.5825V9.29246H73.6113L76.0836 12.886H78.5272L75.4224 8.78937L78.1822 5.48335H75.9111L73.6113 8.4444H73.5825V2.10547H71.6564V12.886Z" fill="black" fill-opacity="0.7"/>
<path d="M83.9845 5.58397C83.3808 5.45461 82.7914 5.31087 81.8859 5.31087C80.3766 5.31087 78.9823 6.01519 78.9823 7.6107C78.9823 10.2843 82.3315 9.29246 82.3315 10.7442C82.3315 11.4629 81.5553 11.6498 81.0666 11.6498C80.4054 11.6498 79.7729 11.4629 79.1692 11.1611L79.0542 12.7422C79.7585 12.9291 80.506 13.0584 81.239 13.0584C82.8058 13.0584 84.3438 12.3685 84.3438 10.6436C84.3438 7.97005 80.9947 8.7175 80.9947 7.53883C80.9947 6.90638 81.6128 6.71952 82.1302 6.71952C82.8346 6.71952 83.2658 6.83451 83.8551 7.03575L83.9845 5.58397Z" fill="black" fill-opacity="0.7"/>
<path d="M87.6403 9.16309C87.6403 8.12817 88.129 6.80576 89.3652 6.80576C90.6157 6.80576 90.9607 8.17129 90.9607 9.16309C90.9607 10.1836 90.6013 11.5635 89.3364 11.5635C88.0571 11.5635 87.6403 10.2124 87.6403 9.16309ZM85.6998 12.886H87.5684V11.9804H87.5972C88.1578 12.771 89.049 13.0584 89.8683 13.0584C92.1394 13.0584 92.973 11.1898 92.973 9.16309C92.973 7.12199 92.1394 5.31087 89.8683 5.31087C88.8621 5.31087 88.1865 5.72771 87.6547 6.43204H87.6259V2.10547H85.6998V12.886Z" fill="black" fill-opacity="0.7"/>
<path d="M94.7314 7.52446C95.3782 7.03575 96.1975 6.71952 97.0169 6.71952C98.1524 6.71952 98.6842 7.12199 98.6842 8.31503H97.6206C96.8156 8.31503 95.8669 8.3869 95.1339 8.74625C94.4008 9.1056 93.8689 9.75243 93.8689 10.8592C93.8689 12.2679 95.1482 13.0584 96.4563 13.0584C97.3331 13.0584 98.2961 12.5985 98.7417 11.7792H98.7705C98.7849 12.0091 98.7849 12.4979 98.8567 12.886H100.553C100.51 12.311 100.481 11.7935 100.467 11.2329C100.452 10.6867 100.438 10.1262 100.438 9.3787V8.43002C100.438 6.24518 99.5036 5.31087 97.2468 5.31087C96.4275 5.31087 95.4213 5.52648 94.6739 5.87145L94.7314 7.52446ZM95.7088 10.7442C95.7088 9.60869 96.9881 9.46495 97.8505 9.46495H98.6842C98.6842 10.0399 98.598 10.5717 98.2818 10.9886C97.9799 11.3911 97.5199 11.6498 96.9306 11.6498C96.2407 11.6498 95.7088 11.3767 95.7088 10.7442Z" fill="black" fill-opacity="0.7"/>
<path d="M102.187 12.886H104.113V9.26371C104.113 8.31503 104.415 6.80576 105.809 6.80576C107.045 6.80576 107.059 8.02755 107.059 8.93311V12.886H108.986V8.21441C108.986 6.54703 108.224 5.31087 106.47 5.31087C105.464 5.31087 104.645 5.64147 104.041 6.48953H104.012V5.48335H102.187V12.886Z" fill="black" fill-opacity="0.7"/>
<path d="M110.873 12.886H112.799V9.29246H112.828L115.3 12.886H117.744L114.639 8.78937L117.399 5.48335H115.128L112.828 8.4444H112.799V2.10547H110.873V12.886Z" fill="black" fill-opacity="0.7"/>
<path d="M123.896 8.45877C123.982 7.46697 124.528 6.71952 125.606 6.71952C126.684 6.71952 127.116 7.52446 127.173 8.45877H123.896ZM128.467 10.9023C127.748 11.3048 126.943 11.6498 126.009 11.6498C124.816 11.6498 123.982 10.9742 123.896 9.78118H129.013C129.013 7.19386 128.237 5.31087 125.491 5.31087C123.192 5.31087 122.056 7.07887 122.056 9.22059C122.056 11.6498 123.479 13.0584 125.923 13.0584C126.958 13.0584 127.762 12.8572 128.467 12.4691V10.9023Z" fill="black" fill-opacity="0.7"/>
<path d="M138.509 3.09727C137.647 2.83854 136.727 2.68043 135.563 2.68043C132.156 2.68043 130.057 4.60654 130.057 8.04192C130.057 11.4342 132.314 13.0584 135.563 13.0584C136.641 13.0584 137.748 12.8285 138.811 12.541V7.13636H134.758V8.7175H136.885V11.3336C136.54 11.4198 136.109 11.4773 135.563 11.4773C133.421 11.4773 132.156 9.93929 132.156 7.89818C132.156 5.8427 133.45 4.26157 135.793 4.26157C136.598 4.26157 137.604 4.43405 138.38 4.7934L138.509 3.09727Z" fill="black" fill-opacity="0.7"/>
<path d="M52.2666 27.8944H54.8683L56.6507 19.8737H56.6794L58.4905 27.8944H61.0779L63.6939 17.8613H61.7391L59.8561 25.882H59.8273L58.0593 17.8613H55.3283L53.6178 25.882H53.589L51.7204 17.8613H49.6074L52.2666 27.8944Z" fill="black" fill-opacity="0.7"/>
<path d="M65.7986 23.4672C65.8848 22.4754 66.431 21.7279 67.5091 21.7279C68.5871 21.7279 69.0184 22.5329 69.0759 23.4672H65.7986ZM70.3695 25.9108C69.6508 26.3132 68.8459 26.6582 67.9116 26.6582C66.7185 26.6582 65.8848 25.9826 65.7986 24.7896H70.9157C70.9157 22.2023 70.1395 20.3193 67.3941 20.3193C65.0943 20.3193 63.9587 22.0873 63.9587 24.229C63.9587 26.6582 65.3817 28.0669 67.8253 28.0669C68.8602 28.0669 69.6652 27.8656 70.3695 27.4775V25.9108Z" fill="black" fill-opacity="0.7"/>
<path d="M76.8042 20.5924C76.2005 20.463 75.6112 20.3193 74.7056 20.3193C73.1964 20.3193 71.8021 21.0236 71.8021 22.6191C71.8021 25.2927 75.1512 24.3009 75.1512 25.7527C75.1512 26.4714 74.375 26.6582 73.8863 26.6582C73.2251 26.6582 72.5927 26.4714 71.9889 26.1695L71.874 27.7506C72.5783 27.9375 73.3257 28.0669 74.0588 28.0669C75.6256 28.0669 77.1636 27.3769 77.1636 25.652C77.1636 22.9785 73.8144 23.7259 73.8144 22.5473C73.8144 21.9148 74.4325 21.7279 74.95 21.7279C75.6543 21.7279 76.0855 21.8429 76.6749 22.0442L76.8042 20.5924Z" fill="black" fill-opacity="0.7"/>
<path d="M79.152 25.6664C79.152 27.1326 79.9857 28.0669 81.495 28.0669C82.0699 28.0669 82.5155 28.0094 82.918 27.8944L82.8605 26.3707C82.6593 26.5001 82.3287 26.572 81.9837 26.572C81.2506 26.572 81.0781 25.9826 81.0781 25.3502V21.9004H82.7886V20.4918H81.0781V18.3932L79.152 19.0113V20.4918H77.729V21.9004H79.152V25.6664Z" fill="black" fill-opacity="0.7"/>
<path d="M84.0057 27.8944H85.9318V25.1777C85.9318 24.114 85.9318 22.1592 87.4986 22.1592C87.8436 22.1592 88.1885 22.2167 88.361 22.3173V20.3768C88.1598 20.3193 87.9585 20.3193 87.7717 20.3193C86.6218 20.3193 85.8312 21.4836 85.745 22.1735H85.7162V20.4918H84.0057V27.8944Z" fill="black" fill-opacity="0.7"/>
<path d="M89.4056 27.8944H91.3317V24.2721C91.3317 23.3235 91.6336 21.8142 93.0279 21.8142C94.264 21.8142 94.2784 23.036 94.2784 23.9415V27.8944H96.2045V23.2228C96.2045 21.5555 95.4427 20.3193 93.6891 20.3193C92.6829 20.3193 91.8492 20.7793 91.3605 21.498H91.3317V17.1139H89.4056V27.8944Z" fill="black" fill-opacity="0.7"/>
<path d="M98.4372 22.5329C99.084 22.0442 99.9033 21.7279 100.723 21.7279C101.858 21.7279 102.39 22.1304 102.39 23.3235H101.326C100.521 23.3235 99.5727 23.3953 98.8397 23.7547C98.1066 24.114 97.5747 24.7609 97.5747 25.8677C97.5747 27.2763 98.854 28.0669 100.162 28.0669C101.039 28.0669 102.002 27.6069 102.448 26.7876H102.476C102.491 27.0176 102.491 27.5063 102.563 27.8944H104.259C104.216 27.3194 104.187 26.802 104.172 26.2414C104.158 25.6952 104.144 25.1346 104.144 24.3871V23.4384C104.144 21.2536 103.209 20.3193 100.953 20.3193C100.133 20.3193 99.1271 20.5349 98.3797 20.8799L98.4372 22.5329ZM99.4146 25.7527C99.4146 24.6171 100.694 24.4734 101.556 24.4734H102.39C102.39 25.0483 102.304 25.5802 101.988 25.997C101.686 26.3995 101.226 26.6582 100.636 26.6582C99.9464 26.6582 99.4146 26.3851 99.4146 25.7527Z" fill="black" fill-opacity="0.7"/>
<path d="M112.691 20.4918H110.765V24.114C110.765 25.0627 110.463 26.572 109.069 26.572C107.833 26.572 107.819 25.3502 107.819 24.4446V20.4918H105.892V25.1633C105.892 26.8307 106.654 28.0669 108.408 28.0669C109.414 28.0669 110.248 27.6069 110.837 26.8882H110.866V27.8944H112.691V20.4918Z" fill="black" fill-opacity="0.7"/>
<path d="M116.074 24.1715C116.074 23.1797 116.419 21.8142 117.669 21.8142C118.906 21.8142 119.394 23.1366 119.394 24.1715C119.394 25.2208 118.977 26.572 117.698 26.572C116.433 26.572 116.074 25.1921 116.074 24.1715ZM119.466 27.8944H121.335V17.1139H119.409V21.3542H119.38C118.805 20.6499 118.129 20.3193 117.166 20.3193C114.895 20.3193 114.062 22.1304 114.062 24.1715C114.062 26.1983 114.895 28.0669 117.166 28.0669C118.072 28.0669 118.862 27.7794 119.437 27.0607H119.466V27.8944Z" fill="black" fill-opacity="0.7"/>
<path d="M124.545 23.4672C124.631 22.4754 125.177 21.7279 126.255 21.7279C127.333 21.7279 127.765 22.5329 127.822 23.4672H124.545ZM129.116 25.9108C128.397 26.3132 127.592 26.6582 126.658 26.6582C125.465 26.6582 124.631 25.9826 124.545 24.7896H129.662C129.662 22.2023 128.886 20.3193 126.14 20.3193C123.841 20.3193 122.705 22.0873 122.705 24.229C122.705 26.6582 124.128 28.0669 126.572 28.0669C127.607 28.0669 128.412 27.8656 129.116 27.4775V25.9108Z" fill="black" fill-opacity="0.7"/>
<path d="M131.066 27.8944H132.992V25.1777C132.992 24.114 132.992 22.1592 134.559 22.1592C134.904 22.1592 135.249 22.2167 135.421 22.3173V20.3768C135.22 20.3193 135.019 20.3193 134.832 20.3193C133.682 20.3193 132.891 21.4836 132.805 22.1735H132.776V20.4918H131.066V27.8944Z" fill="black" fill-opacity="0.7"/>
<path d="M137.17 27.8944H139.096V21.9004H140.778V20.4918H139.096V19.5718C139.096 18.9969 139.297 18.4363 139.944 18.4363C140.361 18.4363 140.605 18.5944 140.778 18.695L140.936 17.0995C140.562 17.0133 140.016 16.9414 139.527 16.9414C138.004 16.9414 137.17 17.9763 137.17 19.4569V20.4918H135.747V21.9004H137.17V27.8944Z" fill="black" fill-opacity="0.7"/>
<path d="M143.274 23.4672C143.361 22.4754 143.907 21.7279 144.985 21.7279C146.063 21.7279 146.494 22.5329 146.552 23.4672H143.274ZM147.845 25.9108C147.127 26.3132 146.322 26.6582 145.387 26.6582C144.194 26.6582 143.361 25.9826 143.274 24.7896H148.391C148.391 22.2023 147.615 20.3193 144.87 20.3193C142.57 20.3193 141.434 22.0873 141.434 24.229C141.434 26.6582 142.857 28.0669 145.301 28.0669C146.336 28.0669 147.141 27.8656 147.845 27.4775V25.9108Z" fill="black" fill-opacity="0.7"/>
<path d="M149.752 27.8944H151.678V24.2721C151.678 23.3235 151.98 21.8142 153.374 21.8142C154.611 21.8142 154.625 23.036 154.625 23.9415V27.8944H156.551V23.2228C156.551 21.5555 155.789 20.3193 154.036 20.3193C153.029 20.3193 152.196 20.7793 151.707 21.498H151.678V17.1139H149.752V27.8944Z" fill="black" fill-opacity="0.7"/>
<path d="M158.396 27.8944H160.322V24.2721C160.322 23.3235 160.624 21.8142 162.018 21.8142C163.254 21.8142 163.268 23.036 163.268 23.9415V27.8944H165.195V23.2228C165.195 21.5555 164.433 20.3193 162.679 20.3193C161.673 20.3193 160.854 20.6499 160.25 21.498H160.221V20.4918H158.396V27.8944Z" fill="black" fill-opacity="0.7"/>
</svg>
