<svg width="219" height="22" viewBox="0 0 219 22" fill="none" xmlns="http://www.w3.org/2000/svg">
<rect width="215.765" height="20" transform="translate(0 1)" fill="#FAFAFA"/>
<path d="M18.7149 17.4619C18.401 19.1078 18.1349 20.5055 18.0317 21.0484H30.243V17.4619H18.7149ZM0 17.4946V21.0811H12.1247L11.3156 17.4946H0Z" fill="black" fill-opacity="0.7"/>
<path d="M5.95795 9.27136L5.07549 5.56118H12.6049L15.0433 16.2115H15.1473L16.6835 9.38905C17.4576 6.29136 17.75 5.56118 22.1125 5.56118H25.2501C25.2501 5.56118 24.6162 8.41662 23.8275 11.5152C23.5273 12.6972 20.9075 12.5572 21.0382 11.4533C21.052 11.3382 21.1758 10.5075 21.2739 9.9165C21.4166 9.06605 20.4232 8.95953 20.2443 9.80139C20.117 10.4044 19.5416 13.3973 19.004 16.2115H30.2439V0.918945H0V16.2115H10.9758L9.41214 9.27652L5.95795 9.27136V9.27136Z" fill="black" fill-opacity="0.7"/>
<path d="M40.5098 16.2008H43.2663V4.44232L43.3074 4.40135L47.1747 16.2008H49.9312L53.7985 4.40135H53.8396V16.2008H56.5961V1.90215H51.9883L48.5735 12.7388H48.5324L45.1176 1.90215H40.5098V16.2008Z" fill="black" fill-opacity="0.7"/>
<path d="M60.0384 8.55985C60.964 7.86335 62.1366 7.41268 63.3091 7.41268C64.9342 7.41268 65.6953 7.98626 65.6953 9.68654H64.1731C63.0211 9.68654 61.6634 9.78897 60.6143 10.3011C59.5652 10.8132 58.8041 11.7351 58.8041 13.3124C58.8041 15.32 60.6349 16.4467 62.5068 16.4467C63.7617 16.4467 65.1399 15.7911 65.7776 14.6235H65.8187C65.8393 14.9512 65.8393 15.6477 65.9422 16.2008H68.3695C68.3078 15.3814 68.2667 14.644 68.2461 13.845C68.2255 13.0666 68.205 12.2677 68.205 11.2024V9.85042C68.205 6.73667 66.8679 5.40512 63.6382 5.40512C62.4657 5.40512 61.0258 5.7124 59.9561 6.20405L60.0384 8.55985ZM61.4372 13.1485C61.4372 11.5302 63.268 11.3254 64.5022 11.3254H65.6953C65.6953 12.1448 65.5719 12.9027 65.1193 13.4968C64.6874 14.0704 64.0291 14.4391 63.1857 14.4391C62.1983 14.4391 61.4372 14.0499 61.4372 13.1485ZM64.7079 1.34905V3.72533H67.0941V1.34905H64.7079ZM62.8566 3.72533V1.34905H60.4703V3.72533H62.8566Z" fill="black" fill-opacity="0.7"/>
<path d="M70.7694 16.2008H73.5259V12.3291C73.5259 10.8132 73.5259 8.02724 75.7681 8.02724C76.2618 8.02724 76.7555 8.10918 77.0023 8.25257V5.48707C76.7144 5.40512 76.4264 5.40512 76.1589 5.40512C74.5133 5.40512 73.3819 7.06443 73.2585 8.04772H73.2173V5.65095H70.7694V16.2008Z" fill="black" fill-opacity="0.7"/>
<path d="M78.559 16.2008H81.3155V11.0795H81.3566L84.8948 16.2008H88.3918L83.9485 10.3626L87.8981 5.65095H84.6479L81.3566 9.87091H81.3155V0.836914H78.559V16.2008Z" fill="black" fill-opacity="0.7"/>
<path d="M89.7837 16.2008H92.5402V5.65095H89.7837V16.2008ZM89.7837 3.72533H92.5402V1.10322H89.7837V3.72533Z" fill="black" fill-opacity="0.7"/>
<path d="M101.721 5.79434C100.857 5.60998 100.014 5.40512 98.718 5.40512C96.5581 5.40512 94.5627 6.4089 94.5627 8.68276C94.5627 12.493 99.3557 11.0795 99.3557 13.1485C99.3557 14.1728 98.2449 14.4391 97.5455 14.4391C96.5992 14.4391 95.6941 14.1728 94.8302 13.7426L94.6656 15.996C95.6736 16.2623 96.7432 16.4467 97.7923 16.4467C100.035 16.4467 102.236 15.4634 102.236 13.0051C102.236 9.19489 97.4426 10.2601 97.4426 8.58034C97.4426 7.67899 98.3272 7.41268 99.0677 7.41268C100.076 7.41268 100.693 7.57656 101.536 7.86335L101.721 5.79434Z" fill="black" fill-opacity="0.7"/>
<path d="M111.294 5.75337C110.533 5.52804 109.73 5.40512 108.619 5.40512C105.308 5.40512 103.497 7.82238 103.497 10.8747C103.497 14.0909 105.246 16.4467 108.722 16.4467C109.854 16.4467 110.677 16.3442 111.479 16.0984L111.355 13.8246C110.882 14.0294 110.018 14.3162 109.237 14.3162C107.303 14.3162 106.377 12.8208 106.377 10.8747C106.377 8.88762 107.468 7.53559 109.175 7.53559C110.018 7.53559 110.553 7.69947 111.047 7.92481L111.294 5.75337Z" fill="black" fill-opacity="0.7"/>
<path d="M113.111 16.2008H115.867V11.0386C115.867 9.68654 116.299 7.53559 118.295 7.53559C120.064 7.53559 120.084 9.27684 120.084 10.5674V16.2008H122.841V9.54314C122.841 7.16685 121.751 5.40512 119.241 5.40512C117.801 5.40512 116.608 6.06065 115.908 7.08491H115.867V0.836914H113.111V16.2008Z" fill="black" fill-opacity="0.7"/>
<path d="M127.435 9.89139C127.558 8.47791 128.34 7.41268 129.883 7.41268C131.426 7.41268 132.043 8.55985 132.125 9.89139H127.435ZM133.976 13.3739C132.948 13.9475 131.796 14.4391 130.459 14.4391C128.751 14.4391 127.558 13.4763 127.435 11.776H134.758C134.758 8.08869 133.647 5.40512 129.718 5.40512C126.427 5.40512 124.802 7.92481 124.802 10.9771C124.802 14.4391 126.838 16.4467 130.335 16.4467C131.816 16.4467 132.968 16.1599 133.976 15.6068V13.3739Z" fill="black" fill-opacity="0.7"/>
<path d="M145.352 9.80945H146.709C148.149 9.80945 149.672 10.0962 149.672 11.9604C149.672 13.6197 148.046 13.9475 146.709 13.9475H145.352V9.80945ZM145.352 4.15552H146.463C147.779 4.15552 149.24 4.27844 149.24 5.93774C149.24 7.41268 147.738 7.67899 146.524 7.67899H145.352V4.15552ZM142.472 16.2008H147.491C149.301 16.2008 152.551 15.6682 152.551 12.0628C152.551 10.3011 151.214 8.99004 149.26 8.80568V8.7647C150.968 8.45743 152.119 7.26928 152.119 5.56901C152.119 2.43476 149.342 1.90215 147.491 1.90215H142.472V16.2008Z" fill="black" fill-opacity="0.7"/>
<path d="M155.15 8.55985C156.076 7.86335 157.248 7.41268 158.421 7.41268C160.046 7.41268 160.807 7.98626 160.807 9.68654H159.285C158.133 9.68654 156.775 9.78897 155.726 10.3011C154.677 10.8132 153.916 11.7351 153.916 13.3124C153.916 15.32 155.747 16.4467 157.619 16.4467C158.873 16.4467 160.252 15.7911 160.889 14.6235H160.931C160.951 14.9512 160.951 15.6477 161.054 16.2008H163.481C163.42 15.3814 163.378 14.644 163.358 13.845C163.337 13.0666 163.317 12.2677 163.317 11.2024V9.85042C163.317 6.73667 161.98 5.40512 158.75 5.40512C157.577 5.40512 156.138 5.7124 155.068 6.20405L155.15 8.55985ZM156.549 13.1485C156.549 11.5302 158.38 11.3254 159.614 11.3254H160.807C160.807 12.1448 160.684 12.9027 160.231 13.4968C159.799 14.0704 159.141 14.4391 158.297 14.4391C157.31 14.4391 156.549 14.0499 156.549 13.1485Z" fill="black" fill-opacity="0.7"/>
<path d="M165.819 16.2008H168.576V11.0386C168.576 9.68654 169.008 7.53559 171.003 7.53559C172.772 7.53559 172.793 9.27684 172.793 10.5674V16.2008H175.549V9.54314C175.549 7.16685 174.459 5.40512 171.95 5.40512C170.51 5.40512 169.337 5.87629 168.473 7.08491H168.432V5.65095H165.819V16.2008Z" fill="black" fill-opacity="0.7"/>
<path d="M178.251 16.2008H181.007V11.0795H181.049L184.587 16.2008H188.084L183.641 10.3626L187.59 5.65095H184.34L181.049 9.87091H181.007V0.836914H178.251V16.2008Z" fill="black" fill-opacity="0.7"/>
<path d="M196.888 9.89139C197.011 8.47791 197.793 7.41268 199.336 7.41268C200.879 7.41268 201.496 8.55985 201.578 9.89139H196.888ZM203.429 13.3739C202.401 13.9475 201.249 14.4391 199.912 14.4391C198.204 14.4391 197.011 13.4763 196.888 11.776H204.211C204.211 8.08869 203.1 5.40512 199.171 5.40512C195.88 5.40512 194.255 7.92481 194.255 10.9771C194.255 14.4391 196.291 16.4467 199.788 16.4467C201.269 16.4467 202.421 16.1599 203.429 15.6068V13.3739Z" fill="black" fill-opacity="0.7"/>
<path d="M217.801 2.2504C216.567 1.88166 215.251 1.65632 213.584 1.65632C208.709 1.65632 205.706 4.40135 205.706 9.29732C205.706 14.1318 208.935 16.4467 213.584 16.4467C215.127 16.4467 216.711 16.1189 218.233 15.7092V8.00675H212.432V10.2601H215.477V13.9884C214.983 14.1114 214.366 14.1933 213.584 14.1933C210.519 14.1933 208.709 12.0014 208.709 9.09247C208.709 6.16308 210.56 3.9097 213.913 3.9097C215.065 3.9097 216.505 4.15552 217.616 4.66766L217.801 2.2504Z" fill="black" fill-opacity="0.7"/>
</svg>
