<svg width="229" height="30" viewBox="0 0 229 30" fill="none" xmlns="http://www.w3.org/2000/svg">
<path d="M24.3313 23.4014C23.9232 25.5411 23.5773 27.3581 23.4432 28.0638H39.3178V23.4014H24.3313ZM0.00195312 23.4438V28.1063H15.764L14.7122 23.4438H0.00195312Z" fill="black" fill-opacity="0.7"/>
<path d="M7.74534 12.7527L6.59813 7.92944H16.3863L19.5562 21.7749H19.6915L21.6885 12.9057C22.6948 8.87868 23.075 7.92944 28.7462 7.92944H32.8252C32.8252 7.92944 32.0011 11.6415 30.9758 15.6696C30.5855 17.2063 27.1797 17.0242 27.3496 15.5892C27.3675 15.4396 27.5285 14.3597 27.656 13.5914C27.8416 12.4858 26.5502 12.3473 26.3176 13.4417C26.1521 14.2257 25.4041 18.1164 24.7052 21.7749H39.3171V1.89453H0V21.7749H14.2685L12.2358 12.7594L7.74534 12.7527V12.7527Z" fill="black" fill-opacity="0.7"/>
<path d="M53.0572 12.886H55.5295L58.9074 2.85292H56.9094L54.3652 10.7299H54.3365L51.7635 2.85292H49.6074L53.0572 12.886Z" fill="black" fill-opacity="0.7"/>
<path d="M58.6387 9.23496C58.6387 11.3623 60.0617 13.0584 62.5053 13.0584C64.9632 13.0584 66.3862 11.3623 66.3862 9.23496C66.3862 6.79139 64.7045 5.31087 62.5053 5.31087C60.3204 5.31087 58.6387 6.79139 58.6387 9.23496ZM60.651 9.00498C60.651 7.89818 61.2547 6.80576 62.5053 6.80576C63.7702 6.80576 64.3739 7.86944 64.3739 9.00498C64.3739 10.2411 63.9858 11.5635 62.5053 11.5635C61.0391 11.5635 60.651 10.2268 60.651 9.00498Z" fill="black" fill-opacity="0.7"/>
<path d="M67.7996 12.886H69.7257V2.10547H67.7996V12.886Z" fill="black" fill-opacity="0.7"/>
<path d="M71.6564 12.886H73.5826V9.29246H73.6113L76.0836 12.886H78.5272L75.4224 8.78937L78.1822 5.48335H75.9111L73.6113 8.4444H73.5826V2.10547H71.6564V12.886Z" fill="black" fill-opacity="0.7"/>
<path d="M83.9845 5.58397C83.3808 5.45461 82.7915 5.31087 81.8859 5.31087C80.3766 5.31087 78.9823 6.01519 78.9823 7.6107C78.9823 10.2843 82.3315 9.29246 82.3315 10.7442C82.3315 11.4629 81.5553 11.6498 81.0666 11.6498C80.4054 11.6498 79.7729 11.4629 79.1692 11.1611L79.0542 12.7422C79.7585 12.9291 80.506 13.0584 81.2391 13.0584C82.8058 13.0584 84.3438 12.3685 84.3438 10.6436C84.3438 7.97005 80.9947 8.7175 80.9947 7.53883C80.9947 6.90638 81.6128 6.71952 82.1302 6.71952C82.8346 6.71952 83.2658 6.83451 83.8551 7.03575L83.9845 5.58397Z" fill="black" fill-opacity="0.7"/>
<path d="M87.6403 9.16309C87.6403 8.12817 88.129 6.80576 89.3652 6.80576C90.6157 6.80576 90.9607 8.17129 90.9607 9.16309C90.9607 10.1836 90.6013 11.5635 89.3364 11.5635C88.0572 11.5635 87.6403 10.2124 87.6403 9.16309ZM85.6998 12.886H87.5684V11.9804H87.5972C88.1578 12.771 89.049 13.0584 89.8683 13.0584C92.1394 13.0584 92.9731 11.1898 92.9731 9.16309C92.9731 7.12199 92.1394 5.31087 89.8683 5.31087C88.8621 5.31087 88.1865 5.72771 87.6547 6.43204H87.6259V2.10547H85.6998V12.886Z" fill="black" fill-opacity="0.7"/>
<path d="M94.7314 7.52446C95.3782 7.03575 96.1975 6.71952 97.0169 6.71952C98.1524 6.71952 98.6842 7.12199 98.6842 8.31503H97.6206C96.8156 8.31503 95.8669 8.3869 95.1339 8.74625C94.4008 9.1056 93.869 9.75243 93.869 10.8592C93.869 12.2679 95.1482 13.0584 96.4563 13.0584C97.3331 13.0584 98.2961 12.5985 98.7417 11.7792H98.7705C98.7849 12.0091 98.7849 12.4979 98.8567 12.886H100.553C100.51 12.311 100.481 11.7935 100.467 11.2329C100.452 10.6867 100.438 10.1262 100.438 9.3787V8.43002C100.438 6.24518 99.5036 5.31087 97.2468 5.31087C96.4275 5.31087 95.4213 5.52648 94.6739 5.87145L94.7314 7.52446ZM95.7088 10.7442C95.7088 9.60869 96.9881 9.46495 97.8506 9.46495H98.6842C98.6842 10.0399 98.598 10.5717 98.2818 10.9886C97.9799 11.3911 97.52 11.6498 96.9306 11.6498C96.2407 11.6498 95.7088 11.3767 95.7088 10.7442Z" fill="black" fill-opacity="0.7"/>
<path d="M102.187 12.886H104.113V9.26371C104.113 8.31503 104.415 6.80576 105.809 6.80576C107.045 6.80576 107.059 8.02755 107.059 8.93311V12.886H108.986V8.21441C108.986 6.54703 108.224 5.31087 106.47 5.31087C105.464 5.31087 104.645 5.64147 104.041 6.48953H104.012V5.48335H102.187V12.886Z" fill="black" fill-opacity="0.7"/>
<path d="M110.873 12.886H112.799V9.29246H112.828L115.3 12.886H117.744L114.639 8.78937L117.399 5.48335H115.128L112.828 8.4444H112.799V2.10547H110.873V12.886Z" fill="black" fill-opacity="0.7"/>
<path d="M56.2046 18.0476C55.4715 17.8032 54.6666 17.6882 53.8041 17.6882C52.0361 17.6882 50.2969 18.5076 50.2969 20.7499C50.2969 24.0703 54.6953 23.2797 54.6953 25.1915C54.6953 26.097 53.6748 26.4851 52.9129 26.4851C52.1224 26.4851 51.3318 26.2408 50.6419 25.867L50.455 27.6782C51.4468 27.9225 51.9355 28.0663 53.0279 28.0663C55.0547 28.0663 56.7939 27.2326 56.7939 25.0333C56.7939 21.6698 52.3955 22.4029 52.3955 20.6637C52.3955 19.5712 53.2867 19.2694 53.9766 19.2694C54.6809 19.2694 55.3853 19.4275 56.0177 19.7006L56.2046 18.0476Z" fill="black" fill-opacity="0.7"/>
<path d="M65.0972 20.4912H63.1711V24.1134C63.1711 25.0621 62.8693 26.5714 61.475 26.5714C60.2388 26.5714 60.2245 25.3496 60.2245 24.444V20.4912H58.2984V25.1627C58.2984 26.8301 59.0602 28.0663 60.8138 28.0663C61.82 28.0663 62.6537 27.6063 63.243 26.8876H63.2718V27.8938H65.0972V20.4912ZM62.3518 17.4726V19.14H64.0192V17.4726H62.3518ZM61.0582 19.14V17.4726H59.3908V19.14H61.0582Z" fill="black" fill-opacity="0.7"/>
<path d="M68.4799 24.1709C68.4799 23.1791 68.8248 21.8136 70.0754 21.8136C71.3115 21.8136 71.8002 23.136 71.8002 24.1709C71.8002 25.2202 71.3834 26.5714 70.1041 26.5714C68.8392 26.5714 68.4799 25.1915 68.4799 24.1709ZM71.8721 27.8938H73.7407V17.1133H71.8146V21.3536H71.7859C71.2109 20.6493 70.5353 20.3187 69.5723 20.3187C67.3012 20.3187 66.4675 22.1298 66.4675 24.1709C66.4675 26.1976 67.3012 28.0663 69.5723 28.0663C70.4778 28.0663 71.2684 27.7788 71.8434 27.0601H71.8721V27.8938Z" fill="black" fill-opacity="0.7"/>
<path d="M75.5566 27.8938H77.4827V24.3003C77.4827 23.3372 77.6408 21.8136 78.9201 21.8136C80.0269 21.8136 80.0269 22.791 80.0269 23.481V27.8938H81.953V24.3003C81.953 23.3372 82.1111 21.8136 83.3904 21.8136C84.4972 21.8136 84.4972 22.791 84.4972 23.481V27.8938H86.4233V23.2222C86.4233 21.5692 85.9058 20.3187 84.0803 20.3187C83.1748 20.3187 82.2117 20.7355 81.7661 21.6267C81.3493 20.7068 80.6162 20.3187 79.5813 20.3187C78.8626 20.3187 77.9858 20.6205 77.3821 21.5261H77.3533V20.4912H75.5566V27.8938Z" fill="black" fill-opacity="0.7"/>
<path d="M95.0142 20.4912H93.0881V24.1134C93.0881 25.0621 92.7863 26.5714 91.392 26.5714C90.1558 26.5714 90.1414 25.3496 90.1414 24.444V20.4912H88.2153V25.1627C88.2153 26.8301 88.9771 28.0663 90.7308 28.0663C91.737 28.0663 92.5706 27.6063 93.16 26.8876H93.1887V27.8938H95.0142V20.4912ZM92.2688 17.4726V19.14H93.9362V17.4726H92.2688ZM90.9751 19.14V17.4726H89.3078V19.14H90.9751Z" fill="black" fill-opacity="0.7"/>
<path d="M96.8588 27.8938H98.7849V24.2715C98.7849 23.3228 99.0868 21.8136 100.481 21.8136C101.717 21.8136 101.732 23.0354 101.732 23.9409V27.8938H103.658V23.2222C103.658 21.5548 102.896 20.3187 101.142 20.3187C100.136 20.3187 99.3168 20.6493 98.7131 21.4973H98.6843V20.4912H96.8588V27.8938Z" fill="black" fill-opacity="0.7"/>
<path d="M110.03 20.5918C109.426 20.4624 108.837 20.3187 107.931 20.3187C106.422 20.3187 105.028 21.023 105.028 22.6185C105.028 25.2921 108.377 24.3003 108.377 25.752C108.377 26.4707 107.601 26.6576 107.112 26.6576C106.451 26.6576 105.819 26.4707 105.215 26.1689L105.1 27.75C105.804 27.9369 106.552 28.0663 107.285 28.0663C108.851 28.0663 110.389 27.3763 110.389 25.6514C110.389 22.9779 107.04 23.7253 107.04 22.5466C107.04 21.9142 107.658 21.7273 108.176 21.7273C108.88 21.7273 109.311 21.8423 109.901 22.0436L110.03 20.5918Z" fill="black" fill-opacity="0.7"/>
<path d="M112.378 25.6658C112.378 27.1319 113.212 28.0663 114.721 28.0663C115.296 28.0663 115.741 28.0088 116.144 27.8938L116.086 26.3701C115.885 26.4995 115.555 26.5714 115.21 26.5714C114.476 26.5714 114.304 25.982 114.304 25.3496V21.8998H116.014V20.4912H114.304V18.3926L112.378 19.0106V20.4912H110.955V21.8998H112.378V25.6658Z" fill="black" fill-opacity="0.7"/>
<path d="M118.554 23.4666C118.64 22.4748 119.186 21.7273 120.264 21.7273C121.343 21.7273 121.774 22.5323 121.831 23.4666H118.554ZM123.125 25.9102C122.406 26.3126 121.601 26.6576 120.667 26.6576C119.474 26.6576 118.64 25.982 118.554 24.789H123.671C123.671 22.2017 122.895 20.3187 120.149 20.3187C117.85 20.3187 116.714 22.0867 116.714 24.2284C116.714 26.6576 118.137 28.0663 120.581 28.0663C121.616 28.0663 122.421 27.865 123.125 27.4769V25.9102Z" fill="black" fill-opacity="0.7"/>
<path d="M125.075 27.8938H127.001V25.1771C127.001 24.1134 127.001 22.1585 128.568 22.1585C128.913 22.1585 129.258 22.216 129.43 22.3167V20.3762C129.229 20.3187 129.028 20.3187 128.841 20.3187C127.691 20.3187 126.9 21.483 126.814 22.1729H126.785V20.4912H125.075V27.8938Z" fill="black" fill-opacity="0.7"/>
<path d="M130.518 27.8938H132.444V17.1133H130.518V27.8938Z" fill="black" fill-opacity="0.7"/>
<path d="M134.72 22.5323C135.367 22.0436 136.186 21.7273 137.005 21.7273C138.141 21.7273 138.673 22.1298 138.673 23.3228H137.609C136.804 23.3228 135.855 23.3947 135.122 23.7541C134.389 24.1134 133.857 24.7602 133.857 25.867C133.857 27.2757 135.137 28.0663 136.445 28.0663C137.321 28.0663 138.285 27.6063 138.73 26.787H138.759C138.773 27.017 138.773 27.5057 138.845 27.8938H140.541C140.498 27.3188 140.469 26.8013 140.455 26.2408C140.441 25.6945 140.426 25.134 140.426 24.3865V23.4378C140.426 21.253 139.492 20.3187 137.235 20.3187C136.416 20.3187 135.41 20.5343 134.662 20.8793L134.72 22.5323ZM135.697 25.752C135.697 24.6165 136.976 24.4728 137.839 24.4728H138.673C138.673 25.0477 138.586 25.5796 138.27 25.9964C137.968 26.3989 137.508 26.6576 136.919 26.6576C136.229 26.6576 135.697 26.3845 135.697 25.752Z" fill="black" fill-opacity="0.7"/>
<path d="M142.175 27.8938H144.101V24.2715C144.101 23.3228 144.403 21.8136 145.797 21.8136C147.033 21.8136 147.048 23.0354 147.048 23.9409V27.8938H148.974V23.2222C148.974 21.5548 148.212 20.3187 146.458 20.3187C145.452 20.3187 144.633 20.6493 144.029 21.4973H144.001V20.4912H142.175V27.8938Z" fill="black" fill-opacity="0.7"/>
<path d="M152.357 24.1709C152.357 23.1791 152.701 21.8136 153.952 21.8136C155.188 21.8136 155.677 23.136 155.677 24.1709C155.677 25.2202 155.26 26.5714 153.981 26.5714C152.716 26.5714 152.357 25.1915 152.357 24.1709ZM155.749 27.8938H157.617V17.1133H155.691V21.3536H155.663C155.088 20.6493 154.412 20.3187 153.449 20.3187C151.178 20.3187 150.344 22.1298 150.344 24.1709C150.344 26.1976 151.178 28.0663 153.449 28.0663C154.355 28.0663 155.145 27.7788 155.72 27.0601H155.749V27.8938Z" fill="black" fill-opacity="0.7"/>
</svg>
