<svg width="229" height="30" viewBox="0 0 229 30" fill="none" xmlns="http://www.w3.org/2000/svg">
<rect width="179.859" height="26" transform="translate(0 2)" fill="#FAFAFA"/>
<path d="M24.3313 23.4004C23.9232 25.5401 23.5773 27.3571 23.4432 28.0629H39.3178V23.4004H24.3313ZM0.00195312 23.4428V28.1053H15.764L14.7122 23.4428H0.00195312Z" fill="black" fill-opacity="0.7"/>
<path d="M7.74534 12.7527L6.59813 7.92944H16.3863L19.5562 21.7749H19.6915L21.6885 12.9057C22.6948 8.87868 23.075 7.92944 28.7462 7.92944H32.8252C32.8252 7.92944 32.0011 11.6415 30.9758 15.6696C30.5855 17.2063 27.1797 17.0242 27.3496 15.5892C27.3675 15.4396 27.5285 14.3597 27.656 13.5914C27.8416 12.4858 26.5502 12.3473 26.3176 13.4417C26.1521 14.2257 25.4041 18.1164 24.7052 21.7749H39.3171V1.89453H0V21.7749H14.2686L12.2358 12.7594L7.74534 12.7527V12.7527Z" fill="black" fill-opacity="0.7"/>
<path d="M53.0572 12.886H55.5295L58.9074 2.85292H56.9094L54.3652 10.7299H54.3365L51.7635 2.85292H49.6074L53.0572 12.886Z" fill="black" fill-opacity="0.7"/>
<path d="M58.6387 9.23496C58.6387 11.3623 60.0617 13.0584 62.5053 13.0584C64.9632 13.0584 66.3862 11.3623 66.3862 9.23496C66.3862 6.79139 64.7045 5.31087 62.5053 5.31087C60.3204 5.31087 58.6387 6.79139 58.6387 9.23496ZM60.651 9.00498C60.651 7.89818 61.2547 6.80576 62.5053 6.80576C63.7702 6.80576 64.3739 7.86944 64.3739 9.00498C64.3739 10.2411 63.9858 11.5635 62.5053 11.5635C61.0391 11.5635 60.651 10.2268 60.651 9.00498Z" fill="black" fill-opacity="0.7"/>
<path d="M67.7996 12.886H69.7257V2.10547H67.7996V12.886Z" fill="black" fill-opacity="0.7"/>
<path d="M71.6564 12.886H73.5826V9.29246H73.6113L76.0836 12.886H78.5272L75.4224 8.78937L78.1822 5.48335H75.9111L73.6113 8.4444H73.5826V2.10547H71.6564V12.886Z" fill="black" fill-opacity="0.7"/>
<path d="M83.9845 5.58397C83.3808 5.45461 82.7915 5.31087 81.8859 5.31087C80.3766 5.31087 78.9823 6.01519 78.9823 7.6107C78.9823 10.2843 82.3315 9.29246 82.3315 10.7442C82.3315 11.4629 81.5553 11.6498 81.0666 11.6498C80.4054 11.6498 79.7729 11.4629 79.1692 11.1611L79.0542 12.7422C79.7585 12.9291 80.506 13.0584 81.2391 13.0584C82.8058 13.0584 84.3438 12.3685 84.3438 10.6436C84.3438 7.97005 80.9947 8.7175 80.9947 7.53883C80.9947 6.90638 81.6128 6.71952 82.1302 6.71952C82.8346 6.71952 83.2658 6.83451 83.8551 7.03575L83.9845 5.58397Z" fill="black" fill-opacity="0.7"/>
<path d="M87.6403 9.16309C87.6403 8.12817 88.129 6.80576 89.3652 6.80576C90.6157 6.80576 90.9607 8.17129 90.9607 9.16309C90.9607 10.1836 90.6014 11.5635 89.3364 11.5635C88.0572 11.5635 87.6403 10.2124 87.6403 9.16309ZM85.6998 12.886H87.5684V11.9804H87.5972C88.1578 12.771 89.049 13.0584 89.8683 13.0584C92.1394 13.0584 92.9731 11.1898 92.9731 9.16309C92.9731 7.12199 92.1394 5.31087 89.8683 5.31087C88.8621 5.31087 88.1865 5.72771 87.6547 6.43204H87.6259V2.10547H85.6998V12.886Z" fill="black" fill-opacity="0.7"/>
<path d="M94.7314 7.52446C95.3782 7.03575 96.1976 6.71952 97.0169 6.71952C98.1524 6.71952 98.6842 7.12199 98.6842 8.31503H97.6206C96.8156 8.31503 95.867 8.3869 95.1339 8.74625C94.4008 9.1056 93.869 9.75243 93.869 10.8592C93.869 12.2679 95.1483 13.0584 96.4563 13.0584C97.3331 13.0584 98.2962 12.5985 98.7417 11.7792H98.7705C98.7849 12.0091 98.7849 12.4979 98.8567 12.886H100.553C100.51 12.311 100.481 11.7935 100.467 11.2329C100.452 10.6867 100.438 10.1262 100.438 9.3787V8.43002C100.438 6.24518 99.5036 5.31087 97.2469 5.31087C96.4275 5.31087 95.4214 5.52648 94.6739 5.87145L94.7314 7.52446ZM95.7088 10.7442C95.7088 9.60869 96.9881 9.46495 97.8506 9.46495H98.6842C98.6842 10.0399 98.598 10.5717 98.2818 10.9886C97.9799 11.3911 97.52 11.6498 96.9306 11.6498C96.2407 11.6498 95.7088 11.3767 95.7088 10.7442Z" fill="black" fill-opacity="0.7"/>
<path d="M102.187 12.886H104.113V9.26371C104.113 8.31503 104.415 6.80576 105.809 6.80576C107.045 6.80576 107.059 8.02755 107.059 8.93311V12.886H108.986V8.21441C108.986 6.54703 108.224 5.31087 106.47 5.31087C105.464 5.31087 104.645 5.64147 104.041 6.48953H104.012V5.48335H102.187V12.886Z" fill="black" fill-opacity="0.7"/>
<path d="M110.873 12.886H112.799V9.29246H112.828L115.3 12.886H117.744L114.639 8.78937L117.399 5.48335H115.128L112.828 8.4444H112.799V2.10547H110.873V12.886Z" fill="black" fill-opacity="0.7"/>
<path d="M52.6393 23.4091H53.588C54.5942 23.4091 55.6578 23.6103 55.6578 24.9184C55.6578 26.0826 54.5223 26.3126 53.588 26.3126H52.6393V23.4091ZM52.6393 19.4419H53.4155C54.3354 19.4419 55.356 19.5281 55.356 20.6924C55.356 21.7273 54.3067 21.9142 53.4586 21.9142H52.6393V19.4419ZM50.627 27.8938H54.1342C55.3991 27.8938 57.6702 27.52 57.6702 24.9902C57.6702 23.7541 56.7359 22.8341 55.3704 22.7048V22.676C56.5634 22.4604 57.3684 21.6267 57.3684 20.4337C57.3684 18.2345 55.4279 17.8607 54.1342 17.8607H50.627V27.8938Z" fill="black" fill-opacity="0.7"/>
<path d="M59.1411 27.8938H61.0672V25.1771C61.0672 24.1134 61.0672 22.1585 62.6339 22.1585C62.9789 22.1585 63.3239 22.216 63.4964 22.3167V20.3762C63.2951 20.3187 63.0939 20.3187 62.9071 20.3187C61.7571 20.3187 60.9666 21.483 60.8803 22.1729H60.8516V20.4912H59.1411V27.8938Z" fill="black" fill-opacity="0.7"/>
<path d="M71.3399 20.4912H69.4137V24.1134C69.4137 25.0621 69.1119 26.5714 67.7176 26.5714C66.4815 26.5714 66.4671 25.3496 66.4671 24.444V20.4912H64.541V25.1627C64.541 26.8301 65.3028 28.0663 67.0564 28.0663C68.0626 28.0663 68.8963 27.6063 69.4856 26.8876H69.5144V27.8938H71.3399V20.4912Z" fill="black" fill-opacity="0.7"/>
<path d="M78.1578 20.563C77.626 20.4049 77.0654 20.3187 76.2892 20.3187C73.975 20.3187 72.7101 22.0148 72.7101 24.1565C72.7101 26.4132 73.9319 28.0663 76.3611 28.0663C77.1517 28.0663 77.7266 27.9944 78.2872 27.8219L78.201 26.2264C77.8704 26.3701 77.2667 26.5714 76.7204 26.5714C75.3693 26.5714 74.7225 25.5221 74.7225 24.1565C74.7225 22.7623 75.4843 21.8136 76.6773 21.8136C77.2667 21.8136 77.6404 21.9286 77.9854 22.0867L78.1578 20.563Z" fill="black" fill-opacity="0.7"/>
<path d="M79.4276 27.8938H81.3537V24.2715C81.3537 23.3228 81.6556 21.8136 83.0498 21.8136C84.286 21.8136 84.3004 23.0354 84.3004 23.9409V27.8938H86.2265V23.2222C86.2265 21.5548 85.4647 20.3187 83.711 20.3187C82.7049 20.3187 81.8712 20.7786 81.3824 21.4973H81.3537V17.1133H79.4276V27.8938Z" fill="black" fill-opacity="0.7"/>
<path d="M92.5989 20.5918C91.9952 20.4624 91.4058 20.3187 90.5003 20.3187C88.991 20.3187 87.5967 21.023 87.5967 22.6185C87.5967 25.2921 90.9459 24.3003 90.9459 25.752C90.9459 26.4707 90.1697 26.6576 89.681 26.6576C89.0197 26.6576 88.3873 26.4707 87.7836 26.1689L87.6686 27.75C88.3729 27.9369 89.1204 28.0663 89.8534 28.0663C91.4202 28.0663 92.9582 27.3763 92.9582 25.6514C92.9582 22.9779 89.6091 23.7253 89.6091 22.5466C89.6091 21.9142 90.2272 21.7273 90.7446 21.7273C91.449 21.7273 91.8802 21.8423 92.4695 22.0436L92.5989 20.5918Z" fill="black" fill-opacity="0.7"/>
<path d="M94.7023 22.5323C95.3491 22.0436 96.1684 21.7273 96.9878 21.7273C98.1233 21.7273 98.6551 22.1298 98.6551 23.3228H97.5915C96.7865 23.3228 95.8378 23.3947 95.1048 23.7541C94.3717 24.1134 93.8399 24.7602 93.8399 25.867C93.8399 27.2757 95.1191 28.0663 96.4272 28.0663C97.304 28.0663 98.267 27.6063 98.7126 26.787H98.7414C98.7558 27.017 98.7558 27.5057 98.8276 27.8938H100.524C100.481 27.3188 100.452 26.8013 100.438 26.2408C100.423 25.6945 100.409 25.134 100.409 24.3865V23.4378C100.409 21.253 99.4745 20.3187 97.2177 20.3187C96.3984 20.3187 95.3923 20.5343 94.6448 20.8793L94.7023 22.5323ZM95.6797 25.752C95.6797 24.6165 96.959 24.4728 97.8215 24.4728H98.6551C98.6551 25.0477 98.5689 25.5796 98.2527 25.9964C97.9508 26.3989 97.4909 26.6576 96.9015 26.6576C96.2116 26.6576 95.6797 26.3845 95.6797 25.752Z" fill="black" fill-opacity="0.7"/>
<path d="M102.201 27.8938H104.127V17.1133H102.201V27.8938Z" fill="black" fill-opacity="0.7"/>
<path d="M109.306 24.8177V23.2366H105.526V24.8177H109.306Z" fill="black" fill-opacity="0.7"/>
<path d="M112.842 23.4091H113.791C114.797 23.4091 115.861 23.6103 115.861 24.9184C115.861 26.0826 114.725 26.3126 113.791 26.3126H112.842V23.4091ZM112.842 19.4419H113.618C114.538 19.4419 115.559 19.5281 115.559 20.6924C115.559 21.7273 114.51 21.9142 113.661 21.9142H112.842V19.4419ZM110.83 27.8938H114.337C115.602 27.8938 117.873 27.52 117.873 24.9902C117.873 23.7541 116.939 22.8341 115.573 22.7048V22.676C116.766 22.4604 117.571 21.6267 117.571 20.4337C117.571 18.2345 115.631 17.8607 114.337 17.8607H110.83V27.8938Z" fill="black" fill-opacity="0.7"/>
<path d="M119.344 27.8938H121.27V25.1771C121.27 24.1134 121.27 22.1585 122.837 22.1585C123.182 22.1585 123.527 22.216 123.699 22.3167V20.3762C123.498 20.3187 123.297 20.3187 123.11 20.3187C121.96 20.3187 121.169 21.483 121.083 22.1729H121.054V20.4912H119.344V27.8938Z" fill="black" fill-opacity="0.7"/>
<path d="M125.857 23.4666C125.943 22.4748 126.489 21.7273 127.567 21.7273C128.645 21.7273 129.076 22.5323 129.134 23.4666H125.857ZM130.428 25.9102C129.709 26.3126 128.904 26.6576 127.97 26.6576C126.777 26.6576 125.943 25.982 125.857 24.789H130.974C130.974 22.2017 130.198 20.3187 127.452 20.3187C125.152 20.3187 124.017 22.0867 124.017 24.2284C124.017 26.6576 125.44 28.0663 127.883 28.0663C128.918 28.0663 129.723 27.865 130.428 27.4769V25.9102Z" fill="black" fill-opacity="0.7"/>
<path d="M132.967 25.6658C132.967 27.1319 133.801 28.0663 135.31 28.0663C135.885 28.0663 136.33 28.0088 136.733 27.8938L136.675 26.3701C136.474 26.4995 136.144 26.5714 135.799 26.5714C135.066 26.5714 134.893 25.982 134.893 25.3496V21.8998H136.604V20.4912H134.893V18.3926L132.967 19.0106V20.4912H131.544V21.8998H132.967V25.6658Z" fill="black" fill-opacity="0.7"/>
<path d="M138.41 25.6658C138.41 27.1319 139.244 28.0663 140.753 28.0663C141.328 28.0663 141.773 28.0088 142.176 27.8938L142.118 26.3701C141.917 26.4995 141.587 26.5714 141.242 26.5714C140.509 26.5714 140.336 25.982 140.336 25.3496V21.8998H142.047V20.4912H140.336V18.3926L138.41 19.0106V20.4912H136.987V21.8998H138.41V25.6658Z" fill="black" fill-opacity="0.7"/>
<path d="M144.586 23.4666C144.672 22.4748 145.219 21.7273 146.297 21.7273C147.375 21.7273 147.806 22.5323 147.863 23.4666H144.586ZM149.157 25.9102C148.438 26.3126 147.633 26.6576 146.699 26.6576C145.506 26.6576 144.672 25.982 144.586 24.789H149.703C149.703 22.2017 148.927 20.3187 146.182 20.3187C143.882 20.3187 142.746 22.0867 142.746 24.2284C142.746 26.6576 144.169 28.0663 146.613 28.0663C147.648 28.0663 148.453 27.865 149.157 27.4769V25.9102Z" fill="black" fill-opacity="0.7"/>
<path d="M151.064 27.8938H152.99V24.2715C152.99 23.3228 153.292 21.8136 154.686 21.8136C155.922 21.8136 155.937 23.0354 155.937 23.9409V27.8938H157.863V23.2222C157.863 21.5548 157.101 20.3187 155.347 20.3187C154.341 20.3187 153.522 20.6493 152.918 21.4973H152.889V20.4912H151.064V27.8938Z" fill="black" fill-opacity="0.7"/>
<path d="M164.93 23.4666C165.016 22.4748 165.562 21.7273 166.64 21.7273C167.718 21.7273 168.15 22.5323 168.207 23.4666H164.93ZM169.501 25.9102C168.782 26.3126 167.977 26.6576 167.043 26.6576C165.85 26.6576 165.016 25.982 164.93 24.789H170.047C170.047 22.2017 169.271 20.3187 166.525 20.3187C164.225 20.3187 163.09 22.0867 163.09 24.2284C163.09 26.6576 164.513 28.0663 166.956 28.0663C167.991 28.0663 168.796 27.865 169.501 27.4769V25.9102Z" fill="black" fill-opacity="0.7"/>
<path d="M179.543 18.1051C178.681 17.8464 177.761 17.6882 176.597 17.6882C173.19 17.6882 171.091 19.6144 171.091 23.0497C171.091 26.442 173.348 28.0663 176.597 28.0663C177.675 28.0663 178.781 27.8363 179.845 27.5488V22.1442H175.792V23.7253H177.919V26.3414C177.574 26.4276 177.143 26.4851 176.597 26.4851C174.455 26.4851 173.19 24.9471 173.19 22.906C173.19 20.8505 174.484 19.2694 176.827 19.2694C177.632 19.2694 178.638 19.4419 179.414 19.8012L179.543 18.1051Z" fill="black" fill-opacity="0.7"/>
</svg>
