<svg width="164" height="38" viewBox="0 0 164 38" fill="none" xmlns="http://www.w3.org/2000/svg">
<path d="M29.9448 28.3379C29.4425 30.9714 29.0168 33.2077 28.8517 34.0763H48.3897V28.3379H29.9448ZM0.000976562 28.3901V34.1286H19.4004L18.1059 28.3901H0.000976562Z" fill="#FF6600"/>
<path d="M9.53272 15.233L8.12077 9.29672H20.1678L24.0692 26.3373H24.2357L26.6936 15.4213C27.9321 10.465 28.4 9.29672 35.3799 9.29672H40.4002C40.4002 9.29672 39.386 13.8654 38.124 18.8231C37.6437 20.7144 33.4519 20.4903 33.6611 18.7241C33.6831 18.54 33.8813 17.2109 34.0382 16.2652C34.2666 14.9045 32.6771 14.7341 32.3909 16.081C32.1872 17.0459 31.2666 21.8345 30.4065 26.3373H48.3902V1.86914H0V26.3373H17.5613L15.0594 15.2413L9.53272 15.233V15.233Z" fill="#0066B3"/>
<path d="M65.3005 15.3992H68.3434L72.5008 3.0508H70.0417L66.9104 12.7455H66.875L63.7083 3.0508H61.0547L65.3005 15.3992Z" fill="#0066B3"/>
<path d="M76.1981 4.99681H77.0119C78.2503 4.99681 79.6302 5.12065 79.6302 6.6067C79.6302 8.14582 78.2326 8.32273 77.0119 8.32273H76.1981V4.99681ZM73.7213 15.3992H76.1981V10.2687H76.9942C78.038 10.2687 78.3564 10.6226 78.7102 11.5425L80.1963 15.3992H82.9561L80.9747 10.5695C80.727 10.0211 80.3378 9.34881 79.6655 9.29574V9.26036C81.24 9.04806 82.2131 7.84507 82.2131 6.3944C82.2131 2.96234 79.0464 3.0508 76.3927 3.0508H73.7213V15.3992Z" fill="#0066B3"/>
<path d="M91.7954 9.87954H92.963C94.2014 9.87954 95.5105 10.1272 95.5105 11.7371C95.5105 13.1701 94.1129 13.4531 92.963 13.4531H91.7954V9.87954ZM91.7954 4.99681H92.7507C93.8829 4.99681 95.139 5.10296 95.139 6.53593C95.139 7.80969 93.8475 8.03967 92.8038 8.03967H91.7954V4.99681ZM89.3186 15.3992H93.6353C95.1921 15.3992 97.9873 14.9392 97.9873 11.8256C97.9873 10.3041 96.8373 9.1719 95.1567 9.01268V8.9773C96.625 8.71193 97.6157 7.68585 97.6157 6.21749C97.6157 3.51076 95.2274 3.0508 93.6353 3.0508H89.3186V15.3992Z" fill="#0066B3"/>
<path d="M100.222 8.80039C101.018 8.19889 102.027 7.80969 103.035 7.80969C104.433 7.80969 105.087 8.30504 105.087 9.7734H103.778C102.787 9.7734 101.62 9.86185 100.717 10.3041C99.8152 10.7464 99.1607 11.5425 99.1607 12.9047C99.1607 14.6384 100.735 15.6114 102.345 15.6114C103.424 15.6114 104.61 15.0453 105.158 14.0369H105.193C105.211 14.32 105.211 14.9215 105.299 15.3992H107.387C107.334 14.6915 107.299 14.0546 107.281 13.3647C107.263 12.6924 107.245 12.0025 107.245 11.0825V9.91492C107.245 7.22588 106.096 6.07597 103.318 6.07597C102.31 6.07597 101.071 6.34133 100.151 6.76592L100.222 8.80039ZM101.425 12.7632C101.425 11.3656 103 11.1887 104.061 11.1887H105.087C105.087 11.8963 104.981 12.5509 104.592 13.0639C104.22 13.5593 103.654 13.8777 102.929 13.8777C102.08 13.8777 101.425 13.5416 101.425 12.7632Z" fill="#0066B3"/>
<path d="M109.398 15.3992H111.768V10.941C111.768 9.7734 112.14 7.91584 113.856 7.91584C115.377 7.91584 115.395 9.41957 115.395 10.5341V15.3992H117.766V9.64956C117.766 7.5974 116.828 6.07597 114.67 6.07597C113.431 6.07597 112.423 6.48286 111.68 7.52663H111.645V6.28826H109.398V15.3992Z" fill="#0066B3"/>
<path d="M120.089 15.3992H122.46V10.9764H122.495L125.538 15.3992H128.545L124.724 10.3572L128.121 6.28826H125.326L122.495 9.93262H122.46V2.13086H120.089V15.3992Z" fill="#0066B3"/>
<path d="M64.5577 33.8698H67.0345V23.4675H70.5727V21.5215H61.0195V23.4675H64.5577V33.8698Z" fill="#0066B3"/>
<path d="M79.3079 24.759H76.9373V29.2171C76.9373 30.3847 76.5658 32.2423 74.8498 32.2423C73.3284 32.2423 73.3107 30.7385 73.3107 29.624V24.759H70.9401V30.5085C70.9401 32.5607 71.8777 34.0821 74.036 34.0821C75.2744 34.0821 76.3005 33.516 77.0258 32.6315H77.0612V33.8698H79.3079V24.759ZM75.9289 21.0438V23.096H77.9811V21.0438H75.9289ZM74.3368 23.096V21.0438H72.2846V23.096H74.3368Z" fill="#0066B3"/>
<path d="M83.9665 29.2879C83.9665 28.0141 84.568 26.3865 86.0894 26.3865C87.6285 26.3865 88.0531 28.0672 88.0531 29.2879C88.0531 30.5439 87.6108 32.2423 86.054 32.2423C84.4795 32.2423 83.9665 30.5793 83.9665 29.2879ZM81.5782 33.8698H83.878V32.7553H83.9134C84.6034 33.7283 85.7002 34.0821 86.7086 34.0821C89.5038 34.0821 90.5299 31.7823 90.5299 29.2879C90.5299 26.7757 89.5038 24.5467 86.7086 24.5467C85.4702 24.5467 84.6388 25.0597 83.9842 25.9266H83.9488V20.6016H81.5782V33.8698Z" fill="#0066B3"/>
<path d="M92.2694 33.8698H94.64V24.759H92.2694V33.8698ZM92.2694 23.096H94.64V20.8315H92.2694V23.096Z" fill="#0066B3"/>
<path d="M96.9632 33.8698H99.3338V29.4117C99.3338 28.2441 99.7053 26.3865 101.421 26.3865C102.943 26.3865 102.96 27.8903 102.96 29.0048V33.8698H105.331V28.1203C105.331 26.0681 104.393 24.5467 102.235 24.5467C100.997 24.5467 99.9884 24.9536 99.2453 25.9973H99.21V24.759H96.9632V33.8698Z" fill="#0066B3"/>
<path d="M111.511 32.03C110.149 32.03 109.494 30.5086 109.494 29.2702C109.494 27.8726 110.007 26.3865 111.617 26.3865C112.997 26.3865 113.599 27.6603 113.599 29.2171C113.599 30.7385 112.997 32.03 111.511 32.03ZM113.705 24.759V25.9973H113.669C113.015 24.9536 112.077 24.5467 110.874 24.5467C108.15 24.5467 107.018 27.0765 107.018 29.2702C107.018 31.7115 108.044 33.8698 110.733 33.8698C112.059 33.8698 113.121 33.1976 113.563 32.4192H113.599C113.599 33.9937 113.475 35.9574 110.856 35.9574C110.113 35.9574 108.928 35.5505 108.203 35.1613L108.008 37.1781C109.14 37.6557 110.22 37.7973 111.157 37.7973C114.978 37.7973 115.969 35.462 115.969 32.9853V24.759H113.705Z" fill="#0066B3"/>
<path d="M119.92 28.421C120.026 27.2003 120.699 26.2804 122.025 26.2804C123.352 26.2804 123.883 27.2711 123.954 28.421H119.92ZM125.546 31.4285C124.661 31.9238 123.671 32.3484 122.521 32.3484C121.052 32.3484 120.026 31.5169 119.92 30.0486H126.218C126.218 26.8642 125.263 24.5467 121.884 24.5467C119.053 24.5467 117.656 26.7227 117.656 29.3586C117.656 32.3484 119.407 34.0821 122.415 34.0821C123.688 34.0821 124.679 33.8345 125.546 33.3568V31.4285Z" fill="#0066B3"/>
<path d="M127.893 33.8698H130.263V29.4117C130.263 28.2441 130.635 26.3865 132.351 26.3865C133.872 26.3865 133.89 27.8903 133.89 29.0048V33.8698H136.261V28.1203C136.261 26.0681 135.323 24.5467 133.165 24.5467C131.926 24.5467 130.918 24.9536 130.175 25.9973H130.14V24.759H127.893V33.8698Z" fill="#0066B3"/>
<path d="M144.958 28.421C145.065 27.2003 145.737 26.2804 147.064 26.2804C148.391 26.2804 148.921 27.2711 148.992 28.421H144.958ZM150.584 31.4285C149.7 31.9238 148.709 32.3484 147.559 32.3484C146.091 32.3484 145.065 31.5169 144.958 30.0486H151.256C151.256 26.8642 150.301 24.5467 146.922 24.5467C144.092 24.5467 142.694 26.7227 142.694 29.3586C142.694 32.3484 144.445 34.0821 147.453 34.0821C148.727 34.0821 149.717 33.8345 150.584 33.3568V31.4285Z" fill="#0066B3"/>
<path d="M162.944 21.8222C161.883 21.5038 160.751 21.3092 159.318 21.3092C155.125 21.3092 152.542 23.6798 152.542 27.908C152.542 32.0831 155.319 34.0821 159.318 34.0821C160.645 34.0821 162.007 33.7991 163.316 33.4453V26.7934H158.327V28.7394H160.945V31.9592C160.521 32.0654 159.99 32.1361 159.318 32.1361C156.682 32.1361 155.125 30.2432 155.125 27.7311C155.125 25.2012 156.717 23.2552 159.601 23.2552C160.591 23.2552 161.83 23.4675 162.785 23.9098L162.944 21.8222Z" fill="#0066B3"/>
</svg>
