<svg width="64" height="64" viewBox="0 0 64 64" fill="none" xmlns="http://www.w3.org/2000/svg">
<rect width="64" height="64" rx="4" fill="#1DBAB1"/>
<path fill-rule="evenodd" clip-rule="evenodd" d="M56.8159 18.0156C55.7287 18.0156 54.7804 18.7801 54.5375 19.8459L48.1534 48.2728C47.9799 49.0605 47.286 49.6165 46.4764 49.6165H45.7015C45.2389 49.6165 44.7994 49.3848 44.5334 49.0025C44.2096 48.5392 43.7238 47.8905 43.0646 47.1259C41.8271 45.7011 39.7338 43.5929 36.7036 41.6004C36.4181 41.4118 36.1358 41.2264 35.8583 41.0441C35.6076 40.8794 35.3608 40.7174 35.1192 40.5579C34.9788 40.4658 34.8393 40.3744 34.7009 40.2838C33.8815 39.7469 33.0971 39.233 32.355 38.7276C31.613 39.233 30.8286 39.7469 30.0092 40.2837C29.8707 40.3744 29.7313 40.4658 29.5909 40.5579C29.3493 40.7174 29.1024 40.8795 28.8516 41.0442C28.5742 41.2264 28.2919 41.4118 28.0064 41.6004C24.9416 43.6276 22.8251 45.7706 21.5876 47.207C20.9515 47.9368 20.4889 48.5623 20.1767 49.0141C19.9222 49.3964 19.4827 49.6165 19.0201 49.6165H18.2452C17.4472 49.6165 16.7417 49.0605 16.5683 48.2728L10.1957 19.8343C9.9644 18.7686 9.01604 18.004 7.91732 18.004H7.87106C7.33905 18.004 6.91113 17.5754 6.91113 17.0426V16.9615C6.91113 16.4286 7.33905 16 7.87106 16H14.7987C15.3308 16 15.7587 16.4286 15.7587 16.9615V17.0426C15.7587 17.5754 15.3308 18.004 14.7987 18.004H14.7872C13.8851 18.004 13.2143 18.8496 13.4109 19.73L19.0664 45.2725C19.0837 45.2551 19.1011 45.2349 19.1184 45.2146C19.1358 45.1943 19.1531 45.1741 19.1705 45.1567C20.0379 44.1373 21.0094 43.1527 22.0503 42.2144C23.3456 41.0444 24.7566 39.9555 26.2485 38.9709C26.5029 38.8063 26.7524 38.6442 26.9982 38.4845C27.2888 38.2957 27.5741 38.1103 27.8561 37.9283C28.2236 37.6897 28.5792 37.4551 28.9251 37.2269C29.1669 37.0673 29.404 36.9109 29.6372 36.7584C28.284 35.6463 27.1622 34.4879 26.3063 33.121C25.9247 32.4955 25.6355 31.8004 25.4621 31.0591C25.3117 30.3872 25.2539 29.6922 25.2886 28.9856C25.3233 28.3253 25.4389 27.6766 25.6355 27.0742C25.8437 26.4487 26.1213 25.8927 26.4567 25.4293C27.1506 24.4794 28.0296 23.7612 29.0705 23.2863C30.042 22.8461 31.1407 22.626 32.3435 22.626C33.5463 22.626 34.645 22.8461 35.6165 23.2863C36.6574 23.7612 37.5363 24.491 38.2303 25.4293C38.5772 25.9042 38.8548 26.4487 39.0514 27.0742C39.248 27.6766 39.3637 28.3253 39.3984 28.9856C39.4446 29.6922 39.3752 30.3872 39.2249 31.0591C39.063 31.8004 38.7738 32.4955 38.3806 33.121C37.5248 34.4879 36.4029 35.6463 35.0498 36.7584C35.6049 37.129 36.2063 37.5229 36.8309 37.9283C37.1128 38.1103 37.3982 38.2957 37.6888 38.4845C37.9345 38.6442 38.1841 38.8063 38.4384 38.9709C39.9304 39.9555 41.3414 41.0444 42.6367 42.2144C43.6776 43.1527 44.6375 44.1373 45.5165 45.1567C45.5338 45.1741 45.5512 45.1943 45.5685 45.2146C45.5859 45.2349 45.6032 45.2551 45.6206 45.2725L51.3223 19.73C51.5189 18.8381 50.8481 18.004 49.946 18.004C49.414 18.004 48.9861 17.5754 48.9861 17.0426V16.9615C48.9861 16.4286 49.414 16 49.946 16H56.8737C57.4057 16 57.8336 16.4286 57.8336 16.9615V17.0541C57.8336 17.587 57.4057 18.0156 56.8737 18.0156H56.8159ZM29.0126 31.4529C29.7875 32.704 30.9209 33.7813 32.3666 34.8818C33.8123 33.7697 34.9457 32.6924 35.7206 31.4529C36.1254 30.8158 36.322 29.9934 36.2757 29.1477C36.2295 28.2905 35.9519 27.6302 35.709 27.2943C34.9688 26.2865 33.8701 25.7884 32.3666 25.7884C30.8631 25.7884 29.7644 26.2749 29.0242 27.2943C28.7813 27.6302 28.5038 28.2905 28.4575 29.1477C28.4112 29.9934 28.6078 30.8158 29.0126 31.4529Z" fill="white"/>
<path d="M39.3752 20.7378V20.703C39.3752 20.4482 39.2712 20.1934 39.0861 20.008C37.2703 18.2241 34.992 17.0889 32.3203 17.0889C29.6603 17.0889 27.3935 18.2125 25.5777 19.9848C25.3927 20.1702 25.2886 20.4134 25.2886 20.6799V20.7262C25.2886 21.4676 26.1097 21.9425 26.7458 21.5487C28.2725 20.6104 30.1229 19.9153 32.3203 19.9153C34.5293 19.9153 36.3798 20.6104 37.918 21.5603C38.5541 21.9541 39.3752 21.4908 39.3752 20.7378Z" fill="white"/>
</svg>
