<svg xmlns="http://www.w3.org/2000/svg" version="1.1" xmlns:xlink="http://www.w3.org/1999/xlink" xmlns:svgjs="http://svgjs.com/svgjs" width="1000" height="1000"><rect width="1000" height="1000" rx="200" ry="200" fill="#1dbab1"></rect><g transform="matrix(1,0,0,1,0,0)"><svg xmlns="http://www.w3.org/2000/svg" version="1.1" xmlns:xlink="http://www.w3.org/1999/xlink" xmlns:svgjs="http://svgjs.com/svgjs" width="300.000000pt" height="300.000000pt"><svg version="1.0" xmlns="http://www.w3.org/2000/svg" width="300.000000pt" height="300.000000pt" viewBox="0 0 300.000000 300.000000" preserveAspectRatio="xMidYMid meet">
<metadata>
Created by potrace 1.11, written by Peter Selinger 2001-2013
</metadata>
<g transform="translate(0.000000,300.000000) scale(0.100000,-0.100000)" fill="#ffffff" stroke="none">
<path d="M17 2372 c-38 -41 -8 -102 49 -102 35 0 87 -30 108 -62 8 -13 38
-124 65 -248 28 -124 98 -436 156 -695 58 -259 122 -542 141 -629 19 -87 42
-169 50 -182 18 -27 63 -44 117 -44 44 0 59 13 177 155 97 117 224 223 432
361 l188 124 147 -97 c82 -53 184 -124 228 -157 94 -71 246 -221 304 -299 22
-31 51 -63 63 -71 46 -33 151 -12 175 35 13 24 42 149 193 829 162 730 201
895 216 918 20 30 73 62 104 62 61 0 93 66 52 103 -16 15 -48 17 -245 17 -192
0 -228 -2 -241 -16 -36 -35 -10 -104 38 -104 29 0 65 -27 76 -55 6 -17 -12
-119 -70 -377 -163 -730 -251 -1124 -256 -1141 -5 -15 -23 -1 -97 73 -118 119
-221 201 -384 307 -73 47 -133 89 -133 92 0 3 32 38 71 76 130 129 173 220
172 365 0 139 -52 242 -157 315 -79 54 -144 73 -256 73 -192 0 -329 -85 -391
-246 -17 -44 -22 -78 -22 -147 0 -145 42 -233 176 -365 41 -40 67 -74 61 -78
-5 -4 -63 -42 -129 -86 -164 -108 -267 -189 -379 -301 -52 -52 -97 -92 -99
-88 -2 5 -7 24 -11 43 -8 47 -62 286 -146 655 -11 50 -22 100 -25 113 -2 13
-7 31 -9 40 -3 9 -14 58 -25 107 -11 50 -42 193 -70 318 -36 166 -48 234 -41
251 11 29 47 56 76 56 46 0 72 71 38 104 -13 14 -49 16 -243 16 -208 0 -229
-2 -244 -18z m1624 -597 c85 -60 110 -177 60 -279 -28 -56 -174 -206 -201
-206 -25 0 -161 136 -196 195 -25 43 -29 60 -28 120 0 81 18 121 68 160 49 37
79 45 173 42 72 -2 86 -5 124 -32z"></path>
<path d="M1425 2323 c-108 -19 -220 -73 -296 -141 -62 -55 -66 -92 -12 -120
18 -10 34 -6 105 28 193 93 362 91 566 -7 69 -34 73 -34 97 -19 18 12 25 25
25 50 0 27 -8 40 -42 68 -111 91 -227 138 -348 142 -41 1 -84 1 -95 -1z"></path>
</g>
</svg></svg></g></svg>