<?xml version="1.0" standalone="no"?>
<!DOCTYPE svg PUBLIC "-//W3C//DTD SVG 20010904//EN"
 "http://www.w3.org/TR/2001/REC-SVG-20010904/DTD/svg10.dtd">
<svg version="1.0" xmlns="http://www.w3.org/2000/svg"
 width="700.000000pt" height="700.000000pt" viewBox="0 0 700.000000 700.000000"
 preserveAspectRatio="xMidYMid meet">
<metadata>
Created by potrace 1.11, written by Peter Selinger 2001-2013
</metadata>
<g transform="translate(0.000000,700.000000) scale(0.100000,-0.100000)"
fill="#000000" stroke="none">
<path d="M0 3510 l0 -3490 3410 0 c3230 0 3410 1 3411 18 1 9 2 1580 3 3490
l1 3472 -3412 0 -3413 0 0 -3490z m6570 3238 c3 -4 5 -1462 5 -3240 l0 -3233
-2217 -3 c-1266 -1 -2218 2 -2218 7 0 5 87 271 194 592 106 321 421 1273 700
2114 279 842 511 1539 515 1550 5 11 14 33 20 48 20 50 31 42 -138 103 -52 19
-96 34 -97 34 -1 0 -37 -105 -79 -232 -42 -128 -80 -242 -85 -253 -5 -11 -273
-816 -596 -1790 -322 -974 -617 -1860 -653 -1970 l-67 -200 -211 -3 -211 -2
18 57 c11 32 90 274 178 538 330 994 1037 3129 1109 3344 40 123 73 225 71
226 -2 1 -51 18 -110 39 -58 20 -113 39 -121 42 -12 4 -135 -356 -626 -1833
-335 -1011 -653 -1966 -705 -2123 l-95 -285 -212 -3 c-167 -2 -210 0 -207 10
3 7 258 774 566 1703 309 930 603 1816 655 1971 l94 281 -106 36 c-58 19 -115
38 -127 41 -26 8 11 113 -379 -1069 -321 -970 -575 -1741 -838 -2535 l-143
-435 -102 -3 c-56 -1 -103 1 -103 5 -1 4 -2 1463 -3 3241 l-1 3232 2229 0
c1778 0 2227 -3 2223 -12 -7 -19 -910 -2741 -913 -2753 -2 -5 -122 -367 -267
-802 -145 -436 -263 -793 -262 -793 0 0 58 -20 127 -45 l127 -44 365 1102
c415 1253 643 1940 917 2770 l191 577 209 0 c118 0 209 -4 209 -9 0 -5 -15
-53 -34 -108 -19 -54 -328 -982 -686 -2063 -359 -1081 -655 -1970 -657 -1976
-4 -11 243 -101 251 -93 3 3 688 2063 692 2079 0 3 3 12 7 20 3 8 165 495 359
1083 l353 1067 212 0 211 0 -157 -472 c-87 -260 -382 -1148 -656 -1973 -274
-825 -500 -1505 -502 -1510 -3 -9 237 -98 245 -91 5 6 137 403 492 1476 182
553 335 1014 340 1025 5 11 99 297 210 635 111 338 205 624 210 635 5 11 25
72 46 135 20 63 40 122 45 131 6 12 26 15 96 15 48 -1 90 -4 93 -8z"/>
</g>
</svg>
