<?xml version="1.0" standalone="no"?>
<!DOCTYPE svg PUBLIC "-//W3C//DTD SVG 20010904//EN"
 "http://www.w3.org/TR/2001/REC-SVG-20010904/DTD/svg10.dtd">
<svg version="1.0" xmlns="http://www.w3.org/2000/svg"
 width="1000.000000pt" height="1000.000000pt" viewBox="0 0 1000.000000 1000.000000"
 preserveAspectRatio="xMidYMid meet">
<metadata>
Created by potrace 1.14, written by Peter Selinger 2001-2017
</metadata>
<g transform="translate(0.000000,1000.000000) scale(0.100000,-0.100000)"
fill="#000000" stroke="none">
<path d="M4723 9949 c-614 -28 -1228 -174 -1793 -426 -121 -54 -451 -224 -479
-246 -7 -6 -21 -16 -31 -22 -77 -43 -139 -82 -193 -118 -200 -138 -235 -163
-263 -186 -17 -14 -48 -39 -69 -56 -282 -217 -603 -538 -820 -820 -16 -21 -42
-52 -56 -69 -23 -28 -48 -63 -186 -263 -36 -54 -75 -116 -118 -193 -6 -10 -16
-24 -22 -31 -22 -28 -192 -358 -246 -479 -213 -477 -347 -979 -407 -1520 -51
-464 -17 -1120 80 -1537 6 -24 15 -64 21 -90 57 -255 186 -651 279 -858 12
-27 34 -75 47 -105 46 -100 160 -321 201 -390 12 -19 31 -51 42 -70 30 -52 39
-65 120 -188 41 -62 81 -124 88 -137 7 -14 17 -25 23 -25 5 0 9 -5 9 -11 0
-10 78 -117 107 -147 7 -7 27 -33 44 -57 18 -25 36 -45 41 -45 4 0 8 -4 8 -10
0 -5 8 -18 18 -28 9 -10 37 -42 62 -72 94 -113 441 -452 554 -541 16 -13 41
-34 55 -46 13 -13 39 -33 58 -44 18 -11 33 -25 33 -30 0 -5 7 -9 15 -9 8 0 15
-4 15 -8 0 -5 26 -26 58 -48 31 -21 59 -41 62 -44 12 -12 230 -160 236 -160 3
0 29 -15 57 -34 45 -29 104 -64 169 -101 119 -67 320 -165 493 -240 297 -128
697 -246 1050 -309 344 -61 604 -80 980 -73 442 9 765 54 1195 166 142 37 478
148 545 180 11 6 54 24 95 42 41 17 95 40 120 51 66 29 339 167 380 193 19 12
42 25 50 28 8 4 27 15 42 25 14 9 50 31 80 48 29 17 87 55 128 83 41 29 111
77 155 106 44 30 89 62 100 72 11 10 49 41 85 68 36 28 70 55 76 60 6 6 40 35
75 65 178 153 376 351 529 529 30 35 60 69 65 75 6 6 32 40 60 76 27 36 52 67
55 70 13 12 70 88 70 94 0 4 24 39 53 79 59 81 136 197 161 242 9 17 25 44 36
60 11 17 23 37 27 45 3 8 16 31 28 50 26 41 164 314 193 380 11 25 34 79 51
120 18 41 36 84 42 95 32 67 143 403 180 545 112 430 157 753 166 1195 7 366
-11 621 -68 950 -63 364 -182 774 -314 1080 -75 173 -173 374 -240 493 -37 65
-72 124 -101 169 -19 28 -34 54 -34 57 0 6 -148 224 -160 236 -3 3 -23 31 -45
63 -22 33 -49 69 -60 80 -11 12 -33 40 -49 62 -16 22 -34 45 -40 50 -6 6 -21
23 -34 39 -78 102 -424 457 -534 548 -24 20 -56 49 -72 63 -15 14 -31 25 -37
25 -5 0 -9 4 -9 8 0 5 -20 23 -45 41 -24 17 -50 37 -57 44 -30 29 -137 107
-147 107 -6 0 -11 4 -11 9 0 6 -11 16 -25 23 -13 7 -75 47 -137 88 -123 81
-136 90 -188 120 -19 11 -51 30 -70 42 -60 36 -301 160 -390 201 -133 60 -163
73 -305 127 -494 189 -1011 295 -1560 320 -121 5 -233 9 -250 8 -16 0 -107 -5
-202 -9z m652 -1224 c1057 -112 1986 -636 2614 -1473 377 -503 608 -1061 709
-1717 25 -160 26 -192 26 -525 0 -333 -1 -365 -26 -525 -131 -846 -492 -1563
-1076 -2136 -579 -568 -1269 -909 -2097 -1037 -160 -25 -192 -26 -525 -26
-333 0 -365 1 -525 26 -828 128 -1518 469 -2097 1037 -495 486 -841 1096
-1007 1778 -116 476 -134 1025 -51 1521 157 930 673 1775 1435 2349 542 408
1207 666 1893 732 150 14 575 12 727 -4z"/>
<path d="M2810 6895 l0 -635 1555 0 1555 0 0 -1310 0 -1310 -288 0 -287 0
-645 -645 -645 -645 1561 0 1562 0 6 23 c3 12 6 1177 6 2590 l0 2567 -2190 0
-2190 0 0 -635z"/>
</g>
</svg>
