<svg width="281" height="36" viewBox="0 0 281 36" fill="none" xmlns="http://www.w3.org/2000/svg">
<path d="M29.9448 28.3379C29.4425 30.9714 29.0168 33.2077 28.8517 34.0763H48.3897V28.3379H29.9448ZM0.000976562 28.3901V34.1285H19.4004L18.1059 28.3901H0.000976562Z" fill="#FF6600"/>
<path d="M9.53272 15.233L8.12077 9.29672H20.1678L24.0692 26.3373H24.2357L26.6936 15.4213C27.9321 10.465 28.4 9.29672 35.3799 9.29672H40.4002C40.4002 9.29672 39.386 13.8654 38.124 18.8231C37.6437 20.7144 33.4519 20.4903 33.6611 18.7241C33.6831 18.54 33.8813 17.2109 34.0382 16.2652C34.2666 14.9045 32.6771 14.7341 32.3909 16.0811C32.1872 17.0459 31.2666 21.8345 30.4065 26.3373H48.3902V1.86914H0V26.3373H17.5613L15.0594 15.2413L9.53272 15.233V15.233Z" fill="#0066B3"/>
<path d="M65.3005 15.3992H68.3434L72.5008 3.0508H70.0417L66.9104 12.7455H66.875L63.7083 3.0508H61.0547L65.3005 15.3992Z" fill="#0066B3"/>
<path d="M72.1701 10.9056C72.1701 13.5239 73.9215 15.6114 76.929 15.6114C79.9541 15.6114 81.7055 13.5239 81.7055 10.9056C81.7055 7.89814 79.6357 6.07597 76.929 6.07597C74.2399 6.07597 72.1701 7.89814 72.1701 10.9056ZM74.6468 10.6226C74.6468 9.26036 75.3898 7.91584 76.929 7.91584C78.4858 7.91584 79.2288 9.22497 79.2288 10.6226C79.2288 12.144 78.7511 13.7716 76.929 13.7716C75.1245 13.7716 74.6468 12.1263 74.6468 10.6226Z" fill="#0066B3"/>
<path d="M83.4451 15.3992H85.8157V2.13086H83.4451V15.3992Z" fill="#0066B3"/>
<path d="M88.1919 15.3992H90.5625V10.9764H90.5979L93.6408 15.3992H96.6483L92.827 10.3572L96.2237 6.28826H93.4285L90.5979 9.93262H90.5625V2.13086H88.1919V15.3992Z" fill="#0066B3"/>
<path d="M103.365 6.4121C102.622 6.25288 101.897 6.07597 100.782 6.07597C98.9245 6.07597 97.2084 6.94283 97.2084 8.90653C97.2084 12.1971 101.33 10.9764 101.33 12.7632C101.33 13.6477 100.375 13.8777 99.7736 13.8777C98.9598 13.8777 98.1814 13.6477 97.4384 13.2762L97.2969 15.2222C98.1637 15.4522 99.0837 15.6114 99.9859 15.6114C101.914 15.6114 103.807 14.7623 103.807 12.6393C103.807 9.34881 99.6852 10.2687 99.6852 8.81808C99.6852 8.03967 100.446 7.80969 101.083 7.80969C101.95 7.80969 102.48 7.95122 103.206 8.19889L103.365 6.4121Z" fill="#0066B3"/>
<path d="M107.864 10.8172C107.864 9.54341 108.466 7.91584 109.987 7.91584C111.526 7.91584 111.951 9.59649 111.951 10.8172C111.951 12.0732 111.509 13.7716 109.952 13.7716C108.377 13.7716 107.864 12.1086 107.864 10.8172ZM105.476 15.3992H107.776V14.2846H107.811C108.501 15.2576 109.598 15.6114 110.607 15.6114C113.402 15.6114 114.428 13.3116 114.428 10.8172C114.428 8.30504 113.402 6.07597 110.607 6.07597C109.368 6.07597 108.537 6.58901 107.882 7.45587H107.847V2.13086H105.476V15.3992Z" fill="#0066B3"/>
<path d="M116.592 8.80039C117.388 8.19889 118.396 7.80969 119.405 7.80969C120.802 7.80969 121.457 8.30504 121.457 9.7734H120.148C119.157 9.7734 117.989 9.86185 117.087 10.3041C116.185 10.7464 115.53 11.5425 115.53 12.9047C115.53 14.6384 117.105 15.6114 118.715 15.6114C119.794 15.6114 120.979 15.0453 121.528 14.0369H121.563C121.581 14.32 121.581 14.9215 121.669 15.3992H123.757C123.704 14.6915 123.668 14.0546 123.651 13.3647C123.633 12.6924 123.615 12.0025 123.615 11.0825V9.91492C123.615 7.22588 122.465 6.07597 119.688 6.07597C118.679 6.07597 117.441 6.34133 116.521 6.76592L116.592 8.80039ZM117.795 12.7632C117.795 11.3656 119.369 11.1887 120.431 11.1887H121.457C121.457 11.8963 121.351 12.5509 120.962 13.0639C120.59 13.5593 120.024 13.8777 119.299 13.8777C118.449 13.8777 117.795 13.5416 117.795 12.7632Z" fill="#0066B3"/>
<path d="M125.768 15.3992H128.138V10.941C128.138 9.7734 128.51 7.91584 130.226 7.91584C131.747 7.91584 131.765 9.41957 131.765 10.5341V15.3992H134.135V9.64956C134.135 7.5974 133.198 6.07597 131.04 6.07597C129.801 6.07597 128.793 6.48286 128.05 7.52663H128.014V6.28826H125.768V15.3992Z" fill="#0066B3"/>
<path d="M136.459 15.3992H138.829V10.9764H138.865L141.908 15.3992H144.915L141.094 10.3572L144.491 6.28826H141.695L138.865 9.93262H138.829V2.13086H136.459V15.3992Z" fill="#0066B3"/>
<path d="M157.882 3.28078C156.98 2.98003 155.989 2.8385 154.928 2.8385C152.752 2.8385 150.611 3.84689 150.611 6.6067C150.611 10.6933 156.025 9.72032 156.025 12.0732C156.025 13.1878 154.769 13.6654 153.831 13.6654C152.858 13.6654 151.885 13.3647 151.036 12.9047L150.806 15.1338C152.027 15.4345 152.628 15.6114 153.973 15.6114C156.467 15.6114 158.608 14.5854 158.608 11.8786C158.608 7.73892 153.194 8.64117 153.194 6.50055C153.194 5.15603 154.291 4.78452 155.14 4.78452C156.007 4.78452 156.874 4.97912 157.652 5.31525L157.882 3.28078Z" fill="#0066B3"/>
<path d="M162.14 9.95031C162.246 8.72962 162.918 7.80969 164.245 7.80969C165.572 7.80969 166.103 8.80039 166.174 9.95031H162.14ZM167.766 12.9578C166.881 13.4531 165.89 13.8777 164.741 13.8777C163.272 13.8777 162.246 13.0462 162.14 11.5779H168.438C168.438 8.39349 167.483 6.07597 164.104 6.07597C161.273 6.07597 159.876 8.25197 159.876 10.8879C159.876 13.8777 161.627 15.6114 164.634 15.6114C165.908 15.6114 166.899 15.3638 167.766 14.8861V12.9578Z" fill="#0066B3"/>
<path d="M170.166 15.3992H172.536V2.13086H170.166V15.3992Z" fill="#0066B3"/>
<path d="M174.824 15.3992H177.195V10.9764C177.195 9.79109 177.389 7.91584 178.964 7.91584C180.326 7.91584 180.326 9.11883 180.326 9.968V15.3992H182.697V10.9764C182.697 9.79109 182.891 7.91584 184.466 7.91584C185.828 7.91584 185.828 9.11883 185.828 9.968V15.3992H188.199V9.64956C188.199 7.61509 187.562 6.07597 185.315 6.07597C184.2 6.07597 183.015 6.58901 182.467 7.68585C181.954 6.55362 181.051 6.07597 179.778 6.07597C178.893 6.07597 177.814 6.44748 177.071 7.56201H177.036V6.28826H174.824V15.3992Z" fill="#0066B3"/>
<path d="M194.455 11.6133V9.66725H189.803V11.6133H194.455Z" fill="#0066B3"/>
<path d="M198.808 9.87954H199.975C201.214 9.87954 202.523 10.1272 202.523 11.7371C202.523 13.1701 201.125 13.4531 199.975 13.4531H198.808V9.87954ZM198.808 4.99681H199.763C200.895 4.99681 202.151 5.10296 202.151 6.53593C202.151 7.80969 200.86 8.03967 199.816 8.03967H198.808V4.99681ZM196.331 15.3992H200.647C202.204 15.3992 204.999 14.9392 204.999 11.8256C204.999 10.3041 203.85 9.1719 202.169 9.01268V8.9773C203.637 8.71193 204.628 7.68585 204.628 6.21749C204.628 3.51076 202.24 3.0508 200.647 3.0508H196.331V15.3992Z" fill="#0066B3"/>
<path d="M206.173 10.9056C206.173 13.5239 207.924 15.6114 210.932 15.6114C213.957 15.6114 215.708 13.5239 215.708 10.9056C215.708 7.89814 213.639 6.07597 210.932 6.07597C208.243 6.07597 206.173 7.89814 206.173 10.9056ZM208.65 10.6226C208.65 9.26036 209.393 7.91584 210.932 7.91584C212.489 7.91584 213.232 9.22497 213.232 10.6226C213.232 12.144 212.754 13.7716 210.932 13.7716C209.127 13.7716 208.65 12.1263 208.65 10.6226Z" fill="#0066B3"/>
<path d="M217.448 15.3992H219.818V12.0555C219.818 10.7464 219.818 8.34042 221.747 8.34042C222.171 8.34042 222.596 8.41118 222.808 8.53502V6.14673C222.561 6.07597 222.313 6.07597 222.083 6.07597C220.668 6.07597 219.695 7.50894 219.589 8.35811H219.553V6.28826H217.448V15.3992Z" fill="#0066B3"/>
<path d="M224.147 15.3992H226.518V10.9764H226.553L229.596 15.3992H232.603L228.782 10.3572L232.179 6.28826H229.384L226.553 9.93262H226.518V2.13086H224.147V15.3992Z" fill="#0066B3"/>
<path d="M240.175 9.95031C240.281 8.72962 240.953 7.80969 242.28 7.80969C243.607 7.80969 244.138 8.80039 244.208 9.95031H240.175ZM245.801 12.9578C244.916 13.4531 243.925 13.8777 242.775 13.8777C241.307 13.8777 240.281 13.0462 240.175 11.5779H246.473C246.473 8.39349 245.518 6.07597 242.139 6.07597C239.308 6.07597 237.91 8.25197 237.91 10.8879C237.91 13.8777 239.662 15.6114 242.669 15.6114C243.943 15.6114 244.934 15.3638 245.801 14.8861V12.9578Z" fill="#0066B3"/>
<path d="M258.161 3.35154C257.099 3.0331 255.967 2.8385 254.534 2.8385C250.341 2.8385 247.758 5.2091 247.758 9.43727C247.758 13.6124 250.536 15.6114 254.534 15.6114C255.861 15.6114 257.223 15.3284 258.532 14.9746V8.32273H253.543V10.2687H256.162V13.4885C255.737 13.5947 255.206 13.6654 254.534 13.6654C251.898 13.6654 250.341 11.7725 250.341 9.26036C250.341 6.73053 251.933 4.78452 254.817 4.78452C255.808 4.78452 257.046 4.99681 258.001 5.43909L258.161 3.35154Z" fill="#0066B3"/>
<path d="M65.3005 33.8699H68.3434L72.5008 21.5215H70.0417L66.9104 31.2162H66.875L63.7083 21.5215H61.0547L65.3005 33.8699Z" fill="#0066B3"/>
<path d="M72.1701 29.3763C72.1701 31.9946 73.9215 34.0821 76.929 34.0821C79.9541 34.0821 81.7055 31.9946 81.7055 29.3763C81.7055 26.3688 79.6357 24.5467 76.929 24.5467C74.2399 24.5467 72.1701 26.3688 72.1701 29.3763ZM74.6468 29.0933C74.6468 27.7311 75.3898 26.3865 76.929 26.3865C78.4858 26.3865 79.2288 27.6957 79.2288 29.0933C79.2288 30.6147 78.7511 32.2423 76.929 32.2423C75.1245 32.2423 74.6468 30.597 74.6468 29.0933Z" fill="#0066B3"/>
<path d="M83.4451 33.8699H85.8157V20.6016H83.4451V33.8699Z" fill="#0066B3"/>
<path d="M88.1919 33.8699H90.5625V29.4471H90.5979L93.6408 33.8699H96.6483L92.827 28.8279L96.2237 24.759H93.4285L90.5979 28.4033H90.5625V20.6016H88.1919V33.8699Z" fill="#0066B3"/>
<path d="M103.365 24.8828C102.622 24.7236 101.897 24.5467 100.782 24.5467C98.9245 24.5467 97.2084 25.4135 97.2084 27.3772C97.2084 30.6678 101.33 29.4471 101.33 31.2339C101.33 32.1184 100.375 32.3484 99.7736 32.3484C98.9598 32.3484 98.1814 32.1184 97.4384 31.7469L97.2969 33.6929C98.1637 33.9229 99.0837 34.0821 99.9859 34.0821C101.914 34.0821 103.807 33.233 103.807 31.11C103.807 27.8195 99.6852 28.7394 99.6852 27.2888C99.6852 26.5104 100.446 26.2804 101.083 26.2804C101.95 26.2804 102.48 26.4219 103.206 26.6696L103.365 24.8828Z" fill="#0066B3"/>
<path d="M107.864 29.2879C107.864 28.0141 108.466 26.3865 109.987 26.3865C111.526 26.3865 111.951 28.0672 111.951 29.2879C111.951 30.5439 111.509 32.2423 109.952 32.2423C108.377 32.2423 107.864 30.5793 107.864 29.2879ZM105.476 33.8699H107.776V32.7553H107.811C108.501 33.7283 109.598 34.0821 110.607 34.0821C113.402 34.0821 114.428 31.7823 114.428 29.2879C114.428 26.7757 113.402 24.5467 110.607 24.5467C109.368 24.5467 108.537 25.0597 107.882 25.9266H107.847V20.6016H105.476V33.8699Z" fill="#0066B3"/>
<path d="M116.592 27.2711C117.388 26.6696 118.396 26.2804 119.405 26.2804C120.802 26.2804 121.457 26.7757 121.457 28.2441H120.148C119.157 28.2441 117.989 28.3326 117.087 28.7748C116.185 29.2171 115.53 30.0132 115.53 31.3754C115.53 33.1091 117.105 34.0821 118.715 34.0821C119.794 34.0821 120.979 33.516 121.528 32.5076H121.563C121.581 32.7907 121.581 33.3922 121.669 33.8699H123.757C123.704 33.1622 123.668 32.5253 123.651 31.8354C123.633 31.1631 123.615 30.4732 123.615 29.5532V28.3856C123.615 25.6966 122.465 24.5467 119.688 24.5467C118.679 24.5467 117.441 24.812 116.521 25.2366L116.592 27.2711ZM117.795 31.2339C117.795 29.8363 119.369 29.6594 120.431 29.6594H121.457C121.457 30.367 121.351 31.0216 120.962 31.5346C120.59 32.03 120.024 32.3484 119.299 32.3484C118.449 32.3484 117.795 32.0123 117.795 31.2339Z" fill="#0066B3"/>
<path d="M125.768 33.8699H128.138V29.4117C128.138 28.2441 128.51 26.3865 130.226 26.3865C131.747 26.3865 131.765 27.8903 131.765 29.0048V33.8699H134.135V28.1203C134.135 26.0681 133.198 24.5467 131.04 24.5467C129.801 24.5467 128.793 24.9536 128.05 25.9973H128.014V24.759H125.768V33.8699Z" fill="#0066B3"/>
<path d="M136.459 33.8699H138.829V29.4471H138.865L141.908 33.8699H144.915L141.094 28.8279L144.491 24.759H141.695L138.865 28.4033H138.829V20.6016H136.459V33.8699Z" fill="#0066B3"/>
<path d="M157.705 29.0933H154.097L155.883 23.9982H155.919L157.705 29.0933ZM149.745 33.8699H152.31L153.389 31.0393H158.395L159.457 33.8699H162.199L157.352 21.5215H154.556L149.745 33.8699Z" fill="#0066B3"/>
<path d="M163.449 33.8699H165.82V20.6016H163.449V33.8699Z" fill="#0066B3"/>
<path d="M168.922 31.1277C168.922 32.9322 169.948 34.0821 171.805 34.0821C172.513 34.0821 173.061 34.0114 173.557 33.8699L173.486 31.9946C173.238 32.1538 172.831 32.2423 172.407 32.2423C171.504 32.2423 171.292 31.5169 171.292 30.7385V26.4927H173.397V24.759H171.292V22.1761L168.922 22.9368V24.759H167.17V26.4927H168.922V31.1277Z" fill="#0066B3"/>
<path d="M174.895 33.8699H177.266V20.6016H174.895V33.8699Z" fill="#0066B3"/>
<path d="M187.957 24.759H185.586V29.2171C185.586 30.3847 185.215 32.2423 183.499 32.2423C181.977 32.2423 181.96 30.7385 181.96 29.624V24.759H179.589V30.5086C179.589 32.5607 180.527 34.0821 182.685 34.0821C183.923 34.0821 184.95 33.516 185.675 32.6315H185.71V33.8699H187.957V24.759ZM184.578 21.0438V23.096H186.63V21.0438H184.578ZM182.986 23.096V21.0438H180.934V23.096H182.986Z" fill="#0066B3"/>
<path d="M190.227 33.8699H192.598V29.4117C192.598 28.2441 192.969 26.3865 194.685 26.3865C196.207 26.3865 196.225 27.8903 196.225 29.0048V33.8699H198.595V28.1203C198.595 26.0681 197.658 24.5467 195.499 24.5467C194.261 24.5467 193.252 24.9536 192.509 25.9973H192.474V24.759H190.227V33.8699Z" fill="#0066B3"/>
<path d="M202.546 28.421C202.652 27.2003 203.324 26.2804 204.651 26.2804C205.978 26.2804 206.509 27.2711 206.58 28.421H202.546ZM208.172 31.4285C207.287 31.9238 206.297 32.3484 205.147 32.3484C203.678 32.3484 202.652 31.5169 202.546 30.0486H208.844C208.844 26.8642 207.889 24.5467 204.51 24.5467C201.679 24.5467 200.282 26.7227 200.282 29.3586C200.282 32.3484 202.033 34.0821 205.041 34.0821C206.314 34.0821 207.305 33.8345 208.172 33.3568V31.4285Z" fill="#0066B3"/>
<path d="M210.519 33.8699H212.889V29.4117C212.889 28.2441 213.261 26.3865 214.977 26.3865C216.498 26.3865 216.516 27.8903 216.516 29.0048V33.8699H218.887V28.1203C218.887 26.0681 217.949 24.5467 215.791 24.5467C214.552 24.5467 213.544 24.9536 212.801 25.9973H212.766V24.759H210.519V33.8699Z" fill="#0066B3"/>
</svg>
