<svg width="285" height="28" viewBox="0 0 285 28" fill="none" xmlns="http://www.w3.org/2000/svg">
<path d="M24.3304 22.4004C23.9222 24.5401 23.5764 26.3571 23.4422 27.0629H39.3169V22.4004H24.3304ZM0.000976562 22.4428V27.1053H15.763L14.7112 22.4428H0.000976562Z" fill="#FF6600"/>
<path d="M7.74534 11.7527L6.59813 6.92944H16.3863L19.5562 20.7749H19.6915L21.6885 11.9057C22.6948 7.87867 23.075 6.92944 28.7462 6.92944H32.8252C32.8252 6.92944 32.0011 10.6415 30.9758 14.6696C30.5855 16.2063 27.1797 16.0242 27.3497 14.5892C27.3675 14.4396 27.5286 13.3597 27.656 12.5914C27.8416 11.4858 26.5502 11.3473 26.3176 12.4417C26.1521 13.2257 25.4041 17.1164 24.7053 20.7749H39.3171V0.894531H0V20.7749H14.2686L12.2358 11.7594L7.74534 11.7527V11.7527Z" fill="#0066B3"/>
<path d="M52.6641 20.7622H56.2475V5.47609L56.301 5.42283L61.3285 20.7622H64.9119L69.9394 5.42283H69.9929V20.7622H73.5763V2.17387H67.5861L63.1469 16.2616H63.0935L58.6543 2.17387H52.6641V20.7622Z" fill="#0066B3"/>
<path d="M78.0512 10.8289C79.2546 9.92344 80.7789 9.33756 82.3032 9.33756C84.4158 9.33756 85.4053 10.0832 85.4053 12.2936H83.4264C81.9288 12.2936 80.1638 12.4267 78.8 13.0925C77.4362 13.7583 76.4467 14.9567 76.4467 17.0072C76.4467 19.6171 78.8267 21.0817 81.2603 21.0817C82.8915 21.0817 84.6832 20.2296 85.5123 18.7116H85.5657C85.5925 19.1377 85.5925 20.0431 85.7262 20.7622H88.8817C88.8015 19.6969 88.748 18.7382 88.7213 17.6996C88.6946 16.6877 88.6678 15.6491 88.6678 14.2643V12.5066C88.6678 8.45874 86.9296 6.72774 82.7311 6.72774C81.2068 6.72774 79.3348 7.1272 77.9443 7.76634L78.0512 10.8289ZM79.8697 16.7942C79.8697 14.6904 82.2497 14.424 83.8542 14.424H85.4053C85.4053 15.4893 85.2448 16.4746 84.6565 17.2469C84.0949 17.9926 83.2392 18.4719 82.1428 18.4719C80.8591 18.4719 79.8697 17.9659 79.8697 16.7942ZM84.1217 1.45483V4.54401H87.2237V1.45483H84.1217ZM81.7149 4.54401V1.45483H78.6128V4.54401H81.7149Z" fill="#0066B3"/>
<path d="M92.0016 20.7622H95.585V15.729C95.585 13.7583 95.585 10.1365 98.4999 10.1365C99.1417 10.1365 99.7835 10.243 100.104 10.4294V6.83426C99.73 6.72774 99.3556 6.72774 99.008 6.72774C96.8686 6.72774 95.3978 8.88483 95.2374 10.1631H95.1839V7.04731H92.0016V20.7622Z" fill="#0066B3"/>
<path d="M102.128 20.7622H105.711V14.1045H105.765L110.365 20.7622H114.911L109.134 13.1724L114.269 7.04731H110.044L105.765 12.5333H105.711V0.789062H102.128V20.7622Z" fill="#0066B3"/>
<path d="M116.72 20.7622H120.304V7.04731H116.72V20.7622ZM116.72 4.54401H120.304V1.13526H116.72V4.54401Z" fill="#0066B3"/>
<path d="M132.239 7.23372C131.116 6.99404 130.02 6.72774 128.335 6.72774C125.527 6.72774 122.933 8.03265 122.933 10.9887C122.933 15.942 129.164 14.1045 129.164 16.7942C129.164 18.1257 127.72 18.4719 126.811 18.4719C125.58 18.4719 124.404 18.1257 123.281 17.5665L123.067 20.4959C124.377 20.8421 125.768 21.0817 127.131 21.0817C130.046 21.0817 132.908 19.8035 132.908 16.6078C132.908 11.6544 126.677 13.0392 126.677 10.8555C126.677 9.68376 127.827 9.33756 128.789 9.33756C130.1 9.33756 130.902 9.5506 131.998 9.92344L132.239 7.23372Z" fill="#0066B3"/>
<path d="M144.683 7.18046C143.694 6.88752 142.651 6.72774 141.207 6.72774C136.901 6.72774 134.548 9.87017 134.548 13.8382C134.548 18.0192 136.821 21.0817 141.34 21.0817C142.811 21.0817 143.881 20.9486 144.924 20.629L144.763 17.673C144.148 17.9393 143.025 18.3121 142.009 18.3121C139.495 18.3121 138.292 16.3681 138.292 13.8382C138.292 11.255 139.709 9.49734 141.929 9.49734C143.025 9.49734 143.72 9.71039 144.362 10.0033L144.683 7.18046Z" fill="#0066B3"/>
<path d="M147.045 20.7622H150.629V14.0512C150.629 12.2936 151.19 9.49734 153.784 9.49734C156.084 9.49734 156.111 11.761 156.111 13.4387V20.7622H159.694V12.1072C159.694 9.01799 158.277 6.72774 155.015 6.72774C153.143 6.72774 151.592 7.57992 150.682 8.91146H150.629V0.789062H147.045V20.7622Z" fill="#0066B3"/>
<path d="M165.667 12.5599C165.827 10.7224 166.843 9.33756 168.849 9.33756C170.855 9.33756 171.657 10.8289 171.764 12.5599H165.667ZM174.171 17.0871C172.834 17.8328 171.336 18.4719 169.598 18.4719C167.378 18.4719 165.827 17.2203 165.667 15.0099H175.187C175.187 10.2164 173.743 6.72774 168.635 6.72774C164.356 6.72774 162.244 10.0033 162.244 13.9713C162.244 18.4719 164.891 21.0817 169.437 21.0817C171.363 21.0817 172.86 20.7089 174.171 19.9899V17.0871Z" fill="#0066B3"/>
<path d="M188.959 12.4534H190.724C192.595 12.4534 194.574 12.8262 194.574 15.2496C194.574 17.4067 192.462 17.8328 190.724 17.8328H188.959V12.4534ZM188.959 5.10326H190.403C192.114 5.10326 194.013 5.26304 194.013 7.42014C194.013 9.33756 192.061 9.68376 190.483 9.68376H188.959V5.10326ZM185.215 20.7622H191.74C194.093 20.7622 198.318 20.0698 198.318 15.3828C198.318 13.0925 196.58 11.3881 194.04 11.1485V11.0952C196.259 10.6957 197.757 9.15114 197.757 6.94078C197.757 2.86627 194.147 2.17387 191.74 2.17387H185.215V20.7622Z" fill="#0066B3"/>
<path d="M201.697 10.8289C202.9 9.92344 204.424 9.33756 205.949 9.33756C208.061 9.33756 209.051 10.0832 209.051 12.2936H207.072C205.574 12.2936 203.809 12.4267 202.445 13.0925C201.081 13.7583 200.092 14.9567 200.092 17.0072C200.092 19.6171 202.472 21.0817 204.906 21.0817C206.537 21.0817 208.329 20.2296 209.158 18.7116H209.211C209.238 19.1377 209.238 20.0431 209.371 20.7622H212.527C212.447 19.6969 212.393 18.7382 212.367 17.6996C212.34 16.6877 212.313 15.6491 212.313 14.2643V12.5066C212.313 8.45874 210.575 6.72774 206.376 6.72774C204.852 6.72774 202.98 7.1272 201.59 7.76634L201.697 10.8289ZM203.515 16.7942C203.515 14.6904 205.895 14.424 207.5 14.424H209.051C209.051 15.4893 208.89 16.4746 208.302 17.2469C207.74 17.9926 206.884 18.4719 205.788 18.4719C204.504 18.4719 203.515 17.9659 203.515 16.7942Z" fill="#0066B3"/>
<path d="M215.567 20.7622H219.15V14.0512C219.15 12.2936 219.712 9.49734 222.306 9.49734C224.605 9.49734 224.632 11.761 224.632 13.4387V20.7622H228.216V12.1072C228.216 9.01799 226.798 6.72774 223.536 6.72774C221.664 6.72774 220.14 7.34025 219.016 8.91146H218.963V7.04731H215.567V20.7622Z" fill="#0066B3"/>
<path d="M231.728 20.7622H235.311V14.1045H235.365L239.964 20.7622H244.51L238.734 13.1724L243.868 7.04731H239.643L235.365 12.5333H235.311V0.789062H231.728V20.7622Z" fill="#0066B3"/>
<path d="M255.955 12.5599C256.116 10.7224 257.132 9.33756 259.138 9.33756C261.143 9.33756 261.946 10.8289 262.053 12.5599H255.955ZM264.459 17.0871C263.122 17.8328 261.625 18.4719 259.887 18.4719C257.667 18.4719 256.116 17.2203 255.955 15.0099H265.476C265.476 10.2164 264.032 6.72774 258.924 6.72774C254.645 6.72774 252.532 10.0033 252.532 13.9713C252.532 18.4719 255.18 21.0817 259.726 21.0817C261.652 21.0817 263.149 20.7089 264.459 19.9899V17.0871Z" fill="#0066B3"/>
<path d="M283.143 2.62659C281.539 2.14723 279.827 1.8543 277.661 1.8543C271.323 1.8543 267.419 5.42283 267.419 11.7876C267.419 18.0725 271.617 21.0817 277.661 21.0817C279.667 21.0817 281.726 20.6557 283.705 20.123V10.1099H276.163V13.0392H280.121V17.8861C279.479 18.0458 278.677 18.1524 277.661 18.1524C273.676 18.1524 271.323 15.3029 271.323 11.5213C271.323 7.71308 273.73 4.78369 278.089 4.78369C279.586 4.78369 281.458 5.10326 282.902 5.76903L283.143 2.62659Z" fill="#0066B3"/>
</svg>
