<svg width="157" height="199" viewBox="0 0 157 199" fill="none" xmlns="http://www.w3.org/2000/svg">
<path d="M157 162.107V199H8.95538V169.653L84.5169 98.382C92.5395 90.7425 97.9501 84.221 100.749 78.8174C103.547 73.2275 104.947 67.7308 104.947 62.3272C104.947 54.5014 102.241 48.5389 96.8307 44.4396C91.6067 40.154 83.8639 38.0112 73.6024 38.0112C65.0202 38.0112 57.2775 39.6882 50.3743 43.0421C43.4712 46.2097 37.6874 51.0543 33.0231 57.5758L0 36.3343C7.64944 24.9682 18.1907 16.1175 31.6239 9.7823C45.057 3.26077 60.4492 0 77.8003 0C92.3529 0 105.04 2.42228 115.861 7.26684C126.869 11.9251 135.358 18.633 141.328 27.3904C147.485 35.9616 150.563 46.1166 150.563 57.8553C150.563 68.4761 148.324 78.4448 143.847 87.7612C139.369 97.0777 130.693 107.698 117.82 119.624L72.7629 162.107H157Z" fill="#EEEEEE"/>
</svg>
