<svg width="156" height="199" viewBox="0 0 156 199" fill="none" xmlns="http://www.w3.org/2000/svg">
<path d="M102.786 79.6559C119.964 82.4508 133.127 88.8792 142.276 98.941C151.425 108.816 156 121.114 156 135.834C156 147.2 153.013 157.728 147.038 167.417C141.063 176.92 131.914 184.559 119.591 190.336C107.454 196.112 92.5171 199 74.7792 199C60.9623 199 47.3321 197.23 33.8886 193.69C20.6319 189.963 9.33573 184.746 0 178.038L17.6445 143.381C25.1131 148.97 33.702 153.349 43.4112 156.517C53.307 159.498 63.3896 160.989 73.6589 160.989C85.0484 160.989 94.0108 158.846 100.546 154.56C107.081 150.088 110.348 143.846 110.348 135.834C110.348 119.81 98.1185 111.798 73.6589 111.798H52.9336V81.8918L93.2639 36.3343H9.80243V0H147.038V29.3469L102.786 79.6559Z" fill="#EEEEEE"/>
</svg>
