<svg width="928" height="928" viewBox="0 0 928 928" fill="none" xmlns="http://www.w3.org/2000/svg">
<path d="M100.462 342.462C234.412 208.513 451.588 208.513 585.538 342.462C719.487 476.412 719.487 693.588 585.538 827.538C451.588 961.487 234.412 961.487 100.462 827.538C-33.4874 693.588 -33.4875 476.412 100.462 342.462Z" fill="white"/>
<path d="M827.538 585.538C693.588 719.488 476.412 719.488 342.462 585.538C208.513 451.588 208.513 234.412 342.462 100.462C476.412 -33.4875 693.588 -33.4875 827.538 100.462C961.488 234.412 961.488 451.588 827.538 585.538Z" fill="white"/>
<path d="M100.462 342.462C234.412 208.513 451.588 208.513 585.538 342.462C719.487 476.412 719.487 693.588 585.538 827.538C451.588 961.487 234.412 961.487 100.462 827.538C-33.4874 693.588 -33.4875 476.412 100.462 342.462Z" fill="url(#paint0_angular)"/>
<path d="M827.538 585.538C693.588 719.488 476.412 719.488 342.462 585.538C208.513 451.588 208.513 234.412 342.462 100.462C476.412 -33.4875 693.588 -33.4875 827.538 100.462C961.488 234.412 961.488 451.588 827.538 585.538Z" fill="url(#paint1_angular)"/>
<defs>
<radialGradient id="paint0_angular" cx="0" cy="0" r="1" gradientUnits="userSpaceOnUse" gradientTransform="translate(343.085 585.085) rotate(-45.0568) scale(343 343.119)">
<stop offset="3.83747e-07" stop-color="#3CCFC7"/>
<stop offset="0.984375" stop-color="#3CCFC7" stop-opacity="0"/>
</radialGradient>
<radialGradient id="paint1_angular" cx="0" cy="0" r="1" gradientUnits="userSpaceOnUse" gradientTransform="translate(584.916 342.916) rotate(134.943) scale(343 343.119)">
<stop offset="3.83747e-07" stop-color="#3CCFC7"/>
<stop offset="0.984375" stop-color="#3CCFC7" stop-opacity="0"/>
</radialGradient>
</defs>
</svg>
