<svg width="495" height="495" viewBox="0 0 495 495" fill="none" xmlns="http://www.w3.org/2000/svg">
<path d="M422.509 72.491C519.164 169.146 519.164 325.854 422.509 422.509C325.854 519.164 169.146 519.164 72.4911 422.509C-24.1637 325.854 -24.1637 169.146 72.4911 72.4911C169.146 -24.1637 325.854 -24.1637 422.509 72.491Z" fill="url(#paint0_radial)"/>
<path d="M422.509 72.491C519.164 169.146 519.164 325.854 422.509 422.509C325.854 519.164 169.146 519.164 72.4911 422.509C-24.1637 325.854 -24.1637 169.146 72.4911 72.4911C169.146 -24.1637 325.854 -24.1637 422.509 72.491Z" fill="url(#paint1_radial)" fill-opacity="0.64"/>
<defs>
<radialGradient id="paint0_radial" cx="0" cy="0" r="1" gradientUnits="userSpaceOnUse" gradientTransform="translate(130.593 130.818) rotate(44.9557) scale(412.673 329.923)">
<stop stop-color="white"/>
<stop offset="0.884675" stop-color="#FEFEFE" stop-opacity="0"/>
</radialGradient>
<radialGradient id="paint1_radial" cx="0" cy="0" r="1" gradientUnits="userSpaceOnUse" gradientTransform="translate(130.593 130.818) rotate(44.9557) scale(412.673 329.923)">
<stop stop-color="#1DBAB1"/>
<stop offset="0.884675" stop-color="#1DBAB1" stop-opacity="0"/>
</radialGradient>
</defs>
</svg>
