<svg width="784" height="800" viewBox="0 0 784 800" fill="none" xmlns="http://www.w3.org/2000/svg">
<g clip-path="url(#clip0)">
<path d="M682.843 682.843C526.633 839.052 273.367 839.052 117.157 682.843C-39.0524 526.633 -39.0524 273.367 117.157 117.157C273.367 -39.0524 526.633 -39.0524 682.843 117.157C839.052 273.367 839.052 526.633 682.843 682.843Z" fill="url(#paint0_radial)"/>
<path d="M682.843 682.843C526.633 839.052 273.367 839.052 117.157 682.843C-39.0524 526.633 -39.0524 273.367 117.157 117.157C273.367 -39.0524 526.633 -39.0524 682.843 117.157C839.052 273.367 839.052 526.633 682.843 682.843Z" fill="url(#paint1_radial)" fill-opacity="0.64"/>
</g>
<defs>
<radialGradient id="paint0_radial" cx="0" cy="0" r="1" gradientUnits="userSpaceOnUse" gradientTransform="translate(588.577 211.059) rotate(134.956) scale(666.946 533.209)">
<stop stop-color="white"/>
<stop offset="0.884675" stop-color="#FEFEFE" stop-opacity="0"/>
</radialGradient>
<radialGradient id="paint1_radial" cx="0" cy="0" r="1" gradientUnits="userSpaceOnUse" gradientTransform="translate(588.577 211.059) rotate(134.956) scale(666.946 533.209)">
<stop stop-color="#1DBAB1"/>
<stop offset="0.884675" stop-color="#1DBAB1" stop-opacity="0"/>
</radialGradient>
<clipPath id="clip0">
<rect width="784" height="800" fill="white"/>
</clipPath>
</defs>
</svg>
