<svg width="832" height="628" viewBox="0 0 832 628" fill="none" xmlns="http://www.w3.org/2000/svg">
<path d="M118.705 617.552C114.277 620.832 108.789 623.34 102.243 625.076C95.8885 626.62 89.1493 627.391 82.0251 627.391C63.5406 627.391 49.1958 622.664 38.9908 613.211C28.9783 603.758 23.9721 589.867 23.9721 571.539V507.583H0V472.856H23.9721V434.946H69.0282V472.856H107.73V507.583H69.0282V570.96C69.0282 577.519 70.6648 582.632 73.9381 586.298C77.404 589.77 82.2176 591.507 88.3791 591.507C95.5034 591.507 101.569 589.577 106.575 585.719L118.705 617.552Z" fill="#EEEEEE"/>
<path d="M207.364 627.391C190.998 627.391 176.268 624.015 163.175 617.263C150.274 610.317 140.165 600.767 132.848 588.613C125.532 576.458 121.873 562.664 121.873 547.23C121.873 531.796 125.532 518.001 132.848 505.847C140.165 493.692 150.274 484.239 163.175 477.486C176.268 470.541 190.998 467.068 207.364 467.068C223.731 467.068 238.364 470.541 251.265 477.486C264.166 484.239 274.274 493.692 281.591 505.847C288.908 518.001 292.566 531.796 292.566 547.23C292.566 562.664 288.908 576.458 281.591 588.613C274.274 600.767 264.166 610.317 251.265 617.263C238.364 624.015 223.731 627.391 207.364 627.391ZM207.364 590.349C218.917 590.349 228.352 586.491 235.669 578.773C243.178 570.863 246.933 560.349 246.933 547.23C246.933 534.111 243.178 523.693 235.669 515.976C228.352 508.065 218.917 504.11 207.364 504.11C195.811 504.11 186.28 508.065 178.771 515.976C171.262 523.693 167.507 534.111 167.507 547.23C167.507 560.349 171.262 570.863 178.771 578.773C186.28 586.491 195.811 590.349 207.364 590.349Z" fill="#EEEEEE"/>
<path d="M473.447 469.383V625.076H430.702V606.555C424.733 613.307 417.608 618.517 409.329 622.182C401.049 625.655 392.096 627.391 382.469 627.391C362.059 627.391 345.885 621.507 333.947 609.738C322.009 597.97 316.04 580.51 316.04 557.358V469.383H361.096V550.702C361.096 575.783 371.59 588.323 392.577 588.323C403.36 588.323 412.025 584.851 418.571 577.905C425.118 570.767 428.391 560.252 428.391 546.362V469.383H473.447Z" fill="#EEEEEE"/>
<path d="M584.505 627.391C567.946 627.391 553.024 624.015 539.738 617.263C526.645 610.317 516.344 600.767 508.834 588.613C501.518 576.458 497.859 562.664 497.859 547.23C497.859 531.796 501.518 518.001 508.834 505.847C516.344 493.692 526.645 484.239 539.738 477.486C553.024 470.541 567.946 467.068 584.505 467.068C600.872 467.068 615.12 470.541 627.251 477.486C639.574 484.239 648.527 493.982 654.111 506.715L619.164 525.525C611.077 511.249 599.428 504.11 584.217 504.11C572.471 504.11 562.748 507.969 555.046 515.686C547.344 523.403 543.493 533.918 543.493 547.23C543.493 560.542 547.344 571.056 555.046 578.773C562.748 586.491 572.471 590.349 584.217 590.349C599.62 590.349 611.269 583.211 619.164 568.934L654.111 588.034C648.527 600.381 639.574 610.028 627.251 616.973C615.12 623.919 600.872 627.391 584.505 627.391Z" fill="#EEEEEE"/>
<path d="M767.593 467.068C786.848 467.068 802.348 472.856 814.093 484.432C826.031 496.008 832 513.178 832 535.944V625.076H786.944V542.889C786.944 530.542 784.248 521.377 778.857 515.397C773.466 509.223 765.667 506.136 755.462 506.136C744.102 506.136 735.052 509.705 728.313 516.844C721.574 523.789 718.205 534.207 718.205 548.098V625.076H673.149V410.348H718.205V485.589C724.174 479.609 731.394 475.075 739.866 471.988C748.338 468.708 757.581 467.068 767.593 467.068Z" fill="#EEEEEE"/>
<path d="M234.358 282.507H279.598V438.608H234.358V282.507ZM256.978 260.746C248.665 260.746 241.898 258.328 236.678 253.492C231.458 248.656 228.848 242.66 228.848 235.503C228.848 228.346 231.458 222.349 236.678 217.514C241.898 212.678 248.665 210.26 256.978 210.26C265.291 210.26 272.058 212.581 277.278 217.223C282.498 221.866 285.108 227.669 285.108 234.632C285.108 242.176 282.498 248.463 277.278 253.492C272.058 258.328 265.291 260.746 256.978 260.746Z" fill="#EEEEEE"/>
<path d="M410.613 280.186C429.947 280.186 445.51 285.989 457.303 297.595C469.29 309.201 475.283 326.416 475.283 349.241V438.608H430.043V356.205C430.043 343.825 427.337 334.637 421.923 328.641C416.51 322.451 408.68 319.356 398.433 319.356C387.027 319.356 377.94 322.935 371.174 330.092C364.407 337.055 361.024 347.501 361.024 361.428V438.608H315.784V282.507H358.994V300.786C364.987 294.21 372.43 289.181 381.324 285.699C390.217 282.023 399.98 280.186 410.613 280.186Z" fill="#EEEEEE"/>
<path d="M203.377 34.4526V164.156C203.377 192.722 195.942 213.954 181.073 227.85C166.203 241.747 144.477 248.696 115.896 248.696C100.833 248.696 86.5426 246.862 73.0245 243.195C59.5065 239.528 48.3058 234.22 39.4225 227.271L57.3822 194.845C63.9481 200.25 72.2521 204.496 82.2941 207.584C92.3361 210.865 102.378 212.506 112.42 212.506C128.062 212.506 139.553 208.935 146.891 201.794C154.423 194.845 158.188 184.23 158.188 169.947V163.288C146.408 176.22 129.994 182.686 108.944 182.686C94.6535 182.686 81.5216 179.597 69.5485 173.421C57.7684 167.052 48.4023 158.173 41.4502 146.785C34.498 135.398 31.022 122.273 31.022 107.411C31.022 92.5491 34.498 79.4243 41.4502 68.0366C48.4023 56.6489 57.7684 47.8669 69.5485 41.6905C81.5216 35.3212 94.6535 32.1365 108.944 32.1365C131.538 32.1365 148.726 39.5674 160.506 54.4293V34.4526H203.377ZM117.924 145.627C129.897 145.627 139.649 142.153 147.181 135.205C154.905 128.063 158.768 118.799 158.768 107.411C158.768 96.0233 154.905 86.8553 147.181 79.9069C139.649 72.7654 129.897 69.1947 117.924 69.1947C105.951 69.1947 96.1018 72.7654 88.3772 79.9069C80.6526 86.8553 76.7903 96.0233 76.7903 107.411C76.7903 118.799 80.6526 128.063 88.3772 135.205C96.1018 142.153 105.951 145.627 117.924 145.627Z" fill="#EEEEEE"/>
<path d="M392.301 112.912C392.301 113.491 392.011 117.544 391.432 125.072H273.535C275.659 134.722 280.68 142.346 288.598 147.944C296.515 153.541 306.364 156.34 318.144 156.34C326.255 156.34 333.4 155.181 339.58 152.865C345.953 150.356 351.843 146.496 357.25 141.285L381.293 167.341C366.616 184.133 345.181 192.529 316.986 192.529C299.412 192.529 283.866 189.152 270.348 182.396C256.83 175.448 246.402 165.894 239.064 153.734C231.725 141.574 228.056 127.774 228.056 112.333C228.056 97.0849 231.629 83.3811 238.774 71.2213C246.112 58.8686 256.058 49.3145 268.61 42.5591C281.356 35.6107 295.55 32.1365 311.192 32.1365C326.448 32.1365 340.256 35.4177 352.615 41.98C364.975 48.5424 374.631 58 381.583 70.3528C388.728 82.5125 392.301 96.6989 392.301 112.912ZM311.482 66.2995C301.247 66.2995 292.653 69.1947 285.701 74.9851C278.749 80.7754 274.5 88.6889 272.955 98.7255H349.719C348.174 88.8819 343.925 81.0649 336.973 75.2746C330.021 69.2912 321.524 66.2995 311.482 66.2995Z" fill="#EEEEEE"/>
<path d="M517.109 182.686C512.667 185.967 507.163 188.476 500.598 190.213C494.225 191.757 487.466 192.529 480.32 192.529C461.781 192.529 447.394 187.8 437.159 178.343C427.117 168.885 422.096 154.988 422.096 136.652V72.6689H398.053V37.9268H422.096V0H467.285V37.9268H506.101V72.6689H467.285V136.073C467.285 142.636 468.927 147.751 472.21 151.418C475.686 154.892 480.514 156.629 486.693 156.629C493.839 156.629 499.922 154.699 504.943 150.839L517.109 182.686Z" fill="#EEEEEE"/>
</svg>
