<svg width="256" height="256" viewBox="0 0 256 256" fill="none" xmlns="http://www.w3.org/2000/svg">
<path d="M247.025 153.831L209.336 169.172C209.336 169.172 204.384 171.19 194.114 145.84C183.844 120.489 179.998 125.245 179.998 125.245L217.686 109.904C217.686 109.904 221.532 105.149 231.803 130.499C242.073 155.849 247.025 153.831 247.025 153.831Z" fill="url(#paint0_linear)"/>
<path d="M208.848 118.44L218.318 114.595C218.514 114.517 218.609 114.297 218.532 114.1L218.406 113.804C218.329 113.608 218.11 113.512 217.913 113.59L208.443 117.435C208.247 117.513 208.152 117.733 208.229 117.93L208.355 118.226C208.432 118.422 208.651 118.518 208.848 118.44Z" fill="url(#paint1_linear)"/>
<path d="M210.938 120.77L220.41 116.906C220.606 116.828 220.701 116.609 220.624 116.412L220.498 116.116C220.42 115.919 220.201 115.824 220.005 115.902L210.535 119.747C210.338 119.825 210.243 120.044 210.321 120.241L210.447 120.537C210.523 120.753 210.76 120.85 210.938 120.77Z" fill="url(#paint2_linear)"/>
<path d="M215.031 122.287L221.771 119.551C221.967 119.474 222.062 119.254 221.984 119.057L221.859 118.761C221.781 118.564 221.562 118.469 221.366 118.547L214.627 121.282C214.43 121.36 214.335 121.58 214.413 121.777L214.538 122.073C214.616 122.269 214.835 122.364 215.031 122.287Z" fill="url(#paint3_linear)"/>
<path d="M198.233 143.597L223.071 133.478C223.268 133.4 223.363 133.18 223.285 132.984L223.159 132.688C223.082 132.491 222.863 132.396 222.667 132.474L197.828 142.593C197.632 142.671 197.537 142.89 197.615 143.087L197.74 143.383C197.818 143.58 198.037 143.675 198.233 143.597Z" fill="url(#paint4_linear)"/>
<path d="M199.342 146.316L224.18 136.197C224.376 136.119 224.471 135.899 224.394 135.702L224.268 135.406C224.19 135.21 223.971 135.115 223.775 135.192L198.937 145.312C198.74 145.389 198.645 145.609 198.723 145.806L198.849 146.102C198.925 146.317 199.145 146.394 199.342 146.316Z" fill="url(#paint5_linear)"/>
<path d="M200.701 148.961L218.681 141.643C218.877 141.565 218.972 141.345 218.895 141.149L218.769 140.853C218.691 140.656 218.472 140.561 218.276 140.639L200.296 147.957C200.1 148.035 200.005 148.255 200.083 148.451L200.208 148.747C200.286 148.944 200.505 149.039 200.701 148.961Z" fill="url(#paint6_linear)"/>
<path d="M197.127 140.86L205.852 137.31C206.048 137.233 206.143 137.013 206.065 136.816L205.94 136.52C205.862 136.323 205.643 136.228 205.447 136.306L196.722 139.856C196.526 139.933 196.431 140.153 196.509 140.35L196.634 140.646C196.712 140.843 196.931 140.938 197.127 140.86Z" fill="url(#paint7_linear)"/>
<path d="M202.045 151.587L226.627 141.579C226.823 141.501 226.918 141.281 226.841 141.084L226.715 140.788C226.637 140.592 226.418 140.496 226.222 140.574L201.64 150.583C201.443 150.661 201.348 150.88 201.426 151.077L201.552 151.373C201.648 151.572 201.867 151.667 202.045 151.587Z" fill="url(#paint8_linear)"/>
<path d="M203.151 154.326L221.13 147.007C221.326 146.929 221.422 146.71 221.344 146.513L221.218 146.217C221.141 146.02 220.922 145.925 220.725 146.003L202.746 153.321C202.549 153.399 202.454 153.619 202.532 153.816L202.658 154.112C202.754 154.31 202.973 154.405 203.151 154.326Z" fill="url(#paint9_linear)"/>
<path d="M204.767 156.861L222.746 149.542C222.943 149.465 223.038 149.245 222.96 149.048L222.834 148.752C222.757 148.555 222.538 148.46 222.341 148.538L204.362 155.857C204.166 155.934 204.071 156.154 204.148 156.351L204.274 156.647C204.351 156.844 204.57 156.939 204.767 156.861Z" fill="url(#paint10_linear)"/>
<path d="M228.996 156.091C231.55 156.998 233.226 153.877 231.901 151.253C230.597 148.613 227.548 149.239 230.187 152.433C233.101 155.956 234.426 155.103 234.8 152.989C235.173 150.894 237.018 154.285 237.487 152.388" stroke="#1DBAB1" stroke-miterlimit="10" stroke-linecap="round"/>
<path d="M42.5573 23.8838L82.2213 34.8762C82.2213 34.8762 87.4413 36.3265 80.0829 62.9983C72.7246 89.6702 73.5212 86.8117 73.5212 86.8117L33.8573 75.8193C33.8573 75.8193 33.0606 78.6988 40.419 52.0059C47.7774 25.313 42.5573 23.8838 42.5573 23.8838Z" fill="url(#paint11_linear)"/>
<path d="M50.0616 75.5254L40.1666 72.772C39.936 72.709 39.7054 72.8351 39.6425 73.0663L39.5796 73.2975C39.5167 73.5287 39.6425 73.7599 39.8731 73.8229L49.7681 76.5763C49.9987 76.6393 50.2293 76.5132 50.2922 76.282L50.3551 76.0508C50.418 75.8196 50.2922 75.5884 50.0616 75.5254Z" fill="url(#paint12_linear)"/>
<path d="M50.859 72.645L40.985 69.9127C40.7544 69.8496 40.5238 69.9757 40.4609 70.2069L40.398 70.4381C40.3351 70.6693 40.4609 70.9005 40.6915 70.9636L50.5865 73.7169C50.8171 73.78 51.0477 73.6539 51.1106 73.4227L51.1735 73.1915C51.2154 72.9393 51.0896 72.7081 50.859 72.645Z" fill="url(#paint13_linear)"/>
<path d="M48.7843 68.9894L41.7613 67.0347C41.5307 66.9717 41.3001 67.0978 41.2372 67.329L41.1743 67.5602C41.1114 67.7914 41.2372 68.0226 41.4678 68.0856L48.4908 70.0403C48.7214 70.1034 48.952 69.9773 49.0149 69.7461L49.0778 69.5149C49.1407 69.2837 49.0149 69.0525 48.7843 68.9894Z" fill="url(#paint14_linear)"/>
<path d="M75.3669 62.262L49.2877 55.0318C49.0571 54.9687 48.8265 55.0949 48.7636 55.3261L48.7007 55.5573C48.6378 55.7885 48.7636 56.0196 48.9942 56.0827L75.0734 63.3129C75.3041 63.376 75.5347 63.2499 75.5975 63.0187L75.6604 62.7875C75.7233 62.5563 75.5766 62.3251 75.3669 62.262Z" fill="url(#paint15_linear)"/>
<path d="M76.1619 59.3831L50.0826 52.1529C49.852 52.0898 49.6214 52.2159 49.5585 52.4471L49.4956 52.6783C49.4327 52.9095 49.5585 53.1407 49.7891 53.2038L75.8684 60.434C76.099 60.497 76.3296 60.3709 76.3925 60.1397L76.4554 59.9085C76.5182 59.6773 76.3715 59.4461 76.1619 59.3831Z" fill="url(#paint16_linear)"/>
<path d="M76.6866 56.4411L57.819 51.2076C57.5883 51.1445 57.3577 51.2706 57.2949 51.5018L57.232 51.733C57.1691 51.9642 57.2949 52.1954 57.5255 52.2585L76.3931 57.492C76.6237 57.555 76.8543 57.4289 76.9172 57.1977L76.9801 56.9665C77.043 56.7353 76.9172 56.5041 76.6866 56.4411Z" fill="url(#paint17_linear)"/>
<path d="M74.5697 65.1428L65.4713 62.6207C65.2407 62.5576 65.0101 62.6837 64.9472 62.9149L64.8843 63.1461C64.8214 63.3773 64.9472 63.6085 65.1778 63.6716L74.2762 66.1937C74.5068 66.2568 74.7374 66.1307 74.8003 65.8995L74.8632 65.6683C74.9261 65.4371 74.8003 65.2059 74.5697 65.1428Z" fill="url(#paint18_linear)"/>
<path d="M77.2316 53.4987L51.4039 46.3316C51.1733 46.2686 50.9427 46.3947 50.8798 46.6259L50.8169 46.8571C50.754 47.0883 50.8798 47.3195 51.1104 47.3825L76.9171 54.5496C77.1477 54.6127 77.3783 54.4866 77.4412 54.2554L77.5041 54.0242C77.567 53.793 77.4412 53.5618 77.2316 53.4987Z" fill="url(#paint19_linear)"/>
<path d="M78.0069 50.6178L59.1393 45.3843C58.9087 45.3213 58.678 45.4474 58.6152 45.6786L58.5523 45.9098C58.4894 46.141 58.6152 46.3722 58.8458 46.4352L77.7134 51.6687C77.944 51.7318 78.1746 51.6057 78.2375 51.3745L78.3004 51.1433C78.3633 50.9121 78.2375 50.6809 78.0069 50.6178Z" fill="url(#paint20_linear)"/>
<path d="M78.2793 47.5924L59.4117 42.3589C59.1811 42.2959 58.9505 42.422 58.8876 42.6532L58.8247 42.8844C58.7618 43.1156 58.8876 43.3468 59.1182 43.4099L77.9858 48.6433C78.2164 48.7064 78.4471 48.5803 78.5099 48.3491L78.5728 48.1179C78.6357 47.8867 78.5099 47.6555 78.2793 47.5924Z" fill="url(#paint21_linear)"/>
<path d="M58.4065 33.2169C56.9181 30.9049 53.6687 32.3762 53.1026 35.2977C52.5366 38.2192 55.3458 39.6064 55.199 35.4028C55.0313 30.7788 53.438 30.6317 51.8448 32.1029C50.2515 33.5532 50.8595 29.6859 49.3291 30.9259" stroke="#1DBAB1" stroke-miterlimit="10" stroke-linecap="round"/>
<path d="M23.8995 152.737L64.4064 126.626C64.4064 126.626 69.7268 123.197 52.2454 95.9438C34.7639 68.6903 41.9845 68.1973 41.9845 68.1973L1.47768 94.3077C1.47768 94.3077 -5.74291 94.8007 11.7385 122.054C29.22 149.308 23.8995 152.737 23.8995 152.737Z" fill="url(#paint22_linear)"/>
<path d="M15.7402 91.5286L5.56878 98.0954C5.36759 98.2299 5.07698 98.1626 4.94285 97.9609L4.74166 97.6471C4.60753 97.4454 4.67459 97.1541 4.87578 97.0196L15.0472 90.4528C15.2484 90.3183 15.539 90.3855 15.6731 90.5872L15.8743 90.901C16.0085 91.1251 15.9414 91.3941 15.7402 91.5286Z" fill="url(#paint23_linear)"/>
<path d="M16.5683 95.1584L6.39691 101.725C6.19572 101.86 5.9051 101.793 5.77097 101.591L5.56978 101.277C5.43565 101.075 5.50272 100.784 5.70391 100.649L15.8753 94.0827C16.0765 93.9482 16.3671 94.0154 16.5013 94.2171L16.7025 94.5309C16.8366 94.755 16.7695 95.024 16.5683 95.1584Z" fill="url(#paint24_linear)"/>
<path d="M15.2483 100.157L8.00531 104.819C7.80411 104.954 7.5135 104.886 7.37937 104.685L7.17818 104.371C7.04405 104.169 7.11112 103.878 7.31231 103.743L14.5553 99.0817C14.7564 98.9472 15.0471 99.0144 15.1812 99.2162L15.3824 99.5299C15.5165 99.7541 15.4494 100.023 15.2483 100.157Z" fill="url(#paint25_linear)"/>
<path d="M47.2604 98.387L20.5688 115.6C20.3676 115.734 20.077 115.667 19.9428 115.465L19.7417 115.151C19.6075 114.95 19.6746 114.658 19.8758 114.524L46.5674 97.3112C46.7686 97.1767 47.0592 97.2439 47.1933 97.4456L47.3945 97.7594C47.5286 97.9835 47.4616 98.2525 47.2604 98.387Z" fill="url(#paint26_linear)"/>
<path d="M49.1373 101.323L22.4457 118.535C22.2445 118.67 21.9539 118.602 21.8198 118.401L21.6186 118.087C21.4845 117.885 21.5515 117.594 21.7527 117.459L48.4443 100.247C48.6455 100.112 48.9361 100.179 49.0703 100.381L49.2715 100.695C49.4056 100.919 49.3609 101.21 49.1373 101.323Z" fill="url(#paint27_linear)"/>
<path d="M50.769 104.438L31.4322 116.899C31.231 117.033 30.9404 116.966 30.8062 116.765L30.6274 116.451C30.4933 116.249 30.5603 115.958 30.7615 115.823L50.0984 103.362C50.2996 103.227 50.5902 103.295 50.7243 103.496L50.9255 103.81C51.0373 104.034 50.9702 104.303 50.769 104.438Z" fill="url(#paint28_linear)"/>
<path d="M45.3827 95.4495L36.0161 101.501C35.8149 101.635 35.5242 101.568 35.3901 101.366L35.1889 101.053C35.0548 100.851 35.1219 100.559 35.3231 100.425L44.6897 94.3737C44.8909 94.2392 45.1815 94.3064 45.3156 94.5081L45.5168 94.8219C45.651 95.046 45.5839 95.315 45.3827 95.4495Z" fill="url(#paint29_linear)"/>
<path d="M52.3798 107.554L25.9565 124.587C25.7553 124.722 25.4647 124.655 25.3305 124.453L25.1294 124.139C24.9952 123.937 25.0623 123.646 25.2635 123.512L51.6868 106.478C51.888 106.344 52.1786 106.411 52.3127 106.613L52.5139 106.926C52.6481 107.151 52.6034 107.419 52.3798 107.554Z" fill="url(#paint30_linear)"/>
<path d="M54.2806 110.489L34.9438 122.95C34.7426 123.084 34.452 123.017 34.3178 122.815L34.1167 122.502C33.9825 122.3 34.0496 122.008 34.2508 121.874L53.5876 109.413C53.7888 109.278 54.0794 109.345 54.2136 109.547L54.4148 109.861C54.5489 110.085 54.4818 110.354 54.2806 110.489Z" fill="url(#paint31_linear)"/>
<path d="M55.6205 113.784L36.2836 126.246C36.0824 126.38 35.7918 126.313 35.6577 126.111L35.4565 125.797C35.3224 125.596 35.3894 125.304 35.5906 125.17L54.9275 112.709C55.1287 112.574 55.4193 112.641 55.5534 112.843L55.7546 113.157C55.8888 113.359 55.8217 113.65 55.6205 113.784Z" fill="url(#paint32_linear)"/>
<path d="M38.3627 136.778C37.4909 139.893 33.3553 139.378 31.701 136.307C30.0468 133.237 32.7293 130.727 34.0036 135.456C35.4343 140.678 33.6906 141.395 31.4104 140.319C29.1302 139.243 31.1422 143.367 28.9961 142.515" stroke="#1DBAB1" stroke-miterlimit="10" stroke-linecap="round"/>
<path d="M154.621 32.3684L178.377 49.3127C178.377 49.3127 181.497 51.5383 192.916 35.6033C204.336 19.6682 206.23 23.62 206.23 23.62L182.473 6.67571C182.473 6.67571 180.58 2.72385 169.16 18.6589C157.741 34.594 154.621 32.3684 154.621 32.3684Z" fill="url(#paint33_linear)"/>
<path d="M187.229 14.0771L181.258 9.82467C181.138 9.74159 181.11 9.56304 181.194 9.44243L181.325 9.25901C181.409 9.1384 181.588 9.11091 181.708 9.194L187.679 13.4465C187.8 13.5295 187.827 13.7081 187.744 13.8287L187.612 14.0121C187.516 14.1377 187.35 14.1602 187.229 14.0771Z" fill="url(#paint34_linear)"/>
<path d="M185.372 15.3554L179.401 11.103C179.28 11.0199 179.253 10.8414 179.336 10.7207L179.468 10.5373C179.551 10.4167 179.73 10.3892 179.851 10.4723L185.822 14.7248C185.943 14.8079 185.97 14.9864 185.887 15.107L185.755 15.2904C185.659 15.4161 185.493 15.4385 185.372 15.3554Z" fill="url(#paint35_linear)"/>
<path d="M182.265 15.7323L178.021 12.701C177.901 12.6179 177.873 12.4394 177.957 12.3188L178.088 12.1353C178.172 12.0147 178.351 11.9872 178.472 12.0703L182.715 15.1017C182.836 15.1848 182.863 15.3633 182.78 15.4839L182.648 15.6673C182.552 15.793 182.386 15.8154 182.265 15.7323Z" fill="url(#paint36_linear)"/>
<path d="M190.426 33.3458L174.768 22.1822C174.647 22.0991 174.62 21.9205 174.704 21.7999L174.835 21.6165C174.919 21.4959 175.097 21.4684 175.218 21.5515L190.876 32.7151C190.997 32.7982 191.024 32.9768 190.941 33.0974L190.809 33.2808C190.713 33.4064 190.547 33.4289 190.426 33.3458Z" fill="url(#paint37_linear)"/>
<path d="M189.196 35.0587L173.538 23.8951C173.417 23.812 173.39 23.6334 173.473 23.5128L173.605 23.3294C173.688 23.2088 173.867 23.1813 173.988 23.2644L189.646 34.428C189.766 34.5111 189.794 34.6896 189.71 34.8103L189.579 34.9937C189.483 35.1193 189.309 35.1594 189.196 35.0587Z" fill="url(#paint38_linear)"/>
<path d="M187.808 36.6741L176.469 28.5846C176.349 28.5015 176.321 28.323 176.405 28.2024L176.541 28.0315C176.625 27.9109 176.804 27.8834 176.924 27.9665L188.263 36.056C188.384 36.139 188.411 36.3176 188.328 36.4382L188.196 36.6216C188.095 36.7347 187.929 36.7571 187.808 36.6741Z" fill="url(#paint39_linear)"/>
<path d="M191.658 31.6312L186.157 27.7161C186.036 27.633 186.009 27.4545 186.092 27.3339L186.224 27.1505C186.307 27.0299 186.486 27.0024 186.607 27.0855L192.108 31.0005C192.228 31.0836 192.256 31.2622 192.172 31.3828L192.041 31.5662C191.945 31.6918 191.778 31.7143 191.658 31.6312Z" fill="url(#paint40_linear)"/>
<path d="M186.415 38.2769L170.918 27.2241C170.797 27.141 170.77 26.9625 170.853 26.8418L170.985 26.6584C171.068 26.5378 171.247 26.5103 171.368 26.5934L186.865 37.6462C186.986 37.7293 187.013 37.9079 186.929 38.0285L186.798 38.2119C186.702 38.3375 186.541 38.3726 186.415 38.2769Z" fill="url(#paint41_linear)"/>
<path d="M185.189 40.003L173.85 31.9136C173.73 31.8305 173.702 31.6519 173.786 31.5313L173.917 31.3479C174.001 31.2273 174.18 31.1998 174.3 31.2829L185.639 39.3724C185.76 39.4555 185.787 39.634 185.704 39.7546L185.572 39.938C185.476 40.0637 185.31 40.0861 185.189 40.003Z" fill="url(#paint42_linear)"/>
<path d="M183.635 41.4952L172.297 33.4058C172.176 33.3227 172.149 33.1441 172.232 33.0235L172.364 32.8401C172.447 32.7195 172.626 32.692 172.747 32.7751L184.085 40.8646C184.206 40.9476 184.233 41.1262 184.15 41.2468L184.018 41.4302C183.935 41.5508 183.756 41.5783 183.635 41.4952Z" fill="url(#paint43_linear)"/>
<path d="M166.837 36.9339C164.89 37.1408 164.254 34.6987 165.611 33.0808C166.968 31.4628 168.981 32.4102 166.606 34.1855C163.988 36.1593 163.194 35.3389 163.289 33.8153C163.384 32.2917 161.514 34.3466 161.513 32.9486" stroke="#1DBAB1" stroke-miterlimit="10" stroke-linecap="round"/>
<g clip-path="url(#clip0)">
<path d="M133.597 256C156.268 256 174.647 251.473 174.647 245.889C174.647 240.304 156.268 235.777 133.597 235.777C110.926 235.777 92.5479 240.304 92.5479 245.889C92.5479 251.473 110.926 256 133.597 256Z" fill="url(#paint44_radial)"/>
<g opacity="0.65">
<path d="M139.788 176.859L127.75 136.54C127.409 135.403 126.75 134.96 126.261 135.55L115.584 148.59C115.095 149.179 114.967 150.591 115.307 151.728L127.346 192.047C127.686 193.184 128.345 193.627 128.835 193.037L139.512 179.998C140.001 179.387 140.128 177.996 139.788 176.859Z" fill="white"/>
<path d="M139.788 176.859L127.75 136.54C127.409 135.403 126.75 134.96 126.261 135.55L115.584 148.59C115.095 149.179 114.967 150.591 115.307 151.728L127.346 192.047C127.686 193.184 128.345 193.627 128.835 193.037L139.512 179.998C140.001 179.387 140.128 177.996 139.788 176.859Z" fill="url(#paint45_linear)"/>
</g>
<path d="M128.94 180.272L130.408 185.201C130.514 185.538 130.705 185.664 130.854 185.496L131.216 185.074C131.365 184.906 131.407 184.485 131.301 184.127L129.833 179.197C129.727 178.86 129.535 178.734 129.387 178.902L129.025 179.324C128.876 179.513 128.834 179.935 128.94 180.272Z" fill="url(#paint46_linear)"/>
<path d="M126.728 172.878L128.196 177.807C128.302 178.144 128.493 178.271 128.642 178.102L129.004 177.681C129.153 177.512 129.195 177.091 129.089 176.733L127.621 171.804C127.515 171.467 127.324 171.34 127.175 171.509L126.813 171.93C126.664 172.099 126.622 172.52 126.728 172.878Z" fill="url(#paint47_linear)"/>
<path d="M124.516 165.463L125.984 170.392C126.09 170.729 126.281 170.856 126.43 170.687L126.792 170.266C126.941 170.097 126.983 169.676 126.877 169.318L125.409 164.389C125.303 164.052 125.112 163.925 124.963 164.094L124.601 164.515C124.452 164.705 124.41 165.126 124.516 165.463Z" fill="url(#paint48_linear)"/>
<path d="M122.304 158.069L123.772 162.998C123.878 163.335 124.07 163.461 124.218 163.293L124.58 162.871C124.729 162.703 124.771 162.282 124.665 161.923L123.197 156.994C123.091 156.657 122.9 156.531 122.751 156.699L122.389 157.121C122.24 157.289 122.198 157.71 122.304 158.069Z" fill="url(#paint49_linear)"/>
<path d="M125.218 177.512L128.28 187.792C128.387 188.129 128.578 188.255 128.727 188.087L128.897 187.876C129.046 187.708 129.089 187.286 128.982 186.928L125.941 176.649C125.834 176.311 125.643 176.185 125.494 176.354L125.324 176.564C125.154 176.754 125.132 177.175 125.218 177.512Z" fill="url(#paint50_linear)"/>
<path d="M134.343 179.007L134.768 180.44C134.811 180.545 134.875 180.587 134.917 180.545L135.002 180.44C135.236 180.145 135.3 179.45 135.13 178.881L134.938 178.27C134.896 178.165 134.832 178.122 134.79 178.165L134.343 178.712C134.322 178.754 134.3 178.902 134.343 179.007Z" fill="url(#paint51_linear)"/>
<path d="M133.024 177.806L133.45 179.239C133.492 179.344 133.556 179.386 133.598 179.344L134.747 177.954C134.79 177.891 134.811 177.764 134.768 177.638L134.343 176.205C134.3 176.1 134.237 176.058 134.194 176.1L133.045 177.49C133.003 177.554 132.982 177.701 133.024 177.806Z" fill="url(#paint52_linear)"/>
<path d="M133.109 174.9L133.535 176.332C133.577 176.438 133.641 176.48 133.683 176.438L134.13 175.89C134.173 175.827 134.194 175.7 134.151 175.574L133.96 174.963C133.79 174.394 133.449 174.184 133.215 174.479L133.13 174.584C133.088 174.647 133.067 174.774 133.109 174.9Z" fill="url(#paint53_linear)"/>
<path d="M133.64 179.871L134.066 181.303C134.108 181.409 134.172 181.451 134.215 181.409L134.661 180.861C134.704 180.798 134.725 180.672 134.683 180.545L134.257 179.113C134.215 179.007 134.151 178.965 134.108 179.007L133.662 179.555C133.619 179.618 133.598 179.766 133.64 179.871Z" fill="url(#paint54_linear)"/>
<path d="M132.939 180.735L133.13 181.346C133.3 181.915 133.641 182.126 133.875 181.831L133.96 181.725C134.002 181.662 134.024 181.536 133.981 181.409L133.556 179.977C133.513 179.872 133.449 179.829 133.407 179.872L132.96 180.419C132.896 180.482 132.896 180.63 132.939 180.735Z" fill="url(#paint55_linear)"/>
<path d="M132.322 178.671L132.747 180.103C132.79 180.209 132.854 180.251 132.896 180.209L133.343 179.661C133.385 179.598 133.407 179.471 133.364 179.345L132.939 177.912C132.896 177.807 132.832 177.765 132.79 177.807L132.343 178.355C132.301 178.418 132.279 178.566 132.322 178.671Z" fill="url(#paint56_linear)"/>
<path d="M131.939 177.448L132.13 178.059C132.173 178.164 132.236 178.207 132.279 178.164L133.428 176.774C133.47 176.711 133.491 176.585 133.449 176.458L133.023 175.026C132.981 174.92 132.917 174.878 132.875 174.92L132.088 175.889C131.832 176.163 131.769 176.879 131.939 177.448Z" fill="url(#paint57_linear)"/>
<path d="M118.39 153.013C118.773 152.529 119.326 152.887 119.581 153.793C119.858 154.699 119.752 155.815 119.369 156.3C118.986 156.784 118.433 156.426 118.178 155.52C117.901 154.614 118.008 153.498 118.39 153.013Z" fill="url(#paint58_linear)"/>
<path d="M117.668 150.549C118.051 150.064 118.604 150.422 118.859 151.328C119.135 152.234 119.029 153.35 118.646 153.835C118.263 154.319 117.71 153.961 117.455 153.055C117.178 152.15 117.264 151.012 117.668 150.549Z" fill="url(#paint59_linear)"/>
<g opacity="0.65">
<path d="M151.932 208.078L129.514 244.836C128.876 245.868 127.579 246.269 126.579 245.742L104.863 233.903C103.863 233.356 103.587 232.092 104.204 231.06L126.621 194.28C127.26 193.248 128.557 192.848 129.557 193.374L151.294 205.213C152.272 205.76 152.57 207.024 151.932 208.078Z" fill="white"/>
<path d="M151.932 208.078L129.514 244.836C128.876 245.868 127.579 246.269 126.579 245.742L104.863 233.903C103.863 233.356 103.587 232.092 104.204 231.06L126.621 194.28C127.26 193.248 128.557 192.848 129.557 193.374L151.294 205.213C152.272 205.76 152.57 207.024 151.932 208.078Z" fill="url(#paint60_linear)"/>
</g>
<path d="M125.898 234.114L123.154 238.622C122.963 238.938 122.58 239.043 122.282 238.895L121.559 238.495C121.261 238.327 121.176 237.948 121.368 237.632L124.112 233.124C124.303 232.808 124.686 232.702 124.984 232.85L125.707 233.25C125.983 233.419 126.068 233.798 125.898 234.114Z" fill="url(#paint61_linear)"/>
<path d="M130.004 227.352L127.26 231.86C127.068 232.176 126.686 232.281 126.388 232.134L125.665 231.733C125.367 231.565 125.282 231.186 125.473 230.87L128.217 226.362C128.408 226.046 128.791 225.941 129.089 226.088L129.812 226.488C130.11 226.657 130.195 227.036 130.004 227.352Z" fill="url(#paint62_linear)"/>
<path d="M134.108 220.611L131.364 225.119C131.173 225.435 130.79 225.54 130.492 225.393L129.769 224.992C129.471 224.824 129.386 224.445 129.578 224.129L132.322 219.621C132.513 219.305 132.896 219.199 133.194 219.347L133.917 219.747C134.214 219.916 134.3 220.295 134.108 220.611Z" fill="url(#paint63_linear)"/>
<path d="M138.235 213.849L135.491 218.357C135.3 218.673 134.917 218.778 134.619 218.631L133.896 218.231C133.598 218.062 133.513 217.683 133.705 217.367L136.448 212.859C136.64 212.543 137.023 212.438 137.321 212.585L138.044 212.985C138.341 213.154 138.427 213.533 138.235 213.849Z" fill="url(#paint64_linear)"/>
<path d="M133.173 231.565L127.451 240.939C127.26 241.255 126.877 241.36 126.579 241.213L126.217 241.023C125.92 240.855 125.835 240.476 126.026 240.16L131.747 230.786C131.939 230.47 132.322 230.364 132.619 230.512L132.981 230.701C133.258 230.87 133.364 231.27 133.173 231.565Z" fill="url(#paint65_linear)"/>
<path d="M115.114 232.977L114.306 234.283C114.242 234.388 114.115 234.43 114.008 234.367L113.838 234.262C113.349 233.988 113.2 233.356 113.519 232.829L113.859 232.26C113.923 232.155 114.051 232.113 114.157 232.176L115.051 232.661C115.136 232.745 115.178 232.871 115.114 232.977Z" fill="url(#paint66_linear)"/>
<path d="M117.689 231.881L116.881 233.187C116.817 233.293 116.689 233.335 116.583 233.272L114.243 232.008C114.137 231.945 114.116 231.818 114.179 231.713L114.988 230.407C115.051 230.302 115.179 230.259 115.285 230.323L117.625 231.587C117.71 231.65 117.753 231.776 117.689 231.881Z" fill="url(#paint67_linear)"/>
<path d="M117.391 229.227L116.583 230.533C116.519 230.639 116.391 230.681 116.285 230.617L115.392 230.133C115.285 230.07 115.264 229.943 115.328 229.838L115.668 229.269C115.987 228.743 116.647 228.553 117.136 228.827L117.306 228.932C117.434 228.996 117.455 229.122 117.391 229.227Z" fill="url(#paint68_linear)"/>
<path d="M116.539 233.756L115.731 235.062C115.667 235.168 115.54 235.21 115.433 235.147L114.54 234.662C114.434 234.599 114.413 234.473 114.476 234.367L115.285 233.061C115.348 232.956 115.476 232.914 115.582 232.977L116.476 233.461C116.582 233.525 116.603 233.651 116.539 233.756Z" fill="url(#paint69_linear)"/>
<path d="M117.986 234.536L117.646 235.104C117.327 235.631 116.667 235.821 116.178 235.547L116.008 235.441C115.902 235.378 115.88 235.252 115.944 235.147L116.752 233.841C116.816 233.735 116.944 233.693 117.05 233.756L117.943 234.241C118.007 234.304 118.05 234.451 117.986 234.536Z" fill="url(#paint70_linear)"/>
<path d="M119.114 232.661L118.305 233.967C118.242 234.072 118.114 234.114 118.008 234.051L117.114 233.566C117.008 233.503 116.987 233.377 117.051 233.272L117.859 231.966C117.923 231.86 118.05 231.818 118.157 231.881L119.05 232.366C119.156 232.429 119.177 232.555 119.114 232.661Z" fill="url(#paint71_linear)"/>
<path d="M119.816 231.545L119.475 232.113C119.412 232.219 119.284 232.261 119.178 232.198L116.838 230.934C116.732 230.87 116.71 230.744 116.774 230.639L117.582 229.333C117.646 229.227 117.774 229.185 117.88 229.248L119.497 230.133C119.986 230.386 120.113 231.018 119.816 231.545Z" fill="url(#paint72_linear)"/>
<path d="M145.827 209.236C145.04 208.815 143.977 209.131 143.488 209.952C142.977 210.774 143.211 211.806 143.998 212.227C144.785 212.649 145.848 212.333 146.338 211.511C146.848 210.69 146.614 209.679 145.827 209.236Z" fill="url(#paint73_linear)"/>
<path d="M147.189 206.982C146.402 206.561 145.338 206.877 144.849 207.698C144.36 208.52 144.573 209.552 145.36 209.974C146.147 210.395 147.21 210.079 147.699 209.257C148.189 208.436 147.976 207.425 147.189 206.982Z" fill="url(#paint74_linear)"/>
<g opacity="0.65">
<path d="M128.237 134.687L150.953 102.036C151.591 101.109 151.314 99.7818 150.336 99.0656L128.727 83.2879C127.748 82.5717 126.43 82.7402 125.791 83.646L103.076 116.297C102.438 117.224 102.714 118.551 103.693 119.267L125.302 135.045C126.281 135.782 127.599 135.613 128.237 134.687Z" fill="white"/>
<path d="M128.237 134.687L150.953 102.036C151.591 101.109 151.314 99.7818 150.336 99.0656L128.727 83.2879C127.748 82.5717 126.43 82.7402 125.791 83.646L103.076 116.297C102.438 117.224 102.714 118.551 103.693 119.267L125.302 135.045C126.281 135.782 127.599 135.613 128.237 134.687Z" fill="url(#paint75_linear)"/>
</g>
<path d="M139.298 102.331L142.084 98.3288C142.275 98.0549 142.19 97.6547 141.893 97.444L141.169 96.9174C140.872 96.7068 140.489 96.7489 140.276 97.0227L137.49 101.025C137.298 101.299 137.384 101.699 137.681 101.91L138.404 102.436C138.702 102.647 139.106 102.605 139.298 102.331Z" fill="url(#paint76_linear)"/>
<path d="M135.129 108.334L137.915 104.332C138.107 104.058 138.021 103.658 137.724 103.447L137.001 102.92C136.703 102.71 136.32 102.752 136.107 103.026L133.321 107.028C133.13 107.302 133.215 107.702 133.512 107.913L134.236 108.439C134.533 108.65 134.937 108.608 135.129 108.334Z" fill="url(#paint77_linear)"/>
<path d="M130.96 114.316L133.746 110.314C133.938 110.04 133.853 109.64 133.555 109.429L132.832 108.903C132.534 108.692 132.151 108.734 131.938 109.008L129.152 113.01C128.961 113.284 129.046 113.685 129.343 113.895L130.067 114.422C130.364 114.654 130.768 114.59 130.96 114.316Z" fill="url(#paint78_linear)"/>
<path d="M126.791 120.32L129.577 116.318C129.769 116.044 129.684 115.644 129.386 115.433L128.663 114.907C128.365 114.696 127.982 114.738 127.769 115.012L124.983 119.014C124.792 119.288 124.877 119.688 125.174 119.899L125.898 120.426C126.195 120.636 126.6 120.594 126.791 120.32Z" fill="url(#paint79_linear)"/>
<path d="M140.574 109.787L146.359 101.446C146.551 101.172 146.465 100.771 146.168 100.561L145.806 100.308C145.508 100.097 145.126 100.14 144.913 100.413L139.128 108.734C138.936 109.008 139.021 109.408 139.319 109.619L139.681 109.872C139.978 110.103 140.382 110.061 140.574 109.787Z" fill="url(#paint80_linear)"/>
<path d="M132.938 92.915L133.747 91.7564C133.81 91.6721 133.789 91.5247 133.683 91.4615L133.513 91.3351C133.024 90.977 132.364 91.0612 132.045 91.5247L131.705 92.0302C131.641 92.1145 131.662 92.2619 131.769 92.3251L132.662 92.9782C132.747 93.0203 132.875 92.9992 132.938 92.915Z" fill="url(#paint81_linear)"/>
<path d="M133.215 95.6105L134.023 94.452C134.087 94.3677 134.066 94.2202 133.959 94.157L131.641 92.4718C131.535 92.4086 131.407 92.4086 131.343 92.514L130.535 93.6725C130.471 93.7568 130.492 93.9043 130.599 93.9675L132.917 95.6527C133.023 95.7159 133.151 95.7159 133.215 95.6105Z" fill="url(#paint82_linear)"/>
<path d="M130.62 96.2424L131.428 95.0838C131.492 94.9996 131.47 94.8521 131.364 94.7889L130.471 94.1359C130.364 94.0727 130.237 94.0727 130.173 94.178L129.833 94.6836C129.514 95.147 129.662 95.8 130.152 96.1581L130.322 96.2845C130.428 96.3477 130.556 96.3267 130.62 96.2424Z" fill="url(#paint83_linear)"/>
<path d="M134.363 93.9465L135.171 92.7879C135.235 92.7037 135.214 92.5562 135.107 92.493L134.214 91.84C134.108 91.7768 133.98 91.7768 133.916 91.8821L133.108 93.0407C133.044 93.125 133.066 93.2724 133.172 93.3356L134.065 93.9886C134.172 94.0518 134.299 94.0518 134.363 93.9465Z" fill="url(#paint84_linear)"/>
<path d="M135.788 95.0002L136.128 94.4947C136.447 94.0312 136.298 93.3782 135.809 93.0201L135.639 92.8937C135.533 92.8305 135.405 92.8305 135.341 92.9358L134.533 94.0944C134.469 94.1787 134.49 94.3261 134.597 94.3893L135.49 95.0423C135.596 95.1055 135.724 95.0845 135.788 95.0002Z" fill="url(#paint85_linear)"/>
<path d="M134.639 96.6643L135.448 95.5057C135.511 95.4214 135.49 95.274 135.384 95.2108L134.491 94.5578C134.384 94.4946 134.257 94.4946 134.193 94.5999L133.385 95.7585C133.321 95.8427 133.342 95.9902 133.448 96.0534L134.342 96.7064C134.448 96.7696 134.576 96.7485 134.639 96.6643Z" fill="url(#paint86_linear)"/>
<path d="M133.938 97.6538L134.278 97.1482C134.342 97.064 134.32 96.9165 134.214 96.8533L131.896 95.1681C131.789 95.1049 131.662 95.1049 131.598 95.2103L130.79 96.3688C130.726 96.4531 130.747 96.6005 130.854 96.6637L132.449 97.8434C132.959 98.2015 133.619 98.1172 133.938 97.6538Z" fill="url(#paint87_linear)"/>
<path d="M126.281 128.746C125.494 128.177 125.26 127.103 125.791 126.366C126.302 125.628 127.365 125.502 128.152 126.071C128.939 126.64 129.173 127.714 128.642 128.451C128.11 129.188 127.089 129.336 126.281 128.746Z" fill="url(#paint88_linear)"/>
<path d="M124.898 130.747C124.111 130.178 123.877 129.104 124.409 128.367C124.94 127.629 125.983 127.503 126.77 128.072C127.556 128.641 127.79 129.715 127.259 130.452C126.748 131.189 125.685 131.337 124.898 130.747Z" fill="url(#paint89_linear)"/>
</g>
<defs>
<linearGradient id="paint0_linear" x1="210.62" y1="167.508" x2="210.705" y2="111.019" gradientUnits="userSpaceOnUse">
<stop stop-color="#DCDCDC"/>
<stop offset="1" stop-color="white"/>
</linearGradient>
<linearGradient id="paint1_linear" x1="211.782" y1="119.802" x2="214.987" y2="112.233" gradientUnits="userSpaceOnUse">
<stop stop-color="#4C7878"/>
<stop offset="1" stop-color="#808080"/>
</linearGradient>
<linearGradient id="paint2_linear" x1="213.88" y1="122.132" x2="217.086" y2="114.564" gradientUnits="userSpaceOnUse">
<stop stop-color="#4C7878"/>
<stop offset="1" stop-color="#808080"/>
</linearGradient>
<linearGradient id="paint3_linear" x1="217.004" y1="123.248" x2="219.395" y2="117.601" gradientUnits="userSpaceOnUse">
<stop stop-color="#4C7878"/>
<stop offset="1" stop-color="#808080"/>
</linearGradient>
<linearGradient id="paint4_linear" x1="206.573" y1="147.248" x2="214.363" y2="128.855" gradientUnits="userSpaceOnUse">
<stop stop-color="#4C7878"/>
<stop offset="1" stop-color="#808080"/>
</linearGradient>
<linearGradient id="paint5_linear" x1="207.68" y1="149.982" x2="215.47" y2="131.588" gradientUnits="userSpaceOnUse">
<stop stop-color="#4C7878"/>
<stop offset="1" stop-color="#808080"/>
</linearGradient>
<linearGradient id="paint6_linear" x1="206.626" y1="151.595" x2="212.372" y2="138.026" gradientUnits="userSpaceOnUse">
<stop stop-color="#4C7878"/>
<stop offset="1" stop-color="#808080"/>
</linearGradient>
<linearGradient id="paint7_linear" x1="199.804" y1="142.117" x2="202.787" y2="135.073" gradientUnits="userSpaceOnUse">
<stop stop-color="#4C7878"/>
<stop offset="1" stop-color="#808080"/>
</linearGradient>
<linearGradient id="paint8_linear" x1="210.3" y1="155.21" x2="218.016" y2="136.991" gradientUnits="userSpaceOnUse">
<stop stop-color="#4C7878"/>
<stop offset="1" stop-color="#808080"/>
</linearGradient>
<linearGradient id="paint9_linear" x1="209.086" y1="156.962" x2="214.833" y2="143.393" gradientUnits="userSpaceOnUse">
<stop stop-color="#4C7878"/>
<stop offset="1" stop-color="#808080"/>
</linearGradient>
<linearGradient id="paint10_linear" x1="210.688" y1="159.494" x2="216.435" y2="145.925" gradientUnits="userSpaceOnUse">
<stop stop-color="#4C7878"/>
<stop offset="1" stop-color="#808080"/>
</linearGradient>
<linearGradient id="paint11_linear" x1="62.4215" y1="82.9273" x2="65.6445" y2="31.1419" gradientUnits="userSpaceOnUse">
<stop stop-color="#DCDCDC"/>
<stop offset="1" stop-color="white"/>
</linearGradient>
<linearGradient id="paint12_linear" x1="48.5776" y1="72.643" x2="41.3755" y2="76.7136" gradientUnits="userSpaceOnUse">
<stop stop-color="#4C7878"/>
<stop offset="1" stop-color="#808080"/>
</linearGradient>
<linearGradient id="paint13_linear" x1="49.3724" y1="69.7643" x2="42.1703" y2="73.8349" gradientUnits="userSpaceOnUse">
<stop stop-color="#4C7878"/>
<stop offset="1" stop-color="#808080"/>
</linearGradient>
<linearGradient id="paint14_linear" x1="47.8158" y1="67.0104" x2="42.4482" y2="70.0441" gradientUnits="userSpaceOnUse">
<stop stop-color="#4C7878"/>
<stop offset="1" stop-color="#808080"/>
</linearGradient>
<linearGradient id="paint15_linear" x1="70.9433" y1="54.2011" x2="53.4014" y2="64.1156" gradientUnits="userSpaceOnUse">
<stop stop-color="#4C7878"/>
<stop offset="1" stop-color="#808080"/>
</linearGradient>
<linearGradient id="paint16_linear" x1="71.7355" y1="51.3239" x2="54.1937" y2="61.2384" gradientUnits="userSpaceOnUse">
<stop stop-color="#4C7878"/>
<stop offset="1" stop-color="#808080"/>
</linearGradient>
<linearGradient id="paint17_linear" x1="73.5733" y1="50.6815" x2="60.64" y2="57.9913" gradientUnits="userSpaceOnUse">
<stop stop-color="#4C7878"/>
<stop offset="1" stop-color="#808080"/>
</linearGradient>
<linearGradient id="paint18_linear" x1="73.2165" y1="62.5074" x2="66.5148" y2="66.2952" gradientUnits="userSpaceOnUse">
<stop stop-color="#4C7878"/>
<stop offset="1" stop-color="#808080"/>
</linearGradient>
<linearGradient id="paint19_linear" x1="72.8494" y1="45.5078" x2="55.4743" y2="55.3281" gradientUnits="userSpaceOnUse">
<stop stop-color="#4C7878"/>
<stop offset="1" stop-color="#808080"/>
</linearGradient>
<linearGradient id="paint20_linear" x1="74.8999" y1="44.8524" x2="61.9666" y2="52.1622" gradientUnits="userSpaceOnUse">
<stop stop-color="#4C7878"/>
<stop offset="1" stop-color="#808080"/>
</linearGradient>
<linearGradient id="paint21_linear" x1="75.172" y1="41.831" x2="62.2386" y2="49.1407" gradientUnits="userSpaceOnUse">
<stop stop-color="#4C7878"/>
<stop offset="1" stop-color="#808080"/>
</linearGradient>
<linearGradient id="paint22_linear" x1="32.4307" y1="151.065" x2="34.572" y2="71.9282" gradientUnits="userSpaceOnUse">
<stop stop-color="#DCDCDC"/>
<stop offset="1" stop-color="white"/>
</linearGradient>
<linearGradient id="paint23_linear" x1="15.0535" y1="95.3133" x2="5.56237" y2="93.2583" gradientUnits="userSpaceOnUse">
<stop stop-color="#4C7878"/>
<stop offset="1" stop-color="#808080"/>
</linearGradient>
<linearGradient id="paint24_linear" x1="15.8741" y1="98.938" x2="6.38294" y2="96.8829" gradientUnits="userSpaceOnUse">
<stop stop-color="#4C7878"/>
<stop offset="1" stop-color="#808080"/>
</linearGradient>
<linearGradient id="paint25_linear" x1="14.8225" y1="102.732" x2="7.73989" y2="101.199" gradientUnits="userSpaceOnUse">
<stop stop-color="#4C7878"/>
<stop offset="1" stop-color="#808080"/>
</linearGradient>
<linearGradient id="paint26_linear" x1="45.1032" y1="108.978" x2="22.0366" y2="103.983" gradientUnits="userSpaceOnUse">
<stop stop-color="#4C7878"/>
<stop offset="1" stop-color="#808080"/>
</linearGradient>
<linearGradient id="paint27_linear" x1="46.9876" y1="111.915" x2="23.921" y2="106.921" gradientUnits="userSpaceOnUse">
<stop stop-color="#4C7878"/>
<stop offset="1" stop-color="#808080"/>
</linearGradient>
<linearGradient id="paint28_linear" x1="49.2629" y1="111.993" x2="32.247" y2="108.309" gradientUnits="userSpaceOnUse">
<stop stop-color="#4C7878"/>
<stop offset="1" stop-color="#808080"/>
</linearGradient>
<linearGradient id="paint29_linear" x1="44.763" y1="98.905" x2="35.9287" y2="96.9922" gradientUnits="userSpaceOnUse">
<stop stop-color="#4C7878"/>
<stop offset="1" stop-color="#808080"/>
</linearGradient>
<linearGradient id="paint30_linear" x1="50.2501" y1="118.027" x2="27.4025" y2="113.08" gradientUnits="userSpaceOnUse">
<stop stop-color="#4C7878"/>
<stop offset="1" stop-color="#808080"/>
</linearGradient>
<linearGradient id="paint31_linear" x1="52.7689" y1="118.041" x2="35.753" y2="114.357" gradientUnits="userSpaceOnUse">
<stop stop-color="#4C7878"/>
<stop offset="1" stop-color="#808080"/>
</linearGradient>
<linearGradient id="paint32_linear" x1="54.12" y1="121.324" x2="37.1041" y2="117.64" gradientUnits="userSpaceOnUse">
<stop stop-color="#4C7878"/>
<stop offset="1" stop-color="#808080"/>
</linearGradient>
<linearGradient id="paint33_linear" x1="180.305" y1="48.6666" x2="182.633" y2="8.28947" gradientUnits="userSpaceOnUse">
<stop stop-color="#DCDCDC"/>
<stop offset="1" stop-color="white"/>
</linearGradient>
<linearGradient id="paint34_linear" x1="184.946" y1="14.538" x2="183.978" y2="8.73836" gradientUnits="userSpaceOnUse">
<stop stop-color="#4C7878"/>
<stop offset="1" stop-color="#808080"/>
</linearGradient>
<linearGradient id="paint35_linear" x1="183.09" y1="15.8108" x2="182.122" y2="10.0113" gradientUnits="userSpaceOnUse">
<stop stop-color="#4C7878"/>
<stop offset="1" stop-color="#808080"/>
</linearGradient>
<linearGradient id="paint36_linear" x1="180.721" y1="16.0691" x2="179.999" y2="11.7413" gradientUnits="userSpaceOnUse">
<stop stop-color="#4C7878"/>
<stop offset="1" stop-color="#808080"/>
</linearGradient>
<linearGradient id="paint37_linear" x1="183.985" y1="34.5027" x2="181.632" y2="20.4078" gradientUnits="userSpaceOnUse">
<stop stop-color="#4C7878"/>
<stop offset="1" stop-color="#808080"/>
</linearGradient>
<linearGradient id="paint38_linear" x1="182.755" y1="36.2203" x2="180.402" y2="22.1254" gradientUnits="userSpaceOnUse">
<stop stop-color="#4C7878"/>
<stop offset="1" stop-color="#808080"/>
</linearGradient>
<linearGradient id="paint39_linear" x1="183.22" y1="37.5178" x2="181.484" y2="27.1203" gradientUnits="userSpaceOnUse">
<stop stop-color="#4C7878"/>
<stop offset="1" stop-color="#808080"/>
</linearGradient>
<linearGradient id="paint40_linear" x1="189.575" y1="32.056" x2="188.674" y2="26.6578" gradientUnits="userSpaceOnUse">
<stop stop-color="#4C7878"/>
<stop offset="1" stop-color="#808080"/>
</linearGradient>
<linearGradient id="paint41_linear" x1="180.046" y1="39.4229" x2="177.715" y2="25.4618" gradientUnits="userSpaceOnUse">
<stop stop-color="#4C7878"/>
<stop offset="1" stop-color="#808080"/>
</linearGradient>
<linearGradient id="paint42_linear" x1="180.602" y1="40.843" x2="178.866" y2="30.4454" gradientUnits="userSpaceOnUse">
<stop stop-color="#4C7878"/>
<stop offset="1" stop-color="#808080"/>
</linearGradient>
<linearGradient id="paint43_linear" x1="179.058" y1="42.3387" x2="177.322" y2="31.9411" gradientUnits="userSpaceOnUse">
<stop stop-color="#4C7878"/>
<stop offset="1" stop-color="#808080"/>
</linearGradient>
<radialGradient id="paint44_radial" cx="0" cy="0" r="1" gradientUnits="userSpaceOnUse" gradientTransform="translate(133.596 245.878) scale(39.9471 9.82184)">
<stop stop-color="#50BAB1" stop-opacity="0.3"/>
<stop offset="1" stop-color="#50BAB1" stop-opacity="0"/>
</radialGradient>
<linearGradient id="paint45_linear" x1="115.028" y1="159.508" x2="136.258" y2="153.605" gradientUnits="userSpaceOnUse">
<stop stop-color="#1DBAB1"/>
<stop offset="1" stop-color="#3FD298"/>
</linearGradient>
<linearGradient id="paint46_linear" x1="129.299" y1="185.211" x2="130.902" y2="179.186" gradientUnits="userSpaceOnUse">
<stop stop-color="#1DBAB1"/>
<stop offset="1" stop-color="#2FD1C9"/>
</linearGradient>
<linearGradient id="paint47_linear" x1="127.088" y1="177.806" x2="128.691" y2="171.782" gradientUnits="userSpaceOnUse">
<stop stop-color="#1DBAB1"/>
<stop offset="1" stop-color="#2FD1C9"/>
</linearGradient>
<linearGradient id="paint48_linear" x1="124.877" y1="170.402" x2="126.48" y2="164.377" gradientUnits="userSpaceOnUse">
<stop stop-color="#1DBAB1"/>
<stop offset="1" stop-color="#2FD1C9"/>
</linearGradient>
<linearGradient id="paint49_linear" x1="122.666" y1="162.996" x2="124.269" y2="156.972" gradientUnits="userSpaceOnUse">
<stop stop-color="#1DBAB1"/>
<stop offset="1" stop-color="#2FD1C9"/>
</linearGradient>
<linearGradient id="paint50_linear" x1="125.706" y1="187.403" x2="128.468" y2="177.026" gradientUnits="userSpaceOnUse">
<stop stop-color="#1DBAB1"/>
<stop offset="1" stop-color="#2FD1C9"/>
</linearGradient>
<linearGradient id="paint51_linear" x1="134.55" y1="180.163" x2="135.021" y2="178.393" gradientUnits="userSpaceOnUse">
<stop stop-color="#FFC757"/>
<stop offset="1" stop-color="#FFE678"/>
</linearGradient>
<linearGradient id="paint52_linear" x1="133.451" y1="179.355" x2="134.319" y2="176.095" gradientUnits="userSpaceOnUse">
<stop stop-color="#FFC757"/>
<stop offset="1" stop-color="#FFE678"/>
</linearGradient>
<linearGradient id="paint53_linear" x1="133.322" y1="176.378" x2="133.839" y2="174.435" gradientUnits="userSpaceOnUse">
<stop stop-color="#FFC757"/>
<stop offset="1" stop-color="#FFE678"/>
</linearGradient>
<linearGradient id="paint54_linear" x1="133.845" y1="181.354" x2="134.452" y2="179.073" gradientUnits="userSpaceOnUse">
<stop stop-color="#FFC757"/>
<stop offset="1" stop-color="#FFE678"/>
</linearGradient>
<linearGradient id="paint55_linear" x1="133.231" y1="181.879" x2="133.748" y2="179.936" gradientUnits="userSpaceOnUse">
<stop stop-color="#FFC757"/>
<stop offset="1" stop-color="#FFE678"/>
</linearGradient>
<linearGradient id="paint56_linear" x1="132.526" y1="180.159" x2="133.133" y2="177.878" gradientUnits="userSpaceOnUse">
<stop stop-color="#FFC757"/>
<stop offset="1" stop-color="#FFE678"/>
</linearGradient>
<linearGradient id="paint57_linear" x1="132.215" y1="178.182" x2="133.082" y2="174.922" gradientUnits="userSpaceOnUse">
<stop stop-color="#FFC757"/>
<stop offset="1" stop-color="#FFE678"/>
</linearGradient>
<linearGradient id="paint58_linear" x1="118.711" y1="156.125" x2="119.049" y2="153.172" gradientUnits="userSpaceOnUse">
<stop stop-color="#FFC757"/>
<stop offset="1" stop-color="#FFE678"/>
</linearGradient>
<linearGradient id="paint59_linear" x1="117.975" y1="153.656" x2="118.312" y2="150.703" gradientUnits="userSpaceOnUse">
<stop stop-color="#FFC757"/>
<stop offset="1" stop-color="#FFE678"/>
</linearGradient>
<linearGradient id="paint60_linear" x1="126.112" y1="241.6" x2="122.272" y2="196.367" gradientUnits="userSpaceOnUse">
<stop stop-color="#1DBAB1"/>
<stop offset="1" stop-color="#3FD298"/>
</linearGradient>
<linearGradient id="paint61_linear" x1="124.197" y1="238.359" x2="122.353" y2="233.664" gradientUnits="userSpaceOnUse">
<stop stop-color="#1DBAB1"/>
<stop offset="1" stop-color="#2FD1C9"/>
</linearGradient>
<linearGradient id="paint62_linear" x1="128.312" y1="231.608" x2="126.468" y2="226.913" gradientUnits="userSpaceOnUse">
<stop stop-color="#1DBAB1"/>
<stop offset="1" stop-color="#2FD1C9"/>
</linearGradient>
<linearGradient id="paint63_linear" x1="132.426" y1="224.856" x2="130.583" y2="220.161" gradientUnits="userSpaceOnUse">
<stop stop-color="#1DBAB1"/>
<stop offset="1" stop-color="#2FD1C9"/>
</linearGradient>
<linearGradient id="paint64_linear" x1="136.542" y1="218.105" x2="134.698" y2="213.41" gradientUnits="userSpaceOnUse">
<stop stop-color="#1DBAB1"/>
<stop offset="1" stop-color="#2FD1C9"/>
</linearGradient>
<linearGradient id="paint65_linear" x1="130.527" y1="239.909" x2="127.536" y2="232.291" gradientUnits="userSpaceOnUse">
<stop stop-color="#1DBAB1"/>
<stop offset="1" stop-color="#2FD1C9"/>
</linearGradient>
<linearGradient id="paint66_linear" x1="114.425" y1="234.002" x2="113.822" y2="232.468" gradientUnits="userSpaceOnUse">
<stop stop-color="#FFC757"/>
<stop offset="1" stop-color="#FFE678"/>
</linearGradient>
<linearGradient id="paint67_linear" x1="116.326" y1="233.481" x2="115.093" y2="230.34" gradientUnits="userSpaceOnUse">
<stop stop-color="#FFC757"/>
<stop offset="1" stop-color="#FFE678"/>
</linearGradient>
<linearGradient id="paint68_linear" x1="116.608" y1="230.598" x2="115.955" y2="228.936" gradientUnits="userSpaceOnUse">
<stop stop-color="#FFC757"/>
<stop offset="1" stop-color="#FFE678"/>
</linearGradient>
<linearGradient id="paint69_linear" x1="115.756" y1="235.131" x2="114.98" y2="233.155" gradientUnits="userSpaceOnUse">
<stop stop-color="#FFC757"/>
<stop offset="1" stop-color="#FFE678"/>
</linearGradient>
<linearGradient id="paint70_linear" x1="117.114" y1="235.581" x2="116.461" y2="233.919" gradientUnits="userSpaceOnUse">
<stop stop-color="#FFC757"/>
<stop offset="1" stop-color="#FFE678"/>
</linearGradient>
<linearGradient id="paint71_linear" x1="118.335" y1="234.036" x2="117.559" y2="232.061" gradientUnits="userSpaceOnUse">
<stop stop-color="#FFC757"/>
<stop offset="1" stop-color="#FFE678"/>
</linearGradient>
<linearGradient id="paint72_linear" x1="118.735" y1="232.453" x2="117.502" y2="229.312" gradientUnits="userSpaceOnUse">
<stop stop-color="#FFC757"/>
<stop offset="1" stop-color="#FFE678"/>
</linearGradient>
<linearGradient id="paint73_linear" x1="145.001" y1="212.051" x2="144.583" y2="209.381" gradientUnits="userSpaceOnUse">
<stop stop-color="#FFC757"/>
<stop offset="1" stop-color="#FFE678"/>
</linearGradient>
<linearGradient id="paint74_linear" x1="146.373" y1="209.8" x2="145.955" y2="207.131" gradientUnits="userSpaceOnUse">
<stop stop-color="#FFC757"/>
<stop offset="1" stop-color="#FFE678"/>
</linearGradient>
<linearGradient id="paint75_linear" x1="137.541" y1="127.182" x2="119.684" y2="88.5915" gradientUnits="userSpaceOnUse">
<stop stop-color="#1DBAB1"/>
<stop offset="1" stop-color="#3FD298"/>
</linearGradient>
<linearGradient id="paint76_linear" x1="140.996" y1="101.661" x2="139.088" y2="97.5371" gradientUnits="userSpaceOnUse">
<stop stop-color="#1DBAB1"/>
<stop offset="1" stop-color="#2FD1C9"/>
</linearGradient>
<linearGradient id="paint77_linear" x1="136.823" y1="107.658" x2="134.915" y2="103.533" gradientUnits="userSpaceOnUse">
<stop stop-color="#1DBAB1"/>
<stop offset="1" stop-color="#2FD1C9"/>
</linearGradient>
<linearGradient id="paint78_linear" x1="132.65" y1="113.654" x2="130.741" y2="109.53" gradientUnits="userSpaceOnUse">
<stop stop-color="#1DBAB1"/>
<stop offset="1" stop-color="#2FD1C9"/>
</linearGradient>
<linearGradient id="paint79_linear" x1="128.476" y1="119.652" x2="126.568" y2="115.527" gradientUnits="userSpaceOnUse">
<stop stop-color="#1DBAB1"/>
<stop offset="1" stop-color="#2FD1C9"/>
</linearGradient>
<linearGradient id="paint80_linear" x1="144.524" y1="108.071" x2="141.659" y2="101.879" gradientUnits="userSpaceOnUse">
<stop stop-color="#1DBAB1"/>
<stop offset="1" stop-color="#2FD1C9"/>
</linearGradient>
<linearGradient id="paint81_linear" x1="132.638" y1="92.7563" x2="133.129" y2="91.2163" gradientUnits="userSpaceOnUse">
<stop stop-color="#FFC757"/>
<stop offset="1" stop-color="#FFE678"/>
</linearGradient>
<linearGradient id="paint82_linear" x1="132.225" y1="95.2302" x2="132.87" y2="92.7144" gradientUnits="userSpaceOnUse">
<stop stop-color="#FFC757"/>
<stop offset="1" stop-color="#FFE678"/>
</linearGradient>
<linearGradient id="paint83_linear" x1="130.503" y1="96.0867" x2="130.998" y2="94.3231" gradientUnits="userSpaceOnUse">
<stop stop-color="#FFC757"/>
<stop offset="1" stop-color="#FFE678"/>
</linearGradient>
<linearGradient id="paint84_linear" x1="134.092" y1="93.695" x2="134.55" y2="92.1881" gradientUnits="userSpaceOnUse">
<stop stop-color="#FFC757"/>
<stop offset="1" stop-color="#FFE678"/>
</linearGradient>
<linearGradient id="paint85_linear" x1="135.387" y1="94.8809" x2="135.875" y2="93.0359" gradientUnits="userSpaceOnUse">
<stop stop-color="#FFC757"/>
<stop offset="1" stop-color="#FFE678"/>
</linearGradient>
<linearGradient id="paint86_linear" x1="134.374" y1="96.5439" x2="134.941" y2="94.4393" gradientUnits="userSpaceOnUse">
<stop stop-color="#FFC757"/>
<stop offset="1" stop-color="#FFE678"/>
</linearGradient>
<linearGradient id="paint87_linear" x1="132.436" y1="97.642" x2="133.288" y2="95.1721" gradientUnits="userSpaceOnUse">
<stop stop-color="#FFC757"/>
<stop offset="1" stop-color="#FFE678"/>
</linearGradient>
<linearGradient id="paint88_linear" x1="127.975" y1="128.612" x2="126.674" y2="126.089" gradientUnits="userSpaceOnUse">
<stop stop-color="#FFC757"/>
<stop offset="1" stop-color="#FFE678"/>
</linearGradient>
<linearGradient id="paint89_linear" x1="126.584" y1="130.611" x2="125.283" y2="128.088" gradientUnits="userSpaceOnUse">
<stop stop-color="#FFC757"/>
<stop offset="1" stop-color="#FFE678"/>
</linearGradient>
<clipPath id="clip0">
<rect width="82.0991" height="173.155" fill="white" transform="translate(92.5479 82.8457)"/>
</clipPath>
</defs>
</svg>
