<svg width="256" height="256" viewBox="0 0 256 256" fill="none" xmlns="http://www.w3.org/2000/svg">
<path d="M128.153 203.893C149.954 213.268 171.895 210.945 177.16 198.703C182.425 186.462 169.019 168.937 147.217 159.561C125.416 150.186 103.474 152.509 98.2098 164.751C92.9452 176.992 106.351 194.517 128.153 203.893Z" fill="url(#paint0_radial)"/>
<path d="M130.459 225.278C125.456 233.506 105.596 221.429 81.0973 206.532C56.5988 191.634 38.979 175.873 41.7425 171.329C44.5059 166.784 66.606 175.178 91.1045 190.075C115.603 204.973 135.463 217.05 130.459 225.278Z" fill="url(#paint1_radial)"/>
<path d="M44.9125 166.78C45.0641 166.56 48.1987 167.715 48.4893 167.867C48.7799 168.019 48.4893 167.867 48.7799 168.019C48.9252 168.095 48.9971 168.171 49.069 168.246C49.1393 168.395 49.1377 168.469 49.1346 168.617C49.1299 168.839 48.9767 169.132 48.8252 169.352C48.6736 169.572 48.4485 169.791 48.1563 169.713C48.0094 169.711 47.9376 169.636 47.8657 169.561C47.7204 169.485 47.575 169.409 47.5032 169.333C47.211 169.255 44.7609 167 44.9125 166.78Z" fill="url(#paint2_linear)"/>
<path d="M48.4171 167.647C52.5303 167.632 64.8745 170.84 66.9052 172.053C69.2249 173.491 66.9052 172.053 69.2249 173.491C70.095 174.022 70.9683 174.404 71.4634 175.299C71.8851 176.192 71.9366 177.229 71.8428 178.189C71.5802 180.183 70.6568 182.167 69.4491 183.704C68.2415 185.24 66.3698 186.915 64.2437 186.737C63.2908 186.649 63.3206 185.244 62.5239 184.715C61.5086 184.108 60.5431 184.613 59.5277 184.006C57.8594 183.021 49.1103 173.058 47.3547 169.26C47.0736 168.664 47.6829 167.637 48.4171 167.647Z" fill="url(#paint3_linear)"/>
<path d="M69.2886 183.616C68.0757 185.157 66.2013 186.836 64.0875 186.66C63.1401 186.573 63.1802 185.166 62.3916 184.637C61.386 184.031 60.4217 184.537 59.4161 183.931C57.9807 183.022 50.9738 175.075 48.2498 170.667C55.358 175.059 62.3244 179.3 69.2886 183.616Z" fill="url(#paint4_linear)"/>
<path d="M58.556 180.828C58.6671 179.055 59.3652 177.29 60.2773 175.825C61.1894 174.359 62.467 172.972 64.024 172.255C64.6174 171.967 65.2827 171.755 65.9433 171.764C66.8974 171.778 67.6205 172.306 68.3434 172.834C70.6624 174.272 72.9828 175.635 75.3018 177.073C77.6207 178.511 79.9396 179.949 82.3335 181.314C83.2033 181.844 84.0762 182.226 84.5712 183.121C84.9928 184.014 85.0442 185.05 84.9505 186.01C84.7614 188.004 83.8383 189.987 82.5576 191.522C81.3503 193.057 79.4794 194.731 77.354 194.553C76.4748 194.467 75.7518 193.939 74.9554 193.41C73.9404 192.804 72.9988 192.199 71.9837 191.593C70.0271 190.382 68.0689 189.245 66.1123 188.034C64.1556 186.823 62.1974 185.686 60.2408 184.475C59.5162 184.021 59.0118 183.571 58.7339 182.827C58.5981 182.308 58.5404 181.567 58.556 180.828C58.5576 180.754 58.5545 180.902 58.556 180.828Z" fill="url(#paint5_linear)"/>
<path d="M58.8883 182.889C58.615 182.218 58.563 181.476 58.6551 180.81C58.6846 179.773 59.0043 178.813 59.3971 177.855C67.0122 182.551 74.64 186.804 82.2572 191.426C81.0458 192.893 79.2393 194.723 77.3415 194.623C76.4667 194.538 75.7507 194.009 74.9617 193.48C73.9555 192.874 73.0224 192.268 72.0162 191.662C70.077 190.45 68.1356 189.313 66.1963 188.101C64.2571 186.889 62.3157 185.751 60.3764 184.54C59.7293 184.16 59.2305 183.709 58.8883 182.889Z" fill="url(#paint6_linear)"/>
<path d="M74.9965 190.753C75.1059 189.056 75.7283 187.366 76.5645 185.974C77.4755 184.51 78.7531 183.051 80.3098 182.26C81.3487 181.684 82.6729 181.482 83.6867 182.087C84.1936 182.39 84.7005 182.692 85.2074 182.995C85.641 183.297 86.0777 183.45 86.3616 183.898C87.2194 184.944 87.1865 186.495 86.9399 187.747C86.6903 189.147 86.1489 190.469 85.3159 191.713C84.5577 192.884 83.5812 193.978 82.4644 194.775C81.2742 195.57 79.6473 196.212 78.345 195.381C77.7663 195.003 76.9693 194.549 76.3174 194.17C75.2303 193.564 74.9684 192.083 74.9965 190.753C74.9981 190.68 74.995 190.827 74.9965 190.753Z" fill="url(#paint7_linear)"/>
<path d="M77.1396 191.985C77.2428 190.58 77.7132 189.181 78.3274 187.931C79.0931 186.462 80.1542 184.923 81.5683 184.055C82.4668 183.254 84.0949 182.685 85.2621 183.072C85.5543 183.15 85.7714 183.301 86.0621 183.453C86.8605 183.909 87.5839 184.437 88.3823 184.892C91.7915 186.939 95.1273 188.984 98.5365 191.031C103.105 193.834 107.675 196.563 112.17 199.365C116.45 201.942 120.656 204.517 124.935 207.094C127.401 208.609 129.866 210.124 132.333 211.566C132.479 211.642 132.696 211.793 132.841 211.869C134.002 212.551 134.336 214.11 134.235 215.441C134.119 217.437 133.195 219.422 132.059 221.034C130.925 222.572 129.051 224.321 126.993 224.366C125.89 224.424 125.023 223.746 124.154 223.142C122.994 222.459 121.834 221.702 120.673 221.02C118.353 219.581 115.959 218.141 113.638 216.776C108.997 213.898 104.282 211.093 99.5681 208.214C95.1433 205.561 90.7919 202.909 86.3687 200.182C84.1938 198.819 81.9439 197.529 79.769 196.166C78.8987 195.636 77.9534 195.178 77.4598 194.209C77.1801 193.539 77.1239 192.724 77.1396 191.985C77.1412 191.911 77.138 192.059 77.1396 191.985Z" fill="url(#paint8_linear)"/>
<path d="M80.0305 196.228C79.1678 195.698 78.2299 195.24 77.7455 194.269C77.3989 193.597 77.3489 192.781 77.4431 192.04C77.4748 190.928 77.7989 189.82 78.2692 188.713C82.4384 191.29 86.5366 193.792 90.708 196.295C97.9686 200.767 105.302 205.24 112.563 209.712C118.961 213.653 125.288 217.52 131.686 221.461C130.547 222.93 128.823 224.39 126.92 224.44C125.821 224.499 124.962 223.82 124.102 223.216C122.951 222.533 121.802 221.776 120.651 221.093C118.351 219.654 115.979 218.213 113.677 216.847C109.077 213.968 104.403 211.162 99.7299 208.282C95.3434 205.628 91.0301 202.975 86.6457 200.247C84.3438 198.881 82.1861 197.592 80.0305 196.228Z" fill="url(#paint9_linear)"/>
<path d="M129.706 211.623C126.679 213.356 124.162 217.61 124.063 221.082C123.964 224.555 126.392 225.991 129.417 224.332C132.443 222.598 135.031 218.42 135.059 214.872C135.158 211.4 132.73 209.963 129.706 211.623Z" fill="url(#paint10_linear)"/>
<path d="M121.785 219.486C121.922 216.461 123.597 213.531 125.839 211.495C126.81 210.623 128.073 209.828 129.397 209.625C131.014 209.427 132.309 210.553 133.611 211.384C132.381 210.628 130.906 211.05 129.719 211.698C128.162 212.562 126.885 214.021 125.901 215.483C124.992 216.874 124.371 218.489 124.117 220.11C123.865 221.658 124.041 223.728 125.559 224.709C124.981 224.332 124.329 223.953 123.751 223.576C123.244 223.273 122.739 222.897 122.383 222.375C121.816 221.481 121.765 220.446 121.785 219.486C121.786 219.413 121.783 219.56 121.785 219.486Z" fill="url(#paint11_linear)"/>
<path d="M122.385 222.355C121.905 221.536 121.79 220.502 121.819 219.469C121.926 218.216 122.249 216.965 122.713 215.791L124.903 217.148C124.516 218.103 124.202 219.058 124.032 220.015C123.773 221.562 123.93 223.63 125.412 224.609C124.848 224.233 124.211 223.855 123.647 223.479C123.152 223.177 122.658 222.875 122.385 222.355Z" fill="url(#paint12_linear)"/>
<path d="M103.157 196.145L103.102 197.107L127.786 212.729L127.842 211.767L103.157 196.145Z" fill="url(#paint13_linear)"/>
<path d="M128.438 212.736L131.449 211.01L131.505 210.05L128.494 211.776L128.438 212.736Z" fill="#CAE6FD"/>
<path d="M127.841 211.78L130.892 210.047L106.167 194.42L103.116 196.154L127.841 211.78Z" fill="url(#paint14_linear)"/>
<path d="M195.58 63.9202C178.536 54.0124 161.492 44.1644 144.447 34.2566C144.447 34.2566 144.388 34.2566 144.388 34.1969C144.328 34.1969 144.328 34.1372 144.268 34.1372C144.089 34.0179 143.909 33.9582 143.73 33.8985C143.67 33.8985 143.67 33.8388 143.61 33.8388H143.55C143.371 33.7791 143.132 33.6598 142.892 33.6001C142.653 33.5404 142.414 33.4807 142.175 33.421H142.115C142.055 33.421 142.055 33.421 141.995 33.421C141.756 33.3613 141.577 33.3613 141.338 33.3613C141.278 33.3613 141.278 33.3613 141.218 33.3613C141.218 33.3613 141.218 33.3613 141.158 33.3613C140.919 33.3613 140.62 33.3613 140.321 33.3613H140.261C140.201 33.3613 140.082 33.3613 140.022 33.3613C139.962 33.3613 139.902 33.3613 139.842 33.3613C139.663 33.3613 139.484 33.421 139.244 33.421C139.065 33.4807 138.826 33.4807 138.646 33.5404C138.587 33.5404 138.527 33.6001 138.467 33.6001C138.347 33.6598 138.168 33.6598 138.048 33.7194C138.048 33.7194 138.048 33.7194 137.988 33.7194C137.749 33.7791 137.51 33.8388 137.211 33.9582C137.151 33.9582 137.091 34.0179 137.032 34.0179C136.852 34.0776 136.613 34.1372 136.434 34.2566C136.434 34.2566 136.374 34.2566 136.374 34.3163C136.314 34.3163 136.254 34.376 136.194 34.376C135.955 34.4953 135.776 34.555 135.536 34.6744C135.477 34.7341 135.357 34.7341 135.297 34.7938C134.998 34.9131 134.699 35.0922 134.4 35.2713C134.161 35.3906 133.982 35.51 133.742 35.6891C133.683 35.7487 133.623 35.8084 133.503 35.8084C133.324 35.9278 133.204 35.9875 133.084 36.1069C133.025 36.1665 132.905 36.2262 132.845 36.2859C132.726 36.4053 132.546 36.465 132.427 36.5843C132.367 36.644 132.247 36.7037 132.187 36.7634C132.068 36.8828 131.888 37.0021 131.769 37.0618C131.709 37.1215 131.589 37.1812 131.53 37.2409C131.35 37.3602 131.231 37.4796 131.051 37.6587C130.991 37.7184 130.932 37.7184 130.872 37.778C130.692 37.9571 130.453 38.1362 130.274 38.3152C130.214 38.3749 130.214 38.3749 130.154 38.4346C130.034 38.5539 129.855 38.6733 129.735 38.8524L129.676 38.9121C129.197 39.3895 128.719 39.867 128.24 40.4042L128.18 40.4639L128.121 40.5236C127.762 40.9414 127.403 41.3592 127.104 41.777C127.104 41.777 127.104 41.777 127.104 41.8366C127.104 41.8963 127.044 41.8963 127.044 41.956C126.805 42.3141 126.506 42.6722 126.267 43.0303C126.267 43.09 126.207 43.09 126.207 43.1497C126.207 43.1497 126.207 43.2094 126.147 43.2094C125.908 43.5675 125.669 43.9256 125.429 44.2837C125.429 44.3434 125.37 44.3434 125.37 44.4031C125.31 44.4628 125.31 44.5225 125.25 44.5822C125.071 44.8806 124.891 45.179 124.712 45.4774C124.712 45.5371 124.652 45.5968 124.652 45.5968C124.652 45.5968 124.652 45.6565 124.592 45.6565C124.413 46.0146 124.174 46.3727 123.994 46.6711C123.994 46.7308 123.934 46.7308 123.934 46.7308C123.875 46.7905 123.875 46.8502 123.815 46.9099C123.695 47.2083 123.516 47.4471 123.396 47.7455C123.396 47.8052 123.336 47.8649 123.336 47.9245C123.336 47.9842 123.277 47.9842 123.277 48.0439C123.097 48.402 122.918 48.7601 122.798 49.1182C122.798 49.1182 122.798 49.1182 122.798 49.1779C122.798 49.2376 122.738 49.2376 122.738 49.2973C122.619 49.5957 122.439 49.9538 122.32 50.2523C122.32 50.312 122.26 50.3716 122.26 50.4313C122.26 50.491 122.26 50.491 122.2 50.5507C122.08 50.9685 121.901 51.3266 121.781 51.7444V51.8041C121.662 52.2219 121.542 52.58 121.423 52.9978C121.423 53.0575 121.363 53.1172 121.363 53.1768C121.363 53.2365 121.363 53.2962 121.303 53.2962C121.243 53.4156 121.243 53.535 121.183 53.6543C121.124 53.8334 121.124 53.9528 121.064 54.1318C121.064 54.2512 121.004 54.3706 121.004 54.4899C121.004 54.6093 120.944 54.669 120.944 54.7884C120.944 54.848 120.944 54.9077 120.884 54.9674C120.825 55.1465 120.825 55.3255 120.765 55.5046C120.765 55.6239 120.705 55.7433 120.705 55.8627C120.645 56.0417 120.645 56.2208 120.645 56.3999C120.645 56.5192 120.645 56.5789 120.585 56.6983V56.758C120.525 57.1758 120.466 57.5339 120.466 57.9517C120.466 58.0114 120.466 58.1307 120.466 58.1904C120.466 58.6082 120.406 59.026 120.406 59.3841V64.9349L120.585 129.693C120.585 130.052 120.585 130.41 120.525 130.768C120.525 130.827 120.525 130.887 120.525 130.947C120.525 131.305 120.466 131.663 120.406 132.021C120.406 132.14 120.406 132.2 120.346 132.32C120.346 132.379 120.346 132.499 120.286 132.558L111.316 127.366C111.316 127.366 111.256 127.366 111.256 127.306C111.256 127.306 111.196 127.306 111.196 127.246C111.076 127.187 110.957 127.127 110.837 127.067C110.837 127.067 110.777 127.067 110.777 127.008H110.718C110.538 126.948 110.419 126.888 110.239 126.829C110.06 126.769 109.88 126.769 109.761 126.709H109.701H109.641C109.462 126.709 109.342 126.649 109.163 126.649H109.103C108.923 126.649 108.744 126.649 108.505 126.649H108.445H108.385C108.146 126.649 107.967 126.709 107.727 126.709C107.608 126.709 107.428 126.769 107.249 126.769C107.189 126.769 107.189 126.769 107.129 126.769C107.01 126.769 106.95 126.829 106.83 126.829C106.651 126.888 106.471 126.948 106.292 127.008C106.232 127.008 106.232 127.067 106.172 127.067C106.053 127.127 105.873 127.187 105.754 127.246H105.694C105.634 127.246 105.634 127.306 105.574 127.306C105.395 127.366 105.275 127.425 105.096 127.545C105.036 127.545 104.976 127.604 104.916 127.664C104.677 127.783 104.498 127.903 104.259 128.022C103.96 128.201 103.661 128.38 103.302 128.619C103.182 128.679 103.122 128.798 103.003 128.858C102.823 128.977 102.584 129.156 102.405 129.276C102.285 129.395 102.165 129.455 102.046 129.574C101.866 129.753 101.687 129.872 101.508 130.052C101.388 130.171 101.268 130.29 101.149 130.41C101.089 130.469 100.969 130.589 100.91 130.648C100.79 130.768 100.67 130.887 100.611 131.006C100.551 131.066 100.491 131.126 100.431 131.186C100.192 131.424 100.013 131.663 99.8331 131.842C99.7733 131.902 99.7733 131.902 99.7733 131.961C99.6537 132.14 99.5341 132.26 99.4145 132.439C99.2948 132.558 99.1752 132.678 99.1154 132.857C99.0556 132.916 99.0556 132.916 98.9958 132.976C98.8762 133.095 98.8164 133.215 98.6968 133.334C98.5772 133.454 98.5174 133.573 98.3978 133.752C98.338 133.812 98.2782 133.931 98.2184 133.991C98.1586 134.11 98.0389 134.229 97.9791 134.349C97.9193 134.468 97.8595 134.528 97.7997 134.647C97.6801 134.767 97.6203 134.946 97.5007 135.065C97.4409 135.184 97.3811 135.244 97.3213 135.363C97.3213 135.423 97.2615 135.423 97.2615 135.483C97.0821 135.781 96.9625 136.02 96.783 136.318V136.378C96.783 136.438 96.7232 136.498 96.7232 136.557C96.6036 136.796 96.484 136.975 96.4242 137.214C96.3644 137.273 96.3644 137.393 96.3046 137.452C96.2448 137.572 96.185 137.691 96.1252 137.811C96.0654 137.93 96.0056 137.99 96.0056 138.109C95.9458 138.288 95.886 138.467 95.8262 138.646C95.7664 138.766 95.7664 138.825 95.7066 138.945C95.7066 139.004 95.6468 139.004 95.6468 139.064C95.5272 139.362 95.4075 139.721 95.2879 140.019C95.2879 140.079 95.2281 140.138 95.2281 140.198C95.1085 140.496 95.0487 140.735 94.9889 141.034C94.9889 141.093 94.9889 141.093 94.9889 141.153C94.9291 141.332 94.8693 141.511 94.8693 141.75C94.8095 141.929 94.7497 142.108 94.7497 142.287C94.7497 142.347 94.7497 142.406 94.6899 142.466C94.6899 142.526 94.6899 142.585 94.6301 142.645C94.5703 143.003 94.5105 143.361 94.4507 143.719V143.779C94.3909 144.197 94.3909 144.555 94.3311 144.973C94.3311 145.092 94.3311 145.152 94.3311 145.271C94.3311 145.391 94.3311 145.45 94.3311 145.57C94.3311 146.644 94.4507 147.539 94.6899 148.435C95.2879 151.001 96.5438 152.971 98.4576 154.045L149.65 183.709C152.282 185.201 155.81 184.843 159.578 182.694C163.346 180.545 166.814 176.845 169.446 172.309C172.077 167.773 173.512 162.878 173.512 158.581V153.03L173.333 88.2718C173.333 80.5127 178.715 71.0227 185.473 67.0238L197.616 73.9226C197.736 74.042 198.99 74.2213 198.99 72.7877C198.99 72.7877 198.99 72.5483 198.99 72.0708C198.99 67.475 198.092 65.3526 195.58 63.9202Z" fill="url(#paint15_linear)"/>
<path d="M120.137 129.061L171.75 159.198C171.75 174.58 157.413 185.333 151.717 182.222L100.065 151.95C106.517 153.075 120.137 152.717 120.137 129.061Z" fill="url(#paint16_linear)"/>
<path d="M163.744 166.133C163.744 166.012 163.744 165.829 163.804 165.707C163.804 165.586 163.804 165.525 163.804 165.403C163.804 165.099 163.865 164.794 163.865 164.429C163.865 161.69 162.902 159.804 161.397 158.891L109.889 128.702C111.394 129.615 112.357 131.502 112.357 134.241C112.357 134.545 112.357 134.849 112.296 135.215C112.296 135.336 112.296 135.397 112.296 135.519C112.296 135.702 112.236 135.945 112.236 136.128C112.176 136.371 112.176 136.614 112.116 136.797C112.116 136.98 112.056 137.101 111.995 137.284C111.935 137.406 111.935 137.588 111.875 137.71C111.815 137.893 111.755 138.136 111.695 138.319C111.634 138.44 111.634 138.562 111.574 138.684C111.514 138.927 111.454 139.11 111.334 139.353C111.273 139.475 111.273 139.536 111.213 139.658C111.093 139.962 110.973 140.266 110.852 140.631C110.852 140.692 110.792 140.692 110.792 140.753C110.672 141.058 110.551 141.301 110.431 141.544C110.371 141.605 110.371 141.727 110.311 141.788C110.19 142.031 110.01 142.336 109.889 142.579C109.889 142.64 109.829 142.701 109.829 142.701C109.649 143.005 109.468 143.309 109.288 143.614C109.228 143.675 109.167 143.796 109.107 143.857C108.987 144.04 108.806 144.283 108.686 144.466C108.626 144.588 108.505 144.709 108.445 144.77C108.325 144.953 108.205 145.135 108.084 145.257C107.964 145.379 107.844 145.501 107.783 145.683C107.663 145.805 107.543 145.927 107.422 146.048C107.242 146.231 107.061 146.474 106.881 146.657C106.76 146.779 106.64 146.9 106.52 147.022C106.399 147.083 106.339 147.205 106.219 147.266C106.038 147.387 105.918 147.57 105.738 147.692C105.617 147.753 105.557 147.874 105.437 147.935C105.256 148.057 105.076 148.239 104.895 148.361C104.835 148.422 104.715 148.483 104.654 148.544C104.414 148.726 104.113 148.909 103.872 149.092C103.692 149.213 103.511 149.274 103.331 149.396C103.27 149.396 103.21 149.457 103.15 149.457C103.03 149.518 102.849 149.578 102.729 149.639C102.669 149.639 102.669 149.7 102.609 149.7C102.488 149.761 102.368 149.822 102.247 149.822H102.187C102.007 149.883 101.886 149.944 101.706 149.944H101.646C101.405 150.005 101.164 150.065 100.924 150.126C100.743 150.126 100.563 150.187 100.382 150.187C100.322 150.187 100.322 150.187 100.262 150.187C100.081 150.187 99.9007 150.187 99.7804 150.187H99.7202C99.5999 150.187 99.4795 150.187 99.3592 150.126C99.299 150.126 99.299 150.126 99.2388 150.126C99.1185 150.126 98.938 150.065 98.8176 150.005C98.6973 149.944 98.5769 149.944 98.4566 149.883C98.3964 149.883 98.3964 149.822 98.3362 149.822C98.2159 149.761 98.0956 149.7 98.0354 149.639C97.9752 149.639 97.9752 149.578 97.915 149.578C115.064 159.682 132.214 169.785 149.423 179.828H149.483H149.543C149.664 179.889 149.784 179.95 149.844 180.01H149.904H149.965C150.085 180.071 150.205 180.132 150.326 180.132C150.446 180.193 150.627 180.193 150.747 180.254H150.807H150.867C150.988 180.254 151.108 180.315 151.228 180.315H151.288C151.469 180.315 151.589 180.315 151.77 180.315H151.83H151.89C152.071 180.315 152.251 180.315 152.432 180.254C152.672 180.193 152.913 180.193 153.154 180.071C153.154 180.071 153.154 180.071 153.214 180.071C153.394 180.01 153.515 180.01 153.695 179.95C153.695 179.95 153.755 179.95 153.755 179.889C153.876 179.828 153.996 179.767 154.117 179.767C154.117 179.767 154.117 179.767 154.177 179.767C154.177 179.767 154.237 179.767 154.297 179.706C154.417 179.645 154.598 179.584 154.718 179.524C154.778 179.524 154.839 179.463 154.899 179.463C155.079 179.341 155.26 179.28 155.44 179.158C155.741 178.976 155.982 178.793 156.223 178.611C156.283 178.55 156.403 178.489 156.463 178.428C156.644 178.306 156.824 178.185 157.005 178.002C157.125 177.941 157.185 177.819 157.306 177.759C157.486 177.637 157.607 177.454 157.787 177.332C157.907 177.272 157.968 177.15 158.088 177.089C158.148 177.028 158.208 176.967 158.268 176.906C158.329 176.846 158.389 176.785 158.449 176.724C158.63 176.541 158.81 176.298 158.991 176.115C159.051 176.054 159.111 175.993 159.171 175.933C159.231 175.872 159.291 175.811 159.291 175.75C159.412 175.628 159.532 175.507 159.592 175.324C159.652 175.263 159.713 175.141 159.833 175.08C159.893 175.02 159.953 174.898 160.013 174.837C160.074 174.715 160.194 174.594 160.254 174.533C160.314 174.472 160.375 174.411 160.435 174.289C160.495 174.168 160.615 174.046 160.675 173.924C160.736 173.863 160.796 173.741 160.856 173.681C160.856 173.62 160.916 173.62 160.916 173.559C161.097 173.315 161.217 173.072 161.337 172.829V172.768C161.337 172.707 161.397 172.646 161.397 172.585C161.518 172.402 161.578 172.22 161.698 172.037C161.759 171.976 161.758 171.855 161.819 171.794C161.879 171.733 161.879 171.611 161.939 171.55C161.999 171.49 161.999 171.429 162.059 171.307C162.18 171.124 162.24 170.881 162.36 170.698C162.36 170.637 162.42 170.637 162.42 170.577C162.42 170.577 162.42 170.577 162.42 170.516C162.541 170.272 162.661 170.029 162.721 169.724C162.721 169.664 162.781 169.664 162.781 169.603C162.842 169.481 162.842 169.42 162.902 169.298C162.962 169.177 163.022 169.055 163.022 168.933C163.082 168.812 163.082 168.751 163.082 168.629C163.142 168.507 163.142 168.385 163.203 168.264C163.203 168.203 163.263 168.142 163.263 168.02C163.323 167.899 163.323 167.777 163.383 167.655C163.443 167.533 163.443 167.351 163.504 167.229C163.504 167.168 163.504 167.107 163.564 167.046C163.624 166.803 163.684 166.56 163.684 166.316C163.684 166.255 163.684 166.194 163.684 166.194C163.744 166.377 163.744 166.255 163.744 166.133Z" fill="url(#paint17_linear)"/>
<path d="M162.222 160.049C163.18 160.648 163.659 161.667 163.659 163.522C163.661 171.828 157.413 173.862 154.199 172.682C154.199 172.682 134.159 159.919 123.573 153.167C123.563 153.165 123.552 153.163 123.544 153.163C123.484 153.163 123.364 153.104 123.304 153.044C123.304 153.044 123.244 153.044 123.244 152.984C123.184 152.924 123.125 152.924 123.065 152.864C123.065 152.864 123.005 152.864 123.005 152.804C123.191 152.923 123.381 153.044 123.573 153.167C123.637 153.18 123.732 153.223 123.783 153.223H123.843C123.903 153.283 124.023 153.283 124.083 153.283H124.142H124.442H124.502H124.861C124.981 153.283 125.1 153.283 125.28 153.223H125.34C125.46 153.223 125.52 153.163 125.639 153.163H125.699H125.699C125.759 153.163 125.879 153.163 125.939 153.104C125.939 153.044 125.999 153.044 125.999 153.044C126.058 152.984 126.178 152.984 126.238 152.924C126.298 152.864 126.298 152.864 126.358 152.864L126.717 152.684C126.897 152.565 127.076 152.505 127.256 152.385C127.316 152.325 127.376 152.325 127.436 152.265C127.555 152.205 127.675 152.086 127.795 152.026C127.855 152.026 127.915 151.966 127.974 151.906C128.094 151.846 128.154 151.726 128.274 151.667L128.453 151.487C128.513 151.367 128.633 151.307 128.693 151.247L129.052 150.888C129.172 150.828 129.232 150.709 129.292 150.649C129.411 150.589 129.471 150.469 129.531 150.409C129.591 150.29 129.711 150.23 129.771 150.11L129.95 149.93C130.07 149.811 130.13 149.691 130.25 149.571C130.309 149.511 130.309 149.451 130.369 149.391L130.729 148.853L130.788 148.793C130.908 148.613 131.028 148.493 131.088 148.314C131.088 148.254 131.148 148.194 131.148 148.134C131.208 148.014 131.327 147.835 131.387 147.655C131.447 147.655 131.447 147.595 131.447 147.595C131.507 147.356 131.627 147.176 131.687 146.996C131.687 146.937 131.746 146.877 131.746 146.817C131.806 146.697 131.866 146.517 131.926 146.398C131.926 146.278 131.986 146.218 131.986 146.158C132.046 146.039 132.046 145.919 132.106 145.799C132.106 145.679 132.166 145.619 132.166 145.5C132.166 145.38 132.225 145.32 132.225 145.2C132.285 145.081 132.345 144.901 132.345 144.781C132.345 144.661 132.405 144.542 132.405 144.422V144.242C132.465 144.003 132.465 143.823 132.465 143.644C132.525 141.967 131.926 140.77 131.028 140.171L162.222 160.049Z" fill="url(#paint18_linear)"/>
<path d="M161.708 158.858C162.666 159.457 163.145 160.476 163.145 162.331C163.148 170.638 156.696 173.505 153.685 171.492C153.685 171.492 133.646 158.729 123.06 151.976C123.049 151.974 123.039 151.973 123.03 151.973C122.97 151.973 122.85 151.913 122.791 151.853C122.791 151.853 122.731 151.853 122.731 151.793C122.671 151.734 122.611 151.734 122.551 151.674C122.551 151.674 122.491 151.674 122.491 151.614C122.677 151.733 122.867 151.854 123.06 151.976C123.124 151.989 123.218 152.033 123.27 152.033H123.329C123.389 152.093 123.509 152.093 123.569 152.093H123.629H123.928H123.988H124.347C124.467 152.093 124.587 152.093 124.766 152.033H124.826C124.946 152.033 125.006 151.973 125.126 151.973H125.186H125.186C125.245 151.973 125.365 151.973 125.425 151.913C125.425 151.853 125.485 151.853 125.485 151.853C125.545 151.793 125.665 151.793 125.724 151.734C125.784 151.674 125.784 151.674 125.844 151.674L126.203 151.494C126.383 151.374 126.563 151.314 126.742 151.195C126.802 151.135 126.862 151.135 126.922 151.075C127.042 151.015 127.161 150.895 127.281 150.835C127.341 150.835 127.401 150.776 127.461 150.716C127.58 150.656 127.64 150.536 127.76 150.476L127.94 150.297C128 150.177 128.119 150.117 128.179 150.057L128.538 149.698C128.658 149.638 128.718 149.518 128.778 149.458C128.898 149.398 128.958 149.279 129.017 149.219C129.077 149.099 129.197 149.039 129.257 148.919L129.437 148.74C129.556 148.62 129.616 148.5 129.736 148.381C129.796 148.321 129.796 148.261 129.856 148.201L130.215 147.662L130.275 147.602C130.395 147.423 130.514 147.303 130.574 147.123C130.574 147.063 130.634 147.004 130.634 146.944C130.694 146.824 130.814 146.644 130.873 146.465C130.933 146.465 130.933 146.405 130.933 146.405C130.993 146.165 131.113 145.986 131.173 145.806C131.173 145.746 131.233 145.686 131.233 145.626C131.293 145.507 131.352 145.327 131.412 145.207C131.412 145.088 131.472 145.028 131.472 144.968C131.532 144.848 131.532 144.728 131.592 144.609C131.592 144.489 131.652 144.429 131.652 144.309C131.652 144.189 131.712 144.13 131.712 144.01C131.772 143.89 131.831 143.71 131.831 143.591C131.831 143.471 131.891 143.351 131.891 143.231V143.052C131.951 142.812 131.951 142.633 131.951 142.453C132.011 140.777 131.412 139.579 130.514 138.98L161.708 158.858Z" fill="url(#paint19_linear)"/>
<path d="M145.423 177.658C145.184 176.82 145.227 174.941 145.227 173.863L93.6143 144.114C93.6143 145.192 93.9319 147.003 94.1714 147.901C94.7702 150.476 96.0275 152.452 97.9435 153.529L149.195 183.286C147.279 182.209 146.022 180.293 145.423 177.658Z" fill="url(#paint20_linear)"/>
<path d="M110.758 126.56L162.431 156.66C157.413 153.737 147.019 160.603 145.089 173.865L93.6139 144.116C92.8971 128.345 106.159 123.686 110.758 126.56Z" fill="url(#paint21_linear)"/>
<path d="M197.693 73.2398C197.693 69.3481 196.316 66.5939 194.04 65.2767C176.977 55.3377 159.913 45.3987 142.849 35.5195C145.064 36.8367 146.441 39.5909 146.501 43.4827C146.501 43.7222 146.621 43.9018 146.74 44.0216L197.932 73.7188C197.813 73.6589 197.693 73.4793 197.693 73.2398Z" fill="url(#paint22_linear)"/>
<path d="M171.288 94.0168L171.033 88.2037L120.036 58.6914V64.2596L120.137 129.061L171.467 159.039L171.288 94.0168Z" fill="url(#paint23_linear)"/>
<path d="M171.288 94.0168L171.033 88.2037L120.036 58.6914V64.2596L120.137 129.061L171.467 159.039L171.288 94.0168Z" fill="url(#paint24_linear)"/>
<path d="M185.239 64.258C192.963 59.7674 199.249 63.3599 199.309 72.281C199.309 72.8199 198.95 73.4186 198.531 73.6581C198.112 73.8976 197.752 73.718 197.693 73.1791C197.693 65.3357 192.064 62.1624 185.239 66.0542C178.413 70.0058 172.845 79.5856 172.845 87.4889L173.025 152.452V158.02C173.025 162.331 171.588 167.24 168.953 171.791C166.319 176.341 162.786 180.053 159.074 182.209C155.302 184.364 151.829 184.723 149.135 183.227C147.219 182.149 145.962 180.233 145.363 177.598C145.124 176.76 145.004 175.802 145.004 174.725C145.004 174.605 145.004 174.545 145.004 174.425C145.004 174.305 145.004 174.246 145.004 174.126C145.363 167.659 149.734 160.355 155.063 157.242C160.631 154.008 165.181 156.643 165.181 162.989C165.181 169.396 160.691 177.179 155.123 180.413C153.925 181.131 152.728 181.55 151.65 181.73C153.805 182.329 156.32 181.79 159.014 180.233C162.307 178.317 165.421 175.024 167.756 171.012C170.091 166.941 171.033 162.584 171.033 158.812V93.9378V88.2031C171.093 79.4615 177.515 68.7485 185.239 64.258ZM146.98 176.341C147.998 179.874 151.291 181.011 155.182 178.736C159.853 176.042 163.625 169.456 163.625 164.067C163.625 158.678 159.793 156.523 155.123 159.217C150.512 161.852 146.8 168.258 146.68 173.587C146.68 174.605 146.8 175.503 146.98 176.341Z" fill="url(#paint25_linear)"/>
<path d="M143.986 33.5436C161.109 43.4227 178.173 53.3617 195.237 63.3007C192.235 61.7518 186.086 62.7529 181.427 67.4123C176.767 72.0718 171.74 77.772 171.033 88.2033L120.036 58.6905C120.036 46.9823 126.947 40.8901 129.097 38.7412C131.248 36.5924 138.775 30.8533 143.986 33.5436Z" fill="url(#paint26_linear)"/>
<path d="M143.986 33.5436C161.109 43.4227 178.173 53.3617 195.237 63.3007C192.235 61.7518 186.086 62.7529 181.427 67.4123C176.767 72.0718 171.74 77.772 171.033 88.2033L120.036 58.6905C120.036 46.9823 126.947 40.8901 129.097 38.7412C131.248 36.5924 138.775 30.8533 143.986 33.5436Z" fill="url(#paint27_radial)"/>
<path d="M163.34 95.5729L128.197 75.8351C127.935 75.6435 127.673 75.7712 127.673 76.1545C127.673 76.4739 127.935 76.8571 128.197 77.0488L163.34 96.7865C163.602 96.9781 163.865 96.7865 163.865 96.4671C163.865 96.0839 163.668 95.7006 163.34 95.5729Z" fill="url(#paint28_linear)"/>
<path d="M162.973 100.894L127.83 81.0919C127.568 80.9003 127.306 81.0281 127.306 81.4113C127.306 81.7307 127.568 82.114 127.83 82.3056L162.973 102.043C163.235 102.235 163.498 102.043 163.498 101.724C163.498 101.468 163.235 101.021 162.973 100.894Z" fill="url(#paint29_linear)"/>
<path d="M163.339 106.687L128.196 86.9494C127.934 86.7577 127.672 86.8855 127.672 87.2687C127.672 87.5881 127.934 87.9714 128.196 88.163L163.339 107.901C163.601 108.092 163.864 107.901 163.864 107.581C163.864 107.262 163.601 106.879 163.339 106.687Z" fill="url(#paint30_linear)"/>
<path d="M163.339 112.245L128.196 92.507C127.934 92.3154 127.672 92.4431 127.672 92.8264C127.672 93.1457 127.934 93.529 128.196 93.7206L163.339 113.458C163.601 113.65 163.864 113.458 163.864 113.139C163.864 112.82 163.601 112.436 163.339 112.245Z" fill="url(#paint31_linear)"/>
<path d="M163.274 117.867L128.131 98.1292C127.869 97.9376 127.606 98.1292 127.606 98.4486C127.606 98.768 127.869 99.1512 128.131 99.3428L163.274 119.081C163.536 119.272 163.798 119.081 163.798 118.761C163.798 118.442 163.602 117.995 163.274 117.867Z" fill="url(#paint32_linear)"/>
<path d="M158.029 120.484L128.131 103.685C127.869 103.493 127.606 103.685 127.606 104.004C127.606 104.324 127.869 104.707 128.131 104.898L158.029 121.698C158.291 121.89 158.553 121.698 158.553 121.379C158.553 121.059 158.356 120.612 158.029 120.484Z" fill="url(#paint33_linear)"/>
<path d="M152.783 123.103L128.131 109.241C127.869 109.05 127.606 109.177 127.606 109.561C127.606 109.88 127.869 110.263 128.131 110.455L152.783 124.316C153.046 124.508 153.308 124.38 153.308 123.997C153.308 123.677 153.046 123.294 152.783 123.103Z" fill="url(#paint34_linear)"/>
<defs>
<radialGradient id="paint0_radial" cx="0" cy="0" r="1" gradientUnits="userSpaceOnUse" gradientTransform="translate(137.701 181.708) rotate(23.2702) scale(41.822 19.9524)">
<stop stop-color="#3CCFC7" stop-opacity="0.42"/>
<stop offset="0.828634" stop-color="#4EBDB4" stop-opacity="0.0625"/>
<stop offset="0.911925" stop-color="#4FBBB2" stop-opacity="0.02375"/>
<stop offset="1" stop-color="#50BAB1" stop-opacity="0"/>
</radialGradient>
<radialGradient id="paint1_radial" cx="0" cy="0" r="1" gradientUnits="userSpaceOnUse" gradientTransform="translate(86.113 198.3) rotate(31.3041) scale(50.5285 7.96341)">
<stop stop-color="#3CCFC7" stop-opacity="0.74"/>
<stop offset="0.828634" stop-color="#4EBDB4" stop-opacity="0.0625"/>
<stop offset="0.911925" stop-color="#4FBBB2" stop-opacity="0.02375"/>
<stop offset="1" stop-color="#50BAB1" stop-opacity="0"/>
</radialGradient>
<linearGradient id="paint2_linear" x1="46.5057" y1="168.624" x2="47.2742" y2="167.156" gradientUnits="userSpaceOnUse">
<stop stop-color="#02625A"/>
<stop offset="1" stop-color="#4FD9C4"/>
</linearGradient>
<linearGradient id="paint3_linear" x1="56.6195" y1="176.116" x2="58.5895" y2="171.137" gradientUnits="userSpaceOnUse">
<stop stop-color="#87EAD3"/>
<stop offset="0.3436" stop-color="#A3F2D5"/>
<stop offset="1" stop-color="#E2FFF6"/>
</linearGradient>
<linearGradient id="paint4_linear" x1="54.7783" y1="180.58" x2="57.5183" y2="176.993" gradientUnits="userSpaceOnUse">
<stop stop-color="#36B4A4"/>
<stop offset="0.605527" stop-color="#57C9BA"/>
<stop offset="1" stop-color="#66E4D5"/>
</linearGradient>
<linearGradient id="paint5_linear" x1="69.0901" y1="183.389" x2="73.3067" y2="175.693" gradientUnits="userSpaceOnUse">
<stop stop-color="#2ACBC3"/>
<stop offset="0.782271" stop-color="#98F9E5"/>
<stop offset="1" stop-color="#8CFADF"/>
</linearGradient>
<linearGradient id="paint6_linear" x1="64.2591" y1="187.379" x2="67.3697" y2="181.123" gradientUnits="userSpaceOnUse">
<stop stop-color="#1E968C"/>
<stop offset="1" stop-color="#4EBEB7"/>
</linearGradient>
<linearGradient id="paint7_linear" x1="76.2591" y1="194.214" x2="83.1504" y2="181.769" gradientUnits="userSpaceOnUse">
<stop stop-color="#02625A"/>
<stop offset="1" stop-color="#67E8D5"/>
</linearGradient>
<linearGradient id="paint8_linear" x1="98.9977" y1="201.221" x2="103.585" y2="193.9" gradientUnits="userSpaceOnUse">
<stop stop-color="#87EAD3"/>
<stop offset="0.3436" stop-color="#A3F2D5"/>
<stop offset="0.822406" stop-color="#E0FFF4"/>
<stop offset="1" stop-color="#E2FFF6"/>
</linearGradient>
<linearGradient id="paint9_linear" x1="96.3206" y1="207.837" x2="100.181" y2="201.977" gradientUnits="userSpaceOnUse">
<stop stop-color="#36B4A4"/>
<stop offset="0.42016" stop-color="#57C9BA"/>
<stop offset="1" stop-color="#66E4D5"/>
</linearGradient>
<linearGradient id="paint10_linear" x1="127.621" y1="224.205" x2="132.711" y2="211.34" gradientUnits="userSpaceOnUse">
<stop stop-color="#2ACBC3"/>
<stop offset="1" stop-color="#8CFADF"/>
</linearGradient>
<linearGradient id="paint11_linear" x1="124.848" y1="217.507" x2="130.916" y2="209.872" gradientUnits="userSpaceOnUse">
<stop stop-color="#2ACBC3"/>
<stop offset="1" stop-color="#8CFADF"/>
</linearGradient>
<linearGradient id="paint12_linear" x1="122.118" y1="223.626" x2="124.399" y2="215.829" gradientUnits="userSpaceOnUse">
<stop stop-color="#02625A"/>
<stop offset="1" stop-color="#38C5B0"/>
</linearGradient>
<linearGradient id="paint13_linear" x1="112.615" y1="204.402" x2="113.819" y2="202.197" gradientUnits="userSpaceOnUse">
<stop stop-color="#02625A"/>
<stop offset="1" stop-color="#38C5B0"/>
</linearGradient>
<linearGradient id="paint14_linear" x1="114.79" y1="203.705" x2="116.4" y2="200.385" gradientUnits="userSpaceOnUse">
<stop stop-color="#2ACBC3"/>
<stop offset="1" stop-color="#8CFADF"/>
</linearGradient>
<linearGradient id="paint15_linear" x1="189.153" y1="123.765" x2="150.954" y2="148.759" gradientUnits="userSpaceOnUse">
<stop stop-color="#B1D7C9"/>
<stop offset="1" stop-color="#94BCAD"/>
</linearGradient>
<linearGradient id="paint16_linear" x1="126.206" y1="165.545" x2="139.996" y2="140.81" gradientUnits="userSpaceOnUse">
<stop stop-color="#9BDEC5"/>
<stop offset="1" stop-color="#CDFCEB"/>
</linearGradient>
<linearGradient id="paint17_linear" x1="157.259" y1="159.551" x2="143.268" y2="176.342" gradientUnits="userSpaceOnUse">
<stop stop-color="#A2C8BA"/>
<stop offset="1" stop-color="#84AA9C"/>
</linearGradient>
<linearGradient id="paint18_linear" x1="159.587" y1="159.787" x2="150.644" y2="170.191" gradientUnits="userSpaceOnUse">
<stop stop-color="#B1D7C9"/>
<stop offset="1" stop-color="#94BCAD"/>
</linearGradient>
<linearGradient id="paint19_linear" x1="159.074" y1="158.782" x2="150.034" y2="169.2" gradientUnits="userSpaceOnUse">
<stop stop-color="#A2C8BA"/>
<stop offset="1" stop-color="#84AA9C"/>
</linearGradient>
<linearGradient id="paint20_linear" x1="120.854" y1="166.695" x2="123.722" y2="161.677" gradientUnits="userSpaceOnUse">
<stop stop-color="#8EC7B2"/>
<stop offset="0.318329" stop-color="#86DABB"/>
<stop offset="1" stop-color="#9CEFD0"/>
</linearGradient>
<linearGradient id="paint21_linear" x1="118.709" y1="158.935" x2="130.481" y2="138.839" gradientUnits="userSpaceOnUse">
<stop stop-color="#A3F2D5"/>
<stop offset="0.779899" stop-color="#F2FFFB"/>
<stop offset="1" stop-color="#E2FFF6"/>
</linearGradient>
<linearGradient id="paint22_linear" x1="190.03" y1="63.1138" x2="187.521" y2="67.4148" gradientUnits="userSpaceOnUse">
<stop stop-color="#AAC8BD"/>
<stop offset="1" stop-color="#B1D7CA"/>
</linearGradient>
<linearGradient id="paint23_linear" x1="170.674" y1="87.8453" x2="140.208" y2="141.25" gradientUnits="userSpaceOnUse">
<stop stop-color="#E9FFF7"/>
<stop offset="0.911458" stop-color="#D2FFEF"/>
<stop offset="1" stop-color="#CDFCEB"/>
<stop offset="1" stop-color="#CDFCEB"/>
</linearGradient>
<linearGradient id="paint24_linear" x1="171.75" y1="98.598" x2="120.137" y2="98.598" gradientUnits="userSpaceOnUse">
<stop offset="0.844685" stop-color="white" stop-opacity="0"/>
<stop offset="1" stop-color="#CDFCEB" stop-opacity="0.74"/>
</linearGradient>
<linearGradient id="paint25_linear" x1="172.157" y1="67.4118" x2="172.157" y2="179.239" gradientUnits="userSpaceOnUse">
<stop stop-color="#CDF2E5"/>
<stop offset="1" stop-color="#ADD1C4"/>
</linearGradient>
<linearGradient id="paint26_linear" x1="161.714" y1="44.6264" x2="144.954" y2="72.1805" gradientUnits="userSpaceOnUse">
<stop stop-color="#EFFFF9"/>
<stop offset="0.112005" stop-color="#FBFFFD"/>
<stop offset="0.684883" stop-color="#E9FFF7"/>
</linearGradient>
<radialGradient id="paint27_radial" cx="0" cy="0" r="1" gradientUnits="userSpaceOnUse" gradientTransform="translate(183.219 81.0349) rotate(-145.176) scale(70.2953 49.4405)">
<stop offset="0.814739" stop-color="white" stop-opacity="0"/>
<stop offset="1" stop-color="#CDFCEB"/>
</radialGradient>
<linearGradient id="paint28_linear" x1="162.069" y1="96.0683" x2="129.119" y2="75.7681" gradientUnits="userSpaceOnUse">
<stop stop-color="#29B7AF"/>
<stop offset="1" stop-color="#63E0B6"/>
</linearGradient>
<linearGradient id="paint29_linear" x1="161.701" y1="101.325" x2="128.751" y2="81.025" gradientUnits="userSpaceOnUse">
<stop stop-color="#29B7AF"/>
<stop offset="1" stop-color="#63E0B6"/>
</linearGradient>
<linearGradient id="paint30_linear" x1="162.068" y1="107.183" x2="129.118" y2="86.8824" gradientUnits="userSpaceOnUse">
<stop stop-color="#29B7AF"/>
<stop offset="1" stop-color="#63E0B6"/>
</linearGradient>
<linearGradient id="paint31_linear" x1="162.068" y1="112.74" x2="129.118" y2="92.44" gradientUnits="userSpaceOnUse">
<stop stop-color="#29B7AF"/>
<stop offset="1" stop-color="#63E0B6"/>
</linearGradient>
<linearGradient id="paint32_linear" x1="162.002" y1="118.363" x2="129.062" y2="98.0576" gradientUnits="userSpaceOnUse">
<stop stop-color="#29B7AF"/>
<stop offset="1" stop-color="#63E0B6"/>
</linearGradient>
<linearGradient id="paint33_linear" x1="163.787" y1="124.294" x2="128.859" y2="103.565" gradientUnits="userSpaceOnUse">
<stop stop-color="#29B7AF"/>
<stop offset="1" stop-color="#63E0B6"/>
</linearGradient>
<linearGradient id="paint34_linear" x1="163.787" y1="130.521" x2="128.576" y2="109.26" gradientUnits="userSpaceOnUse">
<stop stop-color="#29B7AF"/>
<stop offset="1" stop-color="#63E0B6"/>
</linearGradient>
</defs>
</svg>
