<svg width="96" height="96" viewBox="0 0 96 96" fill="none" xmlns="http://www.w3.org/2000/svg">
<rect width="96" height="96" rx="48" fill="url(#paint0_radial)"/>
<rect width="96" height="96" rx="48" fill="url(#paint1_radial)"/>
<path d="M58.5149 47.9987C58.5149 50.0782 57.8983 52.111 56.7429 53.8401C55.5876 55.5692 53.9455 56.9168 52.0243 57.7126C50.103 58.5084 47.989 58.7166 45.9494 58.3109C43.9098 57.9052 42.0363 56.9038 40.5659 55.4334C39.0954 53.9629 38.0941 52.0895 37.6884 50.0499C37.2827 48.0103 37.4909 45.8963 38.2867 43.975C39.0825 42.0538 40.4301 40.4117 42.1592 39.2564C43.8883 38.101 45.9211 37.4844 48.0006 37.4844V37.4844C49.3819 37.4824 50.7501 37.753 52.0266 38.2807C53.3032 38.8083 54.4631 39.5827 55.4398 40.5595C56.4166 41.5362 57.191 42.6961 57.7186 43.9727C58.2463 45.2492 58.5169 46.6174 58.5149 47.9987V47.9987Z" stroke="#FFAF38" stroke-width="2.28571" stroke-linecap="round" stroke-linejoin="round"/>
<path d="M52.1153 47.9991C52.1153 48.8128 51.874 49.6082 51.4219 50.2848C50.9698 50.9614 50.3273 51.4888 49.5755 51.8002C48.8237 52.1116 47.9964 52.193 47.1984 52.0343C46.4003 51.8755 45.6672 51.4837 45.0918 50.9083C44.5164 50.3329 44.1245 49.5998 43.9658 48.8017C43.807 48.0036 43.8885 47.1764 44.1999 46.4246C44.5113 45.6728 45.0386 45.0302 45.7152 44.5781C46.3918 44.1261 47.1873 43.8848 48.001 43.8848V43.8848C49.0922 43.8848 50.1387 44.3182 50.9102 45.0898C51.6818 45.8614 52.1153 46.9079 52.1153 47.9991Z" stroke="#FFAF38" stroke-width="2.28571" stroke-linecap="round" stroke-linejoin="round"/>
<path d="M65.7529 46.9937C65.9972 47.2718 66.132 47.6293 66.132 47.9995C66.132 48.3696 65.9972 48.7271 65.7529 49.0052C63.3758 51.6261 56.3205 58.5595 48.0005 58.5595C39.6805 58.5595 32.6253 51.6261 30.2482 49.0052C30.0039 48.7271 29.8691 48.3696 29.8691 47.9995C29.8691 47.6293 30.0039 47.2718 30.2482 46.9937C32.6253 44.3728 39.6805 37.4395 48.0005 37.4395C56.3205 37.4395 63.3758 44.3728 65.7529 46.9937Z" stroke="#FFAF38" stroke-width="2.28571" stroke-linecap="round" stroke-linejoin="round"/>
<defs>
<radialGradient id="paint0_radial" cx="0" cy="0" r="1" gradientUnits="userSpaceOnUse" gradientTransform="translate(-4.77144e-06 96) rotate(-45) scale(135.765 90.6552)">
<stop offset="0.263029" stop-color="white" stop-opacity="0.24"/>
<stop offset="0.810988" stop-color="white" stop-opacity="0"/>
</radialGradient>
<radialGradient id="paint1_radial" cx="0" cy="0" r="1" gradientUnits="userSpaceOnUse" gradientTransform="translate(-4.77144e-06 96) rotate(-45) scale(135.765 90.6552)">
<stop offset="0.263029" stop-color="#FFAF38" stop-opacity="0.24"/>
<stop offset="0.810888" stop-color="#FF9538" stop-opacity="0"/>
<stop offset="0.810988" stop-color="#FFAF38" stop-opacity="0"/>
</radialGradient>
</defs>
</svg>
