<svg width="96" height="96" viewBox="0 0 96 96" fill="none" xmlns="http://www.w3.org/2000/svg">
<rect width="96" height="96" rx="48" fill="url(#paint0_radial)"/>
<rect width="96" height="96" rx="48" fill="url(#paint1_radial)"/>
<path d="M67.9475 35.4596C67.3331 34.8452 66.4998 34.5 65.6309 34.5H30.3699C29.501 34.5 28.6677 34.8452 28.0533 35.4596C27.4389 36.074 27.0938 36.9073 27.0938 37.7762V58.2257C27.0938 59.0946 27.4389 59.9279 28.0533 60.5423C28.6677 61.1567 29.501 61.5019 30.3699 61.5019H65.6309C66.4998 61.5019 67.3331 61.1567 67.9475 60.5423C68.5619 59.9279 68.9071 59.0946 68.9071 58.2257V37.7762C68.9071 36.9073 68.5619 36.074 67.9475 35.4596Z" stroke="#3CCFC7" stroke-width="2.28571" stroke-linecap="round" stroke-linejoin="round"/>
<path d="M68.8918 40.0469H27.0938V44.8621H68.8918V40.0469Z" stroke="#3CCFC7" stroke-width="2.28571" stroke-linecap="round" stroke-linejoin="round"/>
<path d="M60.5713 57.3739C60.9909 57.6382 61.4736 57.7851 61.9693 57.7994C62.465 57.8137 62.9554 57.6949 63.3895 57.4552C63.8236 57.2156 64.1856 56.864 64.4376 56.4369C64.6897 56.0099 64.8226 55.5231 64.8226 55.0272C64.8226 54.5314 64.6897 54.0446 64.4376 53.6175C64.1856 53.1905 63.8236 52.8389 63.3895 52.5992C62.9554 52.3596 62.465 52.2408 61.9693 52.2551C61.4736 52.2694 60.9909 52.4163 60.5713 52.6806" stroke="#3CCFC7" stroke-width="2.28571" stroke-linecap="round" stroke-linejoin="round"/>
<path d="M60.5725 57.3746C60.1183 57.6651 59.5878 57.8137 59.0487 57.8013C58.3132 57.8013 57.6078 57.5091 57.0877 56.989C56.5676 56.4689 56.2754 55.7635 56.2754 55.028C56.2754 54.2924 56.5676 53.587 57.0877 53.0669C57.6078 52.5468 58.3132 52.2546 59.0487 52.2546C59.5878 52.2422 60.1183 52.3908 60.5725 52.6813" stroke="#3CCFC7" stroke-width="2.28571" stroke-linecap="round" stroke-linejoin="round"/>
<path d="M31.1621 53.7148H47.8173" stroke="#3CCFC7" stroke-width="2.28571" stroke-linecap="round" stroke-linejoin="round"/>
<path d="M31.1621 57.0684H41.8897" stroke="#3CCFC7" stroke-width="2.28571" stroke-linecap="round" stroke-linejoin="round"/>
<defs>
<radialGradient id="paint0_radial" cx="0" cy="0" r="1" gradientUnits="userSpaceOnUse" gradientTransform="translate(-4.77144e-06 96) rotate(-45) scale(135.765 90.6552)">
<stop offset="0.263029" stop-color="white" stop-opacity="0.24"/>
<stop offset="0.810988" stop-color="white" stop-opacity="0"/>
</radialGradient>
<radialGradient id="paint1_radial" cx="0" cy="0" r="1" gradientUnits="userSpaceOnUse" gradientTransform="translate(-4.77144e-06 96) rotate(-45) scale(135.765 90.6552)">
<stop offset="0.263029" stop-color="#50FFF5" stop-opacity="0.24"/>
<stop offset="0.810988" stop-color="#50FFF5" stop-opacity="0"/>
</radialGradient>
</defs>
</svg>
