<svg width="96" height="96" viewBox="0 0 96 96" fill="none" xmlns="http://www.w3.org/2000/svg">
<rect width="96" height="96" rx="48" fill="url(#paint0_radial)"/>
<rect width="96" height="96" rx="48" fill="url(#paint1_radial)"/>
<rect width="96" height="96" rx="48" fill="url(#paint2_radial)"/>
<path d="M45.2577 57.4473C51.8101 57.4473 56.9911 52.2664 56.9911 45.714V37.1807H33.5244V45.714C33.5244 52.2664 38.7054 57.4473 45.2577 57.4473Z" stroke="#FFC757" stroke-width="2.28571" stroke-linecap="round" stroke-linejoin="round"/>
<path d="M41.4493 37.1803V28.647C41.4493 27.428 40.535 26.5137 39.316 26.5137C38.0969 26.5137 37.1826 27.428 37.1826 28.647V37.1803" stroke="#FFC757" stroke-width="2.28571" stroke-linecap="round" stroke-linejoin="round"/>
<path d="M49.0674 37.1803V28.647C49.0674 27.428 49.9817 26.5137 51.2007 26.5137C52.4198 26.5137 53.3341 27.428 53.3341 28.647V37.1803" stroke="#FFC757" stroke-width="2.28571" stroke-linecap="round" stroke-linejoin="round"/>
<path d="M45.2578 57.4482C45.2578 64.0006 50.5912 69.334 57.2959 69.334C60.4959 69.334 63.5435 68.1149 65.6769 65.9816" stroke="#FFC757" stroke-width="2.28571" stroke-linecap="round" stroke-linejoin="round"/>
<defs>
<radialGradient id="paint0_radial" cx="0" cy="0" r="1" gradientUnits="userSpaceOnUse" gradientTransform="translate(-4.77144e-06 96) rotate(-45) scale(135.765 90.6552)">
<stop offset="0.263029" stop-color="white" stop-opacity="0.24"/>
<stop offset="0.810988" stop-color="white" stop-opacity="0"/>
</radialGradient>
<radialGradient id="paint1_radial" cx="0" cy="0" r="1" gradientUnits="userSpaceOnUse" gradientTransform="translate(-4.77144e-06 96) rotate(-45) scale(135.765 90.6552)">
<stop offset="0.263029" stop-color="white" stop-opacity="0.24"/>
<stop offset="0.810988" stop-color="white" stop-opacity="0"/>
</radialGradient>
<radialGradient id="paint2_radial" cx="0" cy="0" r="1" gradientUnits="userSpaceOnUse" gradientTransform="translate(-4.77144e-06 96) rotate(-45) scale(135.765 90.6552)">
<stop offset="0.263029" stop-color="#FFE450" stop-opacity="0.24"/>
<stop offset="0.810988" stop-color="#FFE450" stop-opacity="0"/>
</radialGradient>
</defs>
</svg>
