<svg width="96" height="96" viewBox="0 0 96 96" fill="none" xmlns="http://www.w3.org/2000/svg">
<rect width="96" height="96" rx="48" fill="url(#paint0_radial)"/>
<rect width="96" height="96" rx="48" fill="url(#paint1_radial)"/>
<path d="M51.7021 71.8629C53.7639 71.8629 55.4354 70.4302 55.4354 68.6629C55.4354 66.8956 53.7639 65.4629 51.7021 65.4629C49.6402 65.4629 47.9688 66.8956 47.9688 68.6629C47.9688 70.4302 49.6402 71.8629 51.7021 71.8629Z" stroke="#3FD298" stroke-width="2.28571" stroke-linecap="round" stroke-linejoin="round"/>
<path d="M55.4355 68.6617C59.7175 68.6617 64.0146 65.9189 65.066 62.2617" stroke="#3FD298" stroke-width="2.28571" stroke-linecap="round" stroke-linejoin="round"/>
<path d="M29.7129 39.9081C30.0178 38.5592 30.4516 37.2427 31.0081 35.9767C31.8276 34.0359 32.9318 32.2281 34.2843 30.6129C36.1712 28.3743 38.5779 26.632 41.2938 25.5386C43.4381 24.7114 45.7025 24.238 47.9986 24.1367" stroke="#3FD298" stroke-width="2.28571" stroke-linecap="round" stroke-linejoin="round"/>
<path d="M33.4475 56.4266C33.4071 56.7258 33.2998 57.0122 33.1336 57.2643C32.9675 57.5165 32.7466 57.728 32.4876 57.8832C32.2285 58.0383 31.9378 58.1332 31.637 58.1606C31.3363 58.1881 31.0332 58.1475 30.7503 58.0418C29.5669 57.6325 28.4801 56.9844 27.5574 56.1377C26.6348 55.2911 25.8959 54.2639 25.3865 53.1199V53.1199C24.8514 51.8825 24.6315 50.5317 24.7465 49.1885L24.9751 46.6742C25.0886 45.3341 25.5394 44.0446 26.2856 42.9256V42.9256C26.9796 41.8892 27.8784 41.0057 28.9267 40.3296C29.9749 39.6535 31.1504 39.199 32.3808 38.9942C32.6781 38.936 32.9847 38.9463 33.2775 39.0242C33.5702 39.102 33.8414 39.2455 34.0704 39.4438C34.2995 39.642 34.4804 39.8898 34.5996 40.1683C34.7187 40.4468 34.7728 40.7488 34.758 41.0513L33.4475 56.4266Z" stroke="#3FD298" stroke-width="2.28571" stroke-linecap="round" stroke-linejoin="round"/>
<path d="M66.2857 39.9081C65.9787 38.5617 65.5503 37.2458 65.0057 35.9767C64.181 34.0353 63.0717 32.2275 61.7143 30.6129C59.8304 28.371 57.4228 26.6282 54.7048 25.5386C52.5605 24.7114 50.2961 24.238 48 24.1367" stroke="#3FD298" stroke-width="2.28571" stroke-linecap="round" stroke-linejoin="round"/>
<path d="M62.5512 56.4266C62.5916 56.7258 62.6988 57.0122 62.865 57.2643C63.0312 57.5165 63.252 57.728 63.5111 57.8832C63.7702 58.0383 64.0609 58.1332 64.3616 58.1606C64.6623 58.1881 64.9654 58.1475 65.2483 58.0418C66.4318 57.6325 67.5185 56.9844 68.4412 56.1377C69.3639 55.2911 70.1028 54.2639 70.6121 53.1199V53.1199C71.1472 51.8825 71.3671 50.5317 71.2521 49.1885L71.0236 46.6742C70.91 45.3341 70.4592 44.0446 69.7131 42.9256V42.9256C69.019 41.8892 68.1202 41.0057 67.072 40.3296C66.0238 39.6535 64.8483 39.199 63.6178 38.9942C63.3206 38.936 63.0139 38.9463 62.7212 39.0242C62.4284 39.102 62.1573 39.2455 61.9282 39.4438C61.6991 39.642 61.5182 39.8898 61.3991 40.1683C61.28 40.4468 61.2258 40.7488 61.2407 41.0513L62.5512 56.4266Z" stroke="#3FD298" stroke-width="2.28571" stroke-linecap="round" stroke-linejoin="round"/>
<defs>
<radialGradient id="paint0_radial" cx="0" cy="0" r="1" gradientUnits="userSpaceOnUse" gradientTransform="translate(-4.77144e-06 96) rotate(-45) scale(135.765 90.6552)">
<stop offset="0.263029" stop-color="white" stop-opacity="0.24"/>
<stop offset="0.810988" stop-color="white" stop-opacity="0"/>
</radialGradient>
<radialGradient id="paint1_radial" cx="0" cy="0" r="1" gradientUnits="userSpaceOnUse" gradientTransform="translate(-4.77144e-06 96) rotate(-45) scale(135.765 90.6552)">
<stop offset="0.263029" stop-color="#50FFC1" stop-opacity="0.24"/>
<stop offset="0.810988" stop-color="#50FFC1" stop-opacity="0"/>
</radialGradient>
</defs>
</svg>
