<svg width="96" height="96" viewBox="0 0 96 96" fill="none" xmlns="http://www.w3.org/2000/svg">
<rect width="96" height="96" rx="48" fill="url(#paint0_radial)"/>
<rect width="96" height="96" rx="48" fill="url(#paint1_radial)"/>
<path d="M58.667 40.9902C62.6289 40.9902 65.9812 44.1902 65.9812 48.3045V62.6283V62.7807C65.9812 66.7426 62.7812 70.095 58.667 70.095H38.0955C34.1336 70.095 30.7812 66.895 30.7812 62.7807V48.3045C30.7812 44.3426 33.9813 40.9902 38.0955 40.9902H58.667Z" stroke="#80E150" stroke-width="2.28571" stroke-miterlimit="10" stroke-linecap="round" stroke-linejoin="round"/>
<path d="M58.2098 40.9903V34.4379C58.2098 29.1046 53.7908 24.6855 48.4575 24.6855C43.1241 24.6855 38.7051 29.1046 38.7051 34.4379V40.9903" stroke="#80E150" stroke-width="2.28571" stroke-miterlimit="10" stroke-linecap="round" stroke-linejoin="round"/>
<path d="M53.3344 40.991V34.4387C53.3344 31.8482 51.0487 29.7148 48.4582 29.7148C45.7154 29.7148 43.582 31.8482 43.582 34.591V40.991" stroke="#80E150" stroke-width="2.28571" stroke-miterlimit="10" stroke-linecap="round" stroke-linejoin="round"/>
<path d="M48.4576 49.2188C47.0862 49.2188 46.0195 50.2854 46.0195 51.6568V56.9902C46.0195 58.3616 47.0862 59.4283 48.4576 59.4283C49.8291 59.4283 50.8957 58.3616 50.8957 56.9902V51.6568C50.8957 50.2854 49.8291 49.2188 48.4576 49.2188Z" stroke="#80E150" stroke-width="2.28571" stroke-miterlimit="10" stroke-linecap="round" stroke-linejoin="round"/>
<defs>
<radialGradient id="paint0_radial" cx="0" cy="0" r="1" gradientUnits="userSpaceOnUse" gradientTransform="translate(-4.77144e-06 96) rotate(-45) scale(135.765 90.6552)">
<stop offset="0.263029" stop-color="white" stop-opacity="0.24"/>
<stop offset="0.810988" stop-color="white" stop-opacity="0"/>
</radialGradient>
<radialGradient id="paint1_radial" cx="0" cy="0" r="1" gradientUnits="userSpaceOnUse" gradientTransform="translate(-4.77144e-06 96) rotate(-45) scale(135.765 90.6552)">
<stop offset="0.263029" stop-color="#7CFF50" stop-opacity="0.24"/>
<stop offset="0.810988" stop-color="#7DFF50" stop-opacity="0"/>
</radialGradient>
</defs>
</svg>
