<svg width="96" height="96" viewBox="0 0 96 96" fill="none" xmlns="http://www.w3.org/2000/svg">
<rect width="96" height="96" rx="48" fill="url(#paint0_radial)"/>
<rect width="96" height="96" rx="48" fill="url(#paint1_radial)"/>
<path d="M62.6292 28.4941V67.5037H33.3721V28.4941H62.6292Z" stroke="#FFAF38" stroke-width="2.28571" stroke-miterlimit="10" stroke-linecap="round" stroke-linejoin="round"/>
<path d="M38.248 34.5889H48.0004H57.7528" stroke="#FFAF38" stroke-width="2.28571" stroke-miterlimit="10" stroke-linecap="round" stroke-linejoin="round"/>
<path d="M38.248 39.4639H48.0004H57.7528" stroke="#FFAF38" stroke-width="2.28571" stroke-miterlimit="10" stroke-linecap="round" stroke-linejoin="round"/>
<path d="M38.248 44.3418H48.0004H57.7528" stroke="#FFAF38" stroke-width="2.28571" stroke-miterlimit="10" stroke-linecap="round" stroke-linejoin="round"/>
<path d="M38.248 49.2168H44.9528H51.6576" stroke="#FFAF38" stroke-width="2.28571" stroke-miterlimit="10" stroke-linecap="round" stroke-linejoin="round"/>
<path d="M47.0859 62.6284C47.3907 60.9523 48.0002 59.4284 48.9145 58.2094C49.8288 57.1427 50.8955 56.5332 51.6574 56.5332C52.5717 56.5332 52.2669 58.057 51.9621 59.5808C51.6574 61.1046 51.3526 62.6284 52.2669 62.6284C53.0288 62.6284 53.6383 61.7142 54.4002 60.7999C55.0097 59.8856 55.7717 58.9713 56.5336 58.9713C57.2955 58.9713 57.2955 59.7332 57.1431 60.6475C57.1431 61.5618 57.1431 62.4761 57.7526 62.7808" stroke="#FFAF38" stroke-width="2.28571" stroke-miterlimit="10" stroke-linecap="round" stroke-linejoin="round"/>
<defs>
<radialGradient id="paint0_radial" cx="0" cy="0" r="1" gradientUnits="userSpaceOnUse" gradientTransform="translate(-4.77144e-06 96) rotate(-45) scale(135.765 90.6552)">
<stop offset="0.263029" stop-color="white" stop-opacity="0.24"/>
<stop offset="0.810988" stop-color="white" stop-opacity="0"/>
</radialGradient>
<radialGradient id="paint1_radial" cx="0" cy="0" r="1" gradientUnits="userSpaceOnUse" gradientTransform="translate(-4.77144e-06 96) rotate(-45) scale(135.765 90.6552)">
<stop offset="0.263029" stop-color="#FFAF38" stop-opacity="0.24"/>
<stop offset="0.810888" stop-color="#FF9538" stop-opacity="0"/>
<stop offset="0.810988" stop-color="#FFAF38" stop-opacity="0"/>
</radialGradient>
</defs>
</svg>
