<svg width="96" height="96" viewBox="0 0 96 96" fill="none" xmlns="http://www.w3.org/2000/svg">
<rect width="96" height="96" rx="48" fill="url(#paint0_radial)"/>
<rect width="96" height="96" rx="48" fill="url(#paint1_radial)"/>
<path d="M57.6003 70.8568C59.1151 70.8568 60.3431 69.6288 60.3431 68.1139C60.3431 66.5991 59.1151 65.3711 57.6003 65.3711C56.0854 65.3711 54.8574 66.5991 54.8574 68.1139C54.8574 69.6288 56.0854 70.8568 57.6003 70.8568Z" stroke="#3FD298" stroke-width="2.28571" stroke-miterlimit="10" stroke-linecap="round" stroke-linejoin="round"/>
<path d="M60.6479 45.8669C60.6479 54.0955 53.9432 60.8002 45.7146 60.8002C37.486 60.8002 30.7812 54.0955 30.7812 45.8669H45.7146V31.0859C49.067 31.0859 52.1146 32.1526 54.5527 33.9812C58.2098 36.5717 60.6479 40.9907 60.6479 45.8669Z" stroke="#3FD298" stroke-width="2.28571" stroke-miterlimit="10" stroke-linecap="round" stroke-linejoin="round"/>
<path d="M41.448 26.8184V41.7517H26.5146C26.5146 33.3707 33.2194 26.8184 41.448 26.8184Z" stroke="#3FD298" stroke-width="2.28571" stroke-miterlimit="10" stroke-linecap="round" stroke-linejoin="round"/>
<path d="M43.4284 55.9232C44.9432 55.9232 46.1713 54.6952 46.1713 53.1804C46.1713 51.6655 44.9432 50.4375 43.4284 50.4375C41.9136 50.4375 40.6855 51.6655 40.6855 53.1804C40.6855 54.6952 41.9136 55.9232 43.4284 55.9232Z" stroke="#3FD298" stroke-width="2.28571" stroke-miterlimit="10" stroke-linecap="round" stroke-linejoin="round"/>
<path d="M69.7907 51.2006C71.3055 51.2006 72.5336 49.9725 72.5336 48.4577C72.5336 46.9429 71.3055 45.7148 69.7907 45.7148C68.2759 45.7148 67.0479 46.9429 67.0479 48.4577C67.0479 49.9725 68.2759 51.2006 69.7907 51.2006Z" stroke="#3FD298" stroke-width="2.28571" stroke-miterlimit="10" stroke-linecap="round" stroke-linejoin="round"/>
<path d="M45.2578 55.1602L49.9816 60.1887L55.7721 66.284" stroke="#3FD298" stroke-width="2.28571" stroke-miterlimit="10" stroke-linecap="round" stroke-linejoin="round"/>
<path d="M68.4193 50.5898L58.9717 65.8279" stroke="#3FD298" stroke-width="2.28571" stroke-miterlimit="10" stroke-linecap="round" stroke-linejoin="round"/>
<path d="M41.4478 55.0098L37.9431 58.6669L31.0859 65.5241" stroke="#3FD298" stroke-width="2.28571" stroke-miterlimit="10" stroke-linecap="round" stroke-linejoin="round"/>
<defs>
<radialGradient id="paint0_radial" cx="0" cy="0" r="1" gradientUnits="userSpaceOnUse" gradientTransform="translate(-4.77144e-06 96) rotate(-45) scale(135.765 90.6552)">
<stop offset="0.263029" stop-color="white" stop-opacity="0.24"/>
<stop offset="0.810988" stop-color="white" stop-opacity="0"/>
</radialGradient>
<radialGradient id="paint1_radial" cx="0" cy="0" r="1" gradientUnits="userSpaceOnUse" gradientTransform="translate(-4.77144e-06 96) rotate(-45) scale(135.765 90.6552)">
<stop offset="0.263029" stop-color="#50FFC1" stop-opacity="0.24"/>
<stop offset="0.810988" stop-color="#50FFC1" stop-opacity="0"/>
</radialGradient>
</defs>
</svg>
