<svg width="96" height="96" viewBox="0 0 96 96" fill="none" xmlns="http://www.w3.org/2000/svg">
<rect width="96" height="96" rx="48" fill="url(#paint0_radial)"/>
<rect width="96" height="96" rx="48" fill="url(#paint1_radial)"/>
<path d="M66.8944 30.6289C67.9611 30.6289 68.723 31.3908 68.723 32.4575L68.5706 54.0956C68.5706 55.0099 67.8087 55.9241 66.7421 55.9241H51.1992H44.6468H29.104C28.1897 55.9241 27.2754 55.1622 27.2754 54.0956V32.4575C27.2754 31.5432 28.0373 30.6289 29.104 30.6289H66.8944Z" stroke="#3CCFC7" stroke-width="2.28571" stroke-miterlimit="10" stroke-linecap="round" stroke-linejoin="round"/>
<path d="M57.7528 65.6764C57.7528 67.2002 53.3338 68.4193 48.0004 68.4193C42.6671 68.4193 38.248 67.2002 38.248 65.6764C38.248 64.4574 40.9909 63.5431 44.8004 63.0859V64.6097H51.3528V63.0859C55.1623 63.5431 57.7528 64.6097 57.7528 65.6764Z" stroke="#3CCFC7" stroke-width="2.28571" stroke-miterlimit="10" stroke-linecap="round" stroke-linejoin="round"/>
<path d="M51.3512 55.9238H44.7988V64.6095H51.3512V55.9238Z" stroke="#3CCFC7" stroke-width="2.28571" stroke-miterlimit="10" stroke-linecap="round" stroke-linejoin="round"/>
<path d="M50.1324 44.3435V48.7625C50.1324 49.9816 49.2181 50.8959 47.9991 50.8959C47.3896 50.8959 46.9324 50.5911 46.4753 50.2863C46.1705 49.9816 45.8658 49.3721 45.8658 48.7625V44.3435C44.6467 43.5816 43.7324 42.3625 43.7324 40.6863C43.7324 38.2482 45.8658 36.2673 48.3039 36.5721C50.2848 36.7244 51.8086 38.4006 51.961 40.2292C52.4181 42.0578 51.5038 43.5816 50.1324 44.3435Z" stroke="#3CCFC7" stroke-width="2.28571" stroke-miterlimit="10" stroke-linecap="round" stroke-linejoin="round"/>
<defs>
<radialGradient id="paint0_radial" cx="0" cy="0" r="1" gradientUnits="userSpaceOnUse" gradientTransform="translate(-4.77144e-06 96) rotate(-45) scale(135.765 90.6552)">
<stop offset="0.263029" stop-color="white" stop-opacity="0.24"/>
<stop offset="0.810988" stop-color="white" stop-opacity="0"/>
</radialGradient>
<radialGradient id="paint1_radial" cx="0" cy="0" r="1" gradientUnits="userSpaceOnUse" gradientTransform="translate(-4.77144e-06 96) rotate(-45) scale(135.765 90.6552)">
<stop offset="0.263029" stop-color="#50FFF5" stop-opacity="0.24"/>
<stop offset="0.810988" stop-color="#50FFF5" stop-opacity="0"/>
</radialGradient>
</defs>
</svg>
