<svg width="96" height="96" viewBox="0 0 96 96" fill="none" xmlns="http://www.w3.org/2000/svg">
<rect width="96" height="96" rx="48" fill="url(#paint0_radial)"/>
<rect width="96" height="96" rx="48" fill="url(#paint1_radial)"/>
<path d="M56.5336 64.1524C56.2289 69.3333 52.5717 72.381 48.0003 72.381C43.4289 72.381 39.7717 69.3333 39.4669 64.1524C39.0098 58.6667 42.2098 54.8571 48.0003 48C53.7908 54.8571 56.9908 58.6667 56.5336 64.1524Z" stroke="#3CCFC7" stroke-width="2.28571" stroke-miterlimit="10" stroke-linecap="round" stroke-linejoin="round"/>
<path d="M64.6778 55.9239C64.0822 66.2858 56.9346 72.381 48.0002 72.381C39.0657 72.381 31.9182 66.2858 31.3226 55.9239C30.4291 44.9525 36.6832 37.3334 48.0002 23.6191C59.3171 37.3334 65.5713 44.9525 64.6778 55.9239Z" stroke="#3CCFC7" stroke-width="2.28571" stroke-miterlimit="10" stroke-linecap="round" stroke-linejoin="round"/>
<defs>
<radialGradient id="paint0_radial" cx="0" cy="0" r="1" gradientUnits="userSpaceOnUse" gradientTransform="translate(-4.77144e-06 96) rotate(-45) scale(135.765 90.6552)">
<stop offset="0.263029" stop-color="white" stop-opacity="0.24"/>
<stop offset="0.810988" stop-color="white" stop-opacity="0"/>
</radialGradient>
<radialGradient id="paint1_radial" cx="0" cy="0" r="1" gradientUnits="userSpaceOnUse" gradientTransform="translate(-4.77144e-06 96) rotate(-45) scale(135.765 90.6552)">
<stop offset="0.263029" stop-color="#50FFF5" stop-opacity="0.24"/>
<stop offset="0.810988" stop-color="#50FFF5" stop-opacity="0"/>
</radialGradient>
</defs>
</svg>
