<svg width="343" height="343" viewBox="0 0 343 343" fill="none" xmlns="http://www.w3.org/2000/svg">
<path d="M304.531 255.021C291.708 212.585 221.834 181.023 148.343 184.484C74.8512 187.945 25.6473 225.09 38.4706 267.526C51.294 309.961 121.172 341.644 194.663 338.183C268.155 334.722 317.355 297.457 304.531 255.021Z" fill="url(#paint0_radial)"/>
<path d="M130.612 76.4226C126.482 79.1392 124.004 83.7457 124.004 88.7065L124.24 283.595C124.712 290.918 132.972 295.17 139.463 291.509L211.328 241.192C215.576 238.357 218.054 233.751 218.054 228.672C218.054 228.672 217.818 46.1853 217.818 42.0513C217.818 34.9645 208.732 31.3029 202.359 34.9645L130.612 76.4226Z" fill="url(#paint1_linear)"/>
<path d="M139.7 291.745C146.309 287.139 211.683 241.428 211.683 241.428C216.404 238.357 218.528 233.751 218.528 228.554L218.292 42.524C218.292 38.6262 216.05 35.5552 212.982 34.0198C209.677 32.3662 205.429 32.8386 202.361 34.6103L130.496 76.0684C128.49 77.3677 126.956 79.1394 125.776 81.1474C124.478 83.3915 123.77 85.9901 123.77 88.7067C123.77 88.7067 124.006 274.855 124.006 283.595C124.006 292.336 133.092 296.352 139.7 291.745ZM217.584 42.0515C217.584 44.7682 217.82 228.554 217.82 228.554C217.82 229.617 217.702 230.68 217.466 231.625C216.994 233.397 215.342 238.121 209.087 240.838L141.116 97.2109C141.116 97.2109 132.266 94.4943 129.316 90.9508C126.366 87.2893 127.9 83.1553 128.018 83.1553C129.198 80.9111 130.85 79.0213 132.974 77.6039L204.485 36.2639C204.603 36.2639 204.603 36.1458 204.721 36.1458L204.839 36.0277C207.199 34.6103 209.205 34.0198 212.274 34.9647C215.224 35.7915 217.584 39.453 217.584 42.0515Z" fill="url(#paint2_linear)"/>
<path d="M216.994 42.2879V227.964C216.994 233.042 214.516 237.885 210.268 240.72C210.268 240.72 142.179 287.493 138.639 289.855C135.571 291.863 129.434 289.737 129.434 284.895C129.434 280.761 129.316 91.8959 129.316 91.8959C129.316 86.9351 131.795 82.3286 135.925 79.612L207.436 38.272C212.628 35.201 216.64 37.9176 216.994 42.2879Z" fill="url(#paint3_linear)"/>
<path d="M214.749 227.136C214.749 230.679 213.215 235.286 210.029 237.53C210.029 237.53 144.3 282.649 140.996 284.894C137.574 287.256 134.506 284.776 134.506 281.468L134.27 91.8949C134.27 88.4696 136.04 85.1624 138.872 83.2726L154.802 74.0596V76.5401C154.802 79.4929 156.573 80.7922 158.697 79.4929L189.968 61.3033C192.092 60.0041 193.862 56.6969 193.862 53.744V51.2636L207.905 43.1137C211.563 41.1058 214.395 42.8775 214.513 45.9485L214.749 227.136Z" fill="url(#paint4_linear)"/>
<path d="M181.71 59.7695C181.592 59.7695 181.474 59.7695 181.356 59.8876L165.543 69.1006C165.071 69.3368 164.717 70.0455 164.717 70.636C164.717 71.2266 165.071 71.581 165.543 71.2266L181.356 62.0137C181.828 61.7775 182.182 61.0688 182.182 60.4782C182.3 60.1239 182.064 59.7695 181.71 59.7695Z" fill="url(#paint5_linear)"/>
<path d="M184.894 58.9409C184.894 59.5314 184.54 60.2401 184.068 60.4763H183.95C183.478 60.7126 183.124 60.4763 183.124 59.8858C183.124 59.2952 183.478 58.5865 183.95 58.3503H184.068C184.54 58.1141 184.894 58.3503 184.894 58.9409Z" fill="url(#paint6_linear)"/>
<path d="M142.886 171.032C142.65 167.843 143.358 165.126 146.072 163.355C146.072 163.355 200.709 127.802 202.597 126.385C204.603 125.086 206.491 126.739 206.727 129.456C206.963 132.291 206.137 135.244 203.187 137.015C203.187 137.015 149.14 172.922 147.252 173.985C145.6 175.284 143.24 173.867 142.886 171.032Z" fill="url(#paint7_linear)"/>
<path d="M147.252 173.984C146.898 173.984 146.544 173.866 146.19 173.748C145.364 173.275 144.892 172.212 144.774 170.795C144.538 168.315 145.364 165.834 147.37 164.535L203.54 127.329C204.366 126.857 205.31 126.738 206.018 127.211C206.844 127.683 207.316 128.746 207.434 130.164C207.67 132.644 206.962 135.006 204.838 136.424L148.786 173.512C148.314 173.748 147.724 173.984 147.252 173.984Z" fill="url(#paint8_linear)"/>
<path d="M125.891 106.897V103.236C125.891 102.409 126.363 102.173 126.953 102.645C127.543 103.118 128.015 104.062 128.015 104.889V108.551C128.015 109.378 127.543 109.614 126.953 109.141C126.363 108.669 125.891 107.724 125.891 106.897Z" fill="url(#paint9_linear)"/>
<path d="M128.133 104.888C128.133 104.061 127.661 103.116 127.071 102.644C126.953 102.525 126.835 102.525 126.599 102.525C126.599 102.644 126.599 102.762 126.599 102.88V106.541C126.599 107.368 127.071 108.313 127.661 108.785C127.779 108.904 127.897 108.904 128.133 109.022C128.133 108.904 128.133 108.785 128.133 108.667V104.888Z" fill="url(#paint10_linear)"/>
<path d="M124.83 107.37C124.83 106.544 125.302 106.307 125.892 106.78C126.482 107.252 126.954 108.197 126.954 109.024C126.954 109.851 126.482 110.087 125.892 109.615C125.42 109.142 124.83 108.197 124.83 107.37Z" fill="url(#paint11_linear)"/>
<path d="M126.013 106.896C126.603 107.368 127.075 108.313 127.075 109.14C127.075 109.494 126.957 109.73 126.839 109.849L127.547 109.376H127.665H127.783C128.019 109.022 128.019 108.904 128.019 108.549C128.019 107.722 127.547 106.778 126.957 106.305C126.603 106.069 126.367 106.069 126.131 106.187H126.013L125.187 106.659C125.423 106.541 125.659 106.659 126.013 106.896Z" fill="url(#paint12_linear)"/>
<path d="M125.773 112.212C126.363 112.685 126.836 113.63 126.836 114.457V124.496C126.836 124.851 126.718 125.087 126.481 125.205L127.544 124.614H127.662C127.898 124.496 128.016 124.26 128.016 123.788V113.748C128.016 112.921 127.544 111.976 126.954 111.504C126.599 111.268 126.481 111.268 126.245 111.268L125.065 111.976C125.183 111.858 125.537 111.976 125.773 112.212Z" fill="url(#paint13_linear)"/>
<path d="M124.712 122.842V112.802C124.712 111.975 125.184 111.739 125.774 112.211C126.364 112.684 126.836 113.629 126.836 114.456V124.495C126.836 125.322 126.364 125.558 125.774 125.086C125.184 124.495 124.712 123.55 124.712 122.842Z" fill="url(#paint14_linear)"/>
<path d="M125.895 127.212C126.485 127.685 126.957 128.63 126.957 129.457V139.496C126.957 139.851 126.839 140.087 126.603 140.205L127.665 139.615H127.783C128.019 139.496 128.137 139.26 128.137 138.788V128.748C128.137 127.921 127.665 126.976 127.075 126.504C126.721 126.268 126.485 126.268 126.367 126.268L125.187 126.976C125.305 126.976 125.541 126.976 125.895 127.212Z" fill="url(#paint15_linear)"/>
<path d="M124.712 137.844V127.804C124.712 126.977 125.184 126.741 125.774 127.213C126.364 127.686 126.836 128.631 126.836 129.458V139.497C126.836 140.324 126.364 140.56 125.774 140.088C125.302 139.615 124.712 138.552 124.712 137.844Z" fill="url(#paint16_linear)"/>
<path d="M151.851 169.852L236.815 201.624C239.175 202.569 242.833 202.097 244.957 200.679L290.98 170.088C293.104 168.67 292.868 166.899 290.39 165.954L205.426 134.181C203.066 133.236 199.407 133.709 197.283 135.126L151.261 165.718C149.255 167.135 149.491 169.025 151.851 169.852Z" fill="url(#paint17_linear)"/>
<path d="M240.878 185.325L251.262 189.223C251.97 189.459 253.032 189.341 253.74 188.986L255.275 187.923C255.865 187.451 255.865 186.979 255.157 186.624L244.772 182.726C244.064 182.49 243.002 182.608 242.294 182.963L240.76 184.026C240.052 184.498 240.17 184.971 240.878 185.325Z" fill="url(#paint18_linear)"/>
<path d="M225.301 179.421L235.685 183.318C236.393 183.555 237.455 183.437 238.163 183.082L239.697 182.019C240.287 181.547 240.287 181.074 239.579 180.72L229.195 176.822C228.487 176.586 227.425 176.704 226.717 177.058L225.183 178.121C224.475 178.594 224.593 179.184 225.301 179.421Z" fill="url(#paint19_linear)"/>
<path d="M209.607 173.632L219.992 177.529C220.7 177.766 221.762 177.647 222.47 177.293L224.004 176.23C224.594 175.758 224.594 175.285 223.886 174.931L213.502 171.033C212.793 170.797 211.731 170.915 211.023 171.269L209.489 172.332C208.899 172.805 208.899 173.277 209.607 173.632Z" fill="url(#paint20_linear)"/>
<path d="M194.03 167.727L204.415 171.625C205.123 171.861 206.185 171.743 206.893 171.389L208.427 170.326C209.017 169.853 209.017 169.381 208.309 169.027L197.924 165.129C197.216 164.893 196.154 165.011 195.446 165.365L193.912 166.428C193.204 166.9 193.322 167.491 194.03 167.727Z" fill="url(#paint21_linear)"/>
<path d="M220.465 187.096L242.178 195.246C242.886 195.482 243.948 195.364 244.656 195.009L245.364 194.537C245.954 194.064 245.954 193.592 245.246 193.238L223.533 185.088C222.825 184.852 221.763 184.97 221.055 185.324L220.347 185.796C219.757 186.269 219.757 186.859 220.465 187.096Z" fill="url(#paint22_linear)"/>
<path d="M267.312 176.229L270.38 177.41C270.616 177.528 270.97 177.41 271.206 177.292L271.56 177.056C272.622 176.347 272.504 175.402 271.324 174.93L270.026 174.457C269.79 174.339 269.436 174.457 269.2 174.575L267.312 175.874C267.076 175.993 267.076 176.229 267.312 176.229Z" fill="url(#paint23_linear)"/>
<path d="M259.997 176.703L263.065 177.884C263.301 178.002 263.655 177.884 263.892 177.766L268.848 174.458C269.084 174.34 269.084 174.104 268.848 173.986L265.78 172.805C265.544 172.687 265.19 172.805 264.954 172.923L259.997 176.23C259.761 176.348 259.761 176.584 259.997 176.703Z" fill="url(#paint24_linear)"/>
<path d="M258.698 173.04L261.766 174.221C262.002 174.339 262.356 174.221 262.592 174.103L264.48 172.804C264.716 172.686 264.716 172.45 264.48 172.332L263.182 171.859C262.002 171.387 260.114 171.623 259.17 172.332L258.816 172.568C258.462 172.804 258.462 172.922 258.698 173.04Z" fill="url(#paint25_linear)"/>
<path d="M264.36 178.238L267.428 179.419C267.664 179.537 268.018 179.419 268.254 179.301L270.142 178.001C270.378 177.883 270.378 177.647 270.142 177.529L267.074 176.348C266.838 176.23 266.484 176.348 266.248 176.466L264.36 177.765C264.006 178.001 264.124 178.238 264.36 178.238Z" fill="url(#paint26_linear)"/>
<path d="M261.292 180.365L262.59 180.837C263.77 181.309 265.658 181.073 266.602 180.365L266.956 180.128C267.192 180.01 267.192 179.774 266.956 179.656L263.888 178.475C263.652 178.357 263.298 178.475 263.062 178.593L261.174 179.892C261.056 180.01 261.056 180.246 261.292 180.365Z" fill="url(#paint27_linear)"/>
<path d="M256.93 178.71L259.998 179.891C260.234 180.009 260.588 179.891 260.824 179.773L262.712 178.474C262.948 178.356 262.948 178.12 262.712 178.002L259.644 176.82C259.408 176.702 259.054 176.82 258.818 176.939L256.93 178.238C256.694 178.356 256.694 178.592 256.93 178.71Z" fill="url(#paint28_linear)"/>
<path d="M254.331 177.765L255.629 178.237C255.865 178.355 256.219 178.237 256.455 178.119L261.412 174.812C261.648 174.694 261.648 174.458 261.412 174.339L258.343 173.158C258.107 173.04 257.753 173.158 257.517 173.276L254.095 175.521C253.033 176.347 253.151 177.292 254.331 177.765Z" fill="url(#paint29_linear)"/>
<path d="M171.254 167.134C172.906 166.071 175.856 165.717 177.745 166.425C179.633 167.134 179.869 168.67 178.217 169.733C176.564 170.796 173.614 171.15 171.726 170.441C169.838 169.733 169.602 168.197 171.254 167.134Z" fill="url(#paint30_linear)"/>
<path d="M166.063 165.128C167.715 164.065 170.665 163.711 172.553 164.419C174.441 165.128 174.677 166.664 173.025 167.727C171.373 168.79 168.423 169.144 166.535 168.435C164.647 167.727 164.411 166.309 166.063 165.128Z" fill="url(#paint31_linear)"/>
<defs>
<radialGradient id="paint0_radial" cx="0" cy="0" r="1" gradientUnits="userSpaceOnUse" gradientTransform="translate(171.464 261.314) rotate(-2.68715) scale(129.638 89.3621)">
<stop stop-color="#24948A" stop-opacity="0.5"/>
<stop offset="0.666667" stop-color="#18ADA1" stop-opacity="0.05"/>
<stop offset="1" stop-color="#50BAB1" stop-opacity="0"/>
<stop offset="1" stop-color="#50BAB1" stop-opacity="0"/>
</radialGradient>
<linearGradient id="paint1_linear" x1="122.37" y1="191.572" x2="232.126" y2="125.709" gradientUnits="userSpaceOnUse">
<stop stop-color="#1DBAB1"/>
<stop offset="1" stop-color="#3FD298"/>
</linearGradient>
<linearGradient id="paint2_linear" x1="127.359" y1="292.179" x2="212.296" y2="33.6464" gradientUnits="userSpaceOnUse">
<stop stop-color="#378B7A"/>
<stop offset="0.7263" stop-color="#1DBAB1"/>
</linearGradient>
<linearGradient id="paint3_linear" x1="86.7444" y1="215.026" x2="259.361" y2="111.442" gradientUnits="userSpaceOnUse">
<stop stop-color="#3CCFC7"/>
<stop offset="1" stop-color="#6AF0C8"/>
</linearGradient>
<linearGradient id="paint4_linear" x1="135.274" y1="279.412" x2="210.827" y2="49.4413" gradientUnits="userSpaceOnUse">
<stop stop-color="#87EAD3"/>
<stop offset="0.3436" stop-color="#A3F2D5"/>
<stop offset="1" stop-color="#E2FFF6"/>
</linearGradient>
<linearGradient id="paint5_linear" x1="170.986" y1="73.3589" x2="176.06" y2="57.9157" gradientUnits="userSpaceOnUse">
<stop stop-color="#46786E"/>
<stop offset="0.838" stop-color="#1DBAB1"/>
</linearGradient>
<linearGradient id="paint6_linear" x1="183.642" y1="60.7234" x2="184.459" y2="58.2389" gradientUnits="userSpaceOnUse">
<stop stop-color="#46786E"/>
<stop offset="0.838" stop-color="#1DBAB1"/>
</linearGradient>
<linearGradient id="paint7_linear" x1="145.732" y1="175.086" x2="201.891" y2="125.625" gradientUnits="userSpaceOnUse">
<stop stop-color="#1DBAB1"/>
<stop offset="1" stop-color="#3CCFC7"/>
</linearGradient>
<linearGradient id="paint8_linear" x1="173.122" y1="147.435" x2="178.233" y2="154.698" gradientUnits="userSpaceOnUse">
<stop offset="0.1592" stop-color="#46786E"/>
<stop offset="1" stop-color="#1DBAB1"/>
</linearGradient>
<linearGradient id="paint9_linear" x1="125.866" y1="105.905" x2="128.104" y2="105.905" gradientUnits="userSpaceOnUse">
<stop stop-color="#46786E"/>
<stop offset="0.7263" stop-color="#1DBAB1"/>
</linearGradient>
<linearGradient id="paint10_linear" x1="126.512" y1="105.677" x2="128.092" y2="105.677" gradientUnits="userSpaceOnUse">
<stop stop-color="#1DBAB1"/>
<stop offset="1" stop-color="#3FD298"/>
</linearGradient>
<linearGradient id="paint11_linear" x1="125.254" y1="108.841" x2="126.723" y2="107.61" gradientUnits="userSpaceOnUse">
<stop stop-color="#3CCFC7"/>
<stop offset="1" stop-color="#6EFFF0"/>
</linearGradient>
<linearGradient id="paint12_linear" x1="126.62" y1="109.737" x2="126.62" y2="106.108" gradientUnits="userSpaceOnUse">
<stop stop-color="#1DBAB1"/>
<stop offset="1" stop-color="#3CCFC7"/>
</linearGradient>
<linearGradient id="paint13_linear" x1="126.572" y1="123.405" x2="126.572" y2="113.193" gradientUnits="userSpaceOnUse">
<stop stop-color="#1DBAB1"/>
<stop offset="1" stop-color="#3CCFC7"/>
</linearGradient>
<linearGradient id="paint14_linear" x1="124.898" y1="119.354" x2="127.35" y2="117.298" gradientUnits="userSpaceOnUse">
<stop stop-color="#3CCFC7"/>
<stop offset="1" stop-color="#6EFFF0"/>
</linearGradient>
<linearGradient id="paint15_linear" x1="126.63" y1="140.176" x2="126.63" y2="126.284" gradientUnits="userSpaceOnUse">
<stop stop-color="#1DBAB1"/>
<stop offset="1" stop-color="#3CCFC7"/>
</linearGradient>
<linearGradient id="paint16_linear" x1="122.681" y1="136.307" x2="129.083" y2="130.94" gradientUnits="userSpaceOnUse">
<stop stop-color="#3CCFC7"/>
<stop offset="1" stop-color="#6EFFF0"/>
</linearGradient>
<linearGradient id="paint17_linear" x1="154.973" y1="161.969" x2="205.626" y2="239.11" gradientUnits="userSpaceOnUse">
<stop stop-color="#438378"/>
<stop offset="0.0989583" stop-color="#4FBEB6"/>
<stop offset="0.1732" stop-color="#56DDD6"/>
<stop offset="0.6879" stop-color="#80F0C3"/>
<stop offset="1" stop-color="#C9FFE1"/>
</linearGradient>
<linearGradient id="paint18_linear" x1="243.443" y1="186.845" x2="246.454" y2="181.663" gradientUnits="userSpaceOnUse">
<stop stop-color="#1DBAB1"/>
<stop offset="1" stop-color="#2EE9DF"/>
</linearGradient>
<linearGradient id="paint19_linear" x1="227.866" y1="180.94" x2="230.877" y2="175.759" gradientUnits="userSpaceOnUse">
<stop stop-color="#1DBAB1"/>
<stop offset="1" stop-color="#2EE9DF"/>
</linearGradient>
<linearGradient id="paint20_linear" x1="212.21" y1="175.151" x2="215.226" y2="169.977" gradientUnits="userSpaceOnUse">
<stop stop-color="#1DBAB1"/>
<stop offset="1" stop-color="#2EE9DF"/>
</linearGradient>
<linearGradient id="paint21_linear" x1="196.596" y1="169.247" x2="199.607" y2="164.065" gradientUnits="userSpaceOnUse">
<stop stop-color="#1DBAB1"/>
<stop offset="1" stop-color="#2EE9DF"/>
</linearGradient>
<linearGradient id="paint22_linear" x1="225.219" y1="191.51" x2="229.665" y2="183.189" gradientUnits="userSpaceOnUse">
<stop stop-color="#1DBAB1"/>
<stop offset="1" stop-color="#2EE9DF"/>
</linearGradient>
<linearGradient id="paint23_linear" x1="267.498" y1="176.978" x2="272.071" y2="175.269" gradientUnits="userSpaceOnUse">
<stop stop-color="#FFC757"/>
<stop offset="1" stop-color="#FFE678"/>
</linearGradient>
<linearGradient id="paint24_linear" x1="259.981" y1="176.987" x2="268.737" y2="173.716" gradientUnits="userSpaceOnUse">
<stop stop-color="#FFC757"/>
<stop offset="1" stop-color="#FFE678"/>
</linearGradient>
<linearGradient id="paint25_linear" x1="258.883" y1="173.893" x2="264.313" y2="171.865" gradientUnits="userSpaceOnUse">
<stop stop-color="#FFC757"/>
<stop offset="1" stop-color="#FFE678"/>
</linearGradient>
<linearGradient id="paint26_linear" x1="264.459" y1="178.996" x2="269.889" y2="176.968" gradientUnits="userSpaceOnUse">
<stop stop-color="#FFC757"/>
<stop offset="1" stop-color="#FFE678"/>
</linearGradient>
<linearGradient id="paint27_linear" x1="261.792" y1="180.628" x2="262.319" y2="178.156" gradientUnits="userSpaceOnUse">
<stop stop-color="#FFC757"/>
<stop offset="1" stop-color="#FFE678"/>
</linearGradient>
<linearGradient id="paint28_linear" x1="257.089" y1="179.39" x2="262.518" y2="177.362" gradientUnits="userSpaceOnUse">
<stop stop-color="#FFC757"/>
<stop offset="1" stop-color="#FFE678"/>
</linearGradient>
<linearGradient id="paint29_linear" x1="253.46" y1="177.06" x2="261.36" y2="174.109" gradientUnits="userSpaceOnUse">
<stop stop-color="#FFC757"/>
<stop offset="1" stop-color="#FFE678"/>
</linearGradient>
<linearGradient id="paint30_linear" x1="171.499" y1="169.58" x2="175.251" y2="164.961" gradientUnits="userSpaceOnUse">
<stop stop-color="#FFC757"/>
<stop offset="1" stop-color="#FFE678"/>
</linearGradient>
<linearGradient id="paint31_linear" x1="166.295" y1="167.635" x2="170.048" y2="163.016" gradientUnits="userSpaceOnUse">
<stop stop-color="#FFC757"/>
<stop offset="1" stop-color="#FFE678"/>
</linearGradient>
</defs>
</svg>
