<svg width="196" height="301" viewBox="0 0 196 301" fill="none" xmlns="http://www.w3.org/2000/svg">
<ellipse cx="98" cy="203" rx="98" ry="97.5" fill="url(#paint0_radial)"/>
<path d="M100 0.5H95V76.5H100V0.5Z" fill="url(#paint1_linear)"/>
<path d="M40 202.88C40 234.88 66.1719 260.689 98.3835 260.499C130.307 260.308 156 234.594 156 202.88C156 185.928 148.618 170.69 136.922 160.119C128.007 152.119 122.926 140.786 122.926 128.786V120.5H73.1702V128.786C73.1702 140.69 68.1851 152.024 59.2694 160.024C47.3818 170.595 40 185.833 40 202.88Z" fill="url(#paint2_radial)"/>
<path d="M40 203.062C40 222.438 49.5368 239.619 64.2234 250.118C64.4142 250.214 64.6049 250.309 64.7956 250.5C58.3106 241.146 54.4005 229.788 54.4005 217.57C54.4005 185.691 80.2452 159.824 112.098 159.824C124.305 159.824 135.654 163.642 145 170.228C144.809 169.942 144.619 169.655 144.428 169.369C142.044 166.028 139.278 163.069 136.322 160.302C127.452 152.284 122.493 140.926 122.493 128.899V120.5L72.9973 120.595V128.899C72.9973 140.83 68.0381 152.188 59.1689 160.206C47.3433 170.705 40 185.977 40 203.062Z" fill="url(#paint3_radial)"/>
<path d="M98.6988 248.816C92.4154 242.529 97.4612 227.191 110.123 214.616C122.69 202.04 138.018 196.896 144.301 203.184C150.585 209.471 145.539 224.809 132.877 237.384C120.31 249.96 104.982 255.104 98.6988 248.816Z" fill="url(#paint4_radial)"/>
<path d="M101.203 120.5L105.147 120.595C104.762 134.71 105.435 147.776 106.975 159.411C108.225 168.757 110.149 177.245 112.554 184.589C115.729 184.78 118.903 185.638 121.789 187.069C126.888 189.548 130.832 193.84 133.045 198.99C134.776 202.995 136.315 208.908 133.237 211.96C131.602 213.581 129.197 213.772 126.599 212.723C123.809 211.483 120.827 208.813 117.941 204.903C114.863 200.611 112.073 195.175 109.764 188.69C106.686 188.881 103.608 189.834 101.01 191.265C106.59 196.701 109.187 204.807 108.321 211.865C107.552 218.064 103.992 223.5 97.7395 223.5C91.4865 223.5 87.9271 218.064 87.1576 211.865C86.2918 204.807 88.7929 196.701 94.4687 191.169C91.9675 189.739 88.9853 188.881 86.1956 188.594C86.1956 188.594 86.1956 188.594 86.1956 188.69C78.7882 211.865 68.2063 215.775 63.3002 211.197C60.799 208.813 60.318 204.617 61.9534 200.134C63.9736 194.698 67.9177 190.12 73.1125 187.355C76.2871 185.733 79.654 184.78 83.1172 184.589C85.1374 177.722 86.6766 169.711 87.9271 160.746C89.4663 149.016 90.4283 135.473 90.5245 120.5H94.4687C94.2763 135.569 93.4105 149.302 91.7751 161.223C90.6207 169.997 89.0815 177.818 87.1576 184.684C90.7169 185.161 94.3725 186.401 97.5471 188.499C100.722 186.401 104.57 185.066 108.225 184.684C105.916 177.341 104.089 169.044 102.838 159.983C101.491 148.062 100.914 134.806 101.203 120.5ZM69.3607 208.431C70.7075 207.859 72.9201 206.333 75.5175 202.614C77.9224 199.085 80.135 194.412 82.059 188.594C79.654 188.881 77.3453 189.644 75.1327 190.788C70.8037 193.077 67.4367 196.892 65.8014 201.374C64.9356 203.758 64.647 206.81 66.1862 208.241C67.052 209.099 68.2063 208.908 69.3607 208.431ZM130.543 209.099C131.217 208.431 131.794 205.856 129.485 200.516C127.657 196.224 124.29 192.695 120.058 190.597C118.23 189.644 116.21 189.071 114.093 188.69C116.21 194.126 118.615 198.799 121.212 202.423C125.541 208.336 129.485 210.053 130.543 209.099ZM97.8357 219.494C100.529 219.494 103.704 217.301 104.473 211.293C105.243 205.094 102.934 198.036 97.8357 193.458C92.7371 198.036 90.4283 205.094 91.1979 211.293C91.9675 217.301 95.1421 219.494 97.8357 219.494Z" fill="url(#paint5_radial)"/>
<path d="M123 90.8469V121.061C123 121.061 111.92 122.5 97.9516 122.5C83.983 122.5 73 121.061 73 121.061V90.8469C73 86.051 76.0828 82.8857 79.84 80.9673C83.5972 78.9531 88.1251 78.1857 91.1116 78.1857C91.1116 76.3633 94.4835 75.5 97.9516 75.5C101.323 75.5 104.792 76.3633 104.792 78.1857C111.054 78.1857 123 81.5429 123 90.8469Z" fill="url(#paint6_linear)"/>
<path d="M122.726 90.7539V94.6628C110.618 96.7603 95.9349 98.095 81.2526 98.095C78.4878 98.095 75.8183 97.9997 73.2441 97.9997V92.6607C76.7717 92.756 80.4899 92.8514 84.2082 92.8514C96.3163 92.8514 110.427 92.184 122.726 90.7539Z" fill="url(#paint7_linear)"/>
<path d="M122.726 100.287V104.196C110.618 106.293 95.9349 107.628 81.2526 107.628C78.4878 107.628 75.8183 107.533 73.2441 107.533V102.194C76.7717 102.289 80.4899 102.385 84.2082 102.385C96.3163 102.385 110.427 101.717 122.726 100.287Z" fill="url(#paint8_linear)"/>
<path d="M122.726 109.822V113.731C110.618 115.829 95.9349 117.163 81.2526 117.163C78.4878 117.163 75.8183 117.068 73.2441 117.068V111.729C76.7717 111.824 80.4899 111.92 84.2082 111.92C96.3163 111.92 110.427 111.252 122.726 109.822Z" fill="url(#paint9_linear)"/>
<path d="M101.428 78.1501C104.66 78.1501 110.634 81.4626 110.634 90.6432V121.5L117 121.092V90.6432C117 81.4626 107.99 78.1501 103.191 78.1501C103.191 76.4465 100.546 75.5 98 75.5C99.6649 75.5 101.428 76.3518 101.428 78.1501Z" fill="url(#paint10_linear)"/>
<path d="M85.5962 120.428V90.6338C85.5962 81.2697 91.6538 78.1484 94.6346 78.1484C94.6346 76.4459 96.3654 75.5 98 75.5C94.6346 75.5 91.1731 76.3513 91.1731 78.1484C85.2115 78.1484 73 81.2697 73 90.6338V120.428C73 120.428 81.0773 121.374 85.5962 121.5V120.428Z" fill="url(#paint11_linear)"/>
<defs>
<radialGradient id="paint0_radial" cx="0" cy="0" r="1" gradientUnits="userSpaceOnUse" gradientTransform="translate(98 203) rotate(-90) scale(97.5 98)">
<stop offset="0.380208" stop-color="white" stop-opacity="0.1"/>
<stop offset="0.677083" stop-color="#FFC757" stop-opacity="0.15"/>
<stop offset="0.963542" stop-color="#FFC757" stop-opacity="0.02"/>
<stop offset="1" stop-color="#FFC757" stop-opacity="0"/>
</radialGradient>
<linearGradient id="paint1_linear" x1="97.5108" y1="74.2897" x2="97.5108" y2="3.31481" gradientUnits="userSpaceOnUse">
<stop stop-color="#1DBAB1"/>
<stop offset="0.417792" stop-color="#3CCFC7" stop-opacity="0.8"/>
<stop offset="1" stop-color="#3CCFC7" stop-opacity="0"/>
</linearGradient>
<radialGradient id="paint2_radial" cx="0" cy="0" r="1" gradientUnits="userSpaceOnUse" gradientTransform="translate(98.0079 202.753) scale(58.9365 58.549)">
<stop offset="0.00558659" stop-color="#FFE6AA"/>
<stop offset="1" stop-color="#FFC757"/>
</radialGradient>
<radialGradient id="paint3_radial" cx="0" cy="0" r="1" gradientUnits="userSpaceOnUse" gradientTransform="translate(103.166 202.533) rotate(-133.173) scale(68.4048 113.749)">
<stop stop-color="#FFC757" stop-opacity="0.1"/>
<stop offset="0.6338" stop-color="#FFD377"/>
<stop offset="1" stop-color="white" stop-opacity="0.4"/>
</radialGradient>
<radialGradient id="paint4_radial" cx="0" cy="0" r="1" gradientUnits="userSpaceOnUse" gradientTransform="translate(121.507 225.982) rotate(46.4778) scale(14.9002 30.8174)">
<stop stop-color="white" stop-opacity="0.3"/>
<stop offset="0.6341" stop-color="white" stop-opacity="0.25"/>
<stop offset="1" stop-color="white" stop-opacity="0"/>
</radialGradient>
<radialGradient id="paint5_radial" cx="0" cy="0" r="1" gradientUnits="userSpaceOnUse" gradientTransform="translate(98.1107 200.085) scale(71.2223 70.6088)">
<stop offset="0.00558659" stop-color="#FFFFE6"/>
<stop offset="1" stop-color="#FFE6AA"/>
</radialGradient>
<linearGradient id="paint6_linear" x1="87.0808" y1="120.566" x2="112.631" y2="82.3667" gradientUnits="userSpaceOnUse">
<stop stop-color="#1DBAB1"/>
<stop offset="1" stop-color="#3CCFC7"/>
</linearGradient>
<linearGradient id="paint7_linear" x1="121.52" y1="94.4351" x2="73.9839" y2="94.4351" gradientUnits="userSpaceOnUse">
<stop stop-opacity="0.05"/>
<stop offset="0.8128" stop-opacity="0.1"/>
<stop offset="1" stop-opacity="0.15"/>
</linearGradient>
<linearGradient id="paint8_linear" x1="121.52" y1="103.968" x2="73.9839" y2="103.968" gradientUnits="userSpaceOnUse">
<stop stop-opacity="0.05"/>
<stop offset="0.8128" stop-opacity="0.1"/>
<stop offset="1" stop-opacity="0.15"/>
</linearGradient>
<linearGradient id="paint9_linear" x1="121.52" y1="113.503" x2="73.9839" y2="113.503" gradientUnits="userSpaceOnUse">
<stop stop-opacity="0.05"/>
<stop offset="0.8128" stop-opacity="0.1"/>
<stop offset="1" stop-opacity="0.15"/>
</linearGradient>
<linearGradient id="paint10_linear" x1="107.434" y1="74.0244" x2="107.434" y2="119.14" gradientUnits="userSpaceOnUse">
<stop stop-color="white" stop-opacity="0.2"/>
<stop offset="0.2374" stop-color="white" stop-opacity="0.25"/>
<stop offset="1" stop-color="white" stop-opacity="0.05"/>
</linearGradient>
<linearGradient id="paint11_linear" x1="85.6366" y1="119.323" x2="85.6366" y2="75.2923" gradientUnits="userSpaceOnUse">
<stop stop-opacity="0.2"/>
<stop offset="0.9944" stop-opacity="0.02"/>
</linearGradient>
</defs>
</svg>
