<svg width="188" height="32" viewBox="0 0 188 32" fill="none" xmlns="http://www.w3.org/2000/svg">
<g clip-path="url(#clip0)">
<path d="M31.2092 4.47533V4.5084C31.2092 5.2249 30.4198 5.66583 29.8083 5.29104C28.3296 4.38715 26.5506 3.72576 24.427 3.72576C22.3145 3.72576 20.5356 4.38715 19.068 5.28002C18.4565 5.6548 17.6671 5.20286 17.6671 4.49738V4.45329C17.6671 4.19976 17.7671 3.96827 17.945 3.7919C19.6906 2.10537 21.8698 1.03613 24.427 1.03613C26.9954 1.03613 29.1857 2.11639 30.9313 3.81395C31.1092 3.99032 31.2092 4.23283 31.2092 4.47533Z" fill="#1DBAB1"/>
<path d="M45.7854 3.65966C46.0189 2.64554 46.9306 1.91802 47.9757 1.91802H48.0313C48.5428 1.91802 48.9541 1.51016 48.9541 1.0031V0.914916C48.9541 0.407854 48.5428 0 48.0313 0H41.3714C40.86 0 40.4486 0.407854 40.4486 0.914916V0.992077C40.4486 1.49914 40.86 1.90699 41.3714 1.90699C42.2386 1.90699 42.8835 2.70065 42.6945 3.54943L37.2131 27.8553C37.1798 27.8223 37.1464 27.7782 37.1131 27.7451C36.2681 26.7751 35.3453 25.8381 34.3446 24.9452C33.0994 23.8319 31.7429 22.7957 30.3086 21.8588C29.775 21.5171 29.2635 21.1864 28.7632 20.8667C28.1628 20.4809 27.5847 20.1061 27.051 19.7534C28.3518 18.6951 29.4303 17.5928 30.2531 16.2921C30.6311 15.6969 30.909 15.0355 31.0647 14.33C31.2092 13.6907 31.2759 13.0293 31.2315 12.3569C31.1981 11.7286 31.0869 11.1113 30.8979 10.5381C30.7089 9.94282 30.4421 9.42473 30.1085 8.97279C29.4414 8.07992 28.5964 7.38546 27.5958 6.93352C26.6618 6.51464 25.6056 6.3052 24.4493 6.3052C23.293 6.3052 22.2367 6.51464 21.3028 6.93352C20.3021 7.38546 19.4571 8.06889 18.79 8.97279C18.4676 9.41371 18.2008 9.94282 18.0006 10.5381C17.8116 11.1113 17.7004 11.7286 17.6671 12.3569C17.6337 13.0293 17.6893 13.6907 17.8338 14.33C18.0006 15.0355 18.2786 15.6969 18.6455 16.2921C19.4682 17.5928 20.5467 18.6951 21.8476 19.7534C21.3028 20.1061 20.7357 20.4809 20.1353 20.8667C19.635 21.1864 19.1236 21.5171 18.5899 21.8588C17.1556 22.7957 15.7992 23.8319 14.5539 24.9452C13.5533 25.8381 12.6193 26.7751 11.7855 27.7451C11.7521 27.7782 11.7188 27.8223 11.6854 27.8553L6.24852 3.54943C6.05951 2.71168 6.70437 1.90699 7.5716 1.90699H7.58272C8.09416 1.90699 8.50554 1.49914 8.50554 0.992077V0.914916C8.50554 0.407854 8.09416 0 7.58272 0H0.922824C0.411379 0 0 0.407854 0 0.914916V0.992077C0 1.49914 0.411379 1.90699 0.922824 1.90699H0.967297C2.02354 1.90699 2.93525 2.63452 3.15761 3.64864L9.28383 30.7103C9.45061 31.4599 10.1288 31.989 10.896 31.989H11.6409C12.0857 31.989 12.5082 31.7795 12.7528 31.4158C13.053 30.9859 13.4977 30.3906 14.1092 29.6962C15.2989 28.3293 17.3335 26.29 20.2799 24.361C20.8025 24.0193 21.3139 23.6886 21.8031 23.3689C22.737 22.7627 23.6265 22.1895 24.4604 21.6273C25.2943 22.1895 26.1837 22.7627 27.1177 23.3689C27.6069 23.6886 28.1183 24.0193 28.6409 24.361C31.5539 26.257 33.5663 28.2632 34.756 29.619C35.3897 30.3465 35.8567 30.9638 36.168 31.4048C36.4237 31.7685 36.8462 31.989 37.291 31.989H38.0359C38.8142 31.989 39.4813 31.4599 39.6481 30.7103L45.7854 3.65966ZM24.4715 17.9676C23.0817 16.9204 21.9921 15.8953 21.2472 14.7048C20.858 14.0985 20.669 13.3159 20.7135 12.5112C20.758 11.6955 21.0248 11.0672 21.2583 10.7475C21.9699 9.77747 23.0261 9.3145 24.4715 9.3145C25.9169 9.3145 26.9731 9.78849 27.6847 10.7475C27.9182 11.0672 28.185 11.6955 28.2295 12.5112C28.274 13.3159 28.085 14.0985 27.6958 14.7048C26.9509 15.8843 25.8613 16.9094 24.4715 17.9676Z" fill="#1DBAB1"/>
<path d="M75.407 9.50195H78.6314L73.15 24.802H70.4371L66.8459 14.6828L63.2324 24.802H60.5196L55.0382 9.50195H58.4849L62.0428 20.0731L65.7674 9.50195H68.1245L71.7602 20.2164L75.407 9.50195Z" fill="#1DBAB1"/>
<path d="M88.1487 19.6211H80.9106C80.9662 20.6352 81.233 21.3738 81.7111 21.8478C82.1892 22.3107 82.8897 22.5422 83.8347 22.5422C84.4018 22.5422 84.9577 22.454 85.5247 22.2667C86.0918 22.0793 86.6032 21.8037 87.0813 21.4509L87.9485 23.6445C87.426 24.0634 86.7811 24.3831 86.0139 24.6256C85.2356 24.8571 84.4685 24.9783 83.6902 24.9783C81.8446 24.9783 80.388 24.4713 79.3318 23.4682C78.2756 22.454 77.753 21.0762 77.753 19.3345C77.753 18.2322 77.9754 17.2512 78.4312 16.3803C78.8871 15.5095 79.5208 14.8371 80.3436 14.3631C81.1663 13.8781 82.1003 13.6466 83.1343 13.6466C84.6797 13.6466 85.9027 14.1426 86.7922 15.1347C87.6928 16.1268 88.1375 17.4716 88.1375 19.1581V19.6211H88.1487ZM81.7222 16.4465C81.3442 16.7992 81.0885 17.3283 80.9773 18.0117H85.3357C85.1578 16.6118 84.4574 15.9063 83.2343 15.9063C82.6006 15.9063 82.1003 16.0827 81.7222 16.4465Z" fill="#1DBAB1"/>
<path d="M91.5175 23.4682C90.4946 22.4651 89.9943 21.0982 89.9943 19.3676C89.9943 18.2322 90.2389 17.2402 90.7281 16.3693C91.2173 15.4985 91.9067 14.8261 92.7961 14.3521C93.6856 13.8671 94.7085 13.6356 95.8871 13.6356C96.6765 13.6356 97.4547 13.7569 98.1997 13.9994C98.9557 14.2419 99.545 14.5726 100.001 14.9915L99.1336 17.2512C98.7 16.9095 98.2219 16.6339 97.6994 16.4465C97.1768 16.2591 96.6765 16.1599 96.1872 16.1599C95.2867 16.1599 94.5973 16.4245 94.097 16.9646C93.5967 17.5047 93.3521 18.2874 93.3521 19.3125C93.3521 20.3597 93.5967 21.1534 94.0859 21.6825C94.5751 22.2226 95.2755 22.4872 96.1872 22.4872C96.6765 22.4872 97.1879 22.3879 97.6994 22.2006C98.2219 22.0021 98.7 21.7376 99.1336 21.3959L100.001 23.6556C99.5228 24.0745 98.9001 24.3941 98.133 24.6367C97.3658 24.8681 96.5653 24.9894 95.7314 24.9894C93.9413 24.9673 92.5404 24.4713 91.5175 23.4682Z" fill="#1DBAB1"/>
<path d="M112.576 18.2102V24.802H109.307V18.3535C109.307 17.5929 109.162 17.0417 108.884 16.689C108.606 16.3362 108.162 16.1599 107.55 16.1599C106.828 16.1599 106.249 16.3914 105.816 16.8433C105.382 17.3063 105.171 17.9125 105.171 18.6952V24.802H101.902V8.99487H105.171V15.3993C105.56 14.8261 106.06 14.3852 106.661 14.0875C107.272 13.7899 107.939 13.6356 108.673 13.6356C111.275 13.6356 112.576 15.1568 112.576 18.2102Z" fill="#1DBAB1"/>
<path d="M114.455 23.6445L115.322 21.3848C115.9 21.8037 116.545 22.1234 117.245 22.3438C117.957 22.5643 118.68 22.6745 119.413 22.6745C119.981 22.6745 120.414 22.5863 120.714 22.421C121.015 22.2556 121.17 22.0021 121.17 21.6714C121.17 21.3958 121.059 21.1864 120.848 21.0321C120.637 20.8777 120.247 20.7344 119.703 20.6242L117.901 20.2164C116.845 19.9849 116.067 19.6211 115.578 19.1251C115.077 18.629 114.833 17.9566 114.833 17.1299C114.833 16.4575 115.033 15.8512 115.433 15.3221C115.833 14.793 116.378 14.3852 117.09 14.0875C117.801 13.7899 118.613 13.6466 119.536 13.6466C120.314 13.6466 121.081 13.7679 121.837 13.9993C122.593 14.2308 123.26 14.5725 123.85 15.0024L122.938 17.174C122.371 16.7882 121.804 16.4906 121.215 16.2921C120.625 16.0937 120.058 15.9945 119.514 15.9945C118.98 15.9945 118.557 16.0827 118.257 16.2701C117.957 16.4575 117.801 16.711 117.801 17.0417C117.801 17.2842 117.89 17.4826 118.068 17.637C118.246 17.7913 118.568 17.9125 119.035 18.0117L120.881 18.4196C122.004 18.6731 122.827 19.0589 123.327 19.577C123.827 20.0951 124.083 20.7785 124.083 21.6383C124.083 22.6745 123.661 23.4902 122.827 24.0855C121.993 24.6917 120.837 24.9894 119.38 24.9894C117.301 24.9673 115.655 24.5264 114.455 23.6445Z" fill="#1DBAB1"/>
<path d="M136.035 19.6211H128.808C128.864 20.6352 129.131 21.3738 129.609 21.8478C130.087 22.3107 130.788 22.5422 131.733 22.5422C132.3 22.5422 132.856 22.454 133.423 22.2667C133.99 22.0793 134.501 21.8037 134.979 21.4509L135.846 23.6445C135.324 24.0634 134.679 24.3831 133.912 24.6256C133.134 24.8571 132.366 24.9783 131.588 24.9783C129.742 24.9783 128.286 24.4713 127.23 23.4682C126.173 22.454 125.651 21.0762 125.651 19.3345C125.651 18.2322 125.873 17.2512 126.329 16.3803C126.785 15.5095 127.419 14.8371 128.241 14.3631C129.064 13.8781 129.998 13.6466 131.032 13.6466C132.578 13.6466 133.801 14.1426 134.69 15.1347C135.591 16.1268 136.035 17.4716 136.035 19.1581V19.6211ZM129.62 16.4465C129.242 16.7992 128.986 17.3283 128.875 18.0117H133.234C133.056 16.6118 132.355 15.9063 131.132 15.9063C130.498 15.9063 129.998 16.0827 129.62 16.4465Z" fill="#1DBAB1"/>
<path d="M137.981 24.802V8.99487H141.25V24.802H137.981Z" fill="#1DBAB1"/>
<path d="M157.038 16.3584V23.8541C156.282 24.2068 155.415 24.4934 154.403 24.6918C153.402 24.8902 152.368 24.9894 151.312 24.9894C149.678 24.9894 148.266 24.6698 147.065 24.0414C145.864 23.4131 144.941 22.5092 144.308 21.3298C143.663 20.1613 143.34 18.7504 143.34 17.119C143.34 15.5316 143.663 14.1427 144.308 12.9743C144.952 11.8058 145.864 10.8909 147.032 10.2626C148.21 9.62326 149.589 9.30359 151.156 9.30359C152.268 9.30359 153.302 9.45791 154.27 9.75554C155.226 10.0532 156.015 10.4831 156.638 11.0232L155.559 13.4262C154.837 12.9081 154.136 12.5334 153.458 12.3129C152.78 12.0814 152.046 11.9712 151.245 11.9712C148.266 11.9712 146.787 13.6908 146.787 17.13C146.787 20.6353 148.343 22.388 151.445 22.388C152.302 22.388 153.147 22.2778 154.003 22.0683V18.6953H150.967V16.3584H157.038Z" fill="#1DBAB1"/>
<path d="M161.797 24.2839C160.918 23.8209 160.251 23.1706 159.784 22.3108C159.317 21.451 159.084 20.4479 159.084 19.3015C159.084 18.1551 159.317 17.152 159.784 16.2922C160.251 15.4324 160.929 14.771 161.797 14.3191C162.675 13.8561 163.687 13.6356 164.865 13.6356C166.022 13.6356 167.033 13.8671 167.901 14.3191C168.768 14.782 169.435 15.4324 169.902 16.2922C170.369 17.152 170.602 18.1551 170.602 19.3015C170.602 20.4479 170.369 21.451 169.902 22.3108C169.435 23.1706 168.768 23.832 167.901 24.2839C167.033 24.7469 166.022 24.9673 164.865 24.9673C163.687 24.9673 162.664 24.7469 161.797 24.2839ZM166.711 21.7045C167.133 21.1754 167.345 20.3707 167.345 19.3015C167.345 18.2433 167.133 17.4386 166.711 16.9095C166.288 16.3693 165.666 16.1048 164.854 16.1048C164.031 16.1048 163.398 16.3693 162.964 16.9095C162.53 17.4496 162.319 18.2433 162.319 19.3015C162.319 21.44 163.164 22.4982 164.854 22.4982C165.666 22.4982 166.288 22.2336 166.711 21.7045Z" fill="#1DBAB1"/>
<path d="M176.706 16.3363V20.5691C176.706 21.1754 176.862 21.6053 177.184 21.8919C177.507 22.1675 177.918 22.3108 178.419 22.3108C178.741 22.3108 179.097 22.2557 179.497 22.1565V24.6697C178.975 24.8681 178.352 24.9673 177.607 24.9673C176.251 24.9673 175.217 24.5926 174.494 23.832C173.782 23.0714 173.426 22.0021 173.426 20.6353V16.3363H171.347V13.9112H173.426V11.3538L176.695 10.3066V13.9112H179.486V16.3363H176.706Z" fill="#1DBAB1"/>
<path d="M184.756 16.3363V20.5691C184.756 21.1754 184.912 21.6053 185.234 21.8919C185.557 22.1675 185.968 22.3108 186.468 22.3108C186.791 22.3108 187.147 22.2557 187.547 22.1565V24.6697C187.024 24.8681 186.402 24.9673 185.657 24.9673C184.3 24.9673 183.266 24.5926 182.544 23.832C181.832 23.0714 181.476 22.0021 181.476 20.6353V16.3363H179.397V13.9112H181.476V11.3538L184.745 10.3066V13.9112H187.536V16.3363H184.756Z" fill="#1DBAB1"/>
</g>
<defs>
<clipPath id="clip0">
<rect width="187.5" height="32" fill="white"/>
</clipPath>
</defs>
</svg>
