<svg width="205" height="224" viewBox="0 0 205 224" fill="none" xmlns="http://www.w3.org/2000/svg">
<g filter="url(#filter0_f)">
<path d="M102.5 207.5C150.273 207.5 189 196.979 189 184C189 171.021 150.273 160.5 102.5 160.5C54.7274 160.5 16 171.021 16 184C16 196.979 54.7274 207.5 102.5 207.5Z" fill="url(#paint0_radial)"/>
</g>
<path d="M47.6868 172.5H158.312L161.813 180.716C162.375 182.035 161.407 183.5 159.973 183.5H46.0256C44.5915 183.5 43.6235 182.035 44.1857 180.716L47.6868 172.5Z" fill="url(#paint1_linear)"/>
<path d="M189 17.897V155.103C188.995 159.715 187.149 164.137 183.869 167.399C180.588 170.66 176.141 172.495 171.502 172.5H33.4985C28.8593 172.495 24.4117 170.66 21.1312 167.399C17.8508 164.137 16.0055 159.715 16 155.103V17.897C15.9982 15.6119 16.4496 13.3488 17.3283 11.2373C18.207 9.12579 19.4959 7.20724 21.1211 5.59143C22.7464 3.97561 24.6761 2.69423 26.7999 1.82059C28.9238 0.946949 31.2 0.498197 33.4985 0.500005H171.502C176.141 0.505464 180.588 2.34011 183.869 5.60149C187.149 8.86287 188.995 13.2847 189 17.897Z" fill="url(#paint2_linear)"/>
<path d="M177 150.86V22.1395C177 16.8158 172.655 12.5 167.295 12.5L37.7046 12.5C32.3449 12.5 28 16.8158 28 22.1395V150.86C28 156.184 32.3449 160.5 37.7046 160.5H167.295C172.655 160.5 177 156.184 177 150.86Z" fill="url(#paint3_linear)"/>
<rect x="31" y="15.5" width="143" height="142" rx="7" fill="url(#paint4_linear)"/>
<path opacity="0.5" d="M181.91 41.0621C181.701 39.4056 180.402 38.5 179.307 38.5L173.984 39.1097C173.723 39.1094 173.465 39.1597 173.224 39.2577C172.983 39.3557 172.765 39.4995 172.58 39.6809C172.396 39.8622 172.25 40.0776 172.15 40.3146C172.051 40.5516 172 40.8056 172 41.0621V59.7075C172 60.0125 172.072 60.3133 172.211 60.5858C172.35 60.8584 172.553 61.0949 172.802 61.2765C173.501 61.9647 175.603 62.3054 177.384 62.478C179.166 62.6506 180.892 61.7764 181.484 60.9089C181.752 60.5688 181.897 60.1509 181.897 59.7209C181.897 59.7209 182.12 42.7186 181.91 41.0621Z" fill="black" fill-opacity="0.1"/>
<path d="M178.198 35.5H172.802C171.807 35.5 171 36.3916 171 37.4916V56.5085C171 57.6084 171.807 58.5 172.802 58.5H178.198C179.193 58.5 180 57.6084 180 56.5085V37.4916C180 36.3916 179.193 35.5 178.198 35.5Z" fill="url(#paint5_linear)"/>
<path opacity="0.5" d="M181.91 121.062C181.701 119.406 180.402 118.5 179.307 118.5L173.984 119.11C173.723 119.109 173.465 119.16 173.224 119.258C172.983 119.356 172.765 119.5 172.58 119.681C172.396 119.862 172.25 120.078 172.15 120.315C172.051 120.552 172 120.806 172 121.062V139.707C172 140.012 172.072 140.313 172.211 140.585C172.35 140.858 172.553 141.094 172.802 141.276C173.501 141.964 175.603 142.303 177.384 142.478C179.166 142.652 180.892 141.776 181.484 140.908C181.751 140.568 181.896 140.15 181.897 139.72C181.897 139.72 182.12 122.71 181.91 121.062Z" fill="black" fill-opacity="0.1"/>
<path d="M178.198 115.5H172.802C171.807 115.5 171 116.43 171 117.578V137.422C171 138.57 171.807 139.5 172.802 139.5H178.198C179.193 139.5 180 138.57 180 137.422V117.578C180 116.43 179.193 115.5 178.198 115.5Z" fill="url(#paint6_linear)"/>
<path fill-rule="evenodd" clip-rule="evenodd" d="M73.2614 36.7421C71.89 36.595 70.5043 36.568 69.1193 36.6587C64.9388 36.9184 60.8503 38.2398 57.2319 40.4994C53.6132 42.7608 50.5814 45.888 48.417 49.5907C46.2523 53.2953 45.0246 57.4575 44.8473 61.6918C44.6699 65.928 45.5491 70.0981 47.4029 73.8208C49.2568 77.5416 52.0259 80.6929 55.4539 82.9847C58.8821 85.2745 62.8585 86.6313 67.0156 86.9267C71.1728 87.2221 75.3766 86.4477 79.2381 84.6754C83.0998 82.9013 86.4945 80.1874 89.1085 76.7838C90.2257 75.3424 91.1865 73.7839 91.9725 72.1411C93.7227 68.5078 94.6128 64.541 94.5702 60.5629C94.5276 56.5849 93.5533 52.7095 91.7273 49.2561C89.9015 45.8007 87.276 42.8656 84.0659 40.6917C80.856 38.516 77.1531 37.1635 73.2614 36.7421ZM67.2302 44.0537C68.8902 43.7532 70.581 43.6876 72.2519 43.8668C75.3382 44.196 78.2564 45.3485 80.7113 47.2039C83.1659 49.0613 85.0706 51.5582 86.2349 54.4428C86.8657 56.008 87.267 57.6567 87.4325 59.3399C86.9661 59.6024 85.9776 59.7396 84.7836 59.7948C83.7199 59.8274 82.6569 59.8253 81.5963 59.7887C80.821 59.7634 80.0472 59.719 79.2751 59.6574C78.9556 59.6385 78.647 59.6132 78.3611 59.5825C78.1787 58.7254 77.8701 57.9011 77.442 57.1372C76.6613 55.747 75.5129 54.6106 74.1199 53.8533L74.0954 53.8507C72.842 53.1778 71.4338 52.8299 69.9925 52.8393C69.8236 52.8405 69.6549 52.8456 69.4866 52.8564L69.1477 51.9787C68.9116 51.3416 68.6883 50.7001 68.4782 50.0542C68.3162 49.5544 68.1618 49.0535 68.0153 48.5495C67.9307 48.2567 67.8487 47.9643 67.7693 47.6701C67.6828 47.3482 67.5992 47.0266 67.519 46.7035C67.2498 45.5572 67.1135 44.5854 67.2302 44.0537ZM59.3327 47.564C58.3967 48.2799 57.5248 49.0857 56.7308 49.9731C54.7713 52.1617 53.344 54.7759 52.5695 57.5953C51.7947 60.4166 51.6961 63.3567 52.2813 66.1714L52.2788 66.1885C52.501 67.2332 52.8149 68.2549 53.2175 69.236C53.8365 70.7498 54.6596 72.1561 55.6591 73.4174C55.9792 73.3186 56.2766 73.1479 56.5277 72.9162C58.1463 71.6695 60.7176 68.6318 62.1629 66.7606C61.9314 66.3864 61.7275 65.994 61.5536 65.5856C60.9282 64.1116 60.7179 62.4777 60.9454 60.8579C61.1535 59.4058 61.7066 58.0139 62.5569 56.8025L62.7267 56.5698L62.8348 56.4271C62.9174 56.3201 63.0022 56.2154 63.0888 56.1147C63.3051 55.86 63.5344 55.6163 63.7754 55.3874C62.8921 53.2664 61.2526 49.7635 60.0256 48.2289C59.8494 47.9533 59.6121 47.7252 59.3327 47.564ZM62.3508 78.4986C63.9017 79.1513 65.5524 79.5734 67.2537 79.7482C70.3452 80.0644 73.4959 79.5475 76.3893 78.2523C79.283 76.9552 81.8182 74.923 83.7408 72.3599C84.7646 70.9954 85.5955 69.5059 86.2147 67.9359C86.1169 67.8405 86.0103 67.7557 85.8964 67.6817C85.7377 67.5798 85.5649 67.4995 85.382 67.4432C83.5556 66.6838 79.7585 66.0487 77.4739 65.7766C77.3664 65.9793 77.2512 66.1792 77.1281 66.3763C76.2529 67.7742 75.0268 68.9202 73.582 69.6877C72.1373 70.4551 70.5277 70.819 68.9268 70.7379C68.2699 70.7041 67.6244 70.5982 67.0022 70.4195L66.4235 71.2066C65.3215 72.7422 64.3026 74.335 63.3713 75.9777C62.7867 77.0362 62.3812 77.9596 62.3508 78.4986Z" fill="black" fill-opacity="0.1"/>
<path d="M61.9238 59.7426C61.9258 61.3115 62.3564 62.8503 63.1692 64.1937C63.9821 65.5371 65.1466 66.6345 66.5378 67.368C67.929 68.1015 69.4942 68.4435 71.0656 68.3572C72.637 68.2709 74.1551 67.7596 75.457 66.8783C76.759 65.9969 77.7956 64.7786 78.4555 63.3543C79.1155 61.93 79.3739 60.3535 79.2031 58.7938C79.0322 57.2342 78.4385 55.7503 77.4858 54.5016C76.533 53.2529 75.257 52.2865 73.795 51.706H73.7708C72.4565 51.1914 71.0362 51.0044 69.633 51.1613C68.2298 51.3181 66.8862 51.8139 65.7188 52.6058C64.5514 53.3977 63.5956 54.4617 62.9343 55.7054C62.2729 56.9491 61.9261 58.3349 61.9238 59.7426Z" fill="url(#paint7_linear)"/>
<path d="M58.2862 47.1332C58.6741 47.2486 59.0205 47.4732 59.2835 47.78C60.7294 49.1561 62.8862 52.4692 64.0181 54.3854L64.1665 54.6434C64.7497 55.6515 66.3923 55.7959 67.8279 54.9668C69.2635 54.1377 69.964 52.6515 69.3808 51.6469C69.1807 51.3029 68.946 50.8797 68.6906 50.4256C67.8296 48.8466 67.0565 47.2215 66.3751 45.5576C65.8747 44.2881 65.5917 43.2354 65.785 42.8053C66.2854 41.6941 61.4748 44.0129 61.4748 44.0129C61.4748 44.0129 57.0714 47.0094 58.2862 47.1332Z" fill="url(#paint8_linear)"/>
<path d="M87.7087 64.0641C87.4124 63.7886 87.0438 63.6025 86.6458 63.5274C84.7133 62.9769 80.7792 62.7602 78.5396 62.743H78.2428C77.0764 62.743 76.1274 61.4013 76.1309 59.743C76.1343 58.0848 77.0764 56.7431 78.2394 56.7431C78.6431 56.7431 79.1194 56.7431 79.6197 56.719C81.422 56.6739 83.2204 56.5292 85.0066 56.2855C86.3594 56.0826 87.4222 55.8004 87.6914 55.422C88.4058 54.4312 88.7992 59.743 88.7992 59.743C88.7992 59.743 88.4196 65.0549 87.7087 64.0641Z" fill="url(#paint9_linear)"/>
<path d="M58.2852 72.3544C58.6727 72.2382 59.0188 72.0137 59.2825 71.7076C60.725 70.3143 62.8852 67.0185 64.0137 65.1022L64.1655 64.8442C64.7487 63.8362 66.3879 63.6917 67.8269 64.5208C69.266 65.3499 69.9631 66.8361 69.3799 67.8407C69.1797 68.1847 68.945 68.6044 68.6897 69.062C67.828 70.6407 67.0549 72.2658 66.3741 73.93C65.8737 75.1961 65.5908 76.2522 65.784 76.6823C66.2844 77.7901 61.4738 75.4747 61.4738 75.4747C61.4738 75.4747 57.067 72.4748 58.2852 72.3544Z" fill="url(#paint10_linear)"/>
<path d="M66.5464 35.803C67.8836 35.5749 69.2377 35.4598 70.5943 35.459C74.445 35.4618 78.2401 36.3745 81.6684 38.1225C85.0967 39.8704 88.0606 42.4036 90.3168 45.5144C92.5731 48.6252 94.0575 52.2249 94.6483 56.0182C95.239 59.8116 94.9194 63.6905 93.7154 67.3369C93.1763 68.9869 92.4553 70.5723 91.5655 72.0639C89.4882 75.5813 86.5547 78.5199 83.0365 80.6078C79.5182 82.6957 75.5287 83.8655 71.4368 84.0092C67.3449 84.1529 63.2827 83.2657 59.6259 81.4297C55.969 79.5937 52.8355 76.8682 50.515 73.5052C48.1946 70.1421 46.7622 66.2501 46.3502 62.1889C45.9382 58.1278 46.5599 54.0287 48.1579 50.2705C49.7559 46.5124 52.2786 43.2166 55.4927 40.6878C58.7068 38.1591 62.5085 36.479 66.5464 35.803ZM70.5943 42.3637C67.7908 42.3654 65.0291 43.0407 62.5429 44.3324C60.0568 45.6241 57.9196 47.4941 56.3123 49.784C54.705 52.074 53.675 54.7164 53.3096 57.4874C52.9441 60.2584 53.2539 63.0764 54.2128 65.7027C54.2125 65.7085 54.2125 65.7142 54.2128 65.7199C54.5736 66.6955 55.0205 67.6373 55.5483 68.5341C57.0932 71.1633 59.3041 73.3414 61.9594 74.8503C64.6148 76.3592 67.6213 77.1458 70.6777 77.1312C73.7341 77.1167 76.7329 76.3015 79.3737 74.7674C82.0145 73.2334 84.2044 71.0343 85.724 68.3905C87.2436 65.7468 88.0395 62.7513 88.0319 59.7043C88.0243 56.6573 87.2134 53.6658 85.6807 51.0296C84.1479 48.3935 81.947 46.2053 79.2986 44.6843C76.6502 43.1633 73.6473 42.3631 70.5909 42.3637H70.5943Z" fill="url(#paint11_linear)"/>
<path opacity="0.5" d="M150.976 118.925C153.469 116.867 155.637 114.443 157.408 111.737C161.438 105.596 163.278 98.2676 162.63 90.9371C161.982 83.6066 158.884 76.7029 153.837 71.3432C148.79 65.9836 142.09 62.4814 134.82 61.4035C127.55 60.3256 120.137 61.7349 113.779 65.4036C112.815 65.9597 111.894 66.5542 111.014 67.1868L110.999 67.1954C107.455 69.7563 104.463 73.0063 102.202 76.7521C99.9404 80.4979 98.4554 84.6631 97.8352 88.9997C97.2151 93.3364 97.4725 97.756 98.5921 101.996C99.7117 106.235 101.671 110.208 104.352 113.679C107.034 117.149 110.384 120.045 114.202 122.196C118.021 124.346 122.23 125.706 126.58 126.196C130.93 126.685 135.331 126.294 139.522 125.045C143.713 123.796 147.608 121.715 150.976 118.925Z" fill="black" fill-opacity="0.1"/>
<path d="M149.518 116.969C142.276 121.157 133.698 122.392 125.556 120.42C117.414 118.448 110.333 113.419 105.776 106.373C101.219 99.328 99.5351 90.8051 101.073 82.5677C102.611 74.3303 107.253 67.0085 114.039 62.1168C120.223 57.6607 127.775 55.5189 135.385 56.0637C142.995 56.6085 150.18 59.8054 155.694 65.0989C161.208 70.3925 164.701 77.4483 165.566 85.0406C166.432 92.633 164.616 100.282 160.433 106.659C157.644 110.905 153.902 114.437 149.504 116.973L149.518 116.969Z" fill="url(#paint12_linear)"/>
<path d="M146.774 112.215C141.005 115.546 134.207 116.632 127.677 115.264C121.147 113.896 115.342 110.171 111.367 104.799C107.392 99.4267 105.527 92.7827 106.125 86.1334C106.724 79.4841 109.745 73.2945 114.613 68.7442C117.596 65.9565 121.171 63.8806 125.07 62.6714C128.97 61.4622 133.094 61.1509 137.135 61.7606C141.176 62.3703 145.03 63.8853 148.41 66.1928C151.789 68.5002 154.608 71.5405 156.654 75.0871C158.442 78.1817 159.605 81.5973 160.076 85.1387C160.547 88.6801 160.316 92.2778 159.398 95.7263C158.48 99.1748 156.891 102.406 154.724 105.237C152.556 108.067 149.852 110.44 146.766 112.22L146.774 112.215Z" fill="url(#paint13_linear)"/>
<path d="M145.353 110.643L142.616 105.904C142.557 105.801 142.541 105.68 142.572 105.566C142.602 105.452 142.676 105.355 142.778 105.296C142.88 105.237 143.002 105.221 143.116 105.251C143.23 105.282 143.328 105.356 143.388 105.458L146.125 110.198C146.184 110.301 146.2 110.423 146.17 110.538C146.139 110.653 146.064 110.751 145.962 110.81C145.859 110.868 145.737 110.883 145.623 110.852C145.509 110.821 145.412 110.746 145.353 110.643Z" fill="url(#paint14_linear)"/>
<path d="M122.947 71.8329L120.21 67.093C120.151 66.9907 120.135 66.8693 120.165 66.7554C120.196 66.6415 120.27 66.5444 120.372 66.4855C120.474 66.4265 120.596 66.4104 120.71 66.4408C120.824 66.4711 120.922 66.5454 120.982 66.6475L123.718 71.3873C123.777 71.4903 123.792 71.6121 123.761 71.7262C123.731 71.8403 123.656 71.9375 123.554 71.9965C123.452 72.0553 123.331 72.0712 123.217 72.0405C123.103 72.0098 123.006 71.9351 122.947 71.8329Z" fill="url(#paint15_linear)"/>
<path d="M126.277 112.79L127.683 107.511C127.713 107.397 127.788 107.3 127.89 107.241C127.992 107.182 128.114 107.166 128.228 107.197C128.284 107.212 128.338 107.238 128.384 107.273C128.431 107.309 128.47 107.354 128.499 107.405C128.528 107.455 128.547 107.511 128.555 107.57C128.563 107.628 128.559 107.687 128.544 107.743L127.14 113.025C127.109 113.139 127.034 113.236 126.932 113.295C126.83 113.354 126.709 113.37 126.594 113.34C126.538 113.324 126.484 113.298 126.437 113.262C126.391 113.226 126.351 113.181 126.322 113.13C126.292 113.079 126.273 113.023 126.266 112.965C126.258 112.906 126.262 112.847 126.277 112.79Z" fill="url(#paint16_linear)"/>
<path d="M137.788 69.554L139.197 64.2738C139.212 64.2171 139.238 64.164 139.273 64.1175C139.309 64.0709 139.353 64.0319 139.404 64.0027C139.454 63.9734 139.51 63.9545 139.568 63.947C139.626 63.9395 139.685 63.9436 139.742 63.959C139.856 63.9903 139.953 64.0653 140.012 64.1677C140.071 64.2701 140.088 64.3917 140.058 64.5059L138.652 69.7844C138.637 69.8414 138.611 69.8947 138.575 69.9414C138.539 69.9881 138.495 70.0273 138.444 70.0567C138.393 70.0861 138.337 70.1052 138.278 70.1127C138.22 70.1203 138.161 70.1163 138.104 70.101C137.99 70.0697 137.893 69.9947 137.834 69.8923C137.775 69.7898 137.758 69.6683 137.788 69.554Z" fill="url(#paint17_linear)"/>
<path d="M155.102 76.5096L150.379 79.236C150.276 79.2953 150.154 79.3113 150.04 79.2804C149.925 79.2494 149.827 79.1742 149.768 79.0711C149.709 78.9682 149.694 78.8464 149.725 78.7323C149.755 78.6181 149.83 78.521 149.932 78.462L154.655 75.7355C154.757 75.6765 154.878 75.6604 154.993 75.6908C155.107 75.7211 155.205 75.7954 155.265 75.8975C155.324 76.0005 155.34 76.1229 155.31 76.2377C155.279 76.3525 155.204 76.4503 155.102 76.5096Z" fill="url(#paint18_linear)"/>
<path d="M116.412 98.8475L111.684 101.577C111.581 101.636 111.46 101.651 111.346 101.62C111.232 101.588 111.135 101.513 111.075 101.411C111.016 101.309 111 101.187 111.031 101.073C111.061 100.959 111.135 100.862 111.237 100.803L115.965 98.0734C116.068 98.0144 116.189 97.9983 116.303 98.0287C116.418 98.059 116.515 98.1333 116.575 98.2353C116.635 98.3384 116.651 98.4608 116.621 98.5756C116.59 98.6904 116.515 98.7882 116.412 98.8475Z" fill="url(#paint19_linear)"/>
<path d="M157.293 95.615L152.014 94.1919C151.9 94.1606 151.803 94.0856 151.744 93.9832C151.685 93.8808 151.668 93.7592 151.698 93.645C151.73 93.531 151.805 93.4342 151.908 93.3751C152.01 93.316 152.132 93.2993 152.246 93.3285L157.52 94.7504C157.634 94.7828 157.731 94.8584 157.791 94.9611C157.85 95.0638 157.867 95.1854 157.838 95.3003C157.807 95.4142 157.732 95.5112 157.63 95.5702C157.528 95.6291 157.407 95.6453 157.293 95.615Z" fill="url(#paint20_linear)"/>
<path d="M114.09 83.9673L108.815 82.5453C108.759 82.5303 108.706 82.5041 108.659 82.4684C108.613 82.4327 108.574 82.3882 108.544 82.3374C108.515 82.2865 108.496 82.2304 108.488 82.1723C108.481 82.1141 108.484 82.055 108.5 81.9984C108.515 81.9418 108.541 81.8886 108.576 81.8421C108.612 81.7955 108.656 81.7565 108.707 81.7273C108.757 81.698 108.813 81.6791 108.871 81.6716C108.929 81.6641 108.988 81.6682 109.045 81.6836L114.319 83.1055C114.376 83.1206 114.429 83.1468 114.475 83.1825C114.522 83.2181 114.561 83.2627 114.59 83.3135C114.62 83.3643 114.639 83.4205 114.646 83.4786C114.654 83.5368 114.65 83.5959 114.635 83.6525C114.62 83.7091 114.594 83.7623 114.558 83.8088C114.523 83.8553 114.479 83.8944 114.428 83.9236C114.377 83.9529 114.321 83.9718 114.263 83.9793C114.205 83.9868 114.146 83.9827 114.09 83.9673Z" fill="url(#paint21_linear)"/>
<path d="M139.263 113.038L137.843 107.757C137.827 107.7 137.822 107.641 137.829 107.582C137.837 107.523 137.855 107.467 137.885 107.416C137.914 107.364 137.953 107.32 138 107.284C138.047 107.249 138.101 107.223 138.158 107.208C138.215 107.193 138.274 107.19 138.332 107.197C138.39 107.205 138.446 107.224 138.497 107.254C138.548 107.284 138.592 107.323 138.627 107.37C138.663 107.417 138.689 107.47 138.704 107.527L140.124 112.808C140.154 112.923 140.137 113.044 140.079 113.147C140.02 113.25 139.923 113.325 139.809 113.356C139.694 113.386 139.573 113.369 139.471 113.309C139.369 113.25 139.294 113.152 139.263 113.038Z" fill="url(#paint22_linear)"/>
<path d="M127.634 69.7692L126.218 64.4944C126.188 64.3797 126.204 64.2579 126.263 64.1553C126.322 64.0527 126.419 63.9775 126.533 63.9459C126.647 63.9163 126.769 63.9332 126.871 63.9929C126.973 64.0525 127.048 64.1502 127.078 64.2646L128.5 69.5483C128.53 69.6629 128.513 69.7846 128.454 69.8868C128.395 69.9889 128.297 70.0634 128.183 70.0938C128.126 70.1099 128.066 70.1142 128.007 70.1064C127.948 70.0987 127.891 70.0791 127.84 70.0487C127.789 70.0184 127.744 69.978 127.709 69.9299C127.673 69.8819 127.648 69.8272 127.634 69.7692Z" fill="url(#paint23_linear)"/>
<path d="M120.271 110.169L122.993 105.437C123.022 105.386 123.061 105.341 123.107 105.306C123.153 105.27 123.206 105.243 123.263 105.228C123.32 105.213 123.379 105.209 123.437 105.217C123.495 105.224 123.551 105.244 123.602 105.273C123.653 105.302 123.697 105.341 123.733 105.388C123.769 105.434 123.796 105.487 123.811 105.544C123.826 105.601 123.83 105.66 123.823 105.718C123.815 105.776 123.796 105.832 123.767 105.883L121.042 110.616C121.013 110.667 120.974 110.712 120.928 110.748C120.881 110.784 120.828 110.81 120.772 110.825C120.715 110.841 120.656 110.845 120.598 110.837C120.54 110.829 120.484 110.81 120.433 110.78C120.331 110.72 120.256 110.622 120.226 110.508C120.196 110.393 120.212 110.271 120.271 110.169Z" fill="url(#paint24_linear)"/>
<path d="M142.569 71.4149L145.292 66.6832C145.321 66.6323 145.359 66.5875 145.406 66.5517C145.452 66.5158 145.505 66.4895 145.562 66.4742C145.618 66.459 145.677 66.4551 145.735 66.4628C145.793 66.4706 145.849 66.4897 145.9 66.5192C145.951 66.5483 145.996 66.5873 146.032 66.6337C146.068 66.6802 146.094 66.7333 146.11 66.79C146.125 66.8467 146.129 66.9058 146.121 66.964C146.114 67.0222 146.095 67.0783 146.066 67.1291L143.343 71.8608C143.314 71.9117 143.275 71.9565 143.229 71.9923C143.183 72.0282 143.13 72.0545 143.073 72.0697C143.017 72.085 142.958 72.0889 142.9 72.0812C142.842 72.0734 142.785 72.0543 142.735 72.0248C142.684 71.9957 142.639 71.9567 142.603 71.9103C142.567 71.8638 142.541 71.8107 142.525 71.754C142.51 71.6973 142.506 71.6382 142.513 71.58C142.521 71.5218 142.54 71.4657 142.569 71.4149Z" fill="url(#paint25_linear)"/>
<path d="M157.507 82.6085L152.233 84.0154C152.177 84.0308 152.118 84.035 152.06 84.0275C152.002 84.0201 151.946 84.0012 151.895 83.972C151.844 83.9429 151.8 83.904 151.764 83.8575C151.728 83.8111 151.702 83.7581 151.687 83.7015C151.657 83.5868 151.673 83.465 151.732 83.3624C151.791 83.2598 151.888 83.1846 152.002 83.153L157.275 81.7461C157.331 81.7307 157.39 81.7266 157.448 81.7342C157.506 81.7417 157.562 81.7608 157.613 81.7901C157.663 81.8195 157.708 81.8586 157.743 81.9053C157.778 81.9519 157.804 82.0051 157.819 82.0617C157.834 82.1182 157.839 82.1772 157.831 82.2353C157.824 82.2935 157.805 82.3495 157.776 82.4003C157.747 82.4511 157.709 82.4957 157.662 82.5314C157.616 82.5671 157.563 82.5933 157.507 82.6085Z" fill="url(#paint26_linear)"/>
<path d="M114.333 94.1417L109.06 95.5487C109.003 95.5642 108.945 95.5682 108.887 95.5606C108.829 95.5531 108.773 95.534 108.722 95.5047C108.672 95.4753 108.627 95.4362 108.592 95.3895C108.557 95.3429 108.531 95.2897 108.516 95.2331C108.5 95.1766 108.496 95.1175 108.503 95.0594C108.511 95.0013 108.529 94.9453 108.558 94.8945C108.587 94.8437 108.626 94.7991 108.672 94.7634C108.719 94.7277 108.772 94.7015 108.828 94.6863L114.102 93.2794C114.158 93.2639 114.217 93.2598 114.275 93.2673C114.333 93.2747 114.389 93.2936 114.44 93.3227C114.491 93.3519 114.535 93.3908 114.571 93.4373C114.607 93.4837 114.633 93.5367 114.648 93.5933C114.678 93.708 114.662 93.8298 114.603 93.9324C114.544 94.035 114.447 94.1102 114.333 94.1417Z" fill="url(#paint27_linear)"/>
<path d="M154.686 101.626L149.953 98.8838C149.85 98.8239 149.776 98.7259 149.746 98.6113C149.715 98.4967 149.731 98.3748 149.79 98.2723C149.85 98.1701 149.947 98.0957 150.062 98.0656C150.176 98.0354 150.298 98.0518 150.4 98.1113L155.129 100.852C155.18 100.881 155.225 100.92 155.261 100.967C155.297 101.013 155.323 101.066 155.339 101.123C155.354 101.18 155.358 101.239 155.35 101.297C155.343 101.355 155.324 101.411 155.295 101.462C155.266 101.513 155.227 101.558 155.181 101.594C155.134 101.629 155.081 101.656 155.025 101.671C154.968 101.686 154.909 101.69 154.851 101.682C154.793 101.675 154.737 101.656 154.686 101.626Z" fill="url(#paint28_linear)"/>
<path d="M115.942 79.1934L111.21 76.4541C111.108 76.3942 111.034 76.2962 111.003 76.1816C110.973 76.067 110.989 75.9451 111.048 75.8426C111.108 75.7404 111.205 75.666 111.32 75.6359C111.434 75.6057 111.556 75.6221 111.658 75.6816L116.387 78.4225C116.438 78.4516 116.483 78.4906 116.519 78.537C116.555 78.5835 116.581 78.6366 116.596 78.6933C116.612 78.75 116.616 78.8091 116.608 78.8673C116.601 78.9255 116.582 78.9816 116.552 79.0324C116.493 79.1346 116.395 79.2089 116.281 79.2391C116.166 79.2693 116.045 79.2528 115.942 79.1934Z" fill="url(#paint29_linear)"/>
<path d="M132.756 113.771L132.75 108.303C132.75 108.185 132.796 108.071 132.88 107.987C132.963 107.903 133.076 107.856 133.195 107.855C133.253 107.855 133.311 107.867 133.365 107.89C133.42 107.912 133.469 107.945 133.51 107.987C133.552 108.029 133.584 108.078 133.607 108.132C133.629 108.187 133.64 108.245 133.64 108.304L133.651 113.772C133.651 113.831 133.64 113.889 133.617 113.943C133.595 113.997 133.562 114.047 133.521 114.088C133.479 114.129 133.43 114.162 133.376 114.184C133.322 114.206 133.263 114.218 133.205 114.217C133.086 114.217 132.973 114.17 132.889 114.086C132.805 114.003 132.757 113.889 132.756 113.771Z" fill="url(#paint30_linear)"/>
<path d="M132.696 68.9935L132.689 63.526C132.689 63.4075 132.736 63.2939 132.819 63.2099C132.902 63.126 133.016 63.0786 133.134 63.0781C133.193 63.0781 133.251 63.0897 133.305 63.1123C133.359 63.1348 133.408 63.1679 133.45 63.2095C133.491 63.2512 133.524 63.3006 133.546 63.355C133.568 63.4094 133.58 63.4676 133.579 63.5263L133.596 69.0039C133.596 69.1224 133.549 69.2361 133.466 69.32C133.383 69.4039 133.269 69.4513 133.151 69.4518C133.091 69.4527 133.031 69.4414 132.975 69.4187C132.92 69.3959 132.869 69.3621 132.826 69.3193C132.784 69.2766 132.75 69.2256 132.728 69.1696C132.706 69.1137 132.695 69.0537 132.696 68.9935Z" fill="url(#paint31_linear)"/>
<path d="M115.138 106.075L118.994 102.211C119.078 102.128 119.192 102.082 119.31 102.082C119.428 102.082 119.542 102.129 119.626 102.212C119.668 102.254 119.7 102.303 119.723 102.357C119.745 102.412 119.756 102.47 119.756 102.528C119.756 102.587 119.744 102.645 119.722 102.699C119.699 102.753 119.666 102.802 119.625 102.843L115.769 106.706C115.728 106.748 115.679 106.78 115.625 106.803C115.571 106.825 115.513 106.836 115.454 106.836C115.396 106.836 115.338 106.824 115.284 106.801C115.23 106.778 115.181 106.745 115.14 106.703C115.098 106.662 115.065 106.613 115.042 106.559C115.02 106.505 115.008 106.447 115.008 106.389C115.008 106.33 115.019 106.272 115.042 106.218C115.064 106.165 115.097 106.116 115.138 106.075Z" fill="url(#paint32_linear)"/>
<path d="M146.712 74.452L150.567 70.5884C150.608 70.5471 150.657 70.5144 150.711 70.4922C150.765 70.47 150.823 70.4587 150.882 70.459C150.94 70.4593 150.998 70.4711 151.052 70.4939C151.106 70.5166 151.155 70.5498 151.196 70.5915C151.238 70.6326 151.271 70.6816 151.294 70.7356C151.317 70.7895 151.328 70.8474 151.328 70.9059C151.329 70.9645 151.317 71.0224 151.295 71.0763C151.272 71.1303 151.239 71.1792 151.198 71.2203L147.343 75.0839C147.258 75.1667 147.145 75.213 147.026 75.2128C146.908 75.2125 146.795 75.1657 146.71 75.0824C146.669 75.0409 146.636 74.9916 146.614 74.9374C146.591 74.8832 146.58 74.8251 146.58 74.7665C146.58 74.708 146.592 74.65 146.614 74.596C146.637 74.542 146.67 74.4931 146.712 74.452Z" fill="url(#paint33_linear)"/>
<path d="M158.25 89.1298L152.791 89.1216C152.733 89.1216 152.674 89.11 152.62 89.0874C152.566 89.0649 152.517 89.0318 152.476 88.9902C152.434 88.9485 152.401 88.8991 152.379 88.8447C152.357 88.7904 152.345 88.7322 152.346 88.6735C152.346 88.6148 152.357 88.5566 152.379 88.5024C152.402 88.4482 152.435 88.399 152.476 88.3577C152.518 88.3163 152.567 88.2836 152.621 88.2614C152.675 88.2393 152.733 88.2281 152.792 88.2285L158.253 88.2397C158.311 88.2397 158.369 88.2513 158.424 88.2738C158.478 88.2964 158.527 88.3294 158.568 88.3711C158.61 88.4128 158.643 88.4622 158.665 88.5166C158.687 88.5709 158.698 88.6291 158.698 88.6878C158.698 88.7464 158.686 88.8044 158.663 88.8583C158.641 88.9123 158.608 88.9612 158.566 89.0023C158.524 89.0434 158.475 89.0757 158.421 89.0976C158.367 89.1195 158.309 89.1304 158.25 89.1298Z" fill="url(#paint34_linear)"/>
<path d="M113.542 89.0675L108.083 89.0593C107.965 89.0592 107.851 89.0122 107.767 88.9286C107.683 88.8449 107.636 88.7314 107.635 88.6129C107.635 88.5542 107.646 88.4961 107.668 88.4419C107.691 88.3877 107.724 88.3385 107.765 88.2971C107.807 88.2558 107.856 88.2231 107.91 88.2009C107.964 88.1787 108.022 88.1675 108.081 88.168L113.543 88.1744C113.602 88.1744 113.66 88.186 113.714 88.2086C113.768 88.2311 113.817 88.2642 113.859 88.3058C113.9 88.3475 113.933 88.3969 113.955 88.4513C113.977 88.5056 113.989 88.5638 113.988 88.6225C113.989 88.6813 113.977 88.7394 113.955 88.7936C113.932 88.8478 113.9 88.897 113.858 88.9383C113.817 88.9797 113.767 89.0124 113.713 89.0346C113.659 89.0567 113.601 89.0679 113.542 89.0675Z" fill="url(#paint35_linear)"/>
<path d="M150.615 106.751L146.752 102.881C146.71 102.839 146.677 102.79 146.654 102.736C146.631 102.682 146.619 102.624 146.619 102.565C146.619 102.506 146.63 102.448 146.652 102.394C146.675 102.34 146.708 102.29 146.749 102.249C146.79 102.207 146.839 102.174 146.894 102.151C146.948 102.129 147.006 102.117 147.065 102.117C147.124 102.117 147.182 102.129 147.237 102.152C147.291 102.175 147.34 102.208 147.381 102.25L151.245 106.121C151.328 106.204 151.376 106.318 151.376 106.436C151.377 106.555 151.331 106.668 151.248 106.752C151.164 106.835 151.05 106.882 150.932 106.881C150.813 106.881 150.7 106.834 150.615 106.751Z" fill="url(#paint36_linear)"/>
<path d="M118.965 75.0597L115.1 71.1864C115.017 71.1026 114.969 70.9892 114.969 70.8709C114.968 70.7525 115.014 70.6389 115.097 70.5547C115.181 70.4718 115.295 70.4255 115.413 70.4258C115.532 70.4261 115.645 70.4729 115.73 70.5561L119.595 74.4294C119.636 74.4705 119.669 74.5194 119.692 74.5734C119.715 74.6274 119.726 74.6853 119.727 74.7438C119.727 74.8023 119.715 74.8602 119.693 74.9142C119.67 74.9681 119.638 75.0171 119.596 75.0581C119.555 75.0999 119.506 75.1331 119.452 75.1559C119.398 75.1786 119.34 75.1903 119.281 75.1905C119.223 75.1906 119.165 75.1791 119.11 75.1567C119.056 75.1342 119.007 75.1013 118.965 75.0597Z" fill="url(#paint37_linear)"/>
<path opacity="0.5" d="M142.111 101.047C147.339 94.0837 147.705 82.6755 141.393 77.9156C139.479 76.5193 137.171 75.7715 134.806 75.7813L127.719 77.2671C124.382 78.6883 121.468 80.9457 119.256 83.8226C114.03 90.7888 115.122 101.109 121.432 105.866C127.741 110.622 136.884 108.01 142.111 101.047Z" fill="black" fill-opacity="0.1"/>
<path d="M140.186 101.339C137.303 103.006 133.927 103.609 130.641 103.046C127.355 102.483 124.366 100.788 122.189 98.2548C120.013 95.7214 118.787 92.5085 118.723 89.1715C118.659 85.8345 119.761 82.583 121.839 79.979C123.916 77.375 126.838 75.5822 130.101 74.9103C133.363 74.2385 136.76 74.7298 139.705 76.2994C142.65 77.869 144.958 80.4183 146.229 83.5066C147.501 86.595 147.656 90.0283 146.669 93.2133C145.607 96.6445 143.292 99.5457 140.186 101.339Z" fill="url(#paint38_linear)"/>
<path d="M140.187 101.338C137.298 103.006 133.914 103.606 130.624 103.034C127.333 102.462 124.344 100.754 122.174 98.2069C120.005 95.6598 118.793 92.4345 118.749 89.0913C118.705 85.7481 119.832 82.4982 121.934 79.9062C121.496 82.2711 122.19 84.5401 123.22 85.8145C124.641 87.588 137.441 95.3084 139.707 95.9245C141.589 96.4318 144.748 95.8753 146.668 93.2086C145.615 96.6452 143.299 99.5504 140.187 101.338Z" fill="url(#paint39_linear)"/>
<path d="M123.363 94.7701C126.592 100.123 133.535 101.853 138.871 98.6333C144.207 95.4139 145.916 88.4646 142.687 83.1117C139.458 77.7587 132.515 76.0291 127.179 79.2485C121.843 82.4679 120.134 89.4172 123.363 94.7701Z" fill="url(#paint40_linear)"/>
<path opacity="0.5" d="M154.081 106.046C158.125 98.0374 158.005 87.7625 152.897 78.9163C145.157 65.5095 128.859 60.3864 116.56 67.4872C115.887 67.876 115.239 68.2942 114.621 68.7384C117.604 65.9506 121.178 63.8747 125.078 62.6656C128.977 61.4564 133.101 61.145 137.142 61.7547C141.184 62.3644 145.038 63.8795 148.417 66.1869C151.797 68.4943 154.615 71.5346 156.662 75.0812C159.436 79.8989 160.676 85.4469 160.214 90.9815C159.753 96.5161 157.613 101.773 154.081 106.046Z" fill="black" fill-opacity="0.1"/>
<defs>
<filter id="filter0_f" x="0" y="144.5" width="205" height="79" filterUnits="userSpaceOnUse" color-interpolation-filters="sRGB">
<feFlood flood-opacity="0" result="BackgroundImageFix"/>
<feBlend mode="normal" in="SourceGraphic" in2="BackgroundImageFix" result="shape"/>
<feGaussianBlur stdDeviation="8" result="effect1_foregroundBlur"/>
</filter>
<radialGradient id="paint0_radial" cx="0" cy="0" r="1" gradientUnits="userSpaceOnUse" gradientTransform="translate(102.514 184.012) scale(137.885 42.5845)">
<stop stop-color="#50BAB1" stop-opacity="0.64"/>
<stop offset="1" stop-color="#50BAB1" stop-opacity="0"/>
</radialGradient>
<linearGradient id="paint1_linear" x1="43.3774" y1="183.483" x2="45.3734" y2="161.745" gradientUnits="userSpaceOnUse">
<stop stop-color="#0D8A80"/>
<stop offset="0.0001" stop-color="#03897E"/>
<stop offset="1" stop-color="#3FAEA8"/>
</linearGradient>
<linearGradient id="paint2_linear" x1="189" y1="0.499995" x2="17.0029" y2="173.497" gradientUnits="userSpaceOnUse">
<stop stop-color="#26E0D6"/>
<stop offset="1" stop-color="#4CA9A3"/>
</linearGradient>
<linearGradient id="paint3_linear" x1="28" y1="160.5" x2="178.233" y2="13.7621" gradientUnits="userSpaceOnUse">
<stop stop-color="#0D8A80"/>
<stop offset="0.0001" stop-color="#03897E"/>
<stop offset="1" stop-color="#3FAEA8"/>
</linearGradient>
<linearGradient id="paint4_linear" x1="173.628" y1="14.1598" x2="31.9599" y2="160.171" gradientUnits="userSpaceOnUse">
<stop stop-color="#CDFFEB"/>
<stop offset="1" stop-color="#78DCB5"/>
</linearGradient>
<linearGradient id="paint5_linear" x1="180" y1="35.5" x2="164.39" y2="41.6082" gradientUnits="userSpaceOnUse">
<stop stop-color="#26E0D6"/>
<stop offset="1" stop-color="#4CA9A3"/>
</linearGradient>
<linearGradient id="paint6_linear" x1="180" y1="115.5" x2="164.219" y2="121.418" gradientUnits="userSpaceOnUse">
<stop stop-color="#26E0D6"/>
<stop offset="1" stop-color="#4CA9A3"/>
</linearGradient>
<linearGradient id="paint7_linear" x1="61.8767" y1="68.3765" x2="79.248" y2="51.0987" gradientUnits="userSpaceOnUse">
<stop offset="0.166667" stop-color="#1E968C"/>
<stop offset="0.854167" stop-color="#47CCC4"/>
</linearGradient>
<linearGradient id="paint8_linear" x1="58.0429" y1="55.5099" x2="71.0147" y2="44.1302" gradientUnits="userSpaceOnUse">
<stop offset="0.166667" stop-color="#1E968C"/>
<stop offset="0.854167" stop-color="#47CCC4"/>
</linearGradient>
<linearGradient id="paint9_linear" x1="76.0964" y1="64.1904" x2="84.5335" y2="52.2768" gradientUnits="userSpaceOnUse">
<stop offset="0.166667" stop-color="#1E968C"/>
<stop offset="0.854167" stop-color="#47CCC4"/>
</linearGradient>
<linearGradient id="paint10_linear" x1="58.0409" y1="76.9871" x2="71.0118" y2="65.6056" gradientUnits="userSpaceOnUse">
<stop offset="0.166667" stop-color="#1E968C"/>
<stop offset="0.854167" stop-color="#34B0A9"/>
</linearGradient>
<linearGradient id="paint11_linear" x1="94.9367" y1="35.459" x2="46.3716" y2="84.1689" gradientUnits="userSpaceOnUse">
<stop stop-color="#26E0D6"/>
<stop offset="1" stop-color="#4CA9A3"/>
</linearGradient>
<linearGradient id="paint12_linear" x1="177.734" y1="100.678" x2="88.4856" y2="76.912" gradientUnits="userSpaceOnUse">
<stop stop-color="#26E0D6"/>
<stop offset="1" stop-color="#4CA9A3"/>
</linearGradient>
<linearGradient id="paint13_linear" x1="170.634" y1="98.2763" x2="95.4356" y2="79.1881" gradientUnits="userSpaceOnUse">
<stop stop-color="#CDFFEB"/>
<stop offset="1" stop-color="#78DCB5"/>
</linearGradient>
<linearGradient id="paint14_linear" x1="146.349" y1="110.586" x2="144.713" y2="111.248" gradientUnits="userSpaceOnUse">
<stop stop-color="#26E0D6"/>
<stop offset="1" stop-color="#4CA9A3"/>
</linearGradient>
<linearGradient id="paint15_linear" x1="123.941" y1="71.7727" x2="122.305" y2="72.4346" gradientUnits="userSpaceOnUse">
<stop stop-color="#26E0D6"/>
<stop offset="1" stop-color="#4CA9A3"/>
</linearGradient>
<linearGradient id="paint16_linear" x1="130.658" y1="111.143" x2="124.158" y2="109.412" gradientUnits="userSpaceOnUse">
<stop stop-color="#26E0D6"/>
<stop offset="1" stop-color="#4CA9A3"/>
</linearGradient>
<linearGradient id="paint17_linear" x1="142.17" y1="67.9061" x2="135.671" y2="66.1752" gradientUnits="userSpaceOnUse">
<stop stop-color="#26E0D6"/>
<stop offset="1" stop-color="#4CA9A3"/>
</linearGradient>
<linearGradient id="paint18_linear" x1="155.488" y1="76.2858" x2="154.398" y2="74.8912" gradientUnits="userSpaceOnUse">
<stop stop-color="#26E0D6"/>
<stop offset="1" stop-color="#4CA9A3"/>
</linearGradient>
<linearGradient id="paint19_linear" x1="116.799" y1="98.6236" x2="115.709" y2="97.229" gradientUnits="userSpaceOnUse">
<stop stop-color="#26E0D6"/>
<stop offset="1" stop-color="#4CA9A3"/>
</linearGradient>
<linearGradient id="paint20_linear" x1="158.014" y1="95.3488" x2="151.516" y2="93.6184" gradientUnits="userSpaceOnUse">
<stop stop-color="#26E0D6"/>
<stop offset="1" stop-color="#4CA9A3"/>
</linearGradient>
<linearGradient id="paint21_linear" x1="114.813" y1="83.7008" x2="108.315" y2="81.9702" gradientUnits="userSpaceOnUse">
<stop stop-color="#26E0D6"/>
<stop offset="1" stop-color="#4CA9A3"/>
</linearGradient>
<linearGradient id="paint22_linear" x1="141.524" y1="112.382" x2="137.27" y2="113.099" gradientUnits="userSpaceOnUse">
<stop stop-color="#26E0D6"/>
<stop offset="1" stop-color="#4CA9A3"/>
</linearGradient>
<linearGradient id="paint23_linear" x1="129.899" y1="69.1189" x2="125.64" y2="69.8351" gradientUnits="userSpaceOnUse">
<stop stop-color="#26E0D6"/>
<stop offset="1" stop-color="#4CA9A3"/>
</linearGradient>
<linearGradient id="paint24_linear" x1="125.358" y1="108.194" x2="119.929" y2="105.414" gradientUnits="userSpaceOnUse">
<stop stop-color="#26E0D6"/>
<stop offset="1" stop-color="#4CA9A3"/>
</linearGradient>
<linearGradient id="paint25_linear" x1="147.656" y1="69.4419" x2="142.227" y2="66.6626" gradientUnits="userSpaceOnUse">
<stop stop-color="#26E0D6"/>
<stop offset="1" stop-color="#4CA9A3"/>
</linearGradient>
<linearGradient id="paint26_linear" x1="157.998" y1="82.3407" x2="154.657" y2="79.5918" gradientUnits="userSpaceOnUse">
<stop stop-color="#26E0D6"/>
<stop offset="1" stop-color="#4CA9A3"/>
</linearGradient>
<linearGradient id="paint27_linear" x1="114.826" y1="93.8739" x2="111.485" y2="91.125" gradientUnits="userSpaceOnUse">
<stop stop-color="#26E0D6"/>
<stop offset="1" stop-color="#4CA9A3"/>
</linearGradient>
<linearGradient id="paint28_linear" x1="155.517" y1="101.403" x2="149.435" y2="101.115" gradientUnits="userSpaceOnUse">
<stop stop-color="#26E0D6"/>
<stop offset="1" stop-color="#4CA9A3"/>
</linearGradient>
<linearGradient id="paint29_linear" x1="116.774" y1="78.9734" x2="110.692" y2="78.6848" gradientUnits="userSpaceOnUse">
<stop stop-color="#26E0D6"/>
<stop offset="1" stop-color="#4CA9A3"/>
</linearGradient>
<linearGradient id="paint30_linear" x1="136.174" y1="112.573" x2="130.092" y2="112.285" gradientUnits="userSpaceOnUse">
<stop stop-color="#26E0D6"/>
<stop offset="1" stop-color="#4CA9A3"/>
</linearGradient>
<linearGradient id="paint31_linear" x1="136.12" y1="67.8057" x2="130.026" y2="67.5186" gradientUnits="userSpaceOnUse">
<stop stop-color="#26E0D6"/>
<stop offset="1" stop-color="#4CA9A3"/>
</linearGradient>
<linearGradient id="paint32_linear" x1="120.628" y1="103.917" x2="117.287" y2="101.168" gradientUnits="userSpaceOnUse">
<stop stop-color="#26E0D6"/>
<stop offset="1" stop-color="#4CA9A3"/>
</linearGradient>
<linearGradient id="paint33_linear" x1="152.198" y1="72.2977" x2="148.857" y2="69.5488" gradientUnits="userSpaceOnUse">
<stop stop-color="#26E0D6"/>
<stop offset="1" stop-color="#4CA9A3"/>
</linearGradient>
<linearGradient id="paint34_linear" x1="158.86" y1="88.847" x2="153.43" y2="86.0677" gradientUnits="userSpaceOnUse">
<stop stop-color="#26E0D6"/>
<stop offset="1" stop-color="#4CA9A3"/>
</linearGradient>
<linearGradient id="paint35_linear" x1="114.152" y1="88.7857" x2="108.723" y2="86.0055" gradientUnits="userSpaceOnUse">
<stop stop-color="#26E0D6"/>
<stop offset="1" stop-color="#4CA9A3"/>
</linearGradient>
<linearGradient id="paint36_linear" x1="151.539" y1="106.6" x2="147.284" y2="107.317" gradientUnits="userSpaceOnUse">
<stop stop-color="#26E0D6"/>
<stop offset="1" stop-color="#4CA9A3"/>
</linearGradient>
<linearGradient id="paint37_linear" x1="119.888" y1="74.9067" x2="115.634" y2="75.624" gradientUnits="userSpaceOnUse">
<stop stop-color="#26E0D6"/>
<stop offset="1" stop-color="#4CA9A3"/>
</linearGradient>
<linearGradient id="paint38_linear" x1="120.978" y1="94.9046" x2="144.904" y2="81.4439" gradientUnits="userSpaceOnUse">
<stop stop-color="#FFC757"/>
<stop offset="0.0001" stop-color="#FFA235"/>
<stop offset="1" stop-color="#FFCE6B"/>
</linearGradient>
<linearGradient id="paint39_linear" x1="121.131" y1="95.4088" x2="141.171" y2="84.0953" gradientUnits="userSpaceOnUse">
<stop stop-color="#FF8215"/>
<stop offset="1" stop-color="#FFB623"/>
</linearGradient>
<linearGradient id="paint40_linear" x1="124.187" y1="93.3703" x2="142.147" y2="83.3522" gradientUnits="userSpaceOnUse">
<stop stop-color="#FFB146"/>
<stop offset="1" stop-color="#FFD582"/>
</linearGradient>
</defs>
</svg>
