<svg width="204" height="266" viewBox="0 0 204 266" fill="none" xmlns="http://www.w3.org/2000/svg">
<g filter="url(#filter0_f)">
<path d="M60.9998 179.723C-8.50024 196 16.4997 212.501 46.4998 230.001C76.4998 247.5 76.5044 257.83 113.06 240.628C149.615 223.426 192.934 203.984 186.697 179.723C180.459 155.462 130.5 163.446 60.9998 179.723Z" fill="url(#paint0_radial)"/>
</g>
<path d="M33.4006 206.015V46.218L96.9484 29.5939L108.641 22.8452C109.985 22.0685 111.832 21.7287 113.731 21.8082C114.34 21.83 114.945 21.8977 115.541 22.0102C116.821 22.2437 118.059 22.6679 119.114 23.2773L130.029 29.6309H163.89L163.915 29.6321L163.89 30.026V189.759C163.896 190.352 163.728 190.934 163.408 191.433C163.087 191.933 162.627 192.327 162.085 192.568L88.6813 234.429L88.6745 234.434C87.9885 234.829 87.1732 235.111 86.2876 235.282C85.5182 235.445 84.7285 235.512 83.9365 235.481C83.7119 235.478 83.4861 235.469 83.2601 235.454C82.6184 235.417 81.9792 235.328 81.3489 235.187C80.2162 234.942 79.1296 234.545 78.1891 234.002L35.9552 209.612C34.1632 208.557 33.2989 207.286 33.4006 206.015Z" fill="url(#paint1_linear)"/>
<path d="M33.4006 206.015V46.218L96.9484 29.5939L108.641 22.8452C109.985 22.0685 111.832 21.7287 113.731 21.8082C114.34 21.83 114.945 21.8977 115.541 22.0102C116.821 22.2437 118.059 22.6679 119.114 23.2773L130.029 29.6309H163.89L163.915 29.6321L163.89 30.026V189.759C163.896 190.352 163.728 190.934 163.408 191.433C163.087 191.933 162.627 192.327 162.085 192.568L88.6813 234.429L88.6745 234.434C87.9885 234.829 87.1732 235.111 86.2876 235.282C85.5182 235.445 84.7285 235.512 83.9365 235.481C83.7119 235.478 83.4861 235.469 83.2601 235.454C82.6184 235.417 81.9792 235.328 81.3489 235.187C80.2162 234.942 79.1296 234.545 78.1891 234.002L35.9552 209.612C34.1632 208.557 33.2989 207.286 33.4006 206.015Z" fill="url(#paint2_linear)" fill-opacity="0.35"/>
<path d="M88.6736 74.2797L162.084 32.4144C164.778 30.8638 164.435 28.1567 161.334 26.3773L119.088 1.98766C115.986 0.195616 111.297 -0.0077396 108.615 1.54283L35.2044 43.4081C32.51 44.9587 32.8531 47.6658 35.9543 49.4579L78.1882 73.8348C81.2893 75.6396 85.9791 75.8302 88.6736 74.2797Z" fill="url(#paint3_linear)"/>
<path d="M35.9547 46.4833L78.1886 70.873C81.2897 72.665 85.9795 72.8684 88.674 71.3178L162.084 29.4525C162.615 29.1568 163.075 28.7492 163.432 28.2578C164.347 29.7448 163.927 31.359 162.084 32.4138L88.674 74.2791C85.9795 75.8297 81.2897 75.6391 78.1886 73.847L35.9547 49.4574C33.5399 48.072 32.8154 46.1275 33.8576 44.6023C34.3917 45.3919 35.1119 46.0379 35.9547 46.4833Z" fill="url(#paint4_linear)"/>
<path d="M86.5884 57.3117L135.469 28.9821C136.74 28.2576 136.575 26.9867 135.126 26.1478L115.35 14.7092C114.608 14.2942 113.778 14.0595 112.928 14.0242C112.078 13.9889 111.231 14.1539 110.457 14.5059L61.6014 42.8736C60.3304 43.5981 60.4957 44.8563 61.9446 45.6951L81.7206 57.1338C82.462 57.5406 83.2883 57.7686 84.1334 57.7995C84.9786 57.8304 85.8193 57.6634 86.5884 57.3117Z" fill="url(#paint5_linear)"/>
<path d="M112.986 28.9839L115.808 27.3444C115.986 27.2427 115.96 27.0775 115.808 26.9631L113.063 25.3744C112.958 25.3209 112.843 25.293 112.726 25.293C112.609 25.293 112.493 25.3209 112.389 25.3744L109.555 27.0139C109.39 27.1156 109.402 27.2808 109.555 27.4079L112.287 28.9839C112.396 29.0387 112.515 29.0672 112.637 29.0672C112.758 29.0672 112.878 29.0387 112.986 28.9839Z" fill="url(#paint6_linear)"/>
<path d="M103.542 34.4365L106.376 32.797C106.554 32.708 106.529 32.5301 106.376 32.4157L103.542 30.8143C103.438 30.7617 103.322 30.7344 103.205 30.7344C103.088 30.7344 102.973 30.7617 102.868 30.8143L100.034 32.4538C99.8563 32.5555 99.8817 32.7334 100.034 32.8478L102.843 34.4365C102.95 34.4943 103.071 34.5246 103.193 34.5246C103.315 34.5246 103.435 34.4943 103.542 34.4365Z" fill="url(#paint7_linear)"/>
<path d="M94.0615 39.8622L96.8831 38.2481C97.061 38.1464 97.0356 37.9685 96.8831 37.8541L94.1378 36.2781C94.0343 36.2225 93.9185 36.1934 93.801 36.1934C93.6835 36.1934 93.5677 36.2225 93.4642 36.2781L90.63 37.9176C90.452 38.0193 90.4774 38.1972 90.63 38.3116L93.3752 39.8368C93.48 39.8934 93.5964 39.9252 93.7154 39.9296C93.8344 39.934 93.9529 39.911 94.0615 39.8622Z" fill="url(#paint8_linear)"/>
<path d="M84.5928 45.3016L87.4271 43.6748C87.605 43.5731 87.5796 43.3952 87.4271 43.2808L84.6945 41.7048C84.587 41.6548 84.4699 41.6289 84.3513 41.6289C84.2328 41.6289 84.1157 41.6548 84.0082 41.7048L81.1358 43.3317C80.9579 43.4333 80.9833 43.6113 81.1358 43.7257L83.8811 45.3016C83.9901 45.3617 84.1125 45.3932 84.2369 45.3932C84.3614 45.3932 84.4838 45.3617 84.5928 45.3016Z" fill="url(#paint9_linear)"/>
<path d="M69.9873 105.938L42.542 90.026C41.6896 89.408 40.9923 88.5962 40.506 87.6559C40.0198 86.7156 39.7582 85.6729 39.7422 84.6117V74.6728C39.7422 72.5885 40.9977 71.6352 42.542 72.5376L69.9873 88.45C70.8426 89.0651 71.542 89.8763 72.0286 90.8172C72.5152 91.7582 72.7751 92.8023 72.7871 93.8643V103.803C72.7871 105.888 71.5441 106.879 69.9873 105.938Z" fill="url(#paint10_linear)"/>
<path d="M61.7504 95.1331L59.2394 93.6714C59.0544 93.536 58.9036 93.3585 58.7989 93.1532C58.6942 92.9478 58.6387 92.7205 58.6367 92.4895V89.7696C58.6367 89.3121 58.9004 89.096 59.2394 89.2994L61.7504 90.7737C61.936 90.9084 62.0874 91.0858 62.1922 91.2912C62.297 91.4967 62.3521 91.7244 62.353 91.9557V94.6755C62.3405 95.133 62.0768 95.3364 61.7504 95.1331Z" fill="url(#paint11_linear)"/>
<path d="M53.3148 90.2153L50.8038 88.741C50.6213 88.6061 50.472 88.4305 50.3674 88.2277C50.2629 88.0249 50.206 87.8004 50.2012 87.5717V84.8391C50.2012 84.3943 50.4774 84.1782 50.8038 84.3816L53.3148 85.8432C53.4999 85.9794 53.6517 86.1568 53.7583 86.3617C53.865 86.5666 53.9237 86.7936 53.93 87.0252V89.7577C53.93 90.2026 53.6538 90.4186 53.3148 90.2153Z" fill="url(#paint12_linear)"/>
<path d="M69.9873 177.76L42.542 161.847C41.6913 161.231 40.995 160.421 40.5088 159.483C40.0227 158.545 39.7601 157.505 39.7422 156.446V146.507C39.7422 144.422 40.9977 143.469 42.542 144.372L69.9873 160.259C70.8409 160.872 71.5393 161.682 72.0258 162.62C72.5123 163.559 72.7731 164.6 72.7871 165.66V175.599C72.7871 177.696 71.5441 178.662 69.9873 177.76Z" fill="url(#paint13_linear)"/>
<path d="M61.7504 166.958L59.2394 165.483C59.0547 165.35 58.9038 165.175 58.799 164.972C58.6942 164.769 58.6386 164.543 58.6367 164.314V161.531C58.6367 161.086 58.9004 160.87 59.2394 161.073L61.7504 162.547C61.935 162.68 62.086 162.855 62.1907 163.059C62.2955 163.262 62.3511 163.487 62.353 163.717V166.449C62.3405 166.945 62.0768 167.161 61.7504 166.958Z" fill="url(#paint14_linear)"/>
<path d="M53.3148 162.037L50.8038 160.563C50.6196 160.426 50.4693 160.249 50.3647 160.044C50.2601 159.838 50.2041 159.611 50.2012 159.381V156.661C50.2012 156.203 50.4774 156 50.8038 156.19L53.3148 157.665C53.5013 157.8 53.6541 157.977 53.7609 158.182C53.8677 158.387 53.9257 158.615 53.93 158.847V161.528C53.93 162.024 53.6538 162.24 53.3148 162.037Z" fill="url(#paint15_linear)"/>
<path d="M69.9873 213.639L42.542 197.753C41.6889 197.135 40.991 196.324 40.5047 195.383C40.0184 194.443 39.7572 193.4 39.7422 192.338V182.399C39.7422 180.315 40.9977 179.362 42.542 180.264L69.9873 196.177C70.8411 196.793 71.5395 197.605 72.0259 198.545C72.5123 199.486 72.7731 200.529 72.7871 201.591V211.53C72.7871 213.639 71.5441 214.567 69.9873 213.639Z" fill="url(#paint16_linear)"/>
<path d="M61.7504 202.875L59.2394 201.4C59.0544 201.265 58.9036 201.087 58.7989 200.882C58.6942 200.677 58.6387 200.449 58.6367 200.218V197.499C58.6367 197.041 58.9004 196.838 59.2394 197.028L61.7504 198.503C61.936 198.637 62.0874 198.815 62.1922 199.02C62.297 199.226 62.3521 199.453 62.353 199.685V202.404C62.3405 202.862 62.0768 203.065 61.7504 202.875Z" fill="url(#paint17_linear)"/>
<path d="M53.3148 197.942L50.8038 196.48C50.621 196.343 50.4717 196.165 50.3672 195.96C50.2628 195.755 50.206 195.529 50.2012 195.298V192.578C50.2012 192.121 50.4774 191.905 50.8038 192.108L53.3148 193.582C53.5011 193.714 53.6539 193.889 53.7608 194.092C53.8677 194.295 53.9257 194.521 53.93 194.752V197.484C53.93 197.929 53.6538 198.145 53.3148 197.942Z" fill="url(#paint18_linear)"/>
<path d="M69.9873 141.844L42.542 125.944C41.6905 125.328 40.9937 124.518 40.5075 123.58C40.0212 122.642 39.7591 121.602 39.7422 120.542V110.603C39.7422 108.519 40.9977 107.553 42.542 108.455L69.9873 124.368C70.8411 124.984 71.5395 125.796 72.0259 126.737C72.5123 127.677 72.7731 128.721 72.7871 129.782V139.721C72.7871 141.793 71.5441 142.746 69.9873 141.844Z" fill="url(#paint19_linear)"/>
<path d="M61.7504 131.027L59.2394 129.553C59.0537 129.418 58.9023 129.241 58.7975 129.035C58.6928 128.83 58.6376 128.602 58.6367 128.371V125.651C58.6367 125.193 58.9004 124.99 59.2394 125.181L61.7504 126.655C61.9353 126.79 62.0862 126.968 62.1909 127.173C62.2955 127.379 62.3511 127.606 62.353 127.837V130.557C62.3405 131.027 62.0768 131.243 61.7504 131.027Z" fill="url(#paint20_linear)"/>
<path d="M53.3148 126.134L50.8038 124.66C50.621 124.523 50.4717 124.345 50.3672 124.14C50.2628 123.935 50.206 123.709 50.2012 123.478V120.758C50.2012 120.301 50.4774 120.097 50.8038 120.288L53.3148 121.762C53.5021 121.896 53.6554 122.073 53.7623 122.279C53.8692 122.484 53.9266 122.712 53.93 122.944V125.664C53.93 126.122 53.6538 126.325 53.3148 126.134Z" fill="url(#paint21_linear)"/>
<path d="M94.0123 95.7592L158.196 58.7489C158.977 58.1755 159.613 57.4277 160.054 56.565C160.496 55.7023 160.73 54.7485 160.737 53.7795V41.5529C160.737 39.6465 159.568 38.7568 158.132 39.5956L94.0123 76.6059C93.2326 77.1807 92.5972 77.9288 92.156 78.7912C91.7149 79.6536 91.4802 80.6067 91.4703 81.5753V93.8019C91.4195 95.7084 92.5888 96.598 94.0123 95.7592Z" fill="url(#paint22_linear)"/>
<path d="M95.9192 91.476L156.366 56.5882C156.761 56.2929 157.082 55.9093 157.303 55.4679C157.523 55.0266 157.638 54.5398 157.637 54.0463V44.87C157.637 43.9041 157.052 43.4592 156.366 43.8787L95.9192 78.7664C95.5238 79.0617 95.203 79.4453 94.9823 79.8867C94.7616 80.328 94.6472 80.8149 94.6482 81.3083V90.4973C94.5465 91.4506 95.1312 91.8954 95.9192 91.476Z" fill="url(#paint23_linear)"/>
<path d="M143.707 59.2056L152.718 54.0074C153.106 53.7253 153.422 53.3567 153.643 52.931C153.863 52.5052 153.982 52.0339 153.989 51.5545C153.989 50.6139 153.417 50.1818 152.718 50.5885L143.707 55.7994C143.319 56.0782 143.001 56.4443 142.78 56.8681C142.56 57.292 142.442 57.7618 142.436 58.2397C142.423 59.1802 142.944 59.6123 143.707 59.2056Z" fill="url(#paint24_linear)"/>
<path d="M136.018 61.9378C136.018 62.8783 136.678 63.2088 137.492 62.7894C137.919 62.5103 138.275 62.135 138.531 61.6936C138.787 61.2522 138.936 60.7569 138.966 60.2475C138.966 59.307 138.305 58.9765 137.492 59.3959C137.065 59.675 136.709 60.0503 136.453 60.4917C136.197 60.9332 136.048 61.4284 136.018 61.9378Z" fill="url(#paint25_linear)"/>
<path d="M130.793 64.9359C130.793 65.8764 131.467 66.2068 132.28 65.7874C132.707 65.5083 133.063 65.133 133.319 64.6916C133.575 64.2502 133.724 63.7549 133.754 63.2455C133.754 62.305 133.093 61.9746 132.28 62.394C131.851 62.6724 131.493 63.0472 131.235 63.4886C130.977 63.93 130.825 64.4256 130.793 64.9359Z" fill="url(#paint26_linear)"/>
<path d="M125.582 67.9627C125.582 68.9033 126.243 69.2337 127.056 68.8143C127.487 68.5381 127.847 68.1638 128.105 67.722C128.364 67.2802 128.514 66.7834 128.543 66.2724C128.543 65.3192 127.882 64.9379 127.056 65.4081C126.63 65.6907 126.274 66.0685 126.018 66.5118C125.763 66.9551 125.613 67.4518 125.582 67.9627Z" fill="url(#paint27_linear)"/>
<path d="M120.371 70.974C120.371 71.9145 121.032 72.2449 121.845 71.8255C122.273 71.5464 122.629 71.1711 122.885 70.7297C123.141 70.2883 123.29 69.793 123.32 69.2836C123.32 68.3304 122.659 68.0127 121.845 68.4194C121.418 68.7012 121.062 69.0788 120.806 69.5223C120.55 69.9658 120.401 70.4628 120.371 70.974Z" fill="url(#paint28_linear)"/>
<path d="M98.4612 86.3508L101.499 84.5969C101.751 84.4209 101.957 84.1873 102.101 83.9154C102.245 83.6435 102.322 83.3412 102.325 83.0336V79.8181C102.325 79.2081 101.956 78.9412 101.499 79.1954L98.4612 80.9493C98.2133 81.1315 98.0109 81.3685 97.8697 81.6419C97.7286 81.9153 97.6527 82.2176 97.6478 82.5253V85.7408C97.5842 86.3381 97.9528 86.6177 98.4612 86.3508Z" fill="url(#paint29_linear)"/>
<path d="M94.0123 117.325L158.196 80.3019C158.988 79.7352 159.637 78.9904 160.09 78.1273C160.542 77.2642 160.786 76.3069 160.801 75.3325V63.1186C160.801 61.1994 159.632 60.3225 158.196 61.1486L94.0123 98.1716C93.2336 98.7444 92.5987 99.4904 92.1575 100.351C91.7164 101.211 91.4812 102.162 91.4703 103.128V115.355C91.4195 117.274 92.5888 118.151 94.0123 117.325Z" fill="url(#paint30_linear)"/>
<path d="M95.9192 113.041L156.366 78.1407C156.761 77.8455 157.082 77.4618 157.303 77.0205C157.523 76.5791 157.638 76.0923 157.637 75.5988V66.4352C157.637 65.4566 157.052 65.0118 156.366 65.4312L95.9192 100.332C95.5238 100.627 95.203 101.011 94.9823 101.452C94.7616 101.893 94.6472 102.38 94.6482 102.874V112.063C94.5465 113.016 95.1312 113.461 95.9192 113.041Z" fill="url(#paint31_linear)"/>
<path d="M143.707 80.773L152.718 75.5621C153.108 75.2821 153.426 74.914 153.647 74.4877C153.868 74.0615 153.985 73.5892 153.989 73.1091C153.989 72.1686 153.417 71.7365 152.718 72.1432L143.707 77.3541C143.319 77.6329 143.001 77.9989 142.78 78.4228C142.56 78.8467 142.442 79.3165 142.436 79.7944C142.423 80.7476 142.944 81.1797 143.707 80.773Z" fill="url(#paint32_linear)"/>
<path d="M136.018 83.4935C136.018 84.4467 136.678 84.828 137.492 84.3577C137.918 84.0772 138.273 83.7015 138.528 83.2604C138.784 82.8193 138.934 82.3248 138.966 81.8158C138.966 80.8753 138.305 80.5449 137.492 80.9643C137.066 81.2421 136.711 81.6154 136.456 82.0545C136.2 82.4935 136.05 82.9863 136.018 83.4935Z" fill="url(#paint33_linear)"/>
<path d="M130.793 86.5423C130.793 87.4955 131.467 87.8133 132.28 87.4066C132.705 87.1253 133.059 86.7495 133.315 86.3085C133.571 85.8675 133.721 85.3734 133.754 84.8646C133.754 83.9241 133.093 83.5937 132.28 84.0131C131.853 84.2903 131.496 84.6631 131.238 85.1021C130.98 85.5411 130.827 86.0342 130.793 86.5423Z" fill="url(#paint34_linear)"/>
<path d="M125.582 89.516C125.582 90.4565 126.243 90.7869 127.056 90.3675C127.487 90.0913 127.847 89.717 128.105 89.2752C128.364 88.8334 128.514 88.3366 128.543 87.8256C128.543 86.8851 127.882 86.5546 127.056 86.974C126.629 87.2531 126.273 87.6284 126.017 88.0699C125.761 88.5113 125.612 89.0065 125.582 89.516Z" fill="url(#paint35_linear)"/>
<path d="M120.371 92.5296C120.371 93.4701 121.032 93.8006 121.845 93.3812C122.273 93.1021 122.629 92.7268 122.885 92.2854C123.141 91.8439 123.29 91.3487 123.32 90.8393C123.32 89.8988 122.659 89.5683 121.845 89.9877C121.418 90.2668 121.062 90.6421 120.806 91.0835C120.55 91.525 120.401 92.0202 120.371 92.5296Z" fill="url(#paint36_linear)"/>
<path d="M98.4612 107.92L101.499 106.166C101.75 105.987 101.956 105.751 102.1 105.477C102.243 105.203 102.32 104.9 102.325 104.59V101.375C102.325 100.778 101.956 100.498 101.499 100.752L98.4612 102.519C98.2128 102.698 98.0098 102.932 97.8686 103.204C97.7273 103.475 97.6517 103.776 97.6478 104.082V107.298C97.5842 107.908 97.9528 108.149 98.4612 107.92Z" fill="url(#paint37_linear)"/>
<path d="M94.0123 138.882L158.196 101.871C158.986 101.302 159.633 100.557 160.086 99.6945C160.538 98.8319 160.783 97.8757 160.801 96.9018V84.6752C160.801 82.7561 159.632 81.8791 158.196 82.7052L94.0123 119.728C93.2326 120.303 92.5972 121.051 92.156 121.914C91.7149 122.776 91.4802 123.729 91.4703 124.698V136.924C91.4195 138.831 92.5888 139.708 94.0123 138.882Z" fill="url(#paint38_linear)"/>
<path d="M95.9192 134.599L156.366 99.6986C156.763 99.4047 157.085 99.0214 157.305 98.5797C157.526 98.138 157.64 97.6505 157.637 97.1567V87.9677C157.637 87.0017 157.052 86.5569 156.366 86.9763L95.9192 121.889C95.5238 122.185 95.203 122.568 94.9823 123.01C94.7616 123.451 94.6472 123.938 94.6482 124.431V133.57C94.5465 134.574 95.1312 135.018 95.9192 134.599Z" fill="url(#paint39_linear)"/>
<path d="M143.707 102.329L152.718 97.1177C153.106 96.839 153.423 96.4729 153.644 96.0491C153.865 95.6252 153.983 95.1554 153.989 94.6775C153.989 93.737 153.417 93.3049 152.718 93.7116L143.707 98.9098C143.318 99.1912 143.001 99.5596 142.78 99.9855C142.56 100.411 142.442 100.883 142.436 101.363C142.423 102.303 142.944 102.735 143.707 102.329Z" fill="url(#paint40_linear)"/>
<path d="M136.018 105.062C136.018 106.002 136.678 106.333 137.492 105.913C137.919 105.634 138.275 105.259 138.531 104.818C138.787 104.376 138.936 103.881 138.966 103.372C138.966 102.418 138.305 102.101 137.492 102.507C137.064 102.789 136.709 103.167 136.453 103.61C136.197 104.054 136.048 104.551 136.018 105.062Z" fill="url(#paint41_linear)"/>
<path d="M130.793 108.073C130.793 109.013 131.467 109.344 132.28 108.924C132.707 108.645 133.063 108.27 133.319 107.828C133.575 107.387 133.724 106.892 133.754 106.382C133.754 105.442 133.093 105.111 132.28 105.531C131.852 105.811 131.496 106.186 131.238 106.627C130.98 107.068 130.827 107.563 130.793 108.073Z" fill="url(#paint42_linear)"/>
<path d="M125.582 111.088C125.582 112.029 126.243 112.359 127.056 111.94C127.487 111.664 127.847 111.289 128.105 110.847C128.364 110.406 128.514 109.909 128.543 109.398C128.543 108.457 127.882 108.127 127.056 108.546C126.629 108.825 126.273 109.201 126.017 109.642C125.761 110.084 125.612 110.579 125.582 111.088Z" fill="url(#paint43_linear)"/>
<path d="M120.371 114.098C120.371 115.038 121.032 115.369 121.845 114.95C122.271 114.669 122.626 114.293 122.882 113.852C123.138 113.411 123.288 112.917 123.32 112.408C123.32 111.467 122.659 111.137 121.845 111.556C121.418 111.835 121.062 112.21 120.806 112.652C120.55 113.093 120.401 113.589 120.371 114.098Z" fill="url(#paint44_linear)"/>
<path d="M98.4612 129.475L101.499 127.721C101.75 127.545 101.956 127.311 102.1 127.039C102.243 126.767 102.321 126.466 102.325 126.158V122.943C102.325 122.333 101.956 122.053 101.499 122.32L98.4612 124.074C98.2135 124.253 98.0111 124.488 97.8699 124.759C97.7287 125.031 97.6527 125.331 97.6478 125.637V128.853C97.5842 129.463 97.9528 129.755 98.4612 129.475Z" fill="url(#paint45_linear)"/>
<path d="M94.0123 160.452L158.196 123.403C158.988 122.837 159.637 122.092 160.09 121.229C160.542 120.365 160.786 119.408 160.801 118.434V106.207C160.801 104.301 159.632 103.411 158.196 104.25L94.0123 141.286C93.2333 141.861 92.5984 142.609 92.1574 143.472C91.7163 144.334 91.4812 145.287 91.4703 146.255V158.482C91.4195 160.401 92.5888 161.278 94.0123 160.452Z" fill="url(#paint46_linear)"/>
<path d="M95.9192 156.154L156.366 121.266C156.761 120.971 157.082 120.587 157.303 120.146C157.523 119.704 157.638 119.217 157.637 118.724V109.548C157.637 108.582 157.052 108.137 156.366 108.556L95.9192 143.444C95.5253 143.741 95.2055 144.125 94.985 144.566C94.7645 145.007 94.6492 145.493 94.6482 145.986V155.175C94.5465 156.128 95.1312 156.573 95.9192 156.154Z" fill="url(#paint47_linear)"/>
<path d="M143.707 123.883L152.718 118.685C153.106 118.404 153.424 118.035 153.644 117.609C153.865 117.183 153.983 116.712 153.989 116.232C153.989 115.292 153.417 114.86 152.718 115.266L143.707 120.477C143.319 120.756 143.001 121.122 142.78 121.546C142.56 121.97 142.442 122.44 142.436 122.917C142.423 123.858 142.944 124.29 143.707 123.883Z" fill="url(#paint48_linear)"/>
<path d="M136.018 126.616C136.018 127.556 136.678 127.887 137.492 127.467C137.919 127.188 138.275 126.813 138.531 126.371C138.787 125.93 138.936 125.435 138.966 124.925C138.966 123.985 138.305 123.654 137.492 124.074C137.065 124.353 136.709 124.728 136.453 125.169C136.197 125.611 136.048 126.106 136.018 126.616Z" fill="url(#paint49_linear)"/>
<path d="M130.793 129.629C130.793 130.57 131.467 130.9 132.28 130.481C132.707 130.202 133.063 129.826 133.319 129.385C133.575 128.944 133.724 128.448 133.754 127.939C133.754 126.998 133.093 126.668 132.28 127.087C131.851 127.366 131.493 127.741 131.235 128.182C130.977 128.623 130.825 129.119 130.793 129.629Z" fill="url(#paint50_linear)"/>
<path d="M125.582 132.641C125.582 133.582 126.243 133.912 127.056 133.493C127.487 133.217 127.847 132.843 128.105 132.401C128.364 131.959 128.514 131.462 128.543 130.951C128.543 130.011 127.882 129.617 127.056 130.1C126.629 130.379 126.273 130.754 126.017 131.195C125.761 131.637 125.612 132.132 125.582 132.641Z" fill="url(#paint51_linear)"/>
<path d="M120.371 135.652C120.371 136.593 121.032 136.923 121.845 136.504C122.273 136.225 122.629 135.849 122.885 135.408C123.141 134.967 123.29 134.471 123.32 133.962C123.32 133.009 122.659 132.627 121.845 133.098C121.419 133.38 121.063 133.758 120.807 134.201C120.552 134.645 120.402 135.141 120.371 135.652Z" fill="url(#paint52_linear)"/>
<path d="M98.4612 151.045L101.499 149.291C101.75 149.112 101.956 148.876 102.1 148.602C102.243 148.328 102.32 148.025 102.325 147.715V144.5C102.325 143.903 101.956 143.623 101.499 143.877L98.4612 145.631C98.2133 145.813 98.0109 146.05 97.8697 146.324C97.7286 146.597 97.6527 146.899 97.6478 147.207V150.423C97.5842 151.02 97.9528 151.363 98.4612 151.045Z" fill="url(#paint53_linear)"/>
<path d="M94.0123 182.005L158.196 145.007C158.987 144.442 159.636 143.7 160.088 142.839C160.541 141.978 160.785 141.023 160.801 140.05V127.824C160.801 125.905 159.632 125.028 158.196 125.854L94.0123 162.8C93.2336 163.373 92.5987 164.119 92.1575 164.979C91.7164 165.84 91.4812 166.79 91.4703 167.757V179.984C91.4195 181.954 92.5888 182.831 94.0123 182.005Z" fill="url(#paint54_linear)"/>
<path d="M95.9192 177.721L156.366 142.82C156.761 142.525 157.082 142.142 157.303 141.7C157.523 141.259 157.638 140.772 157.637 140.279V131.09C157.637 130.111 157.052 129.666 156.366 130.085L95.9192 165.011C95.5238 165.307 95.203 165.69 94.9823 166.132C94.7616 166.573 94.6472 167.06 94.6482 167.553V176.78C94.5465 177.696 95.1312 178.14 95.9192 177.721Z" fill="url(#paint55_linear)"/>
<path d="M143.707 145.451L152.718 140.24C153.106 139.961 153.423 139.595 153.644 139.171C153.865 138.747 153.983 138.277 153.989 137.799C153.989 136.846 153.417 136.414 152.718 136.821L143.707 142.032C143.317 142.312 142.998 142.68 142.778 143.106C142.557 143.532 142.44 144.005 142.436 144.485C142.423 145.425 142.944 145.857 143.707 145.451Z" fill="url(#paint56_linear)"/>
<path d="M136.018 148.186C136.018 149.126 136.678 149.457 137.492 149.037C137.918 148.757 138.273 148.381 138.528 147.94C138.784 147.499 138.934 147.004 138.966 146.496C138.966 145.555 138.305 145.225 137.492 145.644C137.065 145.923 136.709 146.298 136.453 146.74C136.197 147.181 136.048 147.676 136.018 148.186Z" fill="url(#paint57_linear)"/>
<path d="M130.793 151.187C130.793 152.14 131.467 152.458 132.28 152.051C132.706 151.771 133.061 151.395 133.317 150.954C133.572 150.513 133.722 150.018 133.754 149.509C133.754 148.569 133.093 148.238 132.28 148.658C131.853 148.935 131.496 149.308 131.238 149.747C130.98 150.186 130.827 150.679 130.793 151.187Z" fill="url(#paint58_linear)"/>
<path d="M125.582 154.195C125.582 155.148 126.243 155.529 127.056 155.059C127.485 154.78 127.843 154.406 128.101 153.964C128.359 153.523 128.511 153.027 128.543 152.517C128.543 151.576 127.882 151.246 127.056 151.665C126.631 151.943 126.276 152.317 126.02 152.756C125.764 153.195 125.614 153.687 125.582 154.195Z" fill="url(#paint59_linear)"/>
<path d="M120.371 157.207C120.371 158.148 121.032 158.542 121.845 158.059C122.273 157.78 122.629 157.405 122.885 156.963C123.141 156.522 123.29 156.026 123.32 155.517C123.32 154.576 122.659 154.246 121.845 154.665C121.418 154.945 121.062 155.32 120.806 155.761C120.55 156.203 120.401 156.698 120.371 157.207Z" fill="url(#paint60_linear)"/>
<path d="M98.4612 172.599L101.499 170.845C101.75 170.665 101.956 170.429 102.1 170.155C102.243 169.882 102.32 169.578 102.325 169.269V166.053C102.325 165.456 101.956 165.176 101.499 165.443L98.4612 167.197C98.2135 167.377 98.0111 167.611 97.8699 167.883C97.7287 168.154 97.6527 168.455 97.6478 168.76V171.976C97.5842 172.586 97.9528 172.866 98.4612 172.599Z" fill="url(#paint61_linear)"/>
<path d="M94.0123 203.559L158.196 166.613C158.992 166.027 159.637 165.261 160.079 164.377C160.521 163.493 160.747 162.517 160.737 161.529V149.302C160.737 147.383 159.568 146.506 158.132 147.332L94.0123 184.406C93.2326 184.981 92.5972 185.729 92.156 186.591C91.7149 187.454 91.4802 188.407 91.4703 189.375V201.602C91.4195 203.47 92.5888 204.398 94.0123 203.559Z" fill="url(#paint62_linear)"/>
<path d="M95.9192 199.276L156.366 164.388C156.76 164.091 157.08 163.707 157.3 163.266C157.521 162.825 157.636 162.339 157.637 161.846V152.632C157.637 151.666 157.052 151.221 156.366 151.64L95.9192 186.566C95.5238 186.862 95.203 187.245 94.9823 187.687C94.7616 188.128 94.6472 188.615 94.6482 189.108V198.31C94.5465 199.25 95.1312 199.657 95.9192 199.276Z" fill="url(#paint63_linear)"/>
<path d="M143.707 167.008L152.718 161.797C153.106 161.519 153.423 161.153 153.644 160.729C153.865 160.305 153.983 159.835 153.989 159.357C153.989 158.417 153.417 157.985 152.718 158.391L143.707 163.589C143.319 163.872 143.002 164.24 142.782 164.666C142.561 165.092 142.443 165.563 142.436 166.042C142.423 166.983 142.944 167.415 143.707 167.008Z" fill="url(#paint64_linear)"/>
<path d="M136.018 169.742C136.018 170.683 136.678 171.013 137.492 170.594C137.919 170.315 138.275 169.939 138.531 169.498C138.787 169.056 138.936 168.561 138.966 168.052C138.966 167.098 138.305 166.717 137.492 167.187C137.065 167.47 136.71 167.848 136.454 168.291C136.198 168.734 136.049 169.231 136.018 169.742Z" fill="url(#paint65_linear)"/>
<path d="M130.793 172.752C130.793 173.692 131.467 174.023 132.28 173.603C132.707 173.324 133.063 172.949 133.319 172.508C133.575 172.066 133.724 171.571 133.754 171.061C133.754 170.108 133.093 169.727 132.28 170.197C131.851 170.478 131.493 170.856 131.235 171.299C130.977 171.742 130.826 172.24 130.793 172.752Z" fill="url(#paint66_linear)"/>
<path d="M125.582 175.764C125.582 176.705 126.243 177.035 127.056 176.616C127.487 176.339 127.847 175.965 128.105 175.523C128.364 175.081 128.514 174.585 128.543 174.074C128.543 173.133 127.882 172.803 127.056 173.222C126.631 173.503 126.276 173.878 126.02 174.319C125.764 174.761 125.614 175.255 125.582 175.764Z" fill="url(#paint67_linear)"/>
<path d="M120.371 178.778C120.371 179.718 121.032 180.049 121.845 179.629C122.273 179.35 122.629 178.975 122.885 178.533C123.141 178.092 123.29 177.597 123.32 177.087C123.32 176.147 122.659 175.816 121.845 176.236C121.418 176.515 121.062 176.89 120.806 177.332C120.55 177.773 120.401 178.268 120.371 178.778Z" fill="url(#paint68_linear)"/>
<path d="M98.4612 194.155L101.499 192.401C101.75 192.224 101.956 191.991 102.1 191.719C102.243 191.447 102.321 191.145 102.325 190.838V187.622C102.325 187.012 101.956 186.733 101.499 187L98.4612 188.754C98.2133 188.936 98.0109 189.173 97.8697 189.446C97.7286 189.72 97.6527 190.022 97.6478 190.33V193.532C97.5842 194.142 97.9528 194.422 98.4612 194.155Z" fill="url(#paint69_linear)"/>
<path d="M94.0123 225.079L158.196 188.107C158.977 187.533 159.613 186.786 160.054 185.923C160.496 185.06 160.73 184.106 160.737 183.137V170.911C160.737 169.004 159.568 168.127 158.132 168.954L94.0123 206.015C93.2383 206.595 92.607 207.344 92.1665 208.205C91.726 209.066 91.4879 210.017 91.4703 210.984V223.211C91.4195 225.079 92.5888 225.956 94.0123 225.079Z" fill="url(#paint70_linear)"/>
<path d="M95.9192 220.833L156.366 185.945C156.761 185.65 157.082 185.267 157.303 184.825C157.523 184.384 157.638 183.897 157.637 183.404V174.24C157.637 173.261 157.052 172.816 156.366 173.236L95.9192 208.136C95.5223 208.43 95.2004 208.814 94.9796 209.255C94.7587 209.697 94.6452 210.184 94.6482 210.678V219.867C94.5465 220.808 95.1312 221.265 95.9192 220.833Z" fill="url(#paint71_linear)"/>
<path d="M143.707 188.565L152.718 183.367C153.106 183.085 153.424 182.717 153.644 182.291C153.865 181.865 153.983 181.393 153.989 180.914C153.989 179.973 153.417 179.541 152.718 179.948L143.707 185.159C143.319 185.438 143.001 185.804 142.78 186.227C142.56 186.651 142.442 187.121 142.436 187.599C142.423 188.54 142.944 188.984 143.707 188.565Z" fill="url(#paint72_linear)"/>
<path d="M134.365 192.463C134.365 194.243 135.636 195.005 137.161 194.078C137.975 193.547 138.653 192.832 139.139 191.991C139.625 191.15 139.905 190.205 139.957 189.235C139.957 187.456 138.686 186.693 137.161 187.634C136.349 188.163 135.673 188.876 135.187 189.715C134.701 190.554 134.42 191.496 134.365 192.463Z" fill="url(#paint73_linear)"/>
<path d="M123.562 198.781C123.562 199.734 124.223 200.115 125.05 199.645C125.475 199.364 125.83 198.989 126.086 198.548C126.342 198.106 126.492 197.612 126.524 197.103C126.524 196.162 125.863 195.832 125.05 196.251C124.62 196.526 124.262 196.899 124.003 197.338C123.745 197.778 123.594 198.272 123.562 198.781Z" fill="url(#paint74_linear)"/>
<path d="M118.352 201.792C118.352 202.746 119.012 203.063 119.826 202.657C120.253 202.376 120.609 202.001 120.867 201.56C121.125 201.119 121.277 200.624 121.313 200.115C121.313 199.174 120.639 198.844 119.826 199.263C119.4 199.541 119.045 199.914 118.79 200.353C118.534 200.792 118.384 201.285 118.352 201.792Z" fill="url(#paint75_linear)"/>
<path d="M113.141 204.807C113.141 205.747 113.802 206.078 114.615 205.659C115.042 205.379 115.398 205.004 115.654 204.563C115.91 204.121 116.059 203.626 116.089 203.117C116.089 202.176 115.428 201.846 114.615 202.265C114.188 202.544 113.832 202.919 113.576 203.361C113.32 203.802 113.171 204.298 113.141 204.807Z" fill="url(#paint76_linear)"/>
<path d="M98.4612 215.723L101.499 213.969C101.745 213.782 101.943 213.539 102.077 213.261C102.212 212.983 102.279 212.677 102.274 212.368V209.152C102.274 208.555 101.905 208.275 101.448 208.529L98.4612 210.309C98.2133 210.491 98.0109 210.728 97.8697 211.001C97.7286 211.275 97.6527 211.577 97.6478 211.885V215.1C97.5842 215.698 97.9528 215.977 98.4612 215.723Z" fill="url(#paint77_linear)"/>
<defs>
<filter id="filter0_f" x="0.335938" y="148.377" width="202.965" height="117.075" filterUnits="userSpaceOnUse" color-interpolation-filters="sRGB">
<feFlood flood-opacity="0" result="BackgroundImageFix"/>
<feBlend mode="normal" in="SourceGraphic" in2="BackgroundImageFix" result="shape"/>
<feGaussianBlur stdDeviation="8" result="effect1_foregroundBlur"/>
</filter>
<radialGradient id="paint0_radial" cx="0" cy="0" r="1" gradientUnits="userSpaceOnUse" gradientTransform="translate(92.0917 198.671) rotate(168.467) scale(111.551 65.7581)">
<stop stop-color="#50BAB1" stop-opacity="0.8"/>
<stop offset="1" stop-color="#50BAB1" stop-opacity="0"/>
</radialGradient>
<linearGradient id="paint1_linear" x1="164.296" y1="138.017" x2="33.3875" y2="138.017" gradientUnits="userSpaceOnUse">
<stop offset="0.555358" stop-color="#26E0D6"/>
<stop offset="0.663666" stop-color="#00AFA5"/>
</linearGradient>
<linearGradient id="paint2_linear" x1="164.296" y1="21.7249" x2="164.296" y2="235.246" gradientUnits="userSpaceOnUse">
<stop stop-color="#26E0D6"/>
<stop offset="1" stop-color="#00AFA5"/>
</linearGradient>
<linearGradient id="paint3_linear" x1="163.902" y1="0.499998" x2="99.3276" y2="113.132" gradientUnits="userSpaceOnUse">
<stop stop-color="#6EE8E1"/>
<stop offset="1" stop-color="#14C5BA"/>
</linearGradient>
<linearGradient id="paint4_linear" x1="163.899" y1="28.2578" x2="33.3945" y2="75.3274" gradientUnits="userSpaceOnUse">
<stop stop-color="#00D9CC"/>
<stop offset="0.581596" stop-color="#00C7BB"/>
<stop offset="0.729688" stop-color="#15A79E"/>
</linearGradient>
<linearGradient id="paint5_linear" x1="136.13" y1="13.6063" x2="98.6626" y2="79.8017" gradientUnits="userSpaceOnUse">
<stop stop-color="#CDFFEB"/>
<stop offset="1" stop-color="#78DCB5"/>
</linearGradient>
<linearGradient id="paint6_linear" x1="115.932" y1="25.293" x2="112.653" y2="30.9365" gradientUnits="userSpaceOnUse">
<stop stop-color="#26E0D6"/>
<stop offset="1" stop-color="#4CA9A3"/>
</linearGradient>
<linearGradient id="paint7_linear" x1="106.5" y1="30.7344" x2="103.224" y2="36.4307" gradientUnits="userSpaceOnUse">
<stop stop-color="#26E0D6"/>
<stop offset="1" stop-color="#4CA9A3"/>
</linearGradient>
<linearGradient id="paint8_linear" x1="96.9582" y1="36.2195" x2="95.9992" y2="39.6767" gradientUnits="userSpaceOnUse">
<stop stop-color="#40E2A9"/>
<stop offset="1" stop-color="#3CCF95"/>
</linearGradient>
<linearGradient id="paint9_linear" x1="87.5512" y1="41.6289" x2="84.296" y2="47.2838" gradientUnits="userSpaceOnUse">
<stop stop-color="#26E0D6"/>
<stop offset="1" stop-color="#4CA9A3"/>
</linearGradient>
<linearGradient id="paint10_linear" x1="72.701" y1="71.8754" x2="38.6688" y2="105.63" gradientUnits="userSpaceOnUse">
<stop stop-color="#CDFFEB"/>
<stop offset="1" stop-color="#78DCB5"/>
</linearGradient>
<linearGradient id="paint11_linear" x1="58.6366" y1="95.0271" x2="59.8845" y2="90.6884" gradientUnits="userSpaceOnUse">
<stop stop-color="#0D8A80"/>
<stop offset="0.0001" stop-color="#03897E"/>
<stop offset="1" stop-color="#3FAEA8"/>
</linearGradient>
<linearGradient id="paint12_linear" x1="53.9019" y1="84.3466" x2="51.0134" y2="88.0739" gradientUnits="userSpaceOnUse">
<stop stop-color="#40E2A9"/>
<stop offset="1" stop-color="#3CCF95"/>
</linearGradient>
<linearGradient id="paint13_linear" x1="72.701" y1="143.71" x2="38.6997" y2="177.465" gradientUnits="userSpaceOnUse">
<stop stop-color="#CDFFEB"/>
<stop offset="1" stop-color="#78DCB5"/>
</linearGradient>
<linearGradient id="paint14_linear" x1="58.6366" y1="166.847" x2="59.9031" y2="162.479" gradientUnits="userSpaceOnUse">
<stop stop-color="#0D8A80"/>
<stop offset="0.0001" stop-color="#03897E"/>
<stop offset="1" stop-color="#3FAEA8"/>
</linearGradient>
<linearGradient id="paint15_linear" x1="50.201" y1="161.928" x2="51.4471" y2="157.584" gradientUnits="userSpaceOnUse">
<stop stop-color="#0D8A80"/>
<stop offset="0.0001" stop-color="#03897E"/>
<stop offset="1" stop-color="#3FAEA8"/>
</linearGradient>
<linearGradient id="paint16_linear" x1="72.701" y1="179.602" x2="38.6913" y2="213.357" gradientUnits="userSpaceOnUse">
<stop stop-color="#CDFFEB"/>
<stop offset="1" stop-color="#78DCB5"/>
</linearGradient>
<linearGradient id="paint17_linear" x1="62.325" y1="196.999" x2="59.4332" y2="200.717" gradientUnits="userSpaceOnUse">
<stop stop-color="#40E2A9"/>
<stop offset="1" stop-color="#3CCF95"/>
</linearGradient>
<linearGradient id="paint18_linear" x1="50.201" y1="197.834" x2="51.4446" y2="193.494" gradientUnits="userSpaceOnUse">
<stop stop-color="#0D8A80"/>
<stop offset="0.0001" stop-color="#03897E"/>
<stop offset="1" stop-color="#3FAEA8"/>
</linearGradient>
<linearGradient id="paint19_linear" x1="72.701" y1="107.796" x2="38.6992" y2="141.551" gradientUnits="userSpaceOnUse">
<stop stop-color="#CDFFEB"/>
<stop offset="1" stop-color="#78DCB5"/>
</linearGradient>
<linearGradient id="paint20_linear" x1="58.6366" y1="130.926" x2="59.8893" y2="126.58" gradientUnits="userSpaceOnUse">
<stop stop-color="#0D8A80"/>
<stop offset="0.0001" stop-color="#03897E"/>
<stop offset="1" stop-color="#3FAEA8"/>
</linearGradient>
<linearGradient id="paint21_linear" x1="53.9019" y1="120.259" x2="51.0125" y2="123.986" gradientUnits="userSpaceOnUse">
<stop stop-color="#40E2A9"/>
<stop offset="1" stop-color="#3CCF95"/>
</linearGradient>
<linearGradient id="paint22_linear" x1="160.737" y1="39.2793" x2="105.042" y2="107.205" gradientUnits="userSpaceOnUse">
<stop stop-color="#1DCEC4"/>
<stop offset="1" stop-color="#12B5AB"/>
</linearGradient>
<linearGradient id="paint23_linear" x1="157.473" y1="43.2685" x2="111.683" y2="104.888" gradientUnits="userSpaceOnUse">
<stop stop-color="#CDFFEB"/>
<stop offset="1" stop-color="#78DCB5"/>
</linearGradient>
<linearGradient id="paint24_linear" x1="153.902" y1="50.4981" x2="150.992" y2="58.3041" gradientUnits="userSpaceOnUse">
<stop stop-color="#40E2A9"/>
<stop offset="1" stop-color="#3CCF95"/>
</linearGradient>
<linearGradient id="paint25_linear" x1="136.017" y1="62.8528" x2="136.653" y2="60.0544" gradientUnits="userSpaceOnUse">
<stop stop-color="#0D8A80"/>
<stop offset="0.0001" stop-color="#03897E"/>
<stop offset="1" stop-color="#3FAEA8"/>
</linearGradient>
<linearGradient id="paint26_linear" x1="130.793" y1="65.8508" x2="131.426" y2="63.0513" gradientUnits="userSpaceOnUse">
<stop stop-color="#0D8A80"/>
<stop offset="0.0001" stop-color="#03897E"/>
<stop offset="1" stop-color="#3FAEA8"/>
</linearGradient>
<linearGradient id="paint27_linear" x1="128.543" y1="65.207" x2="124.869" y2="68.0811" gradientUnits="userSpaceOnUse">
<stop stop-color="#26E0D6"/>
<stop offset="1" stop-color="#4CA9A3"/>
</linearGradient>
<linearGradient id="paint28_linear" x1="120.371" y1="71.8887" x2="121.009" y2="69.0857" gradientUnits="userSpaceOnUse">
<stop stop-color="#0D8A80"/>
<stop offset="0.0001" stop-color="#03897E"/>
<stop offset="1" stop-color="#3FAEA8"/>
</linearGradient>
<linearGradient id="paint29_linear" x1="97.6404" y1="86.2254" x2="99.1384" y2="80.878" gradientUnits="userSpaceOnUse">
<stop stop-color="#0D8A80"/>
<stop offset="0.0001" stop-color="#03897E"/>
<stop offset="1" stop-color="#3FAEA8"/>
</linearGradient>
<linearGradient id="paint30_linear" x1="160.801" y1="60.8379" x2="105.114" y2="128.814" gradientUnits="userSpaceOnUse">
<stop stop-color="#1DCEC4"/>
<stop offset="1" stop-color="#12B5AB"/>
</linearGradient>
<linearGradient id="paint31_linear" x1="157.473" y1="64.8211" x2="111.668" y2="126.445" gradientUnits="userSpaceOnUse">
<stop stop-color="#CDFFEB"/>
<stop offset="1" stop-color="#78DCB5"/>
</linearGradient>
<linearGradient id="paint32_linear" x1="153.902" y1="72.0528" x2="150.985" y2="79.8671" gradientUnits="userSpaceOnUse">
<stop stop-color="#40E2A9"/>
<stop offset="1" stop-color="#3CCF95"/>
</linearGradient>
<linearGradient id="paint33_linear" x1="138.966" y1="80.7852" x2="135.305" y2="83.6462" gradientUnits="userSpaceOnUse">
<stop stop-color="#26E0D6"/>
<stop offset="1" stop-color="#4CA9A3"/>
</linearGradient>
<linearGradient id="paint34_linear" x1="130.793" y1="87.4643" x2="131.424" y2="84.6687" gradientUnits="userSpaceOnUse">
<stop stop-color="#0D8A80"/>
<stop offset="0.0001" stop-color="#03897E"/>
<stop offset="1" stop-color="#3FAEA8"/>
</linearGradient>
<linearGradient id="paint35_linear" x1="128.543" y1="86.7949" x2="124.894" y2="89.6753" gradientUnits="userSpaceOnUse">
<stop stop-color="#26E0D6"/>
<stop offset="1" stop-color="#4CA9A3"/>
</linearGradient>
<linearGradient id="paint36_linear" x1="120.371" y1="93.4446" x2="121.006" y2="90.6462" gradientUnits="userSpaceOnUse">
<stop stop-color="#0D8A80"/>
<stop offset="0.0001" stop-color="#03897E"/>
<stop offset="1" stop-color="#3FAEA8"/>
</linearGradient>
<linearGradient id="paint37_linear" x1="97.6404" y1="107.779" x2="99.1364" y2="102.435" gradientUnits="userSpaceOnUse">
<stop stop-color="#0D8A80"/>
<stop offset="0.0001" stop-color="#03897E"/>
<stop offset="1" stop-color="#3FAEA8"/>
</linearGradient>
<linearGradient id="paint38_linear" x1="160.801" y1="82.3945" x2="105.114" y2="150.371" gradientUnits="userSpaceOnUse">
<stop stop-color="#1DCEC4"/>
<stop offset="1" stop-color="#12B5AB"/>
</linearGradient>
<linearGradient id="paint39_linear" x1="157.473" y1="86.3659" x2="111.653" y2="147.995" gradientUnits="userSpaceOnUse">
<stop stop-color="#CDFFEB"/>
<stop offset="1" stop-color="#78DCB5"/>
</linearGradient>
<linearGradient id="paint40_linear" x1="142.435" y1="102.206" x2="143.382" y2="95.3381" gradientUnits="userSpaceOnUse">
<stop stop-color="#0D8A80"/>
<stop offset="0.0001" stop-color="#03897E"/>
<stop offset="1" stop-color="#3FAEA8"/>
</linearGradient>
<linearGradient id="paint41_linear" x1="138.966" y1="102.334" x2="135.316" y2="105.198" gradientUnits="userSpaceOnUse">
<stop stop-color="#26E0D6"/>
<stop offset="1" stop-color="#4CA9A3"/>
</linearGradient>
<linearGradient id="paint42_linear" x1="130.793" y1="108.988" x2="131.426" y2="106.188" gradientUnits="userSpaceOnUse">
<stop stop-color="#0D8A80"/>
<stop offset="0.0001" stop-color="#03897E"/>
<stop offset="1" stop-color="#3FAEA8"/>
</linearGradient>
<linearGradient id="paint43_linear" x1="128.543" y1="108.367" x2="124.894" y2="111.248" gradientUnits="userSpaceOnUse">
<stop stop-color="#26E0D6"/>
<stop offset="1" stop-color="#4CA9A3"/>
</linearGradient>
<linearGradient id="paint44_linear" x1="120.371" y1="115.013" x2="121.006" y2="112.215" gradientUnits="userSpaceOnUse">
<stop stop-color="#0D8A80"/>
<stop offset="0.0001" stop-color="#03897E"/>
<stop offset="1" stop-color="#3FAEA8"/>
</linearGradient>
<linearGradient id="paint45_linear" x1="97.6404" y1="129.355" x2="99.1424" y2="124.001" gradientUnits="userSpaceOnUse">
<stop stop-color="#0D8A80"/>
<stop offset="0.0001" stop-color="#03897E"/>
<stop offset="1" stop-color="#3FAEA8"/>
</linearGradient>
<linearGradient id="paint46_linear" x1="160.801" y1="103.934" x2="105.078" y2="171.917" gradientUnits="userSpaceOnUse">
<stop stop-color="#1DCEC4"/>
<stop offset="1" stop-color="#12B5AB"/>
</linearGradient>
<linearGradient id="paint47_linear" x1="157.473" y1="107.946" x2="111.683" y2="169.566" gradientUnits="userSpaceOnUse">
<stop stop-color="#CDFFEB"/>
<stop offset="1" stop-color="#78DCB5"/>
</linearGradient>
<linearGradient id="paint48_linear" x1="142.435" y1="123.761" x2="143.382" y2="116.893" gradientUnits="userSpaceOnUse">
<stop stop-color="#0D8A80"/>
<stop offset="0.0001" stop-color="#03897E"/>
<stop offset="1" stop-color="#3FAEA8"/>
</linearGradient>
<linearGradient id="paint49_linear" x1="136.017" y1="127.531" x2="136.653" y2="124.732" gradientUnits="userSpaceOnUse">
<stop stop-color="#0D8A80"/>
<stop offset="0.0001" stop-color="#03897E"/>
<stop offset="1" stop-color="#3FAEA8"/>
</linearGradient>
<linearGradient id="paint50_linear" x1="130.793" y1="130.544" x2="131.426" y2="127.745" gradientUnits="userSpaceOnUse">
<stop stop-color="#0D8A80"/>
<stop offset="0.0001" stop-color="#03897E"/>
<stop offset="1" stop-color="#3FAEA8"/>
</linearGradient>
<linearGradient id="paint51_linear" x1="128.543" y1="129.893" x2="124.874" y2="132.768" gradientUnits="userSpaceOnUse">
<stop stop-color="#26E0D6"/>
<stop offset="1" stop-color="#4CA9A3"/>
</linearGradient>
<linearGradient id="paint52_linear" x1="120.371" y1="136.566" x2="121.018" y2="133.744" gradientUnits="userSpaceOnUse">
<stop stop-color="#0D8A80"/>
<stop offset="0.0001" stop-color="#03897E"/>
<stop offset="1" stop-color="#3FAEA8"/>
</linearGradient>
<linearGradient id="paint53_linear" x1="102.325" y1="143.783" x2="95.6452" y2="148.021" gradientUnits="userSpaceOnUse">
<stop stop-color="#26E0D6"/>
<stop offset="1" stop-color="#4CA9A3"/>
</linearGradient>
<linearGradient id="paint54_linear" x1="160.801" y1="125.543" x2="105.145" y2="193.513" gradientUnits="userSpaceOnUse">
<stop stop-color="#1DCEC4"/>
<stop offset="1" stop-color="#12B5AB"/>
</linearGradient>
<linearGradient id="paint55_linear" x1="157.473" y1="129.475" x2="111.635" y2="191.109" gradientUnits="userSpaceOnUse">
<stop stop-color="#CDFFEB"/>
<stop offset="1" stop-color="#78DCB5"/>
</linearGradient>
<linearGradient id="paint56_linear" x1="153.902" y1="136.731" x2="150.985" y2="144.545" gradientUnits="userSpaceOnUse">
<stop stop-color="#40E2A9"/>
<stop offset="1" stop-color="#3CCF95"/>
</linearGradient>
<linearGradient id="paint57_linear" x1="136.017" y1="149.101" x2="136.653" y2="146.302" gradientUnits="userSpaceOnUse">
<stop stop-color="#0D8A80"/>
<stop offset="0.0001" stop-color="#03897E"/>
<stop offset="1" stop-color="#3FAEA8"/>
</linearGradient>
<linearGradient id="paint58_linear" x1="133.754" y1="148.479" x2="130.11" y2="151.36" gradientUnits="userSpaceOnUse">
<stop stop-color="#26E0D6"/>
<stop offset="1" stop-color="#4CA9A3"/>
</linearGradient>
<linearGradient id="paint59_linear" x1="128.543" y1="151.486" x2="124.878" y2="154.363" gradientUnits="userSpaceOnUse">
<stop stop-color="#26E0D6"/>
<stop offset="1" stop-color="#4CA9A3"/>
</linearGradient>
<linearGradient id="paint60_linear" x1="123.32" y1="154.486" x2="119.654" y2="157.346" gradientUnits="userSpaceOnUse">
<stop stop-color="#26E0D6"/>
<stop offset="1" stop-color="#4CA9A3"/>
</linearGradient>
<linearGradient id="paint61_linear" x1="102.325" y1="165.342" x2="95.6582" y2="169.586" gradientUnits="userSpaceOnUse">
<stop stop-color="#26E0D6"/>
<stop offset="1" stop-color="#4CA9A3"/>
</linearGradient>
<linearGradient id="paint62_linear" x1="160.738" y1="147.021" x2="104.981" y2="214.96" gradientUnits="userSpaceOnUse">
<stop stop-color="#1DCEC4"/>
<stop offset="1" stop-color="#12B5AB"/>
</linearGradient>
<linearGradient id="paint63_linear" x1="157.473" y1="151.03" x2="111.656" y2="212.658" gradientUnits="userSpaceOnUse">
<stop stop-color="#CDFFEB"/>
<stop offset="1" stop-color="#78DCB5"/>
</linearGradient>
<linearGradient id="paint64_linear" x1="142.435" y1="166.886" x2="143.382" y2="160.018" gradientUnits="userSpaceOnUse">
<stop stop-color="#0D8A80"/>
<stop offset="0.0001" stop-color="#03897E"/>
<stop offset="1" stop-color="#3FAEA8"/>
</linearGradient>
<linearGradient id="paint65_linear" x1="136.017" y1="170.656" x2="136.664" y2="167.834" gradientUnits="userSpaceOnUse">
<stop stop-color="#0D8A80"/>
<stop offset="0.0001" stop-color="#03897E"/>
<stop offset="1" stop-color="#3FAEA8"/>
</linearGradient>
<linearGradient id="paint66_linear" x1="130.793" y1="173.666" x2="131.437" y2="170.843" gradientUnits="userSpaceOnUse">
<stop stop-color="#0D8A80"/>
<stop offset="0.0001" stop-color="#03897E"/>
<stop offset="1" stop-color="#3FAEA8"/>
</linearGradient>
<linearGradient id="paint67_linear" x1="128.543" y1="173.043" x2="124.894" y2="175.923" gradientUnits="userSpaceOnUse">
<stop stop-color="#26E0D6"/>
<stop offset="1" stop-color="#4CA9A3"/>
</linearGradient>
<linearGradient id="paint68_linear" x1="120.371" y1="179.693" x2="121.006" y2="176.894" gradientUnits="userSpaceOnUse">
<stop stop-color="#0D8A80"/>
<stop offset="0.0001" stop-color="#03897E"/>
<stop offset="1" stop-color="#3FAEA8"/>
</linearGradient>
<linearGradient id="paint69_linear" x1="97.6404" y1="194.029" x2="99.1404" y2="188.679" gradientUnits="userSpaceOnUse">
<stop stop-color="#0D8A80"/>
<stop offset="0.0001" stop-color="#03897E"/>
<stop offset="1" stop-color="#3FAEA8"/>
</linearGradient>
<linearGradient id="paint70_linear" x1="160.737" y1="168.643" x2="105.063" y2="236.564" gradientUnits="userSpaceOnUse">
<stop stop-color="#1DCEC4"/>
<stop offset="1" stop-color="#12B5AB"/>
</linearGradient>
<linearGradient id="paint71_linear" x1="157.473" y1="172.626" x2="111.676" y2="234.248" gradientUnits="userSpaceOnUse">
<stop stop-color="#CDFFEB"/>
<stop offset="1" stop-color="#78DCB5"/>
</linearGradient>
<linearGradient id="paint72_linear" x1="153.902" y1="179.857" x2="150.989" y2="187.667" gradientUnits="userSpaceOnUse">
<stop stop-color="#40E2A9"/>
<stop offset="1" stop-color="#3CCF95"/>
</linearGradient>
<linearGradient id="paint73_linear" x1="139.957" y1="187.229" x2="132.948" y2="192.638" gradientUnits="userSpaceOnUse">
<stop stop-color="#26E0D6"/>
<stop offset="1" stop-color="#4CA9A3"/>
</linearGradient>
<linearGradient id="paint74_linear" x1="123.562" y1="199.73" x2="124.202" y2="196.915" gradientUnits="userSpaceOnUse">
<stop stop-color="#0D8A80"/>
<stop offset="0.0001" stop-color="#03897E"/>
<stop offset="1" stop-color="#3FAEA8"/>
</linearGradient>
<linearGradient id="paint75_linear" x1="121.313" y1="199.084" x2="117.668" y2="201.965" gradientUnits="userSpaceOnUse">
<stop stop-color="#26E0D6"/>
<stop offset="1" stop-color="#4CA9A3"/>
</linearGradient>
<linearGradient id="paint76_linear" x1="113.141" y1="205.722" x2="113.776" y2="202.924" gradientUnits="userSpaceOnUse">
<stop stop-color="#0D8A80"/>
<stop offset="0.0001" stop-color="#03897E"/>
<stop offset="1" stop-color="#3FAEA8"/>
</linearGradient>
<linearGradient id="paint77_linear" x1="102.274" y1="208.436" x2="95.6266" y2="212.609" gradientUnits="userSpaceOnUse">
<stop stop-color="#26E0D6"/>
<stop offset="1" stop-color="#4CA9A3"/>
</linearGradient>
</defs>
</svg>
