<svg width="841" height="659" viewBox="0 0 841 659" fill="none" xmlns="http://www.w3.org/2000/svg">
<path d="M270.622 59.024L214.182 214.685H170.767L135.745 118.048L99.5656 214.685H56.1504L0 59.024H42.5469L79.3052 164.341L117.511 59.024H155.716L192.764 164.341L230.68 59.024H270.622Z" fill="#EEEEEE"/>
<path d="M364.362 217C347.961 217 333.2 213.624 320.079 206.873C307.151 199.929 297.021 190.381 289.688 178.229C282.356 166.077 278.69 152.286 278.69 136.855C278.69 121.424 282.356 107.632 289.688 95.48C297.021 83.328 307.151 73.8764 320.079 67.1253C333.2 60.1813 347.961 56.7093 364.362 56.7093C380.764 56.7093 395.428 60.1813 408.357 67.1253C421.285 73.8764 431.415 83.328 438.747 95.48C446.079 107.632 449.746 121.424 449.746 136.855C449.746 152.286 446.079 166.077 438.747 178.229C431.415 190.381 421.285 199.929 408.357 206.873C395.428 213.624 380.764 217 364.362 217ZM364.362 179.965C375.94 179.965 385.395 176.108 392.727 168.392C400.252 160.484 404.015 149.971 404.015 136.855C404.015 123.738 400.252 113.322 392.727 105.607C385.395 97.6982 375.94 93.744 364.362 93.744C352.785 93.744 343.234 97.6982 335.708 105.607C328.183 113.322 324.42 123.738 324.42 136.855C324.42 149.971 328.183 160.484 335.708 168.392C343.234 176.108 352.785 179.965 364.362 179.965Z" fill="#EEEEEE"/>
<path d="M525.946 79.5667C531.349 72.044 538.585 66.3538 547.654 62.496C556.916 58.6382 567.528 56.7093 579.492 56.7093V98.3733C574.475 97.9876 571.098 97.7947 569.361 97.7947C556.433 97.7947 546.303 101.46 538.971 108.789C531.638 115.926 527.972 126.728 527.972 141.195V214.685H482.82V59.024H525.946V79.5667Z" fill="#EEEEEE"/>
<path d="M676.093 153.636L654.385 175.047V214.685H609.233V0H654.385V121.52L720.376 59.024H774.211L709.378 124.992L780 214.685H725.297L676.093 153.636Z" fill="#EEEEEE"/>
<path d="M270.492 309.038L214.08 464.686H170.685L135.68 368.057L99.5181 464.686H56.1236L0 309.038H42.5266L79.2673 414.346L117.454 309.038H155.642L192.672 414.346L230.569 309.038H270.492Z" fill="#EEEEEE"/>
<path d="M294.366 309.038H339.496V464.686H294.366V309.038ZM316.931 287.34C308.638 287.34 301.888 284.929 296.681 280.107C291.473 275.285 288.87 269.306 288.87 262.17C288.87 255.034 291.473 249.055 296.681 244.233C301.888 239.411 308.638 237 316.931 237C325.224 237 331.975 239.314 337.182 243.943C342.389 248.572 344.993 254.359 344.993 261.302C344.993 268.824 342.389 275.092 337.182 280.107C331.975 284.929 325.224 287.34 316.931 287.34Z" fill="#EEEEEE"/>
<path d="M484.66 457.164C480.224 460.442 474.728 462.95 468.17 464.686C461.806 466.229 455.055 467 447.919 467C429.404 467 415.036 462.275 404.814 452.824C394.785 443.373 389.771 429.486 389.771 411.164V347.226H365.759V312.509H389.771V274.61H434.901V312.509H473.667V347.226H434.901V410.585C434.901 417.143 436.54 422.254 439.819 425.918C443.291 429.39 448.112 431.126 454.284 431.126C461.42 431.126 467.495 429.197 472.51 425.34L484.66 457.164Z" fill="#EEEEEE"/>
<path d="M607.487 306.723C626.773 306.723 642.299 312.509 654.064 324.082C666.021 335.654 672 352.82 672 375.579V464.686H626.87V382.522C626.87 370.178 624.17 361.017 618.769 355.038C613.369 348.866 605.558 345.78 595.336 345.78C583.957 345.78 574.893 349.348 568.143 356.484C561.392 363.428 558.017 373.843 558.017 387.73V464.686H512.887V250.019H558.017V325.239C563.996 319.26 571.228 314.727 579.714 311.642C588.2 308.363 597.458 306.723 607.487 306.723Z" fill="#EEEEEE"/>
<path d="M670.564 500.325V656.675H627.776V638.076C621.801 644.857 614.67 650.088 606.382 653.769C598.094 657.256 589.132 659 579.495 659C559.065 659 542.875 653.091 530.925 641.273C518.975 629.454 513 611.921 513 588.671V500.325H558.101V581.987C558.101 607.174 568.605 619.767 589.614 619.767C600.407 619.767 609.08 616.28 615.633 609.305C622.187 602.137 625.463 591.578 625.463 577.628V500.325H670.564Z" fill="#EEEEEE"/>
<path d="M767.567 659C754.653 659 742.029 657.45 729.693 654.35C717.358 651.057 707.528 646.988 700.204 642.144L715.238 609.596C722.177 614.052 730.561 617.733 740.39 620.639C750.22 623.351 759.857 624.708 769.301 624.708C788.382 624.708 797.923 619.961 797.923 610.467C797.923 606.011 795.321 602.815 790.117 600.877C784.913 598.94 776.914 597.293 766.121 595.937C753.4 593.999 742.896 591.771 734.608 589.253C726.32 586.734 719.093 582.278 712.925 575.884C706.95 569.491 703.963 560.385 703.963 548.567C703.963 538.686 706.757 529.968 712.347 522.412C718.129 514.662 726.417 508.656 737.21 504.393C748.196 500.131 761.11 498 775.951 498C786.937 498 797.827 499.259 808.62 501.778C819.606 504.103 828.665 507.396 835.796 511.659L820.762 543.917C807.078 536.167 792.141 532.292 775.951 532.292C766.314 532.292 759.086 533.649 754.268 536.361C749.449 539.073 747.04 542.561 747.04 546.823C747.04 551.667 749.642 555.057 754.846 556.995C760.05 558.932 768.337 560.773 779.709 562.516C792.43 564.647 802.838 566.972 810.933 569.491C819.028 571.816 826.063 576.175 832.038 582.569C838.013 588.962 841 597.874 841 609.305C841 618.992 838.109 627.614 832.327 635.17C826.545 642.726 818.064 648.635 806.885 652.897C795.899 656.966 782.793 659 767.567 659Z" fill="#EEEEEE"/>
</svg>
