<svg width="331" height="38" viewBox="0 0 331 38" fill="none" xmlns="http://www.w3.org/2000/svg">
<path d="M29.9448 28.3379C29.4425 30.9714 29.0168 33.2077 28.8517 34.0763H48.3897V28.3379H29.9448ZM0.000976562 28.3901V34.1285H19.4004L18.1059 28.3901H0.000976562Z" fill="#FF6600"/>
<path d="M9.53272 15.233L8.12077 9.29672H20.1678L24.0692 26.3373H24.2357L26.6936 15.4213C27.9321 10.465 28.4 9.29672 35.3799 9.29672H40.4002C40.4002 9.29672 39.386 13.8654 38.124 18.8231C37.6437 20.7144 33.4519 20.4903 33.6611 18.7241C33.6831 18.54 33.8813 17.2109 34.0382 16.2652C34.2666 14.9045 32.6771 14.7341 32.3909 16.0811C32.1872 17.0459 31.2666 21.8345 30.4065 26.3373H48.3902V1.86914H0V26.3373H17.5613L15.0594 15.2413L9.53272 15.233V15.233Z" fill="#0066B3"/>
<path d="M65.3005 15.53H68.3434L72.5008 3.18165H70.0417L66.9104 12.8764H66.875L63.7083 3.18165H61.0547L65.3005 15.53Z" fill="#0066B3"/>
<path d="M72.1701 11.0365C72.1701 13.6548 73.9215 15.7423 76.929 15.7423C79.9541 15.7423 81.7055 13.6548 81.7055 11.0365C81.7055 8.029 79.6357 6.20682 76.929 6.20682C74.2399 6.20682 72.1701 8.029 72.1701 11.0365ZM74.6468 10.7534C74.6468 9.39121 75.3898 8.04669 76.929 8.04669C78.4858 8.04669 79.2288 9.35583 79.2288 10.7534C79.2288 12.2749 78.7511 13.9024 76.929 13.9024C75.1245 13.9024 74.6468 12.2572 74.6468 10.7534Z" fill="#0066B3"/>
<path d="M83.4451 15.53H85.8157V2.26172H83.4451V15.53Z" fill="#0066B3"/>
<path d="M88.1919 15.53H90.5625V11.1072H90.5979L93.6408 15.53H96.6483L92.827 10.4881L96.2237 6.41912H93.4285L90.5979 10.0635H90.5625V2.26172H88.1919V15.53Z" fill="#0066B3"/>
<path d="M103.365 6.54295C102.622 6.38374 101.897 6.20682 100.782 6.20682C98.9245 6.20682 97.2084 7.07369 97.2084 9.03739C97.2084 12.3279 101.33 11.1072 101.33 12.894C101.33 13.7786 100.375 14.0086 99.7736 14.0086C98.9598 14.0086 98.1814 13.7786 97.4384 13.4071L97.2969 15.3531C98.1638 15.5831 99.0837 15.7423 99.9859 15.7423C101.914 15.7423 103.807 14.8931 103.807 12.7702C103.807 9.47967 99.6852 10.3996 99.6852 8.94894C99.6852 8.17053 100.446 7.94055 101.083 7.94055C101.95 7.94055 102.48 8.08208 103.206 8.32975L103.365 6.54295Z" fill="#0066B3"/>
<path d="M107.864 10.948C107.864 9.67427 108.466 8.04669 109.987 8.04669C111.526 8.04669 111.951 9.72734 111.951 10.948C111.951 12.2041 111.509 13.9024 109.952 13.9024C108.377 13.9024 107.864 12.2395 107.864 10.948ZM105.476 15.53H107.776V14.4155H107.811C108.501 15.3885 109.598 15.7423 110.607 15.7423C113.402 15.7423 114.428 13.4425 114.428 10.948C114.428 8.4359 113.402 6.20682 110.607 6.20682C109.368 6.20682 108.537 6.71987 107.882 7.58673H107.847V2.26172H105.476V15.53Z" fill="#0066B3"/>
<path d="M116.592 8.93125C117.388 8.32975 118.396 7.94055 119.405 7.94055C120.802 7.94055 121.457 8.4359 121.457 9.90426H120.148C119.157 9.90426 117.989 9.99271 117.087 10.435C116.185 10.8773 115.53 11.6734 115.53 13.0356C115.53 14.7693 117.105 15.7423 118.715 15.7423C119.794 15.7423 120.979 15.1762 121.528 14.1678H121.563C121.581 14.4509 121.581 15.0524 121.669 15.53H123.757C123.704 14.8224 123.668 14.1855 123.651 13.4955C123.633 12.8233 123.615 12.1333 123.615 11.2134V10.0458C123.615 7.35674 122.465 6.20682 119.688 6.20682C118.679 6.20682 117.441 6.47219 116.521 6.89678L116.592 8.93125ZM117.795 12.894C117.795 11.4964 119.369 11.3195 120.431 11.3195H121.457C121.457 12.0272 121.351 12.6817 120.962 13.1948C120.59 13.6901 120.024 14.0086 119.299 14.0086C118.449 14.0086 117.795 13.6724 117.795 12.894Z" fill="#0066B3"/>
<path d="M125.768 15.53H128.138V11.0719C128.138 9.90425 128.51 8.04669 130.226 8.04669C131.747 8.04669 131.765 9.55043 131.765 10.665V15.53H134.135V9.78042C134.135 7.72826 133.198 6.20682 131.04 6.20682C129.801 6.20682 128.793 6.61372 128.05 7.65749H128.014V6.41912H125.768V15.53Z" fill="#0066B3"/>
<path d="M136.459 15.53H138.829V11.1072H138.865L141.908 15.53H144.915L141.094 10.4881L144.491 6.41912H141.695L138.865 10.0635H138.829V2.26172H136.459V15.53Z" fill="#0066B3"/>
<path d="M150.859 15.53H153.23V6.41912H150.859V15.53ZM150.859 4.75616H153.23V2.4917H150.859V4.75616Z" fill="#0066B3"/>
<path d="M155.553 15.53H157.923V11.0719C157.923 9.90425 158.295 8.04669 160.011 8.04669C161.532 8.04669 161.55 9.55043 161.55 10.665V15.53H163.921V9.78042C163.921 7.72826 162.983 6.20682 160.825 6.20682C159.586 6.20682 158.578 6.61372 157.835 7.65749H157.8V6.41912H155.553V15.53Z" fill="#0066B3"/>
<path d="M172.831 10.948C172.831 9.72734 173.255 8.04669 174.794 8.04669C176.316 8.04669 176.917 9.67427 176.917 10.948C176.917 12.2395 176.404 13.9024 174.83 13.9024C173.273 13.9024 172.831 12.2041 172.831 10.948ZM177.006 15.53H179.306V2.26172H176.935V7.48058H176.9C176.192 6.61372 175.361 6.20682 174.175 6.20682C171.38 6.20682 170.354 8.4359 170.354 10.948C170.354 13.4425 171.38 15.7423 174.175 15.7423C175.29 15.7423 176.263 15.3885 176.971 14.5039H177.006V15.53Z" fill="#0066B3"/>
<path d="M183.257 10.0812C183.363 8.86048 184.035 7.94055 185.362 7.94055C186.689 7.94055 187.219 8.93125 187.29 10.0812H183.257ZM188.882 13.0886C187.998 13.584 187.007 14.0086 185.857 14.0086C184.389 14.0086 183.363 13.1771 183.257 11.7087H189.555C189.555 8.52435 188.599 6.20682 185.22 6.20682C182.39 6.20682 180.992 8.38282 180.992 11.0188C180.992 14.0086 182.744 15.7423 185.751 15.7423C187.025 15.7423 188.016 15.4946 188.882 15.017V13.0886Z" fill="#0066B3"/>
<path d="M191.282 15.53H193.653V12.1864C193.653 10.8773 193.653 8.47128 195.581 8.47128C196.006 8.47128 196.431 8.54204 196.643 8.66588V6.27759C196.395 6.20682 196.147 6.20682 195.917 6.20682C194.502 6.20682 193.529 7.6398 193.423 8.48897H193.388V6.41912H191.282V15.53Z" fill="#0066B3"/>
<path d="M202.888 15.53H205.364V10.1165H210.318V15.53H212.795V3.18165H210.318V8.17053H205.364V3.18165H202.888V15.53Z" fill="#0066B3"/>
<path d="M214.682 11.0365C214.682 13.6548 216.433 15.7423 219.441 15.7423C222.466 15.7423 224.217 13.6548 224.217 11.0365C224.217 8.029 222.148 6.20682 219.441 6.20682C216.752 6.20682 214.682 8.029 214.682 11.0365ZM217.159 10.7534C217.159 9.39121 217.902 8.04669 219.441 8.04669C220.998 8.04669 221.741 9.35583 221.741 10.7534C221.741 12.2749 221.263 13.9024 219.441 13.9024C217.636 13.9024 217.159 12.2572 217.159 10.7534Z" fill="#0066B3"/>
<path d="M225.904 15.53H228.274V11.0719C228.274 9.90425 228.646 8.04669 230.362 8.04669C231.883 8.04669 231.901 9.55043 231.901 10.665V15.53H234.272V9.78042C234.272 7.72826 233.334 6.20682 231.176 6.20682C229.937 6.20682 228.911 6.77294 228.31 7.65749H228.274V2.26172H225.904V15.53Z" fill="#0066B3"/>
<path d="M238.223 10.0812C238.329 8.86048 239.001 7.94055 240.328 7.94055C241.655 7.94055 242.185 8.93125 242.256 10.0812H238.223ZM243.848 13.0886C242.964 13.584 241.973 14.0086 240.823 14.0086C239.355 14.0086 238.329 13.1771 238.223 11.7087H244.521C244.521 8.52435 243.565 6.20682 240.186 6.20682C237.356 6.20682 235.958 8.38282 235.958 11.0188C235.958 14.0086 237.71 15.7423 240.717 15.7423C241.991 15.7423 242.982 15.4946 243.848 15.017V13.0886Z" fill="#0066B3"/>
<path d="M246.195 15.53H248.566V11.0719C248.566 9.90425 248.937 8.04669 250.653 8.04669C252.175 8.04669 252.193 9.55043 252.193 10.665V15.53H254.563V9.78042C254.563 7.72826 253.626 6.20682 251.467 6.20682C250.229 6.20682 249.22 6.61372 248.477 7.65749H248.442V6.41912H246.195V15.53Z" fill="#0066B3"/>
<path d="M261.793 15.53H264.163V5.37535L264.199 5.33996L267.525 15.53H269.895L273.221 5.33996H273.256V15.53H275.627V3.18165H271.664L268.728 12.5402H268.692L265.755 3.18165H261.793V15.53Z" fill="#0066B3"/>
<path d="M278.587 8.93125C279.383 8.32975 280.392 7.94055 281.4 7.94055C282.798 7.94055 283.452 8.4359 283.452 9.90426H282.143C281.153 9.90426 279.985 9.99271 279.083 10.435C278.18 10.8773 277.526 11.6734 277.526 13.0356C277.526 14.7693 279.1 15.7423 280.71 15.7423C281.789 15.7423 282.975 15.1762 283.523 14.1678H283.559C283.576 14.4509 283.576 15.0524 283.665 15.53H285.752C285.699 14.8224 285.664 14.1855 285.646 13.4955C285.628 12.8233 285.611 12.1333 285.611 11.2134V10.0458C285.611 7.35674 284.461 6.20682 281.683 6.20682C280.675 6.20682 279.437 6.47219 278.517 6.89678L278.587 8.93125ZM279.79 12.894C279.79 11.4964 281.365 11.3195 282.426 11.3195H283.452C283.452 12.0272 283.346 12.6817 282.957 13.1948C282.586 13.6901 282.019 14.0086 281.294 14.0086C280.445 14.0086 279.79 13.6724 279.79 12.894Z" fill="#0066B3"/>
<path d="M287.816 15.53H290.187V12.1864C290.187 10.8773 290.187 8.47128 292.115 8.47128C292.54 8.47128 292.964 8.54204 293.177 8.66588V6.27759C292.929 6.20682 292.681 6.20682 292.451 6.20682C291.036 6.20682 290.063 7.6398 289.957 8.48897H289.921V6.41912H287.816V15.53Z" fill="#0066B3"/>
<path d="M294.515 15.53H296.886V11.1072H296.921L299.964 15.53H302.972L299.15 10.4881L302.547 6.41912H299.752L296.921 10.0635H296.886V2.26172H294.515V15.53Z" fill="#0066B3"/>
<path d="M310.543 10.0812C310.649 8.86048 311.322 7.94055 312.648 7.94055C313.975 7.94055 314.506 8.93125 314.577 10.0812H310.543ZM316.169 13.0886C315.284 13.584 314.294 14.0086 313.144 14.0086C311.675 14.0086 310.649 13.1771 310.543 11.7087H316.841C316.841 8.52435 315.886 6.20682 312.507 6.20682C309.676 6.20682 308.279 8.38282 308.279 11.0188C308.279 14.0086 310.03 15.7423 313.038 15.7423C314.311 15.7423 315.302 15.4946 316.169 15.017V13.0886Z" fill="#0066B3"/>
<path d="M328.529 3.4824C327.467 3.16396 326.335 2.96936 324.902 2.96936C320.71 2.96936 318.127 5.33996 318.127 9.56813C318.127 13.7432 320.904 15.7423 324.902 15.7423C326.229 15.7423 327.591 15.4592 328.9 15.1054V8.45359H323.912V10.3996H326.53V13.6194C326.105 13.7255 325.575 13.7963 324.902 13.7963C322.266 13.7963 320.71 11.9033 320.71 9.39121C320.71 6.86139 322.302 4.91538 325.185 4.91538C326.176 4.91538 327.414 5.12767 328.37 5.56995L328.529 3.4824Z" fill="#0066B3"/>
<path d="M69.1753 21.8823C68.2731 21.5816 67.2824 21.4401 66.2209 21.4401C64.0449 21.4401 61.9043 22.4485 61.9043 25.2083C61.9043 29.2949 67.3178 28.3219 67.3178 30.6748C67.3178 31.7893 66.0617 32.267 65.1241 32.267C64.1511 32.267 63.1781 31.9662 62.3289 31.5063L62.0989 33.7353C63.3196 34.0361 63.9211 34.213 65.2656 34.213C67.76 34.213 69.9007 33.1869 69.9007 30.4802C69.9007 26.3405 64.4872 27.2427 64.4872 25.1021C64.4872 23.7576 65.584 23.3861 66.4332 23.3861C67.3001 23.3861 68.1669 23.5807 68.9453 23.9168L69.1753 21.8823Z" fill="#0066B3"/>
<path d="M71.7523 37.7158H74.1229V32.9569H74.1583C74.9897 33.9653 75.8212 34.213 76.8296 34.213C79.6779 34.213 80.704 31.9132 80.704 29.4187C80.704 26.9066 79.6779 24.6775 76.8827 24.6775C75.4851 24.6775 74.5828 25.2967 74.0521 26.1813H74.0167V24.8898H71.7523V37.7158ZM76.2635 26.5174C77.8026 26.5174 78.2272 28.198 78.2272 29.4187C78.2272 30.6748 77.7849 32.3731 76.2281 32.3731C74.6536 32.3731 74.1406 30.7102 74.1406 29.4187C74.1406 28.145 74.7421 26.5174 76.2635 26.5174Z" fill="#0066B3"/>
<path d="M82.8681 27.402C83.6642 26.8005 84.6726 26.4113 85.6809 26.4113C87.0785 26.4113 87.7331 26.9066 87.7331 28.375H86.424C85.4333 28.375 84.2657 28.4634 83.3634 28.9057C82.4612 29.348 81.8066 30.1441 81.8066 31.5063C81.8066 33.24 83.3811 34.213 84.991 34.213C86.0701 34.213 87.2554 33.6469 87.8039 32.6385H87.8393C87.8569 32.9216 87.8569 33.5231 87.9454 34.0007H90.0329C89.9799 33.2931 89.9445 32.6562 89.9268 31.9662C89.9091 31.294 89.8914 30.604 89.8914 29.6841V28.5165C89.8914 25.8274 88.7415 24.6775 85.964 24.6775C84.9556 24.6775 83.7172 24.9429 82.7973 25.3675L82.8681 27.402ZM84.0711 31.3647C84.0711 29.9672 85.6456 29.7902 86.707 29.7902H87.7331C87.7331 30.4979 87.627 31.1525 87.2378 31.6655C86.8662 32.1608 86.3001 32.4793 85.5748 32.4793C84.7256 32.4793 84.0711 32.1432 84.0711 31.3647Z" fill="#0066B3"/>
<path d="M92.0969 34.0007H94.4675V30.6571C94.4675 29.348 94.4675 26.942 96.3958 26.942C96.8204 26.942 97.245 27.0127 97.4572 27.1366V24.7483C97.2096 24.6775 96.9619 24.6775 96.7319 24.6775C95.3166 24.6775 94.3436 26.1105 94.2375 26.9597H94.2021V24.8898H92.0969V34.0007Z" fill="#0066B3"/>
<path d="M101.827 30.2148V28.2688H97.1739V30.2148H101.827Z" fill="#0066B3"/>
<path d="M116.604 24.8898H114.234V29.348C114.234 30.5156 113.862 32.3731 112.146 32.3731C110.625 32.3731 110.607 30.8694 110.607 29.7549V24.8898H108.237V30.6394C108.237 32.6916 109.174 34.213 111.333 34.213C112.571 34.213 113.597 33.6469 114.322 32.7623H114.358V34.0007H116.604V24.8898Z" fill="#0066B3"/>
<path d="M118.875 34.0007H121.245V29.5426C121.245 28.375 121.617 26.5174 123.333 26.5174C124.854 26.5174 124.872 28.0211 124.872 29.1357V34.0007H127.243V28.2511C127.243 26.199 126.305 24.6775 124.147 24.6775C122.908 24.6775 121.9 25.0844 121.157 26.1282H121.122V24.8898H118.875V34.0007Z" fill="#0066B3"/>
<path d="M131.406 29.4187C131.406 28.198 131.83 26.5174 133.37 26.5174C134.891 26.5174 135.492 28.145 135.492 29.4187C135.492 30.7102 134.979 32.3731 133.405 32.3731C131.848 32.3731 131.406 30.6748 131.406 29.4187ZM135.581 34.0007H137.881V20.7324H135.51V25.9513H135.475C134.767 25.0844 133.936 24.6775 132.75 24.6775C129.955 24.6775 128.929 26.9066 128.929 29.4187C128.929 31.9132 129.955 34.213 132.75 34.213C133.865 34.213 134.838 33.8592 135.546 32.9746H135.581V34.0007Z" fill="#0066B3"/>
<path d="M145.11 34.0007H148.489C152.275 34.0007 155.619 32.727 155.619 27.8265C155.619 22.9261 152.275 21.6524 148.489 21.6524H145.11V34.0007ZM147.587 23.5984H148.967C151.037 23.5984 153.036 25.1375 153.036 27.8265C153.036 30.5156 151.037 32.0547 148.967 32.0547H147.587V23.5984Z" fill="#0066B3"/>
<path d="M157.966 27.402C158.762 26.8005 159.77 26.4113 160.779 26.4113C162.176 26.4113 162.831 26.9066 162.831 28.375H161.522C160.531 28.375 159.364 28.4634 158.461 28.9057C157.559 29.348 156.904 30.1441 156.904 31.5063C156.904 33.24 158.479 34.213 160.089 34.213C161.168 34.213 162.353 33.6469 162.902 32.6385H162.937C162.955 32.9216 162.955 33.5231 163.043 34.0007H165.131C165.078 33.2931 165.042 32.6562 165.025 31.9662C165.007 31.294 164.989 30.604 164.989 29.6841V28.5165C164.989 25.8274 163.839 24.6775 161.062 24.6775C160.053 24.6775 158.815 24.9429 157.895 25.3675L157.966 27.402ZM159.169 31.3647C159.169 29.9672 160.743 29.7902 161.805 29.7902H162.831C162.831 30.4979 162.725 31.1525 162.336 31.6655C161.964 32.1608 161.398 32.4793 160.673 32.4793C159.823 32.4793 159.169 32.1432 159.169 31.3647Z" fill="#0066B3"/>
<path d="M167.195 34.0007H169.565V30.6571C169.565 29.348 169.565 26.942 171.494 26.942C171.918 26.942 172.343 27.0127 172.555 27.1366V24.7483C172.307 24.6775 172.06 24.6775 171.83 24.6775C170.414 24.6775 169.441 26.1105 169.335 26.9597H169.3V24.8898H167.195V34.0007Z" fill="#0066B3"/>
<path d="M173.894 34.0007H176.264V20.7324H173.894V34.0007Z" fill="#0066B3"/>
<path d="M180.268 28.5519C180.374 27.3312 181.047 26.4113 182.373 26.4113C183.7 26.4113 184.231 27.402 184.302 28.5519H180.268ZM185.894 31.5593C185.009 32.0547 184.019 32.4793 182.869 32.4793C181.4 32.4793 180.374 31.6478 180.268 30.1794H186.566C186.566 26.9951 185.611 24.6775 182.232 24.6775C179.401 24.6775 178.004 26.8535 178.004 29.4895C178.004 32.4793 179.755 34.213 182.763 34.213C184.036 34.213 185.027 33.9653 185.894 33.4877V31.5593Z" fill="#0066B3"/>
<path d="M188.241 34.0007H190.612V29.5426C190.612 28.375 190.983 26.5174 192.699 26.5174C194.221 26.5174 194.238 28.0211 194.238 29.1357V34.0007H196.609V28.2511C196.609 26.199 195.671 24.6775 193.513 24.6775C192.275 24.6775 191.248 25.2436 190.647 26.1282H190.612V20.7324H188.241V34.0007Z" fill="#0066B3"/>
<path d="M200.56 28.5519C200.666 27.3312 201.338 26.4113 202.665 26.4113C203.992 26.4113 204.523 27.402 204.593 28.5519H200.56ZM206.186 31.5593C205.301 32.0547 204.31 32.4793 203.16 32.4793C201.692 32.4793 200.666 31.6478 200.56 30.1794H206.858C206.858 26.9951 205.902 24.6775 202.523 24.6775C199.693 24.6775 198.295 26.8535 198.295 29.4895C198.295 32.4793 200.047 34.213 203.054 34.213C204.328 34.213 205.319 33.9653 206.186 33.4877V31.5593Z" fill="#0066B3"/>
<path d="M208.532 34.0007H210.903V29.5426C210.903 28.375 211.275 26.5174 212.991 26.5174C214.512 26.5174 214.53 28.0211 214.53 29.1357V34.0007H216.9V28.2511C216.9 26.199 215.963 24.6775 213.804 24.6775C212.566 24.6775 211.558 25.0844 210.815 26.1282H210.779V24.8898H208.532V34.0007Z" fill="#0066B3"/>
<path d="M224.743 25.0137C224 24.8544 223.275 24.6775 222.16 24.6775C220.303 24.6775 218.587 25.5444 218.587 27.5081C218.587 30.7986 222.709 29.578 222.709 31.3647C222.709 32.2493 221.754 32.4793 221.152 32.4793C220.338 32.4793 219.56 32.2493 218.817 31.8778L218.675 33.8238C219.542 34.0538 220.462 34.213 221.364 34.213C223.293 34.213 225.186 33.3638 225.186 31.2409C225.186 27.9504 221.064 28.8703 221.064 27.4196C221.064 26.6412 221.824 26.4113 222.461 26.4113C223.328 26.4113 223.859 26.5528 224.584 26.8005L224.743 25.0137Z" fill="#0066B3"/>
<path d="M226.908 34.0007H229.278V29.578H229.314L232.356 34.0007H235.364L231.543 28.9588L234.939 24.8898H232.144L229.314 28.5342H229.278V20.7324H226.908V34.0007Z" fill="#0066B3"/>
<path d="M236.561 34.0007H238.932V20.7324H236.561V34.0007Z" fill="#0066B3"/>
<path d="M241.732 27.402C242.528 26.8005 243.537 26.4113 244.545 26.4113C245.943 26.4113 246.597 26.9066 246.597 28.375H245.288C244.298 28.375 243.13 28.4634 242.228 28.9057C241.325 29.348 240.671 30.1441 240.671 31.5063C240.671 33.24 242.245 34.213 243.855 34.213C244.934 34.213 246.12 33.6469 246.668 32.6385H246.704C246.721 32.9216 246.721 33.5231 246.81 34.0007H248.897C248.844 33.2931 248.809 32.6562 248.791 31.9662C248.773 31.294 248.756 30.604 248.756 29.6841V28.5165C248.756 25.8274 247.606 24.6775 244.828 24.6775C243.82 24.6775 242.582 24.9429 241.662 25.3675L241.732 27.402ZM242.935 31.3647C242.935 29.9672 244.51 29.7902 245.571 29.7902H246.597C246.597 30.4979 246.491 31.1525 246.102 31.6655C245.731 32.1608 245.164 32.4793 244.439 32.4793C243.59 32.4793 242.935 32.1432 242.935 31.3647Z" fill="#0066B3"/>
<path d="M256.481 25.0137C255.738 24.8544 255.012 24.6775 253.898 24.6775C252.04 24.6775 250.324 25.5444 250.324 27.5081C250.324 30.7986 254.446 29.578 254.446 31.3647C254.446 32.2493 253.491 32.4793 252.889 32.4793C252.076 32.4793 251.297 32.2493 250.554 31.8778L250.413 33.8238C251.28 34.0538 252.2 34.213 253.102 34.213C255.03 34.213 256.923 33.3638 256.923 31.2409C256.923 27.9504 252.801 28.8703 252.801 27.4196C252.801 26.6412 253.562 26.4113 254.199 26.4113C255.066 26.4113 255.596 26.5528 256.322 26.8005L256.481 25.0137Z" fill="#0066B3"/>
<path d="M264.165 25.0137C263.422 24.8544 262.696 24.6775 261.582 24.6775C259.724 24.6775 258.008 25.5444 258.008 27.5081C258.008 30.7986 262.13 29.578 262.13 31.3647C262.13 32.2493 261.175 32.4793 260.573 32.4793C259.76 32.4793 258.981 32.2493 258.238 31.8778L258.097 33.8238C258.963 34.0538 259.883 34.213 260.786 34.213C262.714 34.213 264.607 33.3638 264.607 31.2409C264.607 27.9504 260.485 28.8703 260.485 27.4196C260.485 26.6412 261.246 26.4113 261.882 26.4113C262.749 26.4113 263.28 26.5528 264.005 26.8005L264.165 25.0137Z" fill="#0066B3"/>
<path d="M267.956 28.5519C268.063 27.3312 268.735 26.4113 270.062 26.4113C271.389 26.4113 271.919 27.402 271.99 28.5519H267.956ZM273.582 31.5593C272.698 32.0547 271.707 32.4793 270.557 32.4793C269.089 32.4793 268.063 31.6478 267.956 30.1794H274.254C274.254 26.9951 273.299 24.6775 269.92 24.6775C267.09 24.6775 265.692 26.8535 265.692 29.4895C265.692 32.4793 267.443 34.213 270.451 34.213C271.725 34.213 272.715 33.9653 273.582 33.4877V31.5593Z" fill="#0066B3"/>
</svg>
