<?xml version="1.0" encoding="utf-8"?>
<!-- Generator: Adobe Illustrator 23.0.6, SVG Export Plug-In . SVG Version: 6.00 Build 0)  -->
<svg version="1.1" id="Ebene_1" xmlns="http://www.w3.org/2000/svg" xmlns:xlink="http://www.w3.org/1999/xlink" x="0px" y="0px"
	 viewBox="0 0 8503.94 3543.31" style="enable-background:new 0 0 8503.94 3543.31;" xml:space="preserve">
<g>
	<path d="M5588.38,615.05c-31.62-21.61-66.69-38.15-98.29-59.76c-13.09-8.95-26.55-23.81-30.48-38.49
		c-11.41-42.58-38.7-59.41-79.82-58.79c-155.29,2.32-311.24-3.41-465.75,9c-525.2,42.16-1049.95,90.25-1574.76,137.31
		c-118.59,10.63-236.95,24.61-354.97,40.35c-48.25,6.44-79,37.83-67.49,89.09c11.32,50.51,50.44,61.29,98.94,55.11
		c192.25-24.5,384.32-51.26,577.16-69.92c339.59-32.85,679.68-60.64,1019.61-89.99c130.11-11.24,260.35-20.95,390.52-31.36
		c5.99,6.82,12,13.63,17.99,20.45c-30.05,48.45-51.82,105.69-91.93,143.46c-75.89,71.46-158.57,137.27-245.08,195.58
		c-219.39,147.87-471.36,194.78-728.55,221.42c-283.16,29.33-547.19-10.33-772.9-203.9c-38.14-32.71-92.04-49.68-141.29-65.89
		c-34.33-11.29-58.78-18.88-72.36-59.56c-7.08-21.2-49.51-42.91-75.05-41.86c-21.8,0.89-58.6,33.33-59.39,52.98
		c-1.1,27.68,21.03,59.66,40.75,83.6c12.66,15.37,39.52,18.38,58.87,29c132.7,72.77,263.82,148.52,397.88,218.68
		c230.35,120.55,477.14,134.72,731.17,112.9c426.85-36.65,787.47-191.47,1038.78-557.84c4.71,2.6,11.83,6.06,18.47,10.26
		c133.18,84.17,277.56,90.51,426.53,59.89c48.47-9.96,86.17-36.24,96.01-88.83C5652.33,677.76,5627.33,641.68,5588.38,615.05z
		 M5378.23,675.09c-71.4-1.88-133.84-3.52-196.28-5.16c-1.31-6.11-2.63-12.22-3.94-18.34c11.4-9.59,22.78-19.17,32.95-27.73
		c23.33-33.46,49.82-43.08,72.36-41.12c22.26,1.93,93.65,21.4,104.25,50.39C5389.3,646.11,5401.3,656.29,5378.23,675.09z"/>
	<path d="M2712.1,1526.68c309.85-69.4,623.92-103.02,941.33-119.78c233.31-12.32,464.71-57.8,697.94-75.45
		c249.17-18.85,499.49-29.55,749.34-30.03c163.91-0.32,327.89,23.56,491.8,37.1c44.38,3.66,73.64,26.02,69.69,73.43
		c-3.9,46.74-35.94,66.25-80.24,63.13c-436.18-30.7-871.81-5.31-1303.64,46.25c-274.38,32.76-550.73,40.31-824.39,84.78
		c-273.47,44.44-544.81,94.22-813.1,162.8c-27.96,7.15-62.48-9.95-93.62-17.19c-20.13-4.68-42.6-7.69-58.78-18.97
		c-25.74-17.94-62.28-39.83-66.05-64.38c-3.75-24.45,21.45-70.83,44.03-78.69C2545.97,1561.97,2629.86,1546.68,2712.1,1526.68z"/>
	<path d="M4196.32,2715.29c52,68.15,245.68,10.76,283.89-0.56l240.26-109.14l0,0c38.7-3.53,64.67,39.03,44.73,72.37
		c-14.27,23.85-114.45,101.95-208.55,126.44c-29.79,7.75-149.66,20.89-301.45,22.22c-143.49,1.26-195.19-91.58-143.47-246.71
		c81.1-243.25,392.31-581.26,608.65-522.46c25.46,6.92,53.74,32.81,67.27,59.12c7.85,15.28-5.48,64.3-19.26,70.84
		c-13.3,6.32-23.79,5.78-81.89-1.74c-20.98-2.72-42.09-4.49-62.98-7.75C4527.3,2162.86,4103.77,2593.98,4196.32,2715.29z"/>
	<path d="M1053.14,2336.16c-12.14-71.81-21.12-143.29-37.21-213.12c-9.31-40.39-88.61-79.77-128.66-68.76
		c-100.93,27.74-200.77,59.88-302.62,83.52c-25.01,5.81-66.06-6.18-81.01-24.93c-11.5-14.42-2.68-60.75,13.26-77.74
		c24.86-26.5,61.18-47.55,96.48-58.14c324-97.19,654.64-138.62,992.93-112.13c46.32,3.63,82.38,17.79,78.86,69.76
		c-3.77,55.79-43.6,62.62-92.02,59.35c-173.43-11.72-346.22-7.78-521.76,30.42c19.09,106.51,37.74,210.62,57.47,320.71
		c40.66,6.14,85.94,12.98,131.23,19.81c42.81,6.46,75.07,25.41,68.02,74.36c-7.17,49.86-44.16,56.33-86.77,50.37
		c-37.33-5.23-74.84-9.16-116.25-14.15c-7.98,73.89-24.14,223.18-32.11,290.83c-3.64,30.88-10.08,68.16-50.91,56.41
		c-15.16-4.36-29.63-43.21-28.61-65.62c2.89-63.96,23.2-209.06,31.82-279.35c-48.89,1.9-90.4,3.51-135.83,5.27
		c-4.3,10.83-8.96,21.28-12.65,32.05c-14.1,41.17-42.73,59.57-84.2,45.95c-39.06-12.83-48.69-44.87-40.82-83.23
		c12.6-61.45,47.35-101.1,110.8-112.23C935.77,2356.25,989,2347.21,1053.14,2336.16z"/>
	<path d="M3954.01,2398.57c16.41,37.03,41.78,68.39,38.27,91.64c-7.69,50.98-45.34,36.8-74.47,24.84
		c-41.08-16.87-72.85-7.3-103.4,29.97c-40.8,49.76-85.98,93.94-124.12,156.89c46.85-12.28,94.31-22.06,140.35-37.62
		c38.26-12.93,70.69-7.64,85.83,42.32c15.57,51.38-8.09,88.46-45.57,94.42c-87,13.83-175.05,26.55-262.93,24.58
		c-63.78-1.43-88.36-84.8-51.53-161.1c29.57-61.25,64.22-118.52,96.62-177.56c5.04,3.32,10.08,6.65,15.12,9.97
		c-26.2,2.24-52.4,4.49-68.11,5.83c-17.81,33.2-32.28,60.19-46.76,87.18c-27.38-27.28-59.4-50.53-78.98-84.6
		c-5.1-8.87,24.23-67.5,45.34-75.6c58.62-22.51,120.76-39.17,182.41-41.43c49.92-1.83,88.28-14.28,122.07-59.32
		c25.28-33.7,79.42-84.14,123.91-129.05c-117.85-1.57-218.98-2.78-320.13-4.33c-36.08-0.55-72.42,1.62-108.22-3.83
		c-43.28-6.6-61.8-50.85-52.56-93.89c6.58-30.64,15.28-50.14,35.52-49.36c171.41,6.59,343.23,15.5,514.17,37.8
		c84.82,11.06,105.21,106.39,46.3,182.16C4025.95,2316.31,3985.93,2360.72,3954.01,2398.57z"/>
	<path d="M2647.57,2552.92c26.13,99.65,62.27,169.76,133.64,214.54c15.03,9.43,22.22,35.86,33.02,54.46
		c-19.73,0.69-42.44,9.23-58.69,0.74c-79.27-41.41-124.07-120.56-154.32-208.95c-14.55-42.5-32.95-44.37-68.42-44.96
		c-113.05-1.88-161.36,104.66-173.53,215.88c-1.73,15.8-30.03,27.05-46.04,40.41c-11.85-21.26-36.6-45.92-33.46-63.21
		c20.31-112.14,56.06-285.89,84.52-395.45c12.98-49.94,39.56-94.89,53.72-127.65c-22.91-41.2-44.92-72.53-57.97-108
		c-5.88-15.99,6.11-40.23,9.99-60.73c18.42,6.24,38.7,8.83,54.73,19.8c15.07,10.31,25.65,29.48,43.43,51.09
		c9.55-24.76,13.12-50.26,26.18-63.69c15.43-15.88,42.22-33.58,58.18-27.73c14.82,5.43,24.3,39.92,31.29,63.39
		c3.3,11.08-3.18,27.13-7.88,39.55c-38.99,103.3-2.96,197.03,36.22,288.67c6.17,14.44,31.5,22.57,48.96,26.06
		c51.67,10.33,104.6,12.9,155.36,27.17c16.48,4.63,27.79,35.98,41.47,55.1c-19.37,9.71-38.92,28.4-58.07,27.37
		C2752.64,2574.25,2705.56,2562.68,2647.57,2552.92z M2554.7,2470.54c-21.89-55.01-39.27-98.66-62.74-157.62
		c-25.8,66.2-46.33,118.89-70.74,181.55C2469.11,2485.88,2506.06,2479.26,2554.7,2470.54z M5245.58,2551.64
		c26.13,99.65,62.27,169.76,133.64,214.54c15.03,9.43,22.22,35.86,33.02,54.46c-19.73,0.69-42.44,9.23-58.69,0.74
		c-79.27-41.41-124.07-120.56-154.32-208.95c-14.55-42.5-32.95-44.37-68.42-44.96c-113.05-1.88-161.35,104.66-173.53,215.88
		c-1.73,15.8-30.03,27.05-46.04,40.41c-11.85-21.26-36.6-45.92-33.46-63.21c20.31-112.14,56.06-285.89,84.52-395.45
		c12.98-49.94,39.56-94.89,53.72-127.65c-22.91-41.2-44.92-72.53-57.97-108c-5.88-15.99,6.11-40.23,9.99-60.73
		c18.42,6.24,38.7,8.83,54.73,19.8c15.07,10.31,25.65,29.48,43.43,51.09c9.55-24.76,13.12-50.26,26.18-63.69
		c15.43-15.88,42.22-33.58,58.18-27.73c14.82,5.43,24.3,39.92,31.29,63.39c3.3,11.08-3.18,27.13-7.88,39.55
		c-38.99,103.3-2.96,197.03,36.22,288.67c6.17,14.44,31.5,22.57,48.96,26.06c51.67,10.33,104.6,12.9,155.36,27.17
		c16.48,4.63,27.79,35.98,41.47,55.1c-19.37,9.71-38.92,28.4-58.07,27.37C5350.65,2572.97,5303.57,2561.4,5245.58,2551.64z
		 M5152.71,2469.26c-21.89-55.01-39.27-98.66-62.74-157.62c-25.8,66.2-46.33,118.89-70.74,181.55
		C5067.12,2484.6,5104.07,2477.98,5152.71,2469.26z"/>
	<path d="M1868.87,2439.76c2.4,28.07,6.56,56.17,6.88,84.19c0.92,81.25,2.39,176.88-1.79,257.62c-0.88,16.98-25.33,43.69-39.3,43.47
		c-17.32-0.28-42.59-19.52-50.58-38.65c-9.05-21.67-5.4-67.06-2.45-93.1c21.48-189.64,1.34-375.28-44.77-559.95
		c-5.73-22.93,9.64-52.83,15.23-79.51c19.46,15.95,46.26,26.7,57.23,48.67c89.79,179.83,176.57,361.8,264.55,542.92
		c3.79,7.8,10.39,13.67,20.66,26.8c33.24-135.29,46.82-265.6,32.77-400.98c-5.54-53.36-12.84-107.32-11.19-160.31
		c0.68-22.02,22.66-42.21,34.96-63.23c16.1,18.05,43.84,34.28,46.51,54.42c27.61,207.95,35.95,415.57-8.9,619.31
		c-3.57,16.23-9.87,37.98-16.74,52.48c-31.31,66.12-69.1,69.17-106.03,4.64c-43.2-75.49-81.51-160.3-123.08-237.16
		c-19.6-36.25-41.03-71.08-61.64-106.56C1877.07,2436.47,1872.97,2438.12,1868.87,2439.76z"/>
	<path d="M6489.83,2291.62c5.33,38.39,12.21,68.16-48.19,68.13c-89.51-0.04-295.67,236.03-297.76,327.59
		c-0.98,42.89,26.75,46,56.51,41.82c89.87-12.64,179.39-27.75,269.12-41.37c97.79-14.84,195.49-30.59,293.68-42.11
		c16.02-1.88,34.37,16.11,51.64,24.91c-14.32,13.96-26.94,37.52-43.22,40.4c-166.91,29.54-334.03,58.5-501.95,81.39
		c-62.08,8.46-135.07,20.34-176.56-46.27c-41.32-66.36-9.42-133.36,28.68-186.62c48.67-68.04,110.58-126.71,167.83-188.46
		c32.07-34.59,62.1-73.46,100.62-98.99c39.03-25.86,86.72-50.74,131.77-52.98c103.95-5.18,208.69,2.02,312.85,8.46
		c15.37,0.95,29.3,25.1,43.9,38.51c-19.19,7.5-39.9,23.98-57.32,21.04C6710.67,2268.37,6600.9,2265.47,6489.83,2291.62z"/>
	<path d="M6970.27,1778.33c16.87-6.81,35.02-3.3,46.73,9.86c9.73,10.94,12.2,25.4,12.88,29.56c6.24,38.32-16.25,52.44-43.93,58.97
		c-217.3,51.29-198.46,120.48-358,148.43c-6.79,1.19-13.32,3.85-22.56,6.56c3.05,17.26,6.92,28.91,6.77,40.27
		c-0.46,35.67-16.56,58.36-46.13,58.03c-31.73-0.36-51.03-24.06-50.16-62.74c0.16-7.09-3.23-67.65,29.63-95.72
		c17.16-14.65,36.79-14.52,41.36-14.31C6659,1960.61,6684.97,1964.71,6970.27,1778.33z"/>
	<path d="M7473.1,1725.89c-12.3,22.61-15.92,41.12-25.78,45.47c-64.63,28.45-76.54,91.62-93.3,147.01
		c-34.86,115.24-61.72,232.89-91.84,349.56c-4.52,17.51-4.02,39.4-14.67,51.45c-12.38,13.99-35.33,27.42-52.11,25.7
		c-11.59-1.19-32.02-31.47-28.87-43.69c46.06-178.49,93.49-356.68,145.38-533.55c12.87-43.88,50.13-75.44,100.83-71.87
		C7432.34,1697.35,7450.85,1714.34,7473.1,1725.89z"/>
	<path d="M6618.3,2435.21c40.1-3.43,80.31-5.89,120.26-10.59c35.78-4.21,75.04-8.49,79.85,38.4c4.73,46.16-35.53,52.08-70.43,55.95
		c-99.99,11.1-200.13,20.91-300.09,32.3c-37.15,4.23-75.07,4.51-98.52,45.75c-6.24,10.97-47.14,16.63-56.73,7.87
		c-13.79-12.6-24.88-47.99-16.78-60.51c16.12-24.93,43.29-51.21,70.85-58.69c88.68-24.08,179.62-39.87,269.68-58.86
		C6617.03,2429.62,6617.67,2432.42,6618.3,2435.21z"/>
	<path d="M1607.61,2296.92c12.37,28.12,34.24,55.88,35.33,84.44c3.29,86.15-3.76,319.59-7.94,405.81
		c-0.63,13.06-18.8,25.27-28.86,37.87c-11.36-11.49-30.52-21.69-32.65-34.69c-6.79-41.45-0.49-231.47-8.03-272.71
		c-3.95-21.6-17.1-47.39-34.37-59.43c-34.01-23.72-49.15-54.04-29.19-86.66c18.93-30.95,51.96-53.29,78.79-79.41
		C1589.66,2293.73,1598.64,2295.33,1607.61,2296.92z"/>
	<path d="M1539.15,2089.78c12.46-11.66,29.64-27.75,46.83-43.83c11.79,19.1,26.01,37.18,34.54,57.64c5.87,14.08,9,33.26,4.15,46.9
		c-6.9,19.43-22.24,35.87-33.97,53.59c-15.57-14.21-36.19-25.81-45.22-43.38C1537.17,2144.52,1541.32,2121.95,1539.15,2089.78z"/>
	<path d="M7243.09,2769.5c-28.53,19.86-41.23,36.11-54.22,36.34c-37.28,0.65-73.11-10.94-79.81-53.87
		c-1.62-10.41,24.45-36.82,30.12-34.76C7170.49,2728.58,7199.42,2746.49,7243.09,2769.5z"/>
	<path d="M3013.64,2440.53c2.4,28.07,6.56,56.17,6.88,84.19c0.92,81.25,2.39,176.88-1.79,257.62c-0.88,16.98-25.33,43.69-39.3,43.47
		c-17.32-0.28-42.59-19.52-50.58-38.65c-9.05-21.67-5.4-67.06-2.45-93.1c21.48-189.64,1.34-375.28-44.77-559.95
		c-5.73-22.93,9.64-52.83,15.23-79.51c19.46,15.95,46.26,26.7,57.23,48.67c89.79,179.83,176.57,361.8,264.55,542.92
		c3.79,7.8,10.39,13.67,20.66,26.8c33.24-135.29,46.82-265.6,32.77-400.98c-5.54-53.36-12.84-107.33-11.19-160.31
		c0.68-22.02,22.66-42.21,34.96-63.23c16.1,18.05,43.84,34.28,46.51,54.42c27.61,207.95,35.95,415.57-8.9,619.31
		c-3.57,16.23-9.87,37.98-16.74,52.49c-31.31,66.12-69.1,69.17-106.03,4.64c-43.2-75.49-81.51-160.3-123.08-237.16
		c-19.6-36.25-41.03-71.08-61.64-106.56C3021.84,2437.24,3017.74,2438.88,3013.64,2440.53z"/>
	<path d="M5784.67,2432.65c-9.73-57.6-16.94-114.92-29.84-170.93c-7.46-32.4-71.07-63.98-103.18-55.15
		c-80.95,22.25-161.02,48.03-242.7,66.99c-20.06,4.66-52.98-4.96-64.97-19.99c-9.23-11.57-2.15-48.72,10.63-62.35
		c19.93-21.26,97.59-38.13,125.89-46.63c259.85-77.94,525.02-111.18,796.34-89.93c37.15,2.91,17.55,14.27,14.73,55.95
		c-3.02,44.75-34.97,50.22-73.8,47.6c-139.09-9.4-277.67-6.24-418.45,24.39c15.31,85.42,30.27,168.92,46.09,257.22
		c32.61,4.92,68.93,10.41,105.25,15.89c34.33,5.18,60.2,20.38,54.55,59.64c-5.75,39.99-35.42,45.18-69.59,40.4
		c-29.94-4.19-60.02-7.35-93.24-11.35c-6.4,59.26-19.36,178.99-25.75,233.25c-2.92,24.76-8.09,54.67-40.83,45.24
		c-12.16-3.5-23.76-34.66-22.95-52.63c2.32-51.3,18.6-167.67,25.52-224.04c-39.21,1.52-72.51,2.81-108.93,4.23
		c-3.45,8.68-7.18,17.06-10.14,25.71c-11.31,33.02-34.27,47.78-67.53,36.85c-31.33-10.29-39.05-35.99-32.74-66.75
		c10.11-49.28,37.98-81.08,88.86-90.01C5690.54,2448.76,5733.23,2441.51,5784.67,2432.65z"/>
</g>
</svg>
