<?xml version="1.0" encoding="utf-8"?>
<!-- Generator: Adobe Illustrator 23.0.6, SVG Export Plug-In . SVG Version: 6.00 Build 0)  -->
<svg version="1.1" id="Ebene_1" xmlns="http://www.w3.org/2000/svg" xmlns:xlink="http://www.w3.org/1999/xlink" x="0px" y="0px"
	 viewBox="0 0 8503.94 3543.31" style="enable-background:new 0 0 8503.94 3543.31;" xml:space="preserve">
<style type="text/css">
	.st0{fill:#FFFFFF;}
</style>
<g>
	<path class="st0" d="M5981.73,552.47c-35.3-24.12-74.46-42.59-109.75-66.72c-14.61-9.99-29.64-26.59-34.03-42.98
		c-12.74-47.55-43.21-66.33-89.13-65.65c-173.39,2.59-347.53-3.8-520.04,10.05c-586.43,47.08-1172.34,100.78-1758.32,153.32
		c-132.42,11.87-264.57,27.48-396.34,45.05c-53.87,7.19-88.2,42.24-75.36,99.48c12.64,56.4,56.32,68.44,110.48,61.53
		c214.66-27.36,429.12-57.24,644.43-78.07c379.17-36.68,758.91-67.71,1138.46-100.48c145.27-12.54,290.69-23.4,436.05-35.02
		c6.69,7.61,13.4,15.22,20.09,22.83c-33.55,54.1-57.86,118.01-102.65,160.19c-84.74,79.79-177.06,153.28-273.65,218.38
		c-244.96,165.11-526.3,217.49-813.48,247.23c-316.17,32.75-610.97-11.54-862.99-227.67c-42.59-36.52-102.77-55.47-157.76-73.57
		c-38.33-12.61-65.63-21.08-80.8-66.5c-7.91-23.67-55.28-47.91-83.8-46.74c-24.34,0.99-65.43,37.21-66.32,59.16
		c-1.23,30.91,23.48,66.61,45.5,93.34c14.14,17.16,44.12,20.53,65.73,32.38c148.17,81.25,294.57,165.83,444.26,244.17
		c257.21,134.61,532.75,150.42,816.4,126.06c476.61-40.93,879.26-213.79,1159.86-622.87c5.26,2.9,13.21,6.77,20.62,11.45
		c148.7,93.98,309.91,101.06,476.25,66.87c54.12-11.12,96.22-40.46,107.2-99.18C6053.13,622.49,6025.22,582.2,5981.73,552.47z
		 M5747.08,619.5c-79.73-2.1-149.44-3.93-219.15-5.76c-1.47-6.82-2.94-13.65-4.4-20.47c12.72-10.7,25.43-21.4,36.79-30.96
		c26.06-37.36,55.63-48.1,80.8-45.91c24.85,2.16,104.56,23.9,116.4,56.26C5759.45,587.15,5772.84,598.51,5747.08,619.5z"/>
	<path class="st0" d="M2770.17,1570.36c345.96-77.49,696.65-115.03,1051.06-133.74c260.51-13.75,518.87-64.54,779.3-84.24
		c278.22-21.05,557.71-32.99,836.68-33.54c183.02-0.36,366.11,26.31,549.13,41.42c49.55,4.09,82.23,29.06,77.81,81.99
		c-4.35,52.19-40.13,73.97-89.59,70.49c-487.02-34.28-973.43-5.92-1455.6,51.65c-306.37,36.58-614.92,45.01-920.48,94.66
		c-305.35,49.62-608.31,105.2-907.88,181.78c-31.22,7.98-69.76-11.11-104.54-19.2c-22.47-5.23-47.57-8.59-65.64-21.18
		c-28.74-20.03-69.54-44.47-73.75-71.89c-4.19-27.3,23.95-79.09,49.16-87.87C2584.68,1609.77,2678.34,1592.69,2770.17,1570.36z"/>
	<path class="st0" d="M4427.41,2897.53c58.06,76.09,274.32,12.02,316.99-0.63l268.26-121.86l0,0c43.21-3.94,72.21,43.58,49.94,80.8
		c-15.94,26.63-127.79,113.84-232.86,141.18c-33.26,8.66-167.11,23.32-336.59,24.81c-160.22,1.4-217.94-102.26-160.19-275.47
		c90.56-271.6,438.04-649.01,679.6-583.36c28.42,7.72,60.01,36.64,75.11,66.01c8.77,17.06-6.12,71.79-21.51,79.1
		c-14.85,7.05-26.56,6.45-91.43-1.94c-23.42-3.03-46.99-5.01-70.32-8.66C4796.97,2280.7,4324.06,2762.08,4427.41,2897.53z"/>
	<path class="st0" d="M917.83,2474.21c-13.55-80.19-23.59-159.99-41.55-237.97c-10.39-45.1-98.94-89.07-143.65-76.78
		c-112.69,30.97-224.18,66.86-337.89,93.26c-27.93,6.48-73.76-6.9-90.46-27.83c-12.84-16.1-2.99-67.83,14.8-86.81
		c27.75-29.59,68.31-53.09,107.72-64.91c361.76-108.52,730.94-154.78,1108.67-125.21c51.72,4.05,91.98,19.86,88.06,77.9
		c-4.21,62.3-48.69,69.92-102.74,66.27c-193.65-13.09-386.58-8.69-582.57,33.96c21.31,118.92,42.14,235.17,64.17,358.1
		c45.4,6.86,95.96,14.49,146.52,22.12c47.8,7.21,83.82,28.37,75.95,83.03c-8.01,55.67-49.31,62.9-96.88,56.24
		c-41.68-5.84-83.56-10.23-129.8-15.8c-8.91,82.5-26.95,249.19-35.85,324.73c-4.06,34.47-11.26,76.11-56.84,62.99
		c-16.93-4.87-33.08-48.25-31.95-73.27c3.23-71.42,25.9-233.43,35.52-311.91c-54.59,2.12-100.94,3.92-151.66,5.89
		c-4.8,12.09-10,23.76-14.12,35.79c-15.75,45.97-47.71,66.52-94.01,51.3c-43.61-14.33-54.36-50.1-45.58-92.93
		c14.07-68.61,52.87-112.88,123.71-125.32C786.78,2496.63,846.22,2486.55,917.83,2474.21z"/>
	<path class="st0" d="M4156.84,2543.89c18.33,41.35,46.65,76.36,42.73,102.32c-8.59,56.92-50.63,41.09-83.15,27.74
		c-45.87-18.84-81.34-8.15-115.46,33.46c-45.55,55.56-96.01,104.89-138.59,175.18c52.31-13.71,105.3-24.63,156.71-42
		c42.72-14.43,78.93-8.53,95.83,47.25c17.39,57.37-9.03,98.77-50.88,105.43c-97.14,15.44-195.46,29.65-293.58,27.44
		c-71.21-1.6-98.66-94.68-57.53-179.87c33.01-68.39,71.71-132.34,107.88-198.26c5.63,3.71,11.26,7.42,16.88,11.13
		c-29.25,2.51-58.51,5.01-76.05,6.51c-19.88,37.07-36.05,67.2-52.21,97.34c-30.57-30.46-66.32-56.42-88.19-94.46
		c-5.69-9.9,27.06-75.37,50.62-84.42c65.45-25.14,134.83-43.74,203.67-46.26c55.74-2.04,98.57-15.94,136.3-66.24
		c28.22-37.63,88.68-93.95,138.36-144.1c-131.58-1.75-244.51-3.1-357.44-4.83c-40.29-0.62-80.87,1.81-120.83-4.28
		c-48.33-7.37-69-56.77-58.68-104.84c7.34-34.22,17.06-55.98,39.66-55.11c191.39,7.36,383.23,17.31,574.11,42.2
		c94.71,12.35,117.48,118.79,51.7,203.4C4237.17,2452.04,4192.49,2501.63,4156.84,2543.89z"/>
	<path class="st0" d="M2698.12,2716.23c29.17,111.26,69.53,189.55,149.22,239.55c16.78,10.53,24.81,40.04,36.87,60.8
		c-22.03,0.77-47.39,10.31-65.53,0.83c-88.52-46.24-138.53-134.61-172.31-233.3c-16.24-47.46-36.8-49.54-76.4-50.2
		c-126.23-2.1-180.16,116.86-193.76,241.04c-1.93,17.64-33.53,30.2-51.4,45.12c-13.23-23.73-40.86-51.27-37.36-70.58
		c22.68-125.21,62.59-319.21,94.38-441.55c14.49-55.76,44.17-105.95,59.98-142.53c-25.58-46.01-50.16-80.99-64.73-120.59
		c-6.57-17.85,6.82-44.92,11.16-67.81c20.57,6.97,43.21,9.86,61.11,22.1c16.82,11.51,28.64,32.91,48.49,57.05
		c10.66-27.65,14.65-56.11,29.23-71.12c17.23-17.73,47.14-37.49,64.96-30.96c16.55,6.06,27.13,44.57,34.94,70.78
		c3.68,12.37-3.56,30.29-8.79,44.16c-43.54,115.34-3.31,219.99,40.45,322.32c6.89,16.12,35.17,25.2,54.66,29.1
		c57.69,11.53,116.8,14.41,173.47,30.34c18.41,5.17,31.03,40.17,46.3,61.52c-21.63,10.85-43.45,31.71-64.84,30.56
		C2815.44,2740.05,2762.86,2727.13,2698.12,2716.23z M2594.42,2624.25c-24.45-61.42-43.85-110.16-70.05-176
		c-28.81,73.92-51.73,132.75-78.99,202.71C2498.85,2641.38,2540.12,2633.98,2594.42,2624.25z M5598.96,2714.8
		c29.17,111.26,69.53,189.55,149.22,239.55c16.78,10.53,24.81,40.04,36.87,60.8c-22.03,0.77-47.39,10.31-65.53,0.83
		c-88.52-46.24-138.53-134.61-172.31-233.3c-16.24-47.46-36.8-49.54-76.4-50.2c-126.23-2.1-180.16,116.86-193.76,241.04
		c-1.93,17.64-33.53,30.2-51.4,45.12c-13.23-23.73-40.86-51.27-37.36-70.58c22.68-125.21,62.59-319.21,94.38-441.55
		c14.49-55.76,44.17-105.95,59.98-142.53c-25.58-46.01-50.16-80.99-64.73-120.59c-6.57-17.85,6.82-44.92,11.16-67.81
		c20.57,6.97,43.21,9.86,61.11,22.1c16.82,11.51,28.64,32.91,48.49,57.05c10.66-27.64,14.65-56.11,29.23-71.12
		c17.23-17.73,47.14-37.49,64.96-30.96c16.55,6.06,27.13,44.57,34.94,70.78c3.68,12.37-3.56,30.29-8.79,44.16
		c-43.54,115.34-3.31,219.99,40.45,322.32c6.89,16.12,35.17,25.2,54.66,29.1c57.69,11.53,116.8,14.41,173.47,30.34
		c18.41,5.17,31.03,40.17,46.3,61.52c-21.63,10.85-43.45,31.71-64.84,30.56C5716.29,2738.62,5663.71,2725.7,5598.96,2714.8z
		 M5495.27,2622.82c-24.45-61.42-43.85-110.16-70.05-176c-28.81,73.92-51.73,132.75-78.99,202.71
		C5399.7,2639.95,5440.97,2632.56,5495.27,2622.82z"/>
	<path class="st0" d="M1828.65,2589.88c2.68,31.34,7.33,62.72,7.68,94c1.03,90.72,2.67,197.5-2,287.65
		c-0.98,18.95-28.29,48.79-43.88,48.54c-19.34-0.31-47.56-21.79-56.48-43.16c-10.1-24.2-6.03-74.87-2.74-103.96
		c23.99-211.75,1.5-419.03-49.99-625.22c-6.39-25.61,10.76-58.99,17.01-88.77c21.73,17.81,51.65,29.81,63.9,54.34
		c100.25,200.8,197.15,403.97,295.39,606.2c4.23,8.71,11.6,15.26,23.06,29.92c37.11-151.06,52.27-296.56,36.59-447.72
		c-6.18-59.58-14.34-119.84-12.5-179c0.76-24.59,25.3-47.13,39.03-70.6c17.98,20.15,48.95,38.28,51.93,60.76
		c30.83,232.19,40.14,464.01-9.94,691.5c-3.99,18.13-11.03,42.41-18.7,58.6c-34.96,73.82-77.15,77.23-118.39,5.18
		c-48.24-84.29-91.02-178.98-137.42-264.81c-21.89-40.47-45.82-79.37-68.82-118.98C1837.81,2586.21,1833.23,2588.05,1828.65,2589.88
		z"/>
	<path class="st0" d="M6988.26,2424.47c5.95,42.87,13.63,76.1-53.81,76.08c-99.94-0.04-330.13,263.54-332.47,365.78
		c-1.1,47.89,29.87,51.36,63.1,46.69c100.34-14.11,200.3-30.98,300.49-46.19c109.19-16.57,218.27-34.16,327.91-47.01
		c17.89-2.1,38.38,17.99,57.66,27.82c-15.99,15.59-30.08,41.9-48.26,45.11c-186.37,32.98-372.97,65.32-560.46,90.87
		c-69.32,9.45-150.82,22.71-197.14-51.66c-46.14-74.09-10.52-148.91,32.02-208.37c54.34-75.97,123.47-141.48,187.39-210.42
		c35.8-38.62,69.34-82.03,112.35-110.53c43.57-28.88,96.83-56.65,147.13-59.16c116.07-5.78,233.02,2.26,349.32,9.45
		c17.16,1.06,32.72,28.02,49.02,43c-21.43,8.37-44.55,26.78-64,23.49C7234.84,2398.51,7112.27,2395.27,6988.26,2424.47z"/>
	<path class="st0" d="M7524.7,1851.35c18.84-7.6,39.1-3.68,52.18,11.01c10.86,12.21,13.63,28.37,14.38,33.01
		c6.97,42.79-18.15,58.55-49.05,65.84c-242.63,57.27-221.59,134.52-399.73,165.73c-7.58,1.33-14.87,4.29-25.19,7.33
		c3.4,19.28,7.73,32.28,7.56,44.96c-0.51,39.83-18.49,65.17-51.51,64.79c-35.43-0.4-56.98-26.86-56.01-70.05
		c0.17-7.91-3.6-75.54,33.09-106.87c19.16-16.36,41.08-16.22,46.18-15.98C7177.14,2054.88,7206.15,2059.45,7524.7,1851.35z"/>
	<path class="st0" d="M8086.15,1792.79c-13.73,25.24-17.77,45.92-28.78,50.77c-72.17,31.77-85.47,102.3-104.18,164.15
		c-38.92,128.67-68.91,260.04-102.55,390.31c-5.05,19.56-4.48,44-16.39,57.45c-13.82,15.62-39.45,30.62-58.19,28.7
		c-12.94-1.33-35.76-35.14-32.24-48.78c51.43-199.29,104.38-398.26,162.32-595.74c14.37-49,55.97-84.24,112.58-80.25
		C8040.63,1760.94,8061.31,1779.9,8086.15,1792.79z"/>
	<path class="st0" d="M7131.71,2584.8c44.77-3.83,89.67-6.58,134.27-11.83c39.95-4.7,83.79-9.47,89.16,42.87
		c5.28,51.54-39.67,58.15-78.64,62.47c-111.65,12.4-223.46,23.35-335.07,36.07c-41.48,4.73-83.82,5.03-110.01,51.08
		c-6.97,12.25-52.63,18.57-63.34,8.79c-15.4-14.06-27.77-53.59-18.74-67.56c18-27.84,48.34-57.18,79.11-65.53
		c99.02-26.89,200.55-44.52,301.12-65.72C7130.29,2578.56,7131,2581.68,7131.71,2584.8z"/>
	<path class="st0" d="M1536.94,2430.39c13.81,31.4,38.23,62.4,39.45,94.28c3.67,96.19-4.2,356.85-8.87,453.11
		c-0.71,14.58-20.99,28.22-32.22,42.29c-12.69-12.82-34.08-24.22-36.46-38.73c-7.59-46.28-0.55-258.45-8.97-304.49
		c-4.41-24.12-19.1-52.91-38.37-66.36c-37.97-26.48-54.88-60.34-32.59-96.77c21.14-34.56,58.02-59.5,87.97-88.67
		C1516.9,2426.83,1526.92,2428.61,1536.94,2430.39z"/>
	<path class="st0" d="M1460.49,2199.1c13.91-13.02,33.1-30.98,52.29-48.94c13.17,21.32,29.04,41.52,38.57,64.36
		c6.56,15.72,10.04,37.14,4.64,52.36c-7.71,21.7-24.83,40.06-37.93,59.84c-17.38-15.86-40.41-28.82-50.49-48.44
		C1458.28,2260.23,1462.92,2235.02,1460.49,2199.1z"/>
	<path class="st0" d="M7829.32,2958.06c-31.86,22.18-46.04,40.32-60.54,40.57c-41.62,0.72-81.64-12.22-89.11-60.14
		c-1.81-11.63,27.3-41.11,33.64-38.81C7748.26,2912.37,7780.56,2932.37,7829.32,2958.06z"/>
	<path class="st0" d="M3106.86,2590.74c2.68,31.34,7.33,62.72,7.68,94c1.03,90.72,2.67,197.5-2,287.65
		c-0.98,18.95-28.29,48.79-43.88,48.54c-19.34-0.31-47.56-21.79-56.48-43.16c-10.1-24.2-6.03-74.87-2.74-103.96
		c23.99-211.75,1.5-419.03-49.99-625.22c-6.39-25.61,10.76-58.99,17.01-88.77c21.73,17.81,51.65,29.81,63.9,54.34
		c100.25,200.8,197.15,403.97,295.39,606.2c4.23,8.71,11.6,15.26,23.06,29.92c37.11-151.06,52.27-296.56,36.59-447.72
		c-6.18-59.58-14.34-119.84-12.5-179c0.76-24.59,25.3-47.13,39.03-70.6c17.98,20.15,48.95,38.28,51.93,60.76
		c30.83,232.19,40.14,464.01-9.94,691.5c-3.99,18.13-11.03,42.41-18.7,58.6c-34.96,73.82-77.15,77.23-118.39,5.18
		c-48.24-84.29-91.02-178.98-137.42-264.81c-21.89-40.47-45.82-79.37-68.82-118.98C3116.02,2587.06,3111.44,2588.9,3106.86,2590.74z
		"/>
	<path class="st0" d="M6200.9,2581.94c-10.87-64.31-18.92-128.31-33.32-190.85c-8.33-36.17-79.35-71.43-115.21-61.58
		c-90.38,24.84-179.79,53.63-270.99,74.8c-22.4,5.2-59.16-5.54-72.55-22.32c-10.3-12.92-2.4-54.4,11.87-69.62
		c22.26-23.73,108.96-42.58,140.57-52.06c290.14-87.03,586.22-124.14,889.16-100.42c41.48,3.25,19.6,15.93,16.45,62.47
		c-3.38,49.96-39.05,56.08-82.4,53.15c-155.31-10.5-310.04-6.97-467.23,27.24c17.09,95.38,33.8,188.61,51.47,287.2
		c36.41,5.5,76.96,11.62,117.51,17.74c38.33,5.79,67.22,22.75,60.91,66.59c-6.43,44.65-39.54,50.45-77.7,45.1
		c-33.43-4.68-67.02-8.2-104.1-12.67c-7.15,66.17-21.62,199.85-28.75,260.44c-3.26,27.65-9.03,61.04-45.59,50.52
		c-13.58-3.91-26.53-38.7-25.62-58.76c2.59-57.28,20.77-187.21,28.49-250.15c-43.78,1.7-80.96,3.14-121.63,4.72
		c-3.85,9.7-8.02,19.05-11.33,28.7c-12.63,36.87-38.26,53.35-75.4,41.15c-34.98-11.49-43.6-40.18-36.55-74.53
		c11.29-55.03,42.41-90.53,99.22-100.51C6095.8,2599.92,6143.47,2591.84,6200.9,2581.94z"/>
</g>
</svg>
