<svg width="311" height="36" viewBox="0 0 311 36" fill="none" xmlns="http://www.w3.org/2000/svg">
<path d="M29.9448 28.3379C29.4425 30.9714 29.0168 33.2077 28.8517 34.0763H48.3897V28.3379H29.9448ZM0.000976562 28.3901V34.1285H19.4004L18.1059 28.3901H0.000976562Z" fill="#FF6600"/>
<path d="M9.53272 15.233L8.12077 9.29672H20.1678L24.0692 26.3373H24.2357L26.6936 15.4213C27.9321 10.465 28.4 9.29672 35.3799 9.29672H40.4002C40.4002 9.29672 39.386 13.8654 38.124 18.8231C37.6437 20.7144 33.4519 20.4903 33.6611 18.7241C33.6831 18.54 33.8813 17.2109 34.0382 16.2652C34.2666 14.9045 32.6771 14.7341 32.3909 16.0811C32.1872 17.0459 31.2666 21.8345 30.4065 26.3373H48.3902V1.86914H0V26.3373H17.5613L15.0594 15.2413L9.53272 15.233V15.233Z" fill="#0066B3"/>
<path d="M64.5754 4.99621H65.3892C66.6275 4.99621 68.0074 5.12005 68.0074 6.6061C68.0074 8.14522 66.6099 8.32213 65.3892 8.32213H64.5754V4.99621ZM62.0986 15.3986H64.5754V10.2681H65.3715C66.4153 10.2681 66.7337 10.622 67.0875 11.5419L68.5736 15.3986H71.3334L69.352 10.5689C69.1043 10.0205 68.7151 9.34821 68.0428 9.29514V9.25976C69.6173 9.04746 70.5903 7.84447 70.5903 6.39381C70.5903 2.96174 67.4236 3.0502 64.77 3.0502H62.0986V15.3986Z" fill="#0066B3"/>
<path d="M73.2144 8.79979C74.0105 8.19829 75.0189 7.80909 76.0273 7.80909C77.4249 7.80909 78.0795 8.30444 78.0795 9.7728H76.7703C75.7796 9.7728 74.612 9.86125 73.7098 10.3035C72.8075 10.7458 72.153 11.5419 72.153 12.9041C72.153 14.6378 73.7275 15.6108 75.3373 15.6108C76.4165 15.6108 77.6018 15.0447 78.1502 14.0363H78.1856C78.2033 14.3194 78.2033 14.9209 78.2918 15.3986H80.3793C80.3262 14.6909 80.2908 14.054 80.2732 13.3641C80.2555 12.6918 80.2378 12.0019 80.2378 11.0819V9.91433C80.2378 7.22529 79.0878 6.07537 76.3104 6.07537C75.302 6.07537 74.0636 6.34073 73.1437 6.76532L73.2144 8.79979ZM74.4174 12.7626C74.4174 11.365 75.9919 11.1881 77.0534 11.1881H78.0795C78.0795 11.8957 77.9733 12.5503 77.5841 13.0633C77.2126 13.5587 76.6465 13.8771 75.9212 13.8771C75.072 13.8771 74.4174 13.541 74.4174 12.7626Z" fill="#0066B3"/>
<path d="M82.4432 15.3986H84.8138V6.28766H82.4432V15.3986ZM82.4432 4.6247H84.8138V2.36024H82.4432V4.6247Z" fill="#0066B3"/>
<path d="M88.0039 15.3986H90.3745V8.02138H92.4443V6.28766H90.3745V5.15543C90.3745 4.44779 90.6221 3.75784 91.4182 3.75784C91.9313 3.75784 92.232 3.95244 92.4443 4.07628L92.6389 2.11257C92.179 2.00642 91.5067 1.91797 90.9052 1.91797C89.0299 1.91797 88.0039 3.19172 88.0039 5.0139V6.28766H86.2524V8.02138H88.0039V15.3986Z" fill="#0066B3"/>
<path d="M94.392 15.3986H96.7626V8.02138H98.8324V6.28766H96.7626V5.15543C96.7626 4.44779 97.0103 3.75784 97.8064 3.75784C98.3194 3.75784 98.6202 3.95244 98.8324 4.07628L99.027 2.11257C98.5671 2.00642 97.8948 1.91797 97.2933 1.91797C95.4181 1.91797 94.392 3.19172 94.392 5.0139V6.28766H92.6406V8.02138H94.392V15.3986Z" fill="#0066B3"/>
<path d="M101.905 9.94971C102.011 8.72903 102.683 7.80909 104.01 7.80909C105.337 7.80909 105.868 8.79979 105.938 9.94971H101.905ZM107.531 12.9572C106.646 13.4525 105.655 13.8771 104.505 13.8771C103.037 13.8771 102.011 13.0456 101.905 11.5773H108.203C108.203 8.3929 107.248 6.07537 103.869 6.07537C101.038 6.07537 99.6404 8.25137 99.6404 10.8873C99.6404 13.8771 101.392 15.6108 104.399 15.6108C105.673 15.6108 106.664 15.3632 107.531 14.8855V12.9572Z" fill="#0066B3"/>
<path d="M109.931 15.3986H112.301V6.28766H109.931V15.3986ZM109.931 4.6247H112.301V2.36024H109.931V4.6247Z" fill="#0066B3"/>
<path d="M120.197 6.4115C119.454 6.25228 118.729 6.07537 117.614 6.07537C115.757 6.07537 114.041 6.94223 114.041 8.90594C114.041 12.1965 118.163 10.9758 118.163 12.7626C118.163 13.6471 117.207 13.8771 116.606 13.8771C115.792 13.8771 115.014 13.6471 114.271 13.2756L114.129 15.2216C114.996 15.4516 115.916 15.6108 116.818 15.6108C118.746 15.6108 120.639 14.7617 120.639 12.6387C120.639 9.34821 116.517 10.2681 116.517 8.81748C116.517 8.03907 117.278 7.80909 117.915 7.80909C118.782 7.80909 119.313 7.95062 120.038 8.19829L120.197 6.4115Z" fill="#0066B3"/>
<path d="M123.989 9.94971C124.095 8.72903 124.767 7.80909 126.094 7.80909C127.421 7.80909 127.952 8.79979 128.023 9.94971H123.989ZM129.615 12.9572C128.73 13.4525 127.739 13.8771 126.59 13.8771C125.121 13.8771 124.095 13.0456 123.989 11.5773H130.287C130.287 8.3929 129.332 6.07537 125.953 6.07537C123.122 6.07537 121.725 8.25137 121.725 10.8873C121.725 13.8771 123.476 15.6108 126.483 15.6108C127.757 15.6108 128.748 15.3632 129.615 14.8855V12.9572Z" fill="#0066B3"/>
<path d="M131.962 15.3986H134.332V10.9404C134.332 9.7728 134.704 7.91524 136.42 7.91524C137.941 7.91524 137.959 9.41898 137.959 10.5335V15.3986H140.33V9.64896C140.33 7.5968 139.392 6.07537 137.234 6.07537C135.995 6.07537 134.987 6.48226 134.244 7.52603H134.208V6.28766H131.962V15.3986Z" fill="#0066B3"/>
<path d="M144.988 10.8166C144.988 9.54281 145.59 7.91524 147.111 7.91524C148.65 7.91524 149.075 9.59589 149.075 10.8166C149.075 12.0726 148.632 13.771 147.076 13.771C145.501 13.771 144.988 12.108 144.988 10.8166ZM142.6 15.3986H144.9V14.284H144.935C145.625 15.257 146.722 15.6108 147.73 15.6108C150.525 15.6108 151.552 13.311 151.552 10.8166C151.552 8.30444 150.525 6.07537 147.73 6.07537C146.492 6.07537 145.66 6.58841 145.006 7.45527H144.97V2.13026H142.6V15.3986Z" fill="#0066B3"/>
<path d="M153.716 8.79979C154.512 8.19829 155.52 7.80909 156.529 7.80909C157.926 7.80909 158.581 8.30444 158.581 9.7728H157.272C156.281 9.7728 155.113 9.86125 154.211 10.3035C153.309 10.7458 152.654 11.5419 152.654 12.9041C152.654 14.6378 154.229 15.6108 155.839 15.6108C156.918 15.6108 158.103 15.0447 158.651 14.0363H158.687C158.705 14.3194 158.705 14.9209 158.793 15.3986H160.881C160.827 14.6909 160.792 14.054 160.774 13.3641C160.757 12.6918 160.739 12.0019 160.739 11.0819V9.91433C160.739 7.22529 159.589 6.07537 156.812 6.07537C155.803 6.07537 154.565 6.34073 153.645 6.76532L153.716 8.79979ZM154.919 12.7626C154.919 11.365 156.493 11.1881 157.555 11.1881H158.581C158.581 11.8957 158.475 12.5503 158.085 13.0633C157.714 13.5587 157.148 13.8771 156.422 13.8771C155.573 13.8771 154.919 13.541 154.919 12.7626Z" fill="#0066B3"/>
<path d="M162.891 15.3986H165.262V10.9404C165.262 9.7728 165.633 7.91524 167.349 7.91524C168.871 7.91524 168.889 9.41898 168.889 10.5335V15.3986H171.259V9.64896C171.259 7.5968 170.322 6.07537 168.163 6.07537C166.925 6.07537 165.917 6.48226 165.173 7.52603H165.138V6.28766H162.891V15.3986Z" fill="#0066B3"/>
<path d="M173.583 15.3986H175.953V10.9758H175.989L179.031 15.3986H182.039L178.218 10.3566L181.614 6.28766H178.819L175.989 9.93202H175.953V2.13026H173.583V15.3986Z" fill="#0066B3"/>
<path d="M64.3275 34.0001H67.5296L69.7233 24.1285H69.7587L71.9878 34.0001H75.1721L78.3919 21.6518H75.9859L73.6684 31.5234H73.633L71.457 21.6518H68.0957L65.9905 31.5234H65.9551L63.6553 21.6518H61.0547L64.3275 34.0001Z" fill="#0066B3"/>
<path d="M80.9823 28.5513C81.0884 27.3306 81.7607 26.4107 83.0875 26.4107C84.4143 26.4107 84.9451 27.4014 85.0158 28.5513H80.9823ZM86.608 31.5587C85.7235 32.0541 84.7328 32.4787 83.5829 32.4787C82.1145 32.4787 81.0884 31.6472 80.9823 30.1788H87.2803C87.2803 26.9945 86.325 24.6769 82.946 24.6769C80.1154 24.6769 78.7178 26.8529 78.7178 29.4889C78.7178 32.4787 80.4692 34.2124 83.4767 34.2124C84.7505 34.2124 85.7412 33.9647 86.608 33.4871V31.5587Z" fill="#0066B3"/>
<path d="M94.5277 25.0131C93.7847 24.8538 93.0593 24.6769 91.9448 24.6769C90.0872 24.6769 88.3712 25.5438 88.3712 27.5075C88.3712 30.798 92.4932 29.5774 92.4932 31.3641C92.4932 32.2487 91.5379 32.4787 90.9364 32.4787C90.1226 32.4787 89.3442 32.2487 88.6012 31.8772L88.4597 33.8232C89.3265 34.0532 90.2464 34.2124 91.1487 34.2124C93.077 34.2124 94.97 33.3632 94.97 31.2403C94.97 27.9498 90.8479 28.8697 90.8479 27.419C90.8479 26.6406 91.6087 26.4107 92.2455 26.4107C93.1124 26.4107 93.6431 26.5522 94.3685 26.7999L94.5277 25.0131Z" fill="#0066B3"/>
<path d="M97.4173 31.258C97.4173 33.0625 98.4434 34.2124 100.301 34.2124C101.009 34.2124 101.557 34.1416 102.052 34.0001L101.982 32.1249C101.734 32.2841 101.327 32.3725 100.902 32.3725C100 32.3725 99.7879 31.6472 99.7879 30.8688V26.6229H101.893V24.8892H99.7879V22.3063L97.4173 23.067V24.8892H95.6659V26.6229H97.4173V31.258Z" fill="#0066B3"/>
<path d="M103.391 34.0001H105.762V29.5774H105.797L108.84 34.0001H111.847L108.026 28.9582L111.423 24.8892H108.628L105.797 28.5336H105.762V20.7318H103.391V34.0001Z" fill="#0066B3"/>
<path d="M113.044 34.0001H115.415V30.6565C115.415 29.3474 115.415 26.9414 117.343 26.9414C117.768 26.9414 118.193 27.0121 118.405 27.136V24.7477C118.157 24.6769 117.909 24.6769 117.679 24.6769C116.264 24.6769 115.291 26.1099 115.185 26.9591H115.15V24.8892H113.044V34.0001Z" fill="#0066B3"/>
<path d="M121.06 28.5513C121.166 27.3306 121.839 26.4107 123.165 26.4107C124.492 26.4107 125.023 27.4014 125.094 28.5513H121.06ZM126.686 31.5587C125.801 32.0541 124.811 32.4787 123.661 32.4787C122.192 32.4787 121.166 31.6472 121.06 30.1788H127.358C127.358 26.9945 126.403 24.6769 123.024 24.6769C120.193 24.6769 118.796 26.8529 118.796 29.4889C118.796 32.4787 120.547 34.2124 123.555 34.2124C124.828 34.2124 125.819 33.9647 126.686 33.4871V31.5587Z" fill="#0066B3"/>
<path d="M129.086 34.0001H131.457V24.8892H129.086V34.0001ZM129.086 23.2263H131.457V20.9618H129.086V23.2263Z" fill="#0066B3"/>
<path d="M139.352 25.0131C138.609 24.8538 137.884 24.6769 136.769 24.6769C134.912 24.6769 133.196 25.5438 133.196 27.5075C133.196 30.798 137.318 29.5774 137.318 31.3641C137.318 32.2487 136.363 32.4787 135.761 32.4787C134.947 32.4787 134.169 32.2487 133.426 31.8772L133.284 33.8232C134.151 34.0532 135.071 34.2124 135.973 34.2124C137.902 34.2124 139.795 33.3632 139.795 31.2403C139.795 27.9498 135.673 28.8697 135.673 27.419C135.673 26.6406 136.433 26.4107 137.07 26.4107C137.937 26.4107 138.468 26.5522 139.193 26.7999L139.352 25.0131Z" fill="#0066B3"/>
<path d="M146.423 34.0001H148.899V28.5867H153.075V26.6406H148.899V23.5978H153.287V21.6518H146.423V34.0001Z" fill="#0066B3"/>
<path d="M163.247 24.8892H160.876V29.3474C160.876 30.515 160.505 32.3725 158.789 32.3725C157.267 32.3725 157.25 30.8688 157.25 29.7543V24.8892H154.879V30.6388C154.879 32.691 155.817 34.2124 157.975 34.2124C159.213 34.2124 160.239 33.6463 160.965 32.7617H161V34.0001H163.247V24.8892ZM159.868 21.1741V23.2263H161.92V21.1741H159.868ZM158.276 23.2263V21.1741H156.224V23.2263H158.276Z" fill="#0066B3"/>
<path d="M165.57 34.0001H167.941V30.6565C167.941 29.3474 167.941 26.9414 169.869 26.9414C170.294 26.9414 170.718 27.0121 170.931 27.136V24.7477C170.683 24.6769 170.435 24.6769 170.205 24.6769C168.79 24.6769 167.817 26.1099 167.711 26.9591H167.675V24.8892H165.57V34.0001Z" fill="#0066B3"/>
<path d="M177.789 25.0131C177.046 24.8538 176.321 24.6769 175.206 24.6769C173.349 24.6769 171.632 25.5438 171.632 27.5075C171.632 30.798 175.755 29.5774 175.755 31.3641C175.755 32.2487 174.799 32.4787 174.198 32.4787C173.384 32.4787 172.605 32.2487 171.862 31.8772L171.721 33.8232C172.588 34.0532 173.508 34.2124 174.41 34.2124C176.338 34.2124 178.231 33.3632 178.231 31.2403C178.231 27.9498 174.109 28.8697 174.109 27.419C174.109 26.6406 174.87 26.4107 175.507 26.4107C176.374 26.4107 176.904 26.5522 177.63 26.7999L177.789 25.0131Z" fill="#0066B3"/>
<path d="M180.679 31.258C180.679 33.0625 181.705 34.2124 183.562 34.2124C184.27 34.2124 184.818 34.1416 185.314 34.0001L185.243 32.1249C184.995 32.2841 184.588 32.3725 184.164 32.3725C183.261 32.3725 183.049 31.6472 183.049 30.8688V26.6229H185.154V24.8892H183.049V22.3063L180.679 23.067V24.8892H178.927V26.6229H180.679V31.258Z" fill="#0066B3"/>
<path d="M188.28 28.5513C188.386 27.3306 189.058 26.4107 190.385 26.4107C191.712 26.4107 192.243 27.4014 192.313 28.5513H188.28ZM193.906 31.5587C193.021 32.0541 192.03 32.4787 190.88 32.4787C189.412 32.4787 188.386 31.6472 188.28 30.1788H194.578C194.578 26.9945 193.623 24.6769 190.244 24.6769C187.413 24.6769 186.015 26.8529 186.015 29.4889C186.015 32.4787 187.767 34.2124 190.774 34.2124C192.048 34.2124 193.039 33.9647 193.906 33.4871V31.5587Z" fill="#0066B3"/>
<path d="M196.253 34.0001H198.623V29.542C198.623 28.3744 198.995 26.5168 200.711 26.5168C202.232 26.5168 202.25 28.0205 202.25 29.1351V34.0001H204.621V28.2505C204.621 26.1984 203.683 24.6769 201.525 24.6769C200.286 24.6769 199.278 25.0838 198.535 26.1276H198.499V24.8892H196.253V34.0001Z" fill="#0066B3"/>
<path d="M207.758 34.0001H210.128V26.6229H212.198V24.8892H210.128V23.757C210.128 23.0494 210.376 22.3594 211.172 22.3594C211.685 22.3594 211.986 22.554 212.198 22.6778L212.393 20.7141C211.933 20.608 211.26 20.5195 210.659 20.5195C208.784 20.5195 207.758 21.7933 207.758 23.6155V24.8892H206.006V26.6229H207.758V34.0001Z" fill="#0066B3"/>
<path d="M215.271 28.5513C215.377 27.3306 216.049 26.4107 217.376 26.4107C218.703 26.4107 219.233 27.4014 219.304 28.5513H215.271ZM220.896 31.5587C220.012 32.0541 219.021 32.4787 217.871 32.4787C216.403 32.4787 215.377 31.6472 215.271 30.1788H221.569C221.569 26.9945 220.613 24.6769 217.234 24.6769C214.404 24.6769 213.006 26.8529 213.006 29.4889C213.006 32.4787 214.757 34.2124 217.765 34.2124C219.039 34.2124 220.029 33.9647 220.896 33.4871V31.5587Z" fill="#0066B3"/>
<path d="M223.296 34.0001H225.667V20.7318H223.296V34.0001Z" fill="#0066B3"/>
<path d="M229.883 29.4181C229.883 28.1974 230.308 26.5168 231.847 26.5168C233.368 26.5168 233.97 28.1444 233.97 29.4181C233.97 30.7096 233.457 32.3725 231.882 32.3725C230.325 32.3725 229.883 30.6742 229.883 29.4181ZM234.058 34.0001H236.358V20.7318H233.987V25.9507H233.952C233.244 25.0838 232.413 24.6769 231.228 24.6769C228.432 24.6769 227.406 26.906 227.406 29.4181C227.406 31.9126 228.432 34.2124 231.228 34.2124C232.342 34.2124 233.315 33.8586 234.023 32.974H234.058V34.0001Z" fill="#0066B3"/>
<path d="M241.017 29.4181C241.017 28.1444 241.618 26.5168 243.139 26.5168C244.679 26.5168 245.103 28.1974 245.103 29.4181C245.103 30.6742 244.661 32.3725 243.104 32.3725C241.53 32.3725 241.017 30.7096 241.017 29.4181ZM238.628 34.0001H240.928V32.8856H240.963C241.653 33.8586 242.75 34.2124 243.759 34.2124C246.554 34.2124 247.58 31.9126 247.58 29.4181C247.58 26.906 246.554 24.6769 243.759 24.6769C242.52 24.6769 241.689 25.19 241.034 26.0568H240.999V20.7318H238.628V34.0001Z" fill="#0066B3"/>
<path d="M249.319 34.0001H251.69V30.6565C251.69 29.3474 251.69 26.9414 253.618 26.9414C254.043 26.9414 254.468 27.0121 254.68 27.136V24.7477C254.432 24.6769 254.184 24.6769 253.954 24.6769C252.539 24.6769 251.566 26.1099 251.46 26.9591H251.425V24.8892H249.319V34.0001Z" fill="#0066B3"/>
<path d="M264.333 24.8892H261.963V29.3474C261.963 30.515 261.591 32.3725 259.875 32.3725C258.354 32.3725 258.336 30.8688 258.336 29.7543V24.8892H255.965V30.6388C255.965 32.691 256.903 34.2124 259.061 34.2124C260.3 34.2124 261.326 33.6463 262.051 32.7617H262.087V34.0001H264.333V24.8892Z" fill="#0066B3"/>
<path d="M272.725 24.9777C272.07 24.7831 271.38 24.6769 270.425 24.6769C267.577 24.6769 266.02 26.7645 266.02 29.4004C266.02 32.1779 267.524 34.2124 270.513 34.2124C271.486 34.2124 272.194 34.124 272.884 33.9117L272.778 31.948C272.371 32.1249 271.628 32.3725 270.956 32.3725C269.293 32.3725 268.497 31.0811 268.497 29.4004C268.497 27.6844 269.434 26.5168 270.903 26.5168C271.628 26.5168 272.088 26.6583 272.512 26.8529L272.725 24.9777Z" fill="#0066B3"/>
<path d="M274.341 34.0001H276.711V29.5774H276.747L279.789 34.0001H282.797L278.976 28.9582L282.372 24.8892H279.577L276.747 28.5336H276.711V20.7318H274.341V34.0001Z" fill="#0066B3"/>
<path d="M290.368 28.5513C290.474 27.3306 291.147 26.4107 292.474 26.4107C293.8 26.4107 294.331 27.4014 294.402 28.5513H290.368ZM295.994 31.5587C295.11 32.0541 294.119 32.4787 292.969 32.4787C291.501 32.4787 290.474 31.6472 290.368 30.1788H296.666C296.666 26.9945 295.711 24.6769 292.332 24.6769C289.501 24.6769 288.104 26.8529 288.104 29.4889C288.104 32.4787 289.855 34.2124 292.863 34.2124C294.137 34.2124 295.127 33.9647 295.994 33.4871V31.5587Z" fill="#0066B3"/>
<path d="M308.354 21.9525C307.293 21.6341 306.161 21.4395 304.728 21.4395C300.535 21.4395 297.952 23.8101 297.952 28.0382C297.952 32.2133 300.729 34.2124 304.728 34.2124C306.054 34.2124 307.417 33.9293 308.726 33.5755V26.9237H303.737V28.8697H306.355V32.0895C305.931 32.1956 305.4 32.2664 304.728 32.2664C302.092 32.2664 300.535 30.3734 300.535 27.8613C300.535 25.3315 302.127 23.3855 305.011 23.3855C306.001 23.3855 307.24 23.5978 308.195 24.0401L308.354 21.9525Z" fill="#0066B3"/>
</svg>
