<svg width="281" height="36" viewBox="0 0 281 36" fill="none" xmlns="http://www.w3.org/2000/svg">
<path d="M29.9448 28.3379C29.4425 30.9714 29.0168 33.2077 28.8517 34.0763H48.3897V28.3379H29.9448ZM0.000976562 28.3901V34.1285H19.4004L18.1059 28.3901H0.000976562Z" fill="#FF6600"/>
<path d="M9.53272 15.233L8.12077 9.29672H20.1678L24.0692 26.3373H24.2357L26.6936 15.4213C27.9321 10.465 28.4 9.29672 35.3799 9.29672H40.4002C40.4002 9.29672 39.386 13.8654 38.124 18.8231C37.6437 20.7144 33.4519 20.4903 33.6611 18.7241C33.6831 18.54 33.8813 17.2109 34.0382 16.2652C34.2666 14.9045 32.6771 14.7341 32.3909 16.0811C32.1872 17.0459 31.2666 21.8345 30.4065 26.3373H48.3902V1.86914H0V26.3373H17.5613L15.0594 15.2413L9.53272 15.233V15.233Z" fill="#0066B3"/>
<path d="M65.3005 15.3992H68.3434L72.5008 3.0508H70.0417L66.9104 12.7455H66.875L63.7083 3.0508H61.0547L65.3005 15.3992Z" fill="#0066B3"/>
<path d="M72.1701 10.9056C72.1701 13.5239 73.9215 15.6114 76.929 15.6114C79.9541 15.6114 81.7055 13.5239 81.7055 10.9056C81.7055 7.89814 79.6357 6.07597 76.929 6.07597C74.2399 6.07597 72.1701 7.89814 72.1701 10.9056ZM74.6468 10.6226C74.6468 9.26036 75.3898 7.91584 76.929 7.91584C78.4858 7.91584 79.2288 9.22497 79.2288 10.6226C79.2288 12.144 78.7511 13.7716 76.929 13.7716C75.1245 13.7716 74.6468 12.1263 74.6468 10.6226Z" fill="#0066B3"/>
<path d="M83.4451 15.3992H85.8157V2.13086H83.4451V15.3992Z" fill="#0066B3"/>
<path d="M88.1919 15.3992H90.5625V10.9764H90.5979L93.6408 15.3992H96.6483L92.827 10.3572L96.2237 6.28826H93.4285L90.5979 9.93262H90.5625V2.13086H88.1919V15.3992Z" fill="#0066B3"/>
<path d="M103.365 6.4121C102.622 6.25288 101.897 6.07597 100.782 6.07597C98.9245 6.07597 97.2084 6.94283 97.2084 8.90653C97.2084 12.1971 101.33 10.9764 101.33 12.7632C101.33 13.6477 100.375 13.8777 99.7736 13.8777C98.9598 13.8777 98.1814 13.6477 97.4384 13.2762L97.2969 15.2222C98.1637 15.4522 99.0837 15.6114 99.9859 15.6114C101.914 15.6114 103.807 14.7623 103.807 12.6393C103.807 9.34881 99.6852 10.2687 99.6852 8.81808C99.6852 8.03967 100.446 7.80969 101.083 7.80969C101.95 7.80969 102.48 7.95122 103.206 8.19889L103.365 6.4121Z" fill="#0066B3"/>
<path d="M107.864 10.8172C107.864 9.54341 108.466 7.91584 109.987 7.91584C111.526 7.91584 111.951 9.59649 111.951 10.8172C111.951 12.0732 111.509 13.7716 109.952 13.7716C108.377 13.7716 107.864 12.1086 107.864 10.8172ZM105.476 15.3992H107.776V14.2846H107.811C108.501 15.2576 109.598 15.6114 110.606 15.6114C113.402 15.6114 114.428 13.3116 114.428 10.8172C114.428 8.30504 113.402 6.07597 110.606 6.07597C109.368 6.07597 108.537 6.58901 107.882 7.45587H107.847V2.13086H105.476V15.3992Z" fill="#0066B3"/>
<path d="M116.592 8.80039C117.388 8.19889 118.396 7.80969 119.405 7.80969C120.802 7.80969 121.457 8.30504 121.457 9.7734H120.148C119.157 9.7734 117.989 9.86185 117.087 10.3041C116.185 10.7464 115.53 11.5425 115.53 12.9047C115.53 14.6384 117.105 15.6114 118.715 15.6114C119.794 15.6114 120.979 15.0453 121.528 14.0369H121.563C121.581 14.32 121.581 14.9215 121.669 15.3992H123.757C123.704 14.6915 123.668 14.0546 123.651 13.3647C123.633 12.6924 123.615 12.0025 123.615 11.0825V9.91492C123.615 7.22588 122.465 6.07597 119.688 6.07597C118.679 6.07597 117.441 6.34133 116.521 6.76592L116.592 8.80039ZM117.795 12.7632C117.795 11.3656 119.369 11.1887 120.431 11.1887H121.457C121.457 11.8963 121.351 12.5509 120.962 13.0639C120.59 13.5593 120.024 13.8777 119.299 13.8777C118.449 13.8777 117.795 13.5416 117.795 12.7632Z" fill="#0066B3"/>
<path d="M125.768 15.3992H128.138V10.941C128.138 9.7734 128.51 7.91584 130.226 7.91584C131.747 7.91584 131.765 9.41958 131.765 10.5341V15.3992H134.135V9.64956C134.135 7.5974 133.198 6.07597 131.04 6.07597C129.801 6.07597 128.793 6.48286 128.05 7.52663H128.014V6.28826H125.768V15.3992Z" fill="#0066B3"/>
<path d="M136.459 15.3992H138.829V10.9764H138.865L141.908 15.3992H144.915L141.094 10.3572L144.491 6.28826H141.695L138.865 9.93262H138.829V2.13086H136.459V15.3992Z" fill="#0066B3"/>
<path d="M62.3105 33.8698H64.6811V23.7152L64.7165 23.6798L68.0424 33.8698H70.413L73.739 23.6798H73.7743V33.8698H76.1449V21.5215H72.1822L69.2454 30.8801H69.2101L66.2733 21.5215H62.3105V33.8698Z" fill="#0066B3"/>
<path d="M78.6807 33.8698H81.0513V24.759H78.6807V33.8698ZM78.6807 23.096H81.0513V20.8315H78.6807V23.096Z" fill="#0066B3"/>
<path d="M84.1529 31.1277C84.1529 32.9322 85.179 34.0821 87.0366 34.0821C87.7442 34.0821 88.2926 34.0114 88.788 33.8698L88.7172 31.9946C88.4695 32.1538 88.0626 32.2423 87.638 32.2423C86.7358 32.2423 86.5235 31.5169 86.5235 30.7385V26.4927H88.6287V24.759H86.5235V22.1761L84.1529 22.9368V24.759H82.4015V26.4927H84.1529V31.1277Z" fill="#0066B3"/>
<path d="M90.852 31.1277C90.852 32.9322 91.8781 34.0821 93.7357 34.0821C94.4433 34.0821 94.9917 34.0114 95.4871 33.8698L95.4163 31.9946C95.1686 32.1538 94.7617 32.2423 94.3372 32.2423C93.4349 32.2423 93.2226 31.5169 93.2226 30.7385V26.4927H95.3279V24.759H93.2226V22.1761L90.852 22.9368V24.759H89.1006V26.4927H90.852V31.1277Z" fill="#0066B3"/>
<path d="M98.8249 33.8698H101.532L103.478 26.9173H103.513L105.494 33.8698H108.29L111.085 24.759H108.82L106.927 31.4992H106.892L104.911 24.759H102.151L100.311 31.4992H100.276L98.2588 24.759H95.7466L98.8249 33.8698Z" fill="#0066B3"/>
<path d="M113.998 28.421C114.104 27.2003 114.776 26.2804 116.103 26.2804C117.43 26.2804 117.961 27.2711 118.032 28.421H113.998ZM119.624 31.4285C118.739 31.9238 117.748 32.3484 116.599 32.3484C115.13 32.3484 114.104 31.5169 113.998 30.0486H120.296C120.296 26.8642 119.341 24.5467 115.962 24.5467C113.131 24.5467 111.734 26.7227 111.734 29.3586C111.734 32.3484 113.485 34.0821 116.492 34.0821C117.766 34.0821 118.757 33.8345 119.624 33.3568V31.4285Z" fill="#0066B3"/>
<path d="M122.024 33.8698H124.394V24.759H122.024V33.8698ZM122.024 23.096H124.394V20.8315H122.024V23.096Z" fill="#0066B3"/>
<path d="M128.611 29.2879C128.611 28.0672 129.035 26.3865 130.574 26.3865C132.096 26.3865 132.697 28.0141 132.697 29.2879C132.697 30.5793 132.184 32.2423 130.61 32.2423C129.053 32.2423 128.611 30.5439 128.611 29.2879ZM132.786 33.8698H135.085V20.6016H132.715V25.8204H132.679C131.972 24.9536 131.14 24.5467 129.955 24.5467C127.16 24.5467 126.134 26.7757 126.134 29.2879C126.134 31.7823 127.16 34.0821 129.955 34.0821C131.07 34.0821 132.043 33.7283 132.75 32.8438H132.786V33.8698Z" fill="#0066B3"/>
<path d="M137.833 27.2711C138.629 26.6696 139.638 26.2804 140.646 26.2804C142.044 26.2804 142.698 26.7757 142.698 28.2441H141.389C140.399 28.2441 139.231 28.3326 138.329 28.7748C137.426 29.2171 136.772 30.0132 136.772 31.3754C136.772 33.1091 138.346 34.0821 139.956 34.0821C141.035 34.0821 142.221 33.516 142.769 32.5076H142.805C142.822 32.7907 142.822 33.3922 142.911 33.8698H144.998C144.945 33.1622 144.91 32.5253 144.892 31.8354C144.874 31.1631 144.857 30.4732 144.857 29.5532V28.3856C144.857 25.6966 143.707 24.5467 140.929 24.5467C139.921 24.5467 138.683 24.812 137.763 25.2366L137.833 27.2711ZM139.036 31.2339C139.036 29.8363 140.611 29.6594 141.672 29.6594H142.698C142.698 30.367 142.592 31.0216 142.203 31.5346C141.832 32.03 141.265 32.3484 140.54 32.3484C139.691 32.3484 139.036 32.0123 139.036 31.2339Z" fill="#0066B3"/>
<path d="M153.437 28.421C153.543 27.2003 154.215 26.2804 155.542 26.2804C156.869 26.2804 157.399 27.2711 157.47 28.421H153.437ZM159.062 31.4285C158.178 31.9238 157.187 32.3484 156.037 32.3484C154.569 32.3484 153.543 31.5169 153.437 30.0486H159.735C159.735 26.8642 158.779 24.5467 155.4 24.5467C152.57 24.5467 151.172 26.7227 151.172 29.3586C151.172 32.3484 152.924 34.0821 155.931 34.0821C157.205 34.0821 158.195 33.8345 159.062 33.3568V31.4285Z" fill="#0066B3"/>
<path d="M171.422 21.8222C170.361 21.5038 169.229 21.3092 167.796 21.3092C163.603 21.3092 161.02 23.6798 161.02 27.908C161.02 32.0831 163.798 34.0821 167.796 34.0821C169.123 34.0821 170.485 33.7991 171.794 33.4453V26.7934H166.805V28.7394H169.423V31.9592C168.999 32.0654 168.468 32.1361 167.796 32.1361C165.16 32.1361 163.603 30.2432 163.603 27.7311C163.603 25.2012 165.195 23.2552 168.079 23.2552C169.07 23.2552 170.308 23.4675 171.263 23.9098L171.422 21.8222Z" fill="#0066B3"/>
</svg>
