<svg width="281" height="32" viewBox="0 0 281 32" fill="none" xmlns="http://www.w3.org/2000/svg">
<g clip-path="url(#clip0)">
<path d="M29.9458 26.3398C29.4435 28.9733 29.0178 31.2096 28.8527 32.0783H48.3907V26.3398H29.9458ZM0.00195312 26.3921V32.1305H19.4014L18.1069 26.3921H0.00195312Z" fill="#E05F0C"/>
<path d="M9.53272 13.235L8.12078 7.29867H20.1678L24.0692 24.3392H24.2357L26.6936 13.4233C27.9321 8.46696 28.4 7.29867 35.3799 7.29867H40.4002C40.4002 7.29867 39.386 11.8674 38.124 16.825C37.6437 18.7163 33.4519 18.4923 33.6611 16.7261C33.6831 16.5419 33.8813 15.2128 34.0382 14.2672C34.2666 12.9065 32.6771 12.736 32.3909 14.083C32.1872 15.0479 31.2666 19.8365 30.4065 24.3392H48.3902V-0.128906H0V24.3392H17.5613L15.0594 13.2432L9.53272 13.235V13.235Z" fill="#0066B3"/>
<path d="M64.5754 2.99621H65.3892C66.6275 2.99621 68.0074 3.12005 68.0074 4.6061C68.0074 6.14522 66.6099 6.32213 65.3892 6.32213H64.5754V2.99621ZM62.0986 13.3986H64.5754V8.26815H65.3715C66.4153 8.26815 66.7337 8.62197 67.0875 9.5419L68.5736 13.3986H71.3334L69.352 8.5689C69.1043 8.02047 68.7151 7.34821 68.0428 7.29514V7.25976C69.6173 7.04746 70.5903 5.84447 70.5903 4.39381C70.5903 0.961742 67.4236 1.0502 64.77 1.0502H62.0986V13.3986Z" fill="#0066B3"/>
<path d="M73.2144 6.79979C74.0105 6.19829 75.0189 5.80909 76.0273 5.80909C77.4249 5.80909 78.0795 6.30444 78.0795 7.7728H76.7703C75.7796 7.7728 74.612 7.86125 73.7098 8.30353C72.8075 8.74581 72.153 9.5419 72.153 10.9041C72.153 12.6378 73.7275 13.6108 75.3373 13.6108C76.4165 13.6108 77.6018 13.0447 78.1502 12.0363H78.1856C78.2033 12.3194 78.2033 12.9209 78.2918 13.3986H80.3793C80.3262 12.6909 80.2908 12.054 80.2732 11.3641C80.2555 10.6918 80.2378 10.0019 80.2378 9.08194V7.91433C80.2378 5.22529 79.0878 4.07537 76.3104 4.07537C75.302 4.07537 74.0636 4.34073 73.1437 4.76532L73.2144 6.79979ZM74.4174 10.7626C74.4174 9.36499 75.9919 9.18808 77.0534 9.18808H78.0795C78.0795 9.89572 77.9733 10.5503 77.5841 11.0633C77.2126 11.5587 76.6465 11.8771 75.9212 11.8771C75.072 11.8771 74.4174 11.541 74.4174 10.7626Z" fill="#0066B3"/>
<path d="M82.4432 13.3986H84.8138V4.28766H82.4432V13.3986ZM82.4432 2.6247H84.8138V0.360245H82.4432V2.6247Z" fill="#0066B3"/>
<path d="M88.0039 13.3986H90.3745V6.02138H92.4443V4.28766H90.3745V3.15543C90.3745 2.44779 90.6221 1.75784 91.4182 1.75784C91.9313 1.75784 92.232 1.95244 92.4443 2.07628L92.6389 0.11257C92.179 0.00642401 91.5067 -0.0820312 90.9052 -0.0820312C89.0299 -0.0820312 88.0039 1.19172 88.0039 3.0139V4.28766H86.2524V6.02138H88.0039V13.3986Z" fill="#0066B3"/>
<path d="M94.392 13.3986H96.7626V6.02138H98.8324V4.28766H96.7626V3.15543C96.7626 2.44779 97.0103 1.75784 97.8064 1.75784C98.3194 1.75784 98.6202 1.95244 98.8324 2.07628L99.027 0.11257C98.5671 0.00642401 97.8948 -0.0820312 97.2933 -0.0820312C95.4181 -0.0820312 94.392 1.19172 94.392 3.0139V4.28766H92.6406V6.02138H94.392V13.3986Z" fill="#0066B3"/>
<path d="M101.905 7.94971C102.011 6.72903 102.683 5.80909 104.01 5.80909C105.337 5.80909 105.868 6.79979 105.938 7.94971H101.905ZM107.531 10.9572C106.646 11.4525 105.655 11.8771 104.505 11.8771C103.037 11.8771 102.011 11.0456 101.905 9.57729H108.203C108.203 6.3929 107.248 4.07537 103.869 4.07537C101.038 4.07537 99.6404 6.25137 99.6404 8.88733C99.6404 11.8771 101.392 13.6108 104.399 13.6108C105.673 13.6108 106.664 13.3632 107.531 12.8855V10.9572Z" fill="#0066B3"/>
<path d="M109.931 13.3986H112.301V4.28766H109.931V13.3986ZM109.931 2.6247H112.301V0.360245H109.931V2.6247Z" fill="#0066B3"/>
<path d="M120.197 4.4115C119.454 4.25228 118.729 4.07537 117.614 4.07537C115.757 4.07537 114.041 4.94223 114.041 6.90594C114.041 10.1965 118.163 8.97579 118.163 10.7626C118.163 11.6471 117.207 11.8771 116.606 11.8771C115.792 11.8771 115.014 11.6471 114.271 11.2756L114.129 13.2216C114.996 13.4516 115.916 13.6108 116.818 13.6108C118.746 13.6108 120.639 12.7617 120.639 10.6387C120.639 7.34821 116.517 8.26815 116.517 6.81748C116.517 6.03907 117.278 5.80909 117.915 5.80909C118.782 5.80909 119.313 5.95062 120.038 6.19829L120.197 4.4115Z" fill="#0066B3"/>
<path d="M123.989 7.94971C124.095 6.72903 124.767 5.80909 126.094 5.80909C127.421 5.80909 127.952 6.79979 128.023 7.94971H123.989ZM129.615 10.9572C128.73 11.4525 127.739 11.8771 126.59 11.8771C125.121 11.8771 124.095 11.0456 123.989 9.57729H130.287C130.287 6.3929 129.332 4.07537 125.953 4.07537C123.122 4.07537 121.725 6.25137 121.725 8.88733C121.725 11.8771 123.476 13.6108 126.483 13.6108C127.757 13.6108 128.748 13.3632 129.615 12.8855V10.9572Z" fill="#0066B3"/>
<path d="M131.962 13.3986H134.332V8.94041C134.332 7.7728 134.704 5.91524 136.42 5.91524C137.941 5.91524 137.959 7.41898 137.959 8.53351V13.3986H140.33V7.64896C140.33 5.5968 139.392 4.07537 137.234 4.07537C135.995 4.07537 134.987 4.48226 134.244 5.52603H134.208V4.28766H131.962V13.3986Z" fill="#0066B3"/>
<path d="M144.988 8.81657C144.988 7.54281 145.59 5.91524 147.111 5.91524C148.65 5.91524 149.075 7.59589 149.075 8.81657C149.075 10.0726 148.632 11.771 147.076 11.771C145.501 11.771 144.988 10.108 144.988 8.81657ZM142.6 13.3986H144.9V12.284H144.935C145.625 13.257 146.722 13.6108 147.73 13.6108C150.525 13.6108 151.552 11.311 151.552 8.81657C151.552 6.30444 150.525 4.07537 147.73 4.07537C146.492 4.07537 145.66 4.58841 145.006 5.45527H144.97V0.130261H142.6V13.3986Z" fill="#0066B3"/>
<path d="M153.716 6.79979C154.512 6.19829 155.52 5.80909 156.529 5.80909C157.926 5.80909 158.581 6.30444 158.581 7.7728H157.272C156.281 7.7728 155.113 7.86125 154.211 8.30353C153.309 8.74581 152.654 9.5419 152.654 10.9041C152.654 12.6378 154.229 13.6108 155.839 13.6108C156.918 13.6108 158.103 13.0447 158.651 12.0363H158.687C158.705 12.3194 158.705 12.9209 158.793 13.3986H160.881C160.827 12.6909 160.792 12.054 160.774 11.3641C160.757 10.6918 160.739 10.0019 160.739 9.08194V7.91433C160.739 5.22529 159.589 4.07537 156.812 4.07537C155.803 4.07537 154.565 4.34073 153.645 4.76532L153.716 6.79979ZM154.919 10.7626C154.919 9.36499 156.493 9.18808 157.555 9.18808H158.581C158.581 9.89572 158.475 10.5503 158.085 11.0633C157.714 11.5587 157.148 11.8771 156.422 11.8771C155.573 11.8771 154.919 11.541 154.919 10.7626Z" fill="#0066B3"/>
<path d="M162.891 13.3986H165.262V8.94041C165.262 7.7728 165.633 5.91524 167.349 5.91524C168.871 5.91524 168.889 7.41898 168.889 8.53351V13.3986H171.259V7.64896C171.259 5.5968 170.322 4.07537 168.163 4.07537C166.925 4.07537 165.917 4.48226 165.173 5.52603H165.138V4.28766H162.891V13.3986Z" fill="#0066B3"/>
<path d="M173.583 13.3986H175.953V8.97579H175.989L179.031 13.3986H182.039L178.218 8.3566L181.614 4.28766H178.819L175.989 7.93202H175.953V0.130261H173.583V13.3986Z" fill="#0066B3"/>
<path d="M64.3275 31.8699H67.5296L69.7233 21.9982H69.7587L71.9878 31.8699H75.1722L78.3919 19.5215H75.9859L73.6684 29.3931H73.633L71.457 19.5215H68.0957L65.9905 29.3931H65.9551L63.6553 19.5215H61.0547L64.3275 31.8699Z" fill="#0066B3"/>
<path d="M80.9823 26.421C81.0884 25.2003 81.7607 24.2804 83.0875 24.2804C84.4143 24.2804 84.9451 25.2711 85.0158 26.421H80.9823ZM86.608 29.4285C85.7235 29.9238 84.7328 30.3484 83.5829 30.3484C82.1145 30.3484 81.0884 29.5169 80.9823 28.0486H87.2803C87.2803 24.8642 86.325 22.5467 82.946 22.5467C80.1154 22.5467 78.7178 24.7227 78.7178 27.3586C78.7178 30.3484 80.4692 32.0821 83.4767 32.0821C84.7505 32.0821 85.7412 31.8345 86.608 31.3568V29.4285Z" fill="#0066B3"/>
<path d="M89.0081 31.8699H91.3787V28.5262C91.3787 27.2171 91.3787 24.8111 93.307 24.8111C93.7316 24.8111 94.1562 24.8819 94.3685 25.0057V22.6174C94.1208 22.5467 93.8731 22.5467 93.6431 22.5467C92.2279 22.5467 91.2548 23.9796 91.1487 24.8288H91.1133V22.759H89.0081V31.8699Z" fill="#0066B3"/>
<path d="M95.7072 31.8699H98.0778V28.5262C98.0778 27.2171 98.0778 24.8111 100.006 24.8111C100.431 24.8111 100.855 24.8819 101.068 25.0057V22.6174C100.82 22.5467 100.572 22.5467 100.342 22.5467C98.927 22.5467 97.954 23.9796 97.8478 24.8288H97.8124V22.759H95.7072V31.8699Z" fill="#0066B3"/>
<path d="M102.831 25.2711C103.627 24.6696 104.635 24.2804 105.644 24.2804C107.041 24.2804 107.696 24.7757 107.696 26.2441H106.387C105.396 26.2441 104.228 26.3326 103.326 26.7748C102.424 27.2171 101.769 28.0132 101.769 29.3754C101.769 31.1091 103.344 32.0821 104.954 32.0821C106.033 32.0821 107.218 31.516 107.767 30.5076H107.802C107.82 30.7907 107.82 31.3922 107.908 31.8699H109.996C109.943 31.1622 109.907 30.5253 109.89 29.8354C109.872 29.1631 109.854 28.4732 109.854 27.5532V26.3856C109.854 23.6966 108.704 22.5467 105.927 22.5467C104.918 22.5467 103.68 22.812 102.76 23.2366L102.831 25.2711ZM104.034 29.2339C104.034 27.8363 105.608 27.6594 106.67 27.6594H107.696C107.696 28.367 107.59 29.0216 107.201 29.5346C106.829 30.03 106.263 30.3484 105.538 30.3484C104.688 30.3484 104.034 30.0123 104.034 29.2339Z" fill="#0066B3"/>
<path d="M112.785 29.1277C112.785 30.9322 113.811 32.0821 115.669 32.0821C116.376 32.0821 116.925 32.0114 117.42 31.8699L117.349 29.9946C117.102 30.1538 116.695 30.2423 116.27 30.2423C115.368 30.2423 115.156 29.5169 115.156 28.7385V24.4927H117.261V22.759H115.156V20.1761L112.785 20.9368V22.759H111.034V24.4927H112.785V29.1277Z" fill="#0066B3"/>
<path d="M119.183 25.2711C119.979 24.6696 120.988 24.2804 121.996 24.2804C123.394 24.2804 124.048 24.7757 124.048 26.2441H122.739C121.749 26.2441 120.581 26.3326 119.679 26.7748C118.776 27.2171 118.122 28.0132 118.122 29.3754C118.122 31.1091 119.696 32.0821 121.306 32.0821C122.385 32.0821 123.571 31.516 124.119 30.5076H124.155C124.172 30.7907 124.172 31.3922 124.261 31.8699H126.348C126.295 31.1622 126.26 30.5253 126.242 29.8354C126.224 29.1631 126.207 28.4732 126.207 27.5532V26.3856C126.207 23.6966 125.057 22.5467 122.279 22.5467C121.271 22.5467 120.033 22.812 119.113 23.2366L119.183 25.2711ZM120.386 29.2339C120.386 27.8363 121.961 27.6594 123.022 27.6594H124.048C124.048 28.367 123.942 29.0216 123.553 29.5346C123.182 30.03 122.615 30.3484 121.89 30.3484C121.041 30.3484 120.386 30.0123 120.386 29.2339Z" fill="#0066B3"/>
<path d="M128.412 31.8699H130.783V18.6016H128.412V31.8699Z" fill="#0066B3"/>
<path d="M137.157 28.084V26.138H132.504V28.084H137.157Z" fill="#0066B3"/>
<path d="M139.033 31.8699H146.304V29.9238H141.509V19.5215H139.033V31.8699Z" fill="#0066B3"/>
<path d="M147.967 25.2711C148.763 24.6696 149.771 24.2804 150.779 24.2804C152.177 24.2804 152.832 24.7757 152.832 26.2441H151.522C150.532 26.2441 149.364 26.3326 148.462 26.7748C147.56 27.2171 146.905 28.0132 146.905 29.3754C146.905 31.1091 148.48 32.0821 150.09 32.0821C151.169 32.0821 152.354 31.516 152.902 30.5076H152.938C152.955 30.7907 152.955 31.3922 153.044 31.8699H155.131C155.078 31.1622 155.043 30.5253 155.025 29.8354C155.008 29.1631 154.99 28.4732 154.99 27.5532V26.3856C154.99 23.6966 153.84 22.5467 151.063 22.5467C150.054 22.5467 148.816 22.812 147.896 23.2366L147.967 25.2711ZM149.17 29.2339C149.17 27.8363 150.744 27.6594 151.806 27.6594H152.832C152.832 28.367 152.725 29.0216 152.336 29.5346C151.965 30.03 151.399 30.3484 150.673 30.3484C149.824 30.3484 149.17 30.0123 149.17 29.2339Z" fill="#0066B3"/>
<path d="M157.142 31.8699H159.513V27.4117C159.513 26.2441 159.884 24.3865 161.6 24.3865C163.122 24.3865 163.14 25.8903 163.14 27.0048V31.8699H165.51V26.1203C165.51 24.0681 164.573 22.5467 162.414 22.5467C161.176 22.5467 160.167 22.9536 159.424 23.9973H159.389V22.759H157.142V31.8699Z" fill="#0066B3"/>
<path d="M169.673 27.2879C169.673 26.0672 170.098 24.3865 171.637 24.3865C173.159 24.3865 173.76 26.0141 173.76 27.2879C173.76 28.5793 173.247 30.2423 171.672 30.2423C170.116 30.2423 169.673 28.5439 169.673 27.2879ZM173.848 31.8699H176.148V18.6016H173.778V23.8204H173.742C173.035 22.9536 172.203 22.5467 171.018 22.5467C168.223 22.5467 167.197 24.7757 167.197 27.2879C167.197 29.7823 168.223 32.0821 171.018 32.0821C172.132 32.0821 173.105 31.7283 173.813 30.8438H173.848V31.8699Z" fill="#0066B3"/>
<path d="M180.099 26.421C180.205 25.2003 180.878 24.2804 182.204 24.2804C183.531 24.2804 184.062 25.2711 184.133 26.421H180.099ZM185.725 29.4285C184.84 29.9238 183.85 30.3484 182.7 30.3484C181.231 30.3484 180.205 29.5169 180.099 28.0486H186.397C186.397 24.8642 185.442 22.5467 182.063 22.5467C179.232 22.5467 177.835 24.7227 177.835 27.3586C177.835 30.3484 179.586 32.0821 182.594 32.0821C183.867 32.0821 184.858 31.8345 185.725 31.3568V29.4285Z" fill="#0066B3"/>
<path d="M194.193 22.8474C193.538 22.6528 192.849 22.5467 191.893 22.5467C189.045 22.5467 187.488 24.6342 187.488 27.2702C187.488 30.0477 188.992 32.0821 191.982 32.0821C192.955 32.0821 193.662 31.9937 194.352 31.7814L194.246 29.8177C193.839 29.9946 193.096 30.2423 192.424 30.2423C190.761 30.2423 189.965 28.9508 189.965 27.2702C189.965 25.5541 190.903 24.3865 192.371 24.3865C193.096 24.3865 193.556 24.5281 193.981 24.7227L194.193 22.8474Z" fill="#0066B3"/>
<path d="M195.809 31.8699H198.179V27.4471H198.215L201.258 31.8699H204.265L200.444 26.8279L203.841 22.759H201.045L198.215 26.4033H198.179V18.6016H195.809V31.8699Z" fill="#0066B3"/>
<path d="M211.837 26.421C211.943 25.2003 212.615 24.2804 213.942 24.2804C215.269 24.2804 215.799 25.2711 215.87 26.421H211.837ZM217.462 29.4285C216.578 29.9238 215.587 30.3484 214.437 30.3484C212.969 30.3484 211.943 29.5169 211.837 28.0486H218.135C218.135 24.8642 217.179 22.5467 213.8 22.5467C210.97 22.5467 209.572 24.7227 209.572 27.3586C209.572 30.3484 211.324 32.0821 214.331 32.0821C215.605 32.0821 216.596 31.8345 217.462 31.3568V29.4285Z" fill="#0066B3"/>
<path d="M229.823 19.8222C228.761 19.5038 227.629 19.3092 226.196 19.3092C222.003 19.3092 219.42 21.6798 219.42 25.908C219.42 30.0831 222.198 32.0821 226.196 32.0821C227.523 32.0821 228.885 31.7991 230.194 31.4453V24.7934H225.205V26.7394H227.823V29.9592C227.399 30.0654 226.868 30.1361 226.196 30.1361C223.56 30.1361 222.003 28.2432 222.003 25.7311C222.003 23.2012 223.595 21.2552 226.479 21.2552C227.47 21.2552 228.708 21.4675 229.663 21.9098L229.823 19.8222Z" fill="#0066B3"/>
</g>
<defs>
<clipPath id="clip0">
<rect width="280.715" height="32" fill="white"/>
</clipPath>
</defs>
</svg>
