<svg width="281" height="36" viewBox="0 0 281 36" fill="none" xmlns="http://www.w3.org/2000/svg">
<path d="M29.9448 28.3379C29.4425 30.9714 29.0168 33.2077 28.8517 34.0763H48.3897V28.3379H29.9448ZM0.000976562 28.3901V34.1286H19.4004L18.1059 28.3901H0.000976562Z" fill="#FF6600"/>
<path d="M9.53272 15.233L8.12077 9.29672H20.1678L24.0692 26.3373H24.2357L26.6936 15.4213C27.9321 10.465 28.4 9.29672 35.3799 9.29672H40.4002C40.4002 9.29672 39.386 13.8654 38.124 18.8231C37.6437 20.7144 33.4519 20.4903 33.6611 18.7241C33.6831 18.54 33.8813 17.2109 34.0382 16.2652C34.2666 14.9045 32.6771 14.7341 32.3909 16.081C32.1872 17.0459 31.2666 21.8345 30.4065 26.3373H48.3902V1.86914H0V26.3373H17.5613L15.0594 15.2413L9.53272 15.233V15.233Z" fill="#0066B3"/>
<path d="M65.3005 15.3992H68.3434L72.5008 3.0508H70.0417L66.9104 12.7455H66.875L63.7083 3.0508H61.0547L65.3005 15.3992Z" fill="#0066B3"/>
<path d="M72.1701 10.9056C72.1701 13.5239 73.9215 15.6114 76.929 15.6114C79.9541 15.6114 81.7055 13.5239 81.7055 10.9056C81.7055 7.89814 79.6357 6.07597 76.929 6.07597C74.2399 6.07597 72.1701 7.89814 72.1701 10.9056ZM74.6468 10.6226C74.6468 9.26036 75.3898 7.91584 76.929 7.91584C78.4858 7.91584 79.2288 9.22497 79.2288 10.6226C79.2288 12.144 78.7511 13.7716 76.929 13.7716C75.1245 13.7716 74.6468 12.1263 74.6468 10.6226Z" fill="#0066B3"/>
<path d="M83.4451 15.3992H85.8157V2.13086H83.4451V15.3992Z" fill="#0066B3"/>
<path d="M88.1919 15.3992H90.5625V10.9764H90.5979L93.6408 15.3992H96.6483L92.827 10.3572L96.2237 6.28826H93.4285L90.5979 9.93262H90.5625V2.13086H88.1919V15.3992Z" fill="#0066B3"/>
<path d="M103.365 6.4121C102.622 6.25288 101.897 6.07597 100.782 6.07597C98.9245 6.07597 97.2084 6.94283 97.2084 8.90653C97.2084 12.1971 101.33 10.9764 101.33 12.7632C101.33 13.6477 100.375 13.8777 99.7736 13.8777C98.9598 13.8777 98.1814 13.6477 97.4384 13.2762L97.2969 15.2222C98.1638 15.4522 99.0837 15.6114 99.9859 15.6114C101.914 15.6114 103.807 14.7623 103.807 12.6393C103.807 9.34881 99.6852 10.2687 99.6852 8.81808C99.6852 8.03967 100.446 7.80969 101.083 7.80969C101.95 7.80969 102.48 7.95122 103.206 8.19889L103.365 6.4121Z" fill="#0066B3"/>
<path d="M107.864 10.8172C107.864 9.54341 108.466 7.91584 109.987 7.91584C111.526 7.91584 111.951 9.59649 111.951 10.8172C111.951 12.0732 111.509 13.7716 109.952 13.7716C108.377 13.7716 107.864 12.1086 107.864 10.8172ZM105.476 15.3992H107.776V14.2846H107.811C108.501 15.2576 109.598 15.6114 110.607 15.6114C113.402 15.6114 114.428 13.3116 114.428 10.8172C114.428 8.30504 113.402 6.07597 110.607 6.07597C109.368 6.07597 108.537 6.58901 107.882 7.45587H107.847V2.13086H105.476V15.3992Z" fill="#0066B3"/>
<path d="M116.592 8.80039C117.388 8.19889 118.396 7.80969 119.405 7.80969C120.802 7.80969 121.457 8.30504 121.457 9.7734H120.148C119.157 9.7734 117.989 9.86185 117.087 10.3041C116.185 10.7464 115.53 11.5425 115.53 12.9047C115.53 14.6384 117.105 15.6114 118.715 15.6114C119.794 15.6114 120.979 15.0453 121.528 14.0369H121.563C121.581 14.32 121.581 14.9215 121.669 15.3992H123.757C123.704 14.6915 123.668 14.0546 123.651 13.3647C123.633 12.6924 123.615 12.0025 123.615 11.0825V9.91492C123.615 7.22588 122.465 6.07597 119.688 6.07597C118.679 6.07597 117.441 6.34133 116.521 6.76592L116.592 8.80039ZM117.795 12.7632C117.795 11.3656 119.369 11.1887 120.431 11.1887H121.457C121.457 11.8963 121.351 12.5509 120.962 13.0639C120.59 13.5593 120.024 13.8777 119.299 13.8777C118.449 13.8777 117.795 13.5416 117.795 12.7632Z" fill="#0066B3"/>
<path d="M125.768 15.3992H128.138V10.941C128.138 9.7734 128.51 7.91584 130.226 7.91584C131.747 7.91584 131.765 9.41957 131.765 10.5341V15.3992H134.135V9.64956C134.135 7.5974 133.198 6.07597 131.04 6.07597C129.801 6.07597 128.793 6.48286 128.05 7.52663H128.014V6.28826H125.768V15.3992Z" fill="#0066B3"/>
<path d="M136.459 15.3992H138.829V10.9764H138.865L141.908 15.3992H144.915L141.094 10.3572L144.491 6.28826H141.695L138.865 9.93262H138.829V2.13086H136.459V15.3992Z" fill="#0066B3"/>
<path d="M69.1753 21.7515C68.2731 21.4507 67.2824 21.3092 66.2209 21.3092C64.0449 21.3092 61.9043 22.3176 61.9043 25.0774C61.9043 29.164 67.3178 28.191 67.3178 30.5439C67.3178 31.6585 66.0617 32.1361 65.1241 32.1361C64.1511 32.1361 63.1781 31.8354 62.3289 31.3754L62.0989 33.6045C63.3196 33.9052 63.9211 34.0821 65.2656 34.0821C67.76 34.0821 69.9007 33.0561 69.9007 30.3493C69.9007 26.2096 64.4872 27.1119 64.4872 24.9713C64.4872 23.6267 65.584 23.2552 66.4332 23.2552C67.3001 23.2552 68.1669 23.4498 68.9453 23.786L69.1753 21.7515Z" fill="#0066B3"/>
<path d="M80.1201 24.759H77.7495V29.2171C77.7495 30.3847 77.378 32.2423 75.662 32.2423C74.1406 32.2423 74.1229 30.7385 74.1229 29.624V24.759H71.7523V30.5086C71.7523 32.5607 72.6899 34.0821 74.8482 34.0821C76.0866 34.0821 77.1127 33.516 77.838 32.6315H77.8734V33.8699H80.1201V24.759ZM76.7411 21.0438V23.096H78.7933V21.0438H76.7411ZM75.149 23.096V21.0438H73.0968V23.096H75.149Z" fill="#0066B3"/>
<path d="M84.2833 29.2879C84.2833 28.0672 84.7079 26.3865 86.247 26.3865C87.7685 26.3865 88.37 28.0141 88.37 29.2879C88.37 30.5793 87.8569 32.2423 86.2824 32.2423C84.7256 32.2423 84.2833 30.5439 84.2833 29.2879ZM88.4584 33.8699H90.7583V20.6016H88.3877V25.8204H88.3523C87.6446 24.9536 86.8132 24.5467 85.6279 24.5467C82.8327 24.5467 81.8066 26.7757 81.8066 29.2879C81.8066 31.7823 82.8327 34.0821 85.6279 34.0821C86.7424 34.0821 87.7154 33.7283 88.423 32.8438H88.4584V33.8699Z" fill="#0066B3"/>
<path d="M92.9931 33.8699H95.3637V29.4471C95.3637 28.2618 95.5583 26.3865 97.1328 26.3865C98.4951 26.3865 98.4951 27.5895 98.4951 28.4387V33.8699H100.866V29.4471C100.866 28.2618 101.06 26.3865 102.635 26.3865C103.997 26.3865 103.997 27.5895 103.997 28.4387V33.8699H106.368V28.1203C106.368 26.0858 105.731 24.5467 103.484 24.5467C102.369 24.5467 101.184 25.0597 100.636 26.1566C100.123 25.0243 99.2204 24.5467 97.9466 24.5467C97.0621 24.5467 95.9829 24.9182 95.2399 26.0327H95.2045V24.759H92.9931V33.8699Z" fill="#0066B3"/>
<path d="M116.941 24.759H114.57V29.2171C114.57 30.3847 114.199 32.2423 112.483 32.2423C110.961 32.2423 110.944 30.7385 110.944 29.624V24.759H108.573V30.5086C108.573 32.5607 109.511 34.0821 111.669 34.0821C112.907 34.0821 113.934 33.516 114.659 32.6315H114.694V33.8699H116.941V24.759ZM113.562 21.0438V23.096H115.614V21.0438H113.562ZM111.97 23.096V21.0438H109.918V23.096H111.97Z" fill="#0066B3"/>
<path d="M119.211 33.8699H121.582V29.4117C121.582 28.2441 121.953 26.3865 123.669 26.3865C125.191 26.3865 125.209 27.8903 125.209 29.0048V33.8699H127.579V28.1203C127.579 26.0681 126.642 24.5467 124.483 24.5467C123.245 24.5467 122.236 24.9536 121.493 25.9973H121.458V24.759H119.211V33.8699Z" fill="#0066B3"/>
<path d="M135.422 24.8828C134.679 24.7236 133.954 24.5467 132.839 24.5467C130.982 24.5467 129.266 25.4135 129.266 27.3772C129.266 30.6678 133.388 29.4471 133.388 31.2339C133.388 32.1184 132.432 32.3484 131.831 32.3484C131.017 32.3484 130.239 32.1184 129.496 31.7469L129.354 33.6929C130.221 33.9229 131.141 34.0821 132.043 34.0821C133.971 34.0821 135.864 33.233 135.864 31.11C135.864 27.8195 131.742 28.7394 131.742 27.2888C131.742 26.5104 132.503 26.2804 133.14 26.2804C134.007 26.2804 134.538 26.4219 135.263 26.6696L135.422 24.8828Z" fill="#0066B3"/>
<path d="M138.312 31.1277C138.312 32.9322 139.338 34.0821 141.195 34.0821C141.903 34.0821 142.451 34.0114 142.947 33.8699L142.876 31.9946C142.628 32.1538 142.221 32.2423 141.797 32.2423C140.895 32.2423 140.682 31.5169 140.682 30.7385V26.4927H142.788V24.759H140.682V22.1761L138.312 22.9368V24.759H136.56V26.4927H138.312V31.1277Z" fill="#0066B3"/>
<path d="M145.913 28.421C146.019 27.2003 146.691 26.2804 148.018 26.2804C149.345 26.2804 149.876 27.2711 149.947 28.421H145.913ZM151.539 31.4285C150.654 31.9238 149.664 32.3484 148.514 32.3484C147.045 32.3484 146.019 31.5169 145.913 30.0486H152.211C152.211 26.8642 151.256 24.5467 147.877 24.5467C145.046 24.5467 143.649 26.7227 143.649 29.3586C143.649 32.3484 145.4 34.0821 148.407 34.0821C149.681 34.0821 150.672 33.8345 151.539 33.3568V31.4285Z" fill="#0066B3"/>
<path d="M153.939 33.8699H156.309V30.5262C156.309 29.2171 156.309 26.8111 158.238 26.8111C158.662 26.8111 159.087 26.8819 159.299 27.0057V24.6174C159.052 24.5467 158.804 24.5467 158.574 24.5467C157.159 24.5467 156.186 25.9796 156.079 26.8288H156.044V24.759H153.939V33.8699Z" fill="#0066B3"/>
<path d="M160.638 33.8699H163.009V20.6016H160.638V33.8699Z" fill="#0066B3"/>
<path d="M165.809 27.2711C166.605 26.6696 167.614 26.2804 168.622 26.2804C170.02 26.2804 170.674 26.7757 170.674 28.2441H169.365C168.375 28.2441 167.207 28.3326 166.305 28.7748C165.402 29.2171 164.748 30.0132 164.748 31.3754C164.748 33.1091 166.322 34.0821 167.932 34.0821C169.011 34.0821 170.197 33.516 170.745 32.5076H170.781C170.798 32.7907 170.798 33.3922 170.887 33.8699H172.974C172.921 33.1622 172.886 32.5253 172.868 31.8354C172.85 31.1631 172.833 30.4732 172.833 29.5532V28.3856C172.833 25.6966 171.683 24.5467 168.905 24.5467C167.897 24.5467 166.659 24.812 165.739 25.2366L165.809 27.2711ZM167.012 31.2339C167.012 29.8363 168.587 29.6594 169.648 29.6594H170.674C170.674 30.367 170.568 31.0216 170.179 31.5346C169.808 32.03 169.241 32.3484 168.516 32.3484C167.667 32.3484 167.012 32.0123 167.012 31.2339Z" fill="#0066B3"/>
<path d="M174.985 33.8699H177.356V29.4117C177.356 28.2441 177.727 26.3865 179.443 26.3865C180.965 26.3865 180.982 27.8903 180.982 29.0048V33.8699H183.353V28.1203C183.353 26.0681 182.415 24.5467 180.257 24.5467C179.019 24.5467 178.01 24.9536 177.267 25.9973H177.232V24.759H174.985V33.8699Z" fill="#0066B3"/>
<path d="M187.516 29.2879C187.516 28.0672 187.941 26.3865 189.48 26.3865C191.001 26.3865 191.603 28.0141 191.603 29.2879C191.603 30.5793 191.09 32.2423 189.515 32.2423C187.958 32.2423 187.516 30.5439 187.516 29.2879ZM191.691 33.8699H193.991V20.6016H191.62V25.8204H191.585C190.877 24.9536 190.046 24.5467 188.861 24.5467C186.065 24.5467 185.039 26.7757 185.039 29.2879C185.039 31.7823 186.065 34.0821 188.861 34.0821C189.975 34.0821 190.948 33.7283 191.656 32.8438H191.691V33.8699Z" fill="#0066B3"/>
</svg>
